<?xml version="1.0" encoding="UTF-8" standalone="no"?>
<svg xmlns="http://www.w3.org/2000/svg"
     xmlns:xlink="http://www.w3.org/1999/xlink"
     width="1920px" height="1016px" viewBox="0 0 1920 1016">
<title>glps_renderer figure</title>
<desc>
Creator: GL2PS 1.3.8, (C) 1999-2012 C. Geuzaine
For: Octave
CreationDate: Sun Nov  2 18:24:25 2014
</desc>
<defs>
</defs>
<g shape-rendering="crispEdges">
<polygon fill="#ffffff" points="1738.12,904.24 1738.12,76.2 1738.12,904.24"/>
<polygon fill="#ffffff" points="1738.12,76.2 1738.12,76.2 1738.12,904.24"/>
<polygon fill="#ffffff" points="249.844,76.2 1738.12,76.2 249.844,76.2"/>
<polygon fill="#ffffff" points="1738.12,76.2 1738.12,76.2 249.844,76.2"/>
<polygon fill="#ffffff" points="249.844,904.24 1738.12,904.24 249.844,76.2"/>
<polygon fill="#ffffff" points="1738.12,904.24 1738.12,76.2 249.844,76.2"/>
<polyline fill="none" stroke="#000000" stroke-width="0.5" stroke-dasharray="16,0" points="249.844,904.24 1738.12,904.24"/>
<polyline fill="none" stroke="#000000" stroke-width="0.5" stroke-dasharray="16,0" points="249.844,76.2 1738.12,76.2"/>
<polyline fill="none" stroke="#000000" stroke-width="0.5" stroke-dasharray="16,0" points="249.844,76.2 1738.12,76.2"/>
<polyline fill="none" stroke="#000000" stroke-width="0.5" stroke-dasharray="16,0" points="249.844,904.24 1738.12,904.24"/>
<polyline fill="none" stroke="#000000" stroke-width="0.5" stroke-dasharray="16,0" points="249.844,904.24 249.844,76.2"/>
<polyline fill="none" stroke="#000000" stroke-width="0.5" stroke-dasharray="16,0" points="1738.12,904.24 1738.12,76.2"/>
<polyline fill="none" stroke="#000000" stroke-width="0.5" stroke-dasharray="16,0" points="1738.12,904.24 1738.12,76.2"/>
<polyline fill="none" stroke="#000000" stroke-width="0.5" stroke-dasharray="16,0" points="249.844,904.24 249.844,76.2 249.844,76.2"/>
<polyline fill="none" stroke="#000000" stroke-width="0.5" stroke-dasharray="16,0" points="1738.12,76.2 1738.12,76.2"/>
<polyline fill="none" stroke="#000000" stroke-width="0.5" stroke-dasharray="16,0" points="1738.12,904.24 1738.12,904.24"/>
<polyline fill="none" stroke="#000000" stroke-width="0.5" stroke-dasharray="16,0" points="249.844,904.24 249.844,904.24 249.844,889.359"/>
<polyline fill="none" stroke="#000000" stroke-width="0.5" stroke-dasharray="16,0" points="249.844,76.2 249.844,91.0806"/>
<polyline fill="none" stroke="#000000" stroke-width="0.5" stroke-dasharray="16,0" points="547.5,904.24 547.5,889.359"/>
<polyline fill="none" stroke="#000000" stroke-width="0.5" stroke-dasharray="16,0" points="547.5,76.2 547.5,91.0806"/>
<polyline fill="none" stroke="#000000" stroke-width="0.5" stroke-dasharray="16,0" points="845.156,904.24 845.156,889.359"/>
<polyline fill="none" stroke="#000000" stroke-width="0.5" stroke-dasharray="16,0" points="845.156,76.2 845.156,91.0806"/>
<polyline fill="none" stroke="#000000" stroke-width="0.5" stroke-dasharray="16,0" points="1142.34,904.24 1142.34,889.359"/>
<polyline fill="none" stroke="#000000" stroke-width="0.5" stroke-dasharray="16,0" points="1142.34,76.2 1142.34,91.0806"/>
<polyline fill="none" stroke="#000000" stroke-width="0.5" stroke-dasharray="16,0" points="1440.47,904.24 1440.47,889.359"/>
<polyline fill="none" stroke="#000000" stroke-width="0.5" stroke-dasharray="16,0" points="1440.47,76.2 1440.47,91.0806"/>
<polyline fill="none" stroke="#000000" stroke-width="0.5" stroke-dasharray="16,0" points="1738.12,904.24 1738.12,889.359"/>
<polyline fill="none" stroke="#000000" stroke-width="0.5" stroke-dasharray="16,0" points="1738.12,76.2 1738.12,91.0806"/>
<text fill="#000000" x="249.237" y="909.24" font-size="10" text-anchor="middle" baseline-shift="-10" font-family="Helvetica">1.4138e+09</text>
<text fill="#000000" x="547.127" y="909.24" font-size="10" text-anchor="middle" baseline-shift="-10" font-family="Helvetica">1.4139e+09</text>
<text fill="#000000" x="844.655" y="909.24" font-size="10" text-anchor="middle" baseline-shift="-10" font-family="Helvetica">1.414e+09</text>
<text fill="#000000" x="1142.18" y="909.24" font-size="10" text-anchor="middle" baseline-shift="-10" font-family="Helvetica">1.4141e+09</text>
<text fill="#000000" x="1440.07" y="909.24" font-size="10" text-anchor="middle" baseline-shift="-10" font-family="Helvetica">1.4142e+09</text>
<text fill="#000000" x="1737.6" y="909.24" font-size="10" text-anchor="middle" baseline-shift="-10" font-family="Helvetica">1.4143e+09</text>
<polyline fill="none" stroke="#000000" stroke-width="0.5" stroke-dasharray="16,0" points="249.844,904.24 264.844,904.24"/>
<polyline fill="none" stroke="#000000" stroke-width="0.5" stroke-dasharray="16,0" points="1738.12,904.24 1723.12,904.24"/>
<polyline fill="none" stroke="#000000" stroke-width="0.5" stroke-dasharray="16,0" points="249.844,766.233 264.844,766.233"/>
<polyline fill="none" stroke="#000000" stroke-width="0.5" stroke-dasharray="16,0" points="1738.12,766.233 1723.12,766.233"/>
<polyline fill="none" stroke="#000000" stroke-width="0.5" stroke-dasharray="16,0" points="249.844,628.227 264.844,628.227"/>
<polyline fill="none" stroke="#000000" stroke-width="0.5" stroke-dasharray="16,0" points="1738.12,628.227 1723.12,628.227"/>
<polyline fill="none" stroke="#000000" stroke-width="0.5" stroke-dasharray="16,0" points="249.844,490.22 264.844,490.22"/>
<polyline fill="none" stroke="#000000" stroke-width="0.5" stroke-dasharray="16,0" points="1738.12,490.22 1723.12,490.22"/>
<polyline fill="none" stroke="#000000" stroke-width="0.5" stroke-dasharray="16,0" points="249.844,352.213 264.844,352.213"/>
<polyline fill="none" stroke="#000000" stroke-width="0.5" stroke-dasharray="16,0" points="1738.12,352.213 1723.12,352.213"/>
<polyline fill="none" stroke="#000000" stroke-width="0.5" stroke-dasharray="16,0" points="249.844,214.207 264.844,214.207"/>
<polyline fill="none" stroke="#000000" stroke-width="0.5" stroke-dasharray="16,0" points="1738.12,214.207 1723.12,214.207"/>
<polyline fill="none" stroke="#000000" stroke-width="0.5" stroke-dasharray="16,0" points="249.844,76.2 264.844,76.2"/>
<polyline fill="none" stroke="#000000" stroke-width="0.5" stroke-dasharray="16,0" points="1738.12,76.2 1723.12,76.2"/>
<text fill="#000000" x="244.151" y="904.24" font-size="10" text-anchor="end" baseline-shift="-5" font-family="Helvetica">50</text>
<text fill="#000000" x="244.151" y="766.233" font-size="10" text-anchor="end" baseline-shift="-5" font-family="Helvetica">55</text>
<text fill="#000000" x="244.151" y="628.227" font-size="10" text-anchor="end" baseline-shift="-5" font-family="Helvetica">60</text>
<text fill="#000000" x="244.151" y="490.22" font-size="10" text-anchor="end" baseline-shift="-5" font-family="Helvetica">65</text>
<text fill="#000000" x="244.151" y="352.213" font-size="10" text-anchor="end" baseline-shift="-5" font-family="Helvetica">70</text>
<text fill="#000000" x="244.151" y="214.207" font-size="10" text-anchor="end" baseline-shift="-5" font-family="Helvetica">75</text>
<text fill="#000000" x="244.151" y="76.2" font-size="10" text-anchor="end" baseline-shift="-5" font-family="Helvetica">80</text>
<polyline fill="none" stroke="#0000ff" stroke-width="0.5" points="368.438,454.338 368.906,492.98 368.906,470.899 369.375,504.021 369.844,501.26 369.844,476.419 369.844,473.659 369.844,423.977 370.312,470.899 370.312,481.939 370.781,501.26 370.781,484.7 371.25,501.26 371.25,504.021 371.719,470.899 371.719,515.061 371.719,517.821 371.719,479.179 371.719,509.541 372.188,501.26 372.188,446.058 372.656,570.264 372.656,377.055 373.125,341.173 373.125,418.456 373.594,448.818 373.594,481.939 373.594,490.22 373.594,520.581 374.062,490.22 374.062,481.939 374.531,437.777 374.531,517.821 374.531,432.257 375,495.74 375,481.939 375.469,517.821 375.469,440.537 375.938,473.659 375.938,498.5 375.938,509.541 375.938,407.416 376.406,423.977 376.406,335.652 376.875,330.132 376.875,404.656 377.344,418.456 377.344,415.696 377.812,401.896 377.812,451.578 377.812,421.217 377.812,382.575 377.812,410.176 378.281,396.375 378.281,319.092 378.75,374.294 378.75,349.453 379.219,374.294 379.219,382.575 379.688,404.656 379.688,399.135 379.688,432.257 379.688,454.338 380.156,515.061 380.156,517.821 380.156,584.065 380.625,360.494 380.625,371.534 381.094,379.815 381.094,401.896 381.562,379.815 381.562,448.818 382.031,396.375 382.031,374.294 382.031,371.534 382.031,368.774 382.5,429.497 382.5,454.338 382.969,385.335 382.969,371.534 383.438,385.335 383.438,379.815 383.438,352.213 383.906,374.294 383.906,415.696 383.906,393.615 383.906,462.619 384.375,354.973 384.375,457.098 384.844,418.456 384.844,379.815 385.312,426.737 385.312,388.095 385.781,354.973 385.781,382.575 385.781,335.652 385.781,324.612 385.781,396.375 386.25,429.497 386.25,462.619 386.719,435.017 386.719,443.298 387.188,407.416 387.188,448.818 387.656,462.619 387.656,412.936 388.125,462.619 388.125,432.257 388.125,443.298 388.125,415.696 388.594,388.095 388.594,421.217 389.062,437.777 389.062,432.257 389.062,410.176 389.531,435.017 389.531,412.936 390,426.737 390,457.098 390,479.179 390,457.098 390.469,479.179 390.469,393.615 390.938,407.416 390.938,421.217 391.406,385.335 391.406,399.135 391.875,432.257 391.875,388.095 391.875,410.176 392.344,459.858 392.344,462.619 392.344,390.855 392.344,371.534 392.812,437.777 392.812,559.223 393.281,542.662 393.281,501.26 393.75,404.656 393.75,385.335 394.219,374.294 394.219,374.294 394.219,377.055 394.219,415.696 394.688,440.537 394.688,418.456 394.688,426.737 395.156,426.737 395.156,429.497 395.625,528.862 395.625,448.818 396.094,418.456 396.094,446.058 396.094,481.939 396.094,470.899 396.562,492.98 396.562,451.578 397.031,526.102 397.031,407.416 397.5,457.098 397.5,418.456 397.5,429.497 397.969,407.416 397.969,459.858 398.438,379.815 398.438,390.855 398.438,443.298 398.438,432.257 398.906,421.217 398.906,470.899 399.375,498.5 399.375,440.537 399.844,462.619 399.844,473.659 400.312,459.858 400.312,459.858 400.312,495.74 400.312,446.058 400.312,498.5 400.781,515.061 400.781,490.22 401.25,504.021 401.25,506.781 401.719,526.102 401.719,526.102 402.188,498.5 402.188,462.619 402.188,481.939 402.188,457.098 402.656,451.578 402.656,487.46 403.125,454.338 403.125,512.301 403.125,523.341 403.594,550.943 403.594,564.744 404.062,473.659 404.062,473.659 404.531,545.423 404.531,512.301 404.531,548.183 404.531,490.22 405,517.821 405,468.139 405.469,509.541 405.469,559.223 405.938,520.581 405.938,504.021 406.406,534.382 406.406,578.544 406.406,559.223 406.406,523.341 406.406,495.74 406.875,575.784 406.875,644.787 407.344,675.149 407.344,608.906 407.812,586.825 407.812,570.264 408.281,597.865 408.281,578.544 408.281,512.301 408.281,504.021 408.75,495.74 408.75,473.659 408.75,622.706 409.219,592.345 409.219,570.264 409.688,573.024 409.688,545.423 410.156,573.024 410.156,548.183 410.625,520.581 410.625,479.179 410.625,564.744 410.625,534.382 411.094,548.183 411.094,573.024 411.562,589.585 411.562,539.902 412.031,504.021 412.031,492.98 412.031,446.058 412.5,581.304 412.5,446.058 412.5,421.217 412.5,435.017 412.969,454.338 412.969,401.896 413.438,446.058 413.438,457.098 413.906,490.22 413.906,509.541 414.375,515.061 414.375,473.659 414.375,564.744 414.375,622.706 414.375,658.588 414.844,581.304 414.844,559.223 415.312,603.385 415.312,550.943 415.781,545.423 415.781,608.906 416.25,575.784 416.25,561.983 416.719,553.703 416.719,520.581 416.719,559.223 416.719,520.581 417.188,479.179 417.188,528.862 417.656,517.821 417.656,550.943 417.656,509.541 418.125,506.781 418.125,517.821 418.594,545.423 418.594,581.304 418.594,526.102 418.594,457.098 419.062,421.217 419.062,470.899 419.531,498.5 419.531,468.139 420,465.379 420,495.74 420.469,495.74 420.469,564.744 420.469,597.865 420.469,459.858 420.469,501.26 420.938,570.264 420.938,523.341 421.406,567.504 421.406,487.46 421.875,459.858 421.875,407.416 422.344,526.102 422.344,520.581 422.812,584.065 422.812,534.382 422.812,619.946 422.812,592.345 423.281,553.703 423.281,520.581 423.281,608.906 423.75,586.825 423.75,625.466 424.219,608.906 424.219,597.865 424.688,592.345 424.688,539.902 424.688,553.703 424.688,531.622 425.156,581.304 425.156,597.865 425.625,617.186 425.625,600.625 426.094,636.507 426.094,658.588 426.094,628.227 426.562,661.348 426.562,636.507 426.562,630.987 426.562,633.747 427.031,578.544 427.031,608.906 427.5,597.865 427.5,553.703 427.969,622.706 427.969,597.865 428.438,542.662 428.438,567.504 428.906,553.703 428.906,534.382 428.906,526.102 428.906,468.139 428.906,531.622 429.375,595.105 429.375,567.504 429.844,617.186 429.844,603.385 430.312,636.507 430.312,575.784 430.781,501.26 430.781,567.504 430.781,589.585 430.781,597.865 431.25,548.183 431.25,446.058 431.719,443.298 431.719,459.858 431.719,526.102 432.188,553.703 432.188,534.382 432.656,531.622 432.656,553.703 432.656,531.622 432.656,570.264 433.125,578.544 433.125,545.423 433.594,545.423 433.594,584.065 434.062,509.541 434.062,509.541 434.531,523.341 434.531,581.304 435,625.466 435,581.304 435,573.024 435,526.102 435,506.781 435.469,523.341 435.469,548.183 435.938,479.179 435.938,465.379 436.406,462.619 436.406,473.659 436.875,462.619 436.875,509.541 436.875,595.105 436.875,677.909 437.344,636.507 437.344,586.825 437.812,559.223 437.812,606.146 437.812,542.662 438.281,550.943 438.281,528.862 438.75,617.186 438.75,597.865 438.75,484.7 438.75,504.021 439.219,586.825 439.219,578.544 439.688,600.625 439.688,575.784 440.156,619.946 440.156,589.585 440.625,705.51 440.625,688.949 440.625,669.629 441.094,622.706 441.094,550.943 441.094,608.906 441.094,597.865 441.562,548.183 441.562,617.186 442.031,677.909 442.031,548.183 442.5,550.943 442.5,564.744 442.969,603.385 442.969,553.703 442.969,553.703 442.969,622.706 442.969,636.507 443.438,619.946 443.438,584.065 443.906,672.389 443.906,639.267 444.375,650.308 444.375,688.949 444.844,711.031 444.844,666.868 444.844,694.47 444.844,639.267 445.312,628.227 445.312,608.906 445.781,584.065 445.781,553.703 446.25,567.504 446.25,559.223 446.25,608.906 446.719,548.183 446.719,542.662 447.188,548.183 447.188,564.744 447.188,550.943 447.188,603.385 447.656,614.426 447.656,639.267 448.125,528.862 448.125,559.223 448.594,630.987 448.594,611.666 449.062,636.507 449.062,586.825 449.062,584.065 449.062,600.625 449.062,531.622 449.531,581.304 449.531,575.784 450,658.588 450,575.784 450.469,550.943 450.469,545.423 450.938,606.146 450.938,622.706 450.938,586.825 450.938,578.544 451.406,561.983 451.406,561.983 451.875,523.341 451.875,556.463 451.875,575.784 452.344,564.744 452.344,633.747 452.812,589.585 452.812,608.906 453.281,617.186 453.281,548.183 453.281,595.105 453.281,581.304 453.75,589.585 453.75,586.825 454.219,537.142 454.219,523.341 454.688,542.662 454.688,595.105 454.688,570.264 455.156,545.423 455.156,606.146 455.156,614.426 455.156,694.47 455.625,691.71 455.625,666.868 456.094,597.865 456.094,633.747 456.562,647.548 456.562,537.142 457.031,539.902 457.031,545.423 457.031,592.345 457.031,553.703 457.5,526.102 457.5,517.821 457.5,498.5 457.969,457.098 457.969,539.902 458.438,526.102 458.438,504.021 458.906,481.939 458.906,476.419 459.375,481.939 459.375,437.777 459.375,470.899 459.375,440.537 459.844,468.139 459.844,526.102 460.312,603.385 460.312,619.946 460.781,595.105 460.781,586.825 460.781,492.98 461.25,426.737 461.25,476.419 461.25,526.102 461.25,622.706 461.719,567.504 461.719,523.341 462.188,539.902 462.188,595.105 462.656,581.304 462.656,559.223 463.125,573.024 463.125,542.662 463.125,520.581 463.125,492.98 463.125,470.899 463.594,539.902 463.594,520.581 464.062,487.46 464.062,484.7 464.531,528.862 464.531,495.74 465,509.541 465,429.497 465.469,457.098 465.469,382.575 465.469,504.021 465.469,501.26 465.938,457.098 465.938,473.659 465.938,454.338 466.406,531.622 466.406,462.619 466.875,418.456 466.875,512.301 467.344,528.862 467.344,611.666 467.344,553.703 467.344,531.622 467.812,476.419 467.812,473.659 468.281,435.017 468.281,481.939 468.75,484.7 468.75,531.622 469.219,457.098 469.219,426.737 469.219,581.304 469.219,661.348 469.219,575.784 469.688,595.105 469.688,545.423 470.156,564.744 470.156,589.585 470.625,589.585 470.625,578.544 471.094,608.906 471.094,617.186 471.562,512.301 471.562,506.781 471.562,586.825 471.562,636.507 472.031,628.227 472.031,597.865 472.031,495.74 472.5,487.46 472.5,545.423 472.969,611.666 472.969,573.024 473.438,614.426 473.438,653.068 473.438,697.23 473.438,589.585 473.906,617.186 473.906,595.105 474.375,567.504 474.375,567.504 474.844,539.902 474.844,553.703 474.844,487.46 475.312,484.7 475.312,537.142 475.312,484.7 475.312,545.423 475.781,520.581 475.781,567.504 476.25,548.183 476.25,592.345 476.719,597.865 476.719,539.902 477.188,575.784 477.188,581.304 477.656,595.105 477.656,534.382 477.656,468.139 477.656,479.179 477.656,542.662 478.125,517.821 478.125,515.061 478.594,548.183 478.594,584.065 479.062,584.065 479.062,597.865 479.531,597.865 479.531,556.463 479.531,501.26 479.531,476.419 480,501.26 480,520.581 480.469,473.659 480.469,509.541 480.469,495.74 480.938,465.379 480.938,639.267 481.406,603.385 481.406,639.267 481.406,608.906 481.406,476.419 481.875,570.264 481.875,454.338 482.344,492.98 482.344,423.977 482.812,481.939 482.812,490.22 483.281,459.858 483.281,523.341 483.75,523.341 483.75,636.507 483.75,539.902 483.75,479.179 483.75,465.379 484.219,476.419 484.219,495.74 484.688,451.578 484.688,479.179 485.156,619.946 485.156,642.027 485.625,633.747 485.625,589.585 485.625,603.385 485.625,575.784 486.094,559.223 486.094,595.105 486.094,479.179 486.562,504.021 486.562,520.581 487.031,517.821 487.031,490.22 487.5,490.22 487.5,495.74 487.5,528.862 487.5,561.983 487.969,506.781 487.969,575.784 488.438,550.943 488.438,528.862 488.906,504.021 488.906,517.821 489.375,619.946 489.375,495.74 489.375,454.338 489.844,412.936 489.844,423.977 489.844,462.619 489.844,487.46 490.312,506.781 490.312,517.821 490.781,484.7 490.781,517.821 491.25,564.744 491.25,567.504 491.719,556.463 491.719,509.541 491.719,515.061 491.719,597.865 491.719,608.906 492.188,600.625 492.188,573.024 492.656,597.865 492.656,578.544 493.125,592.345 493.125,642.027 493.594,647.548 493.594,644.787 493.594,664.108 493.594,636.507 494.062,586.825 494.062,545.423 494.531,597.865 494.531,584.065 495,677.909 495,697.23 495,625.466 495.469,666.868 495.469,539.902 495.938,498.5 495.938,553.703 495.938,523.341 495.938,570.264 496.406,548.183 496.406,470.899 496.875,476.419 496.875,468.139 497.344,446.058 497.344,526.102 497.812,498.5 497.812,564.744 497.812,608.906 497.812,545.423 497.812,534.382 498.281,556.463 498.281,457.098 498.75,564.744 498.75,675.149 499.219,733.112 499.219,722.071 499.688,542.662 499.688,531.622 499.688,470.899 499.688,595.105 500.156,556.463 500.156,575.784 500.625,515.061 500.625,509.541 500.625,451.578 501.094,454.338 501.094,481.939 501.562,426.737 501.562,368.774 502.031,310.811 502.031,366.014 502.031,597.865 502.031,545.423 502.5,515.061 502.5,465.379 502.969,388.095 502.969,454.338 503.438,404.656 503.438,418.456 503.438,410.176 503.906,410.176 503.906,501.26 503.906,479.179 503.906,619.946 504.375,628.227 504.375,611.666 504.844,658.588 504.844,680.669 505.312,639.267 505.312,528.862 505.781,548.183 505.781,608.906 505.781,564.744 505.781,611.666 506.25,550.943 506.25,556.463 506.25,526.102 506.719,473.659 506.719,504.021 507.188,539.902 507.188,523.341 507.656,492.98 507.656,509.541 508.125,448.818 508.125,457.098 508.125,487.46 508.125,531.622 508.594,421.217 508.594,520.581 509.062,492.98 509.062,443.298 509.062,390.855 509.531,526.102 509.531,509.541 510,487.46 510,515.061 510,476.419 510,495.74 510.469,559.223 510.469,655.828 510.938,630.987 510.938,622.706 511.406,697.23 511.406,708.271 511.875,578.544 511.875,622.706 511.875,517.821 511.875,553.703 511.875,575.784 512.344,636.507 512.344,603.385 512.812,550.943 512.812,573.024 513.281,614.426 513.281,589.585 513.75,561.983 513.75,559.223 514.219,570.264 514.219,584.065 514.219,512.301 514.219,490.22 514.688,457.098 514.688,476.419 514.688,454.338 515.156,457.098 515.156,476.419 515.625,366.014 515.625,388.095 516.094,465.379 516.094,426.737 516.094,412.936 516.094,382.575 516.562,324.612 516.562,332.892 517.031,360.494 517.031,327.372 517.5,360.494 517.5,349.453 517.969,291.49 517.969,382.575 517.969,341.173 517.969,349.453 517.969,302.531 518.438,272.169 518.438,319.092 518.906,321.852 518.906,324.612 519.375,360.494 519.375,308.051 519.844,299.771 519.844,448.818 520.312,388.095 520.312,327.372 520.312,374.294 520.312,349.453 520.312,352.213 520.781,451.578 520.781,371.534 521.25,492.98 521.25,407.416 521.719,457.098 521.719,426.737 522.188,415.696 522.188,393.615 522.188,526.102 522.188,526.102 522.656,448.818 522.656,426.737 523.125,619.946 523.125,523.341 523.594,492.98 523.594,415.696 523.594,606.146 524.062,542.662 524.062,437.777 524.062,454.338 524.062,423.977 524.531,335.652 524.531,349.453 525,404.656 525,393.615 525.469,470.899 525.469,470.899 525.938,462.619 525.938,531.622 526.406,504.021 526.406,526.102 526.406,517.821 526.406,506.781 526.406,523.341 526.875,446.058 526.875,435.017 527.344,473.659 527.344,459.858 527.812,410.176 527.812,440.537 528.281,435.017 528.281,501.26 528.281,534.382 528.281,479.179 528.75,506.781 528.75,548.183 529.219,647.548 529.219,561.983 529.219,575.784 529.688,669.629 529.688,633.747 530.156,573.024 530.156,592.345 530.156,418.456 530.156,584.065 530.625,509.541 530.625,512.301 531.094,504.021 531.094,476.419 531.562,465.379 531.562,470.899 532.031,440.537 532.031,484.7 532.031,484.7 532.5,459.858 532.5,374.294 532.5,407.416 532.5,382.575 532.969,357.733 532.969,368.774 533.438,390.855 533.438,410.176 533.906,396.375 533.906,446.058 534.375,459.858 534.375,423.977 534.375,379.815 534.375,509.541 534.844,352.213 534.844,354.973 534.844,368.774 535.312,465.379 535.312,346.693 535.781,352.213 535.781,429.497 536.25,446.058 536.25,374.294 536.25,338.413 536.25,512.301 536.719,459.858 536.719,498.5 537.188,454.338 537.188,437.777 537.656,426.737 537.656,426.737 537.656,484.7 538.125,465.379 538.125,468.139 538.594,407.416 538.594,399.135 538.594,407.416 538.594,415.696 539.062,523.341 539.062,550.943 539.531,479.179 539.531,440.537 540,418.456 540,454.338 540.469,531.622 540.469,528.862 540.469,559.223 540.469,592.345 540.469,487.46 540.938,437.777 540.938,473.659 541.406,396.375 541.406,523.341 541.875,448.818 541.875,374.294 542.344,487.46 542.344,501.26 542.344,421.217 542.344,415.696 542.812,515.061 542.812,407.416 543.281,440.537 543.281,462.619 543.281,435.017 543.75,404.656 543.75,457.098 544.219,426.737 544.219,421.217 544.688,366.014 544.688,379.815 544.688,393.615 544.688,492.98 545.156,490.22 545.156,578.544 545.625,539.902 545.625,490.22 546.094,410.176 546.094,396.375 546.562,426.737 546.562,415.696 546.562,368.774 546.562,415.696 546.562,407.416 547.031,479.179 547.031,520.581 547.5,481.939 547.5,515.061 547.969,517.821 547.969,504.021 548.438,537.142 548.438,517.821 548.438,490.22 548.438,479.179 548.906,379.815 548.906,412.936 548.906,418.456 549.375,462.619 549.375,462.619 549.844,550.943 549.844,595.105 550.312,470.899 550.312,451.578 550.781,457.098 550.781,479.179 550.781,457.098 550.781,423.977 551.25,399.135 551.25,440.537 551.719,457.098 551.719,374.294 552.188,448.818 552.188,415.696 552.188,415.696 552.656,451.578 552.656,399.135 552.656,407.416 552.656,421.217 553.125,401.896 553.125,462.619 553.594,517.821 553.594,385.335 554.062,368.774 554.062,415.696 554.531,421.217 554.531,412.936 555,401.896 555,393.615 555,440.537 555,423.977 555,473.659 555.469,476.419 555.469,435.017 555.938,454.338 555.938,462.619 556.406,517.821 556.406,437.777 556.875,426.737 556.875,412.936 556.875,432.257 556.875,435.017 557.344,412.936 557.344,390.855 557.812,390.855 557.812,451.578 557.812,349.453 558.281,454.338 558.281,432.257 558.75,341.173 558.75,393.615 558.75,385.335 558.75,343.933 559.219,426.737 559.219,357.733 559.688,321.852 559.688,294.25 560.156,343.933 560.156,319.092 560.625,454.338 560.625,451.578 560.625,341.173 561.094,357.733 561.094,459.858 561.094,429.497 561.094,451.578 561.562,454.338 561.562,412.936 562.031,495.74 562.031,479.179 562.5,490.22 562.5,368.774 562.969,390.855 562.969,382.575 562.969,338.413 562.969,374.294 563.438,465.379 563.438,492.98 563.438,385.335 563.906,377.055 563.906,341.173 564.375,357.733 564.375,465.379 564.844,545.423 564.844,501.26 564.844,341.173 564.844,564.744 565.312,531.622 565.312,542.662 565.781,531.622 565.781,589.585 566.25,446.058 566.25,437.777 566.25,443.298 566.719,426.737 566.719,506.781 567.188,410.176 567.188,385.335 567.188,407.416 567.188,492.98 567.656,451.578 567.656,341.173 568.125,327.372 568.125,484.7 568.594,468.139 568.594,410.176 569.062,377.055 569.062,393.615 569.062,385.335 569.062,360.494 569.062,366.014 569.531,338.413 569.531,390.855 570,501.26 570,360.494 570.469,366.014 570.469,421.217 570.938,476.419 570.938,412.936 570.938,446.058 570.938,432.257 571.406,410.176 571.406,379.815 571.875,404.656 571.875,410.176 571.875,448.818 572.344,465.379 572.344,459.858 572.812,388.095 572.812,371.534 573.281,443.298 573.281,363.254 573.281,382.575 573.281,446.058 573.75,481.939 573.75,324.612 574.219,484.7 574.219,523.341 574.688,310.811 574.688,352.213 575.156,319.092 575.156,368.774 575.156,396.375 575.156,360.494 575.156,396.375 575.625,357.733 575.625,390.855 576.094,415.696 576.094,421.217 576.562,371.534 576.562,327.372 577.031,360.494 577.031,363.254 577.031,388.095 577.031,390.855 577.5,377.055 577.5,338.413 577.5,332.892 577.969,404.656 577.969,371.534 578.438,418.456 578.438,332.892 578.906,310.811 578.906,399.135 579.375,399.135 579.375,404.656 579.375,501.26 579.375,404.656 579.844,421.217 579.844,363.254 580.312,426.737 580.312,371.534 580.781,371.534 580.781,448.818 580.781,495.74 581.25,352.213 581.25,374.294 581.25,354.973 581.25,393.615 581.719,377.055 581.719,343.933 582.188,465.379 582.188,487.46 582.656,418.456 582.656,473.659 583.125,523.341 583.125,429.497 583.125,545.423 583.125,462.619 583.125,410.176 583.594,429.497 583.594,421.217 584.062,437.777 584.062,371.534 584.531,600.625 584.531,539.902 585,504.021 585,418.456 585.469,435.017 585.469,421.217 585.469,415.696 585.469,426.737 585.938,437.777 585.938,451.578 586.406,473.659 586.406,429.497 586.406,371.534 586.875,330.132 586.875,368.774 587.344,319.092 587.344,368.774 587.344,321.852 587.344,382.575 587.812,415.696 587.812,410.176 588.281,412.936 588.281,415.696 588.75,393.615 588.75,404.656 589.219,379.815 589.219,388.095 589.219,462.619 589.219,432.257 589.219,476.419 589.688,476.419 589.688,512.301 590.156,443.298 590.156,404.656 590.625,470.899 590.625,443.298 591.094,457.098 591.094,393.615 591.562,473.659 591.562,412.936 591.562,368.774 591.562,429.497 592.031,363.254 592.031,324.612 592.031,316.331 592.5,324.612 592.5,269.409 592.969,302.531 592.969,324.612 593.438,388.095 593.438,371.534 593.438,343.933 593.438,363.254 593.906,396.375 593.906,407.416 594.375,426.737 594.375,523.341 594.844,581.304 594.844,446.058 594.844,423.977 595.312,360.494 595.312,327.372 595.312,432.257 595.312,459.858 595.781,476.419 595.781,354.973 596.25,366.014 596.25,426.737 596.719,440.537 596.719,388.095 597.188,352.213 597.188,335.652 597.656,443.298 597.656,454.338 597.656,385.335 597.656,396.375 597.656,338.413 598.125,390.855 598.125,410.176 598.594,357.733 598.594,319.092 599.062,352.213 599.062,435.017 599.531,388.095 599.531,421.217 599.531,429.497 599.531,448.818 600,440.537 600,404.656 600.469,385.335 600.469,366.014 600.469,379.815 600.938,388.095 600.938,526.102 601.406,567.504 601.406,470.899 601.406,446.058 601.406,443.298 601.875,440.537 601.875,484.7 602.344,462.619 602.344,401.896 602.812,393.615 602.812,410.176 603.281,426.737 603.281,407.416 603.75,327.372 603.75,346.693 603.75,382.575 603.75,368.774 603.75,407.416 604.219,504.021 604.219,479.179 604.688,512.301 604.688,490.22 605.156,393.615 605.156,437.777 605.625,368.774 605.625,432.257 605.625,432.257 605.625,388.095 606.094,346.693 606.094,346.693 606.094,352.213 606.562,371.534 606.562,357.733 607.031,354.973 607.031,341.173 607.5,305.291 607.5,354.973 607.5,371.534 607.5,366.014 607.969,437.777 607.969,396.375 608.438,404.656 608.438,388.095 608.906,368.774 608.906,390.855 609.375,377.055 609.375,440.537 609.375,451.578 609.844,432.257 609.844,316.331 609.844,404.656 609.844,440.537 610.312,501.26 610.312,462.619 610.781,288.73 610.781,335.652 611.25,302.531 611.25,338.413 611.719,410.176 611.719,396.375 611.719,426.737 611.719,423.977 611.719,404.656 612.188,308.051 612.188,388.095 612.656,291.49 612.656,341.173 613.125,327.372 613.125,335.652 613.594,310.811 613.594,324.612 613.594,319.092 613.594,371.534 614.062,377.055 614.062,368.774 614.531,374.294 614.531,412.936 615,415.696 615,426.737 615,421.217 615.469,423.977 615.469,404.656 615.938,388.095 615.938,366.014 615.938,363.254 615.938,371.534 616.406,396.375 616.406,379.815 616.875,410.176 616.875,421.217 617.344,385.335 617.344,332.892 617.812,319.092 617.812,319.092 617.812,404.656 617.812,352.213 617.812,252.848 618.281,302.531 618.281,299.771 618.75,341.173 618.75,357.733 619.219,360.494 619.219,366.014 619.688,432.257 619.688,435.017 619.688,454.338 619.688,440.537 620.156,330.132 620.156,357.733 620.625,415.696 620.625,432.257 620.625,401.896 621.094,388.095 621.094,346.693 621.562,354.973 621.562,388.095 622.031,446.058 622.031,407.416 622.031,274.929 622.031,241.808 622.5,189.365 622.5,255.609 622.969,294.25 622.969,330.132 623.438,319.092 623.438,327.372 623.906,352.213 623.906,241.808 623.906,299.771 623.906,476.419 623.906,366.014 624.375,366.014 624.375,313.571 624.844,363.254 624.844,382.575 625.312,338.413 625.312,343.933 625.781,360.494 625.781,401.896 625.781,341.173 625.781,316.331 626.25,346.693 626.25,382.575 626.25,330.132 626.719,401.896 626.719,330.132 627.188,327.372 627.188,299.771 627.656,335.652 627.656,305.291 628.125,203.166 628.125,205.926 628.125,219.727 628.125,338.413 628.594,354.973 628.594,366.014 629.062,426.737 629.062,379.815 629.062,412.936 629.531,294.25 629.531,302.531 630,283.21 630,266.649 630,313.571 630,368.774 630.469,346.693 630.469,352.213 630.938,360.494 630.938,390.855 631.406,332.892 631.406,310.811 631.875,272.169 631.875,324.612 631.875,371.534 631.875,321.852 631.875,305.291 632.344,423.977 632.344,410.176 632.812,388.095 632.812,354.973 633.281,321.852 633.281,299.771 633.75,316.331 633.75,310.811 634.219,341.173 634.219,244.568 634.219,233.527 634.219,263.889 634.688,172.805 634.688,230.767 635.156,266.649 635.156,236.288 635.156,233.527 635.625,247.328 635.625,250.088 636.094,269.409 636.094,263.889 636.094,371.534 636.094,310.811 636.562,324.612 636.562,247.328 637.031,283.21 637.031,250.088 637.5,283.21 637.5,252.848 637.969,255.609 637.969,208.686 637.969,183.845 637.969,216.967 637.969,222.487 638.438,230.767 638.438,197.646 638.906,183.845 638.906,214.207 639.375,189.365 639.375,332.892 639.844,222.487 639.844,203.166 640.312,181.085 640.312,172.805 640.312,205.926 640.312,128.642 640.312,147.963 640.781,172.805 640.781,150.724 641.25,106.561 641.25,90.0004 641.719,192.125 641.719,183.845 642.188,285.97 642.188,222.487 642.188,194.886 642.188,366.014 642.656,236.288 642.656,280.45 643.125,194.886 643.125,125.882 643.594,291.49 643.594,280.45 643.594,250.088 644.062,114.842 644.062,90.0004 644.062,120.362 644.062,203.166 644.531,324.612 644.531,310.811 645,150.724 645,302.531 645.469,134.163 645.469,208.686 645.938,305.291 645.938,415.696 646.406,299.771 646.406,338.413 646.406,274.929 646.406,269.409 646.406,283.21 646.875,294.25 646.875,283.21 647.344,258.369 647.344,297.011 647.812,241.808 647.812,175.565 648.281,216.967 648.281,172.805 648.281,349.453 648.281,200.406 648.75,189.365 648.75,228.007 649.219,172.805 649.219,214.207 649.219,244.568 649.688,299.771 649.688,316.331 650.156,277.69 650.156,266.649 650.156,214.207 650.156,222.487 650.625,283.21 650.625,285.97 651.094,313.571 651.094,338.413 651.562,263.889 651.562,189.365 652.031,228.007 652.031,197.646 652.031,170.044 652.5,178.325 652.5,294.25 652.5,412.936 652.5,374.294 652.969,250.088 652.969,186.605 653.438,319.092 653.438,302.531 653.906,170.044 653.906,241.808 654.375,366.014 654.375,368.774 654.375,205.926 654.375,120.362 654.844,228.007 654.844,228.007 654.844,244.568 655.312,183.845 655.312,181.085 655.781,112.082 655.781,178.325 656.25,343.933 656.25,399.135 656.25,377.055 656.25,241.808 656.719,225.247 656.719,150.724 657.188,189.365 657.188,131.402 657.656,81.72 657.656,90.0004 658.125,117.602 658.125,128.642 658.125,285.97 658.594,352.213 658.594,343.933 658.594,189.365 658.594,214.207 659.062,388.095 659.062,194.886 659.531,288.73 659.531,269.409 660,366.014 660,357.733 660.469,261.129 660.469,308.051 660.469,302.531 660.469,280.45 660.469,186.605 660.938,186.605 660.938,261.129 661.406,294.25 661.406,189.365 661.875,161.764 661.875,156.244 662.344,205.926 662.344,186.605 662.344,123.122 662.344,205.926 662.812,203.166 662.812,175.565 663.281,423.977 663.281,451.578 663.281,255.609 663.75,203.166 663.75,258.369 664.219,269.409 664.219,299.771 664.688,280.45 664.688,211.447 664.688,147.963 664.688,175.565 665.156,150.724 665.156,142.443 665.625,247.328 665.625,379.815 666.094,451.578 666.094,319.092 666.562,230.767 666.562,277.69 666.562,192.125 666.562,252.848 666.562,451.578 667.031,459.858 667.031,473.659 667.5,459.858 667.5,354.973 667.969,363.254 667.969,349.453 668.438,357.733 668.438,352.213 668.438,313.571 668.438,432.257 668.906,473.659 668.906,357.733 669.375,305.291 669.375,357.733 669.375,305.291 669.844,261.129 669.844,263.889 670.312,399.135 670.312,316.331 670.781,321.852 670.781,305.291 670.781,274.929 670.781,277.69 671.25,272.169 671.25,239.048 671.719,269.409 671.719,239.048 672.188,216.967 672.188,285.97 672.188,222.487 672.656,228.007 672.656,269.409 672.656,239.048 672.656,205.926 673.125,371.534 673.125,346.693 673.594,490.22 673.594,313.571 674.062,335.652 674.062,285.97 674.531,349.453 674.531,390.855 674.531,454.338 674.531,426.737 675,324.612 675,399.135 675,423.977 675.469,349.453 675.469,285.97 675.938,321.852 675.938,343.933 676.406,310.811 676.406,280.45 676.875,274.929 676.875,255.609 676.875,288.73 676.875,285.97 677.344,330.132 677.344,310.811 677.812,294.25 677.812,341.173 677.812,269.409 678.281,324.612 678.281,297.011 678.75,396.375 678.75,357.733 678.75,429.497 678.75,357.733 679.219,241.808 679.219,277.69 679.688,343.933 679.688,357.733 680.156,421.217 680.156,515.061 680.625,258.369 680.625,310.811 680.625,261.129 680.625,228.007 680.625,219.727 681.094,316.331 681.094,401.896 681.562,401.896 681.562,465.379 682.031,476.419 682.031,319.092 682.5,352.213 682.5,319.092 682.969,214.207 682.969,324.612 682.969,526.102 682.969,534.382 683.438,479.179 683.438,437.777 683.438,440.537 683.906,388.095 683.906,371.534 684.375,366.014 684.375,421.217 684.844,335.652 684.844,313.571 684.844,330.132 684.844,327.372 685.312,299.771 685.312,407.416 685.781,399.135 685.781,426.737 686.25,426.737 686.25,515.061 686.719,448.818 686.719,429.497 686.719,321.852 686.719,396.375 686.719,393.615 687.188,401.896 687.188,343.933 687.656,470.899 687.656,479.179 688.125,457.098 688.125,407.416 688.594,559.223 688.594,388.095 689.062,338.413 689.062,457.098 689.062,388.095 689.062,506.781 689.062,396.375 689.531,470.899 689.531,487.46 690,448.818 690,459.858 690.469,396.375 690.469,382.575 690.938,410.176 690.938,454.338 690.938,476.419 690.938,570.264 691.406,385.335 691.406,324.612 691.875,415.696 691.875,374.294 692.344,341.173 692.344,346.693 692.344,310.811 692.812,399.135 692.812,401.896 692.812,338.413 692.812,302.531 693.281,330.132 693.281,421.217 693.75,291.49 693.75,291.49 694.219,266.649 694.219,274.929 694.688,244.568 694.688,319.092 695.156,225.247 695.156,277.69 695.156,294.25 695.156,393.615 695.156,308.051 695.625,327.372 695.625,269.409 696.094,324.612 696.094,250.088 696.562,302.531 696.562,332.892 697.031,319.092 697.031,404.656 697.031,415.696 697.031,410.176 697.5,407.416 697.5,468.139 697.969,468.139 697.969,354.973 697.969,299.771 698.438,208.686 698.438,214.207 698.906,316.331 698.906,429.497 698.906,515.061 698.906,429.497 699.375,404.656 699.375,399.135 699.844,432.257 699.844,396.375 700.312,349.453 700.312,277.69 700.781,263.889 700.781,459.858 700.781,366.014 701.25,368.774 701.25,390.855 701.25,327.372 701.25,316.331 701.719,440.537 701.719,448.818 702.188,396.375 702.188,368.774 713.438,465.379 713.438,473.659 713.438,479.179 713.438,501.26 713.438,473.659 713.906,426.737 714.375,457.098 714.375,421.217 714.844,404.656 714.844,385.335 715.312,363.254 715.312,330.132 715.312,354.973 715.312,390.855 715.781,316.331 715.781,401.896 716.25,407.416 716.25,357.733 716.719,435.017 716.719,528.862 717.188,462.619 717.188,443.298 717.656,440.537 717.656,476.419 717.656,377.055 717.656,418.456 718.125,407.416 718.125,462.619 718.594,528.862 718.594,509.541 719.062,448.818 719.062,388.095 719.062,390.855 719.531,360.494 719.531,556.463 719.531,443.298 719.531,495.74 720,537.142 720,531.622 720.469,501.26 720.469,481.939 720.938,473.659 720.938,545.423 721.406,390.855 721.406,407.416 721.406,454.338 721.406,437.777 721.875,446.058 721.875,410.176 722.344,501.26 722.344,484.7 722.812,484.7 722.812,465.379 723.281,550.943 723.281,539.902 723.75,412.936 723.75,487.46 723.75,432.257 723.75,443.298 724.219,412.936 724.219,426.737 724.688,346.693 724.688,327.372 724.688,343.933 725.156,274.929 725.156,305.291 725.625,363.254 725.625,393.615 725.625,382.575 725.625,407.416 726.094,454.338 726.562,418.456 726.562,399.135 727.031,407.416 727.031,410.176 727.5,393.615 727.5,454.338 727.5,462.619 727.5,512.301 727.5,454.338 727.969,426.737 727.969,454.338 728.438,382.575 728.438,341.173 728.906,330.132 728.906,316.331 729.375,382.575 729.375,368.774 729.844,435.017 729.844,476.419 729.844,484.7 729.844,393.615 730.312,404.656 730.312,418.456 730.312,498.5 730.781,473.659 731.25,440.537 731.25,470.899 731.719,462.619 731.719,473.659 731.719,443.298 731.719,465.379 732.188,451.578 732.188,440.537 732.656,446.058 732.656,443.298 733.125,421.217 733.125,423.977 733.125,426.737 733.594,437.777 733.594,415.696 733.594,423.977 733.594,388.095 734.062,479.179 734.062,470.899 734.531,465.379 735,426.737 735,401.896 735.469,418.456 735.469,399.135 735.938,504.021 735.938,421.217 735.938,487.46 735.938,437.777 735.938,432.257 736.406,479.179 736.406,421.217 736.875,418.456 736.875,446.058 737.344,517.821 737.344,487.46 737.812,490.22 737.812,457.098 737.812,440.537 737.812,437.777 738.281,423.977 738.281,363.254 738.75,368.774 738.75,388.095 738.75,396.375 739.219,440.537 739.688,512.301 739.688,498.5 739.688,495.74 739.688,459.858 740.156,440.537 740.156,457.098 740.625,421.217 740.625,451.578 741.094,423.977 741.094,473.659 741.562,575.784 741.562,462.619 742.031,357.733 742.031,363.254 742.031,473.659 742.031,470.899 742.031,451.578 742.5,396.375 742.5,371.534 742.969,363.254 742.969,341.173 743.438,404.656 743.438,360.494 743.906,327.372 743.906,429.497 743.906,423.977 743.906,412.936 744.375,366.014 744.375,476.419 744.375,446.058 744.844,451.578 744.844,539.902 745.312,556.463 745.312,550.943 745.781,490.22 745.781,509.541 745.781,448.818 745.781,404.656 746.25,388.095 746.25,407.416 746.719,401.896 746.719,457.098 747.188,459.858 747.188,415.696 747.656,388.095 747.656,418.456 747.656,399.135 748.125,421.217 748.125,459.858 748.125,421.217 748.125,396.375 748.594,509.541 748.594,515.061 749.062,517.821 749.062,501.26 749.531,454.338 749.531,451.578 750,443.298 750,437.777 750,468.139 750,498.5 750,379.815 750.469,343.933 750.938,377.055 750.938,401.896 751.406,454.338 751.406,443.298 751.875,495.74 751.875,457.098 751.875,457.098 751.875,495.74 752.344,556.463 752.344,429.497 752.812,440.537 752.812,481.939 753.281,448.818 753.281,379.815 753.281,366.014 753.75,468.139 753.75,459.858 754.219,490.22 754.219,335.652 754.219,346.693 754.219,310.811 754.688,363.254 754.688,332.892 755.156,277.69 755.625,316.331 755.625,349.453 756.094,346.693 756.094,443.298 756.094,457.098 756.094,399.135 756.094,423.977 756.562,446.058 756.562,377.055 757.031,360.494 757.031,385.335 757.5,371.534 757.5,412.936 757.969,385.335 757.969,349.453 757.969,470.899 757.969,437.777 758.438,429.497 758.438,418.456 758.906,385.335 758.906,421.217 758.906,470.899 759.375,401.896 759.375,393.615 759.844,418.456 759.844,390.855 760.312,412.936 760.312,498.5 760.312,479.179 760.312,410.176 760.781,418.456 760.781,614.426 761.25,454.338 761.25,470.899 761.719,379.815 761.719,512.301 761.719,468.139 762.188,421.217 762.188,423.977 762.188,548.183 762.188,462.619 762.656,509.541 762.656,479.179 763.125,617.186 763.125,470.899 763.594,470.899 763.594,459.858 764.062,470.899 764.062,435.017 764.062,468.139 764.062,440.537 764.531,476.419 764.531,487.46 764.531,526.102 765,506.781 765,492.98 765.469,476.419 765.469,426.737 765.938,385.335 765.938,404.656 766.406,423.977 766.406,459.858 766.406,335.652 766.406,349.453 766.875,313.571 766.875,302.531 767.344,321.852 767.344,388.095 767.344,371.534 767.812,448.818 767.812,418.456 768.281,421.217 768.281,429.497 768.281,415.696 768.281,481.939 768.75,446.058 765,495.74 765,451.578 765.469,426.737 765.469,459.858 765.938,484.7 765.938,534.382 766.406,537.142 766.406,504.021 766.406,495.74 766.406,457.098 766.875,393.615 766.875,377.055 767.344,327.372 767.344,308.051 767.344,277.69 767.812,310.811 767.812,250.088 768.281,233.527 768.281,280.45 768.281,283.21 768.281,316.331 768.75,319.092 768.75,297.011 769.219,266.649 769.219,252.848 769.688,258.369 769.688,222.487 770.156,255.609 770.156,288.73 770.156,241.808 770.156,230.767 770.156,214.207 770.625,233.527 770.625,236.288 771.094,225.247 771.094,228.007 771.562,274.929 771.562,247.328 772.031,247.328 772.031,250.088 772.5,263.889 772.5,371.534 772.5,283.21 772.5,332.892 772.969,313.571 772.969,316.331 772.969,283.21 773.438,346.693 773.438,335.652 773.906,327.372 773.906,390.855 774.375,377.055 774.375,330.132 774.375,291.49 774.375,299.771 774.844,280.45 774.844,302.531 775.312,272.169 775.312,288.73 775.781,283.21 775.781,368.774 776.25,379.815 776.25,388.095 776.25,343.933 776.25,269.409 776.25,239.048 776.719,252.848 776.719,341.173 777.188,330.132 777.188,352.213 777.656,374.294 777.656,354.973 778.125,371.534 778.125,382.575 778.594,399.135 778.594,371.534 778.594,404.656 778.594,288.73 778.594,308.051 779.062,310.811 779.062,285.97 779.531,332.892 779.531,313.571 780,390.855 780,379.815 780.469,332.892 780.469,310.811 780.469,327.372 780.469,429.497 780.938,418.456 780.938,429.497 781.406,415.696 781.406,393.615 781.406,388.095 781.875,385.335 781.875,379.815 782.344,412.936 782.344,495.74 782.344,468.139 782.344,368.774 782.812,330.132 782.812,360.494 783.281,393.615 783.281,377.055 783.75,385.335 783.75,385.335 784.219,426.737 784.219,390.855 784.688,346.693 784.688,363.254 784.688,324.612 784.688,366.014 784.688,335.652 785.156,432.257 785.156,401.896 785.625,407.416 785.625,379.815 786.094,385.335 786.094,385.335 786.562,327.372 786.562,261.129 786.562,338.413 786.562,377.055 787.031,388.095 787.031,360.494 787.5,338.413 787.5,368.774 787.5,393.615 787.969,401.896 787.969,371.534 788.438,338.413 788.438,448.818 788.438,379.815 788.438,382.575 788.906,415.696 788.906,374.294 789.375,319.092 789.375,432.257 789.844,435.017 789.844,388.095 790.312,379.815 790.312,396.375 790.312,393.615 790.781,448.818 790.781,385.335 790.781,390.855 790.781,332.892 791.25,371.534 791.25,343.933 791.719,421.217 791.719,418.456 792.188,363.254 792.188,319.092 792.656,291.49 792.656,379.815 792.656,385.335 792.656,390.855 792.656,310.811 793.125,415.696 793.125,512.301 793.594,459.858 793.594,531.622 794.062,468.139 794.062,468.139 794.531,454.338 794.531,415.696 794.531,490.22 794.531,426.737 795,443.298 795,443.298 795.469,451.578 795.469,346.693 795.938,377.055 795.938,368.774 795.938,371.534 796.406,321.852 796.406,349.453 796.875,435.017 796.875,410.176 796.875,432.257 796.875,490.22 797.344,407.416 797.344,407.416 797.812,429.497 797.812,421.217 798.281,366.014 798.281,368.774 798.75,352.213 798.75,440.537 798.75,501.26 798.75,490.22 798.75,459.858 799.219,421.217 799.219,454.338 799.688,451.578 799.688,481.939 800.156,382.575 800.156,368.774 800.625,415.696 800.625,393.615 800.625,368.774 800.625,280.45 801.094,319.092 801.094,346.693 801.562,366.014 801.562,368.774 801.562,410.176 802.031,396.375 802.031,393.615 802.5,352.213 802.5,437.777 802.969,407.416 802.969,412.936 802.969,459.858 802.969,451.578 803.438,404.656 803.438,396.375 803.906,437.777 803.906,468.139 804.375,446.058 804.375,363.254 804.375,465.379 804.844,404.656 804.844,457.098 804.844,401.896 804.844,435.017 805.312,490.22 805.312,371.534 805.781,390.855 805.781,435.017 806.25,349.453 806.25,404.656 806.719,374.294 806.719,459.858 806.719,462.619 806.719,379.815 807.188,415.696 807.188,294.25 807.188,357.733 807.656,313.571 807.656,385.335 808.125,410.176 808.125,393.615 808.594,283.21 808.594,332.892 809.062,288.73 809.062,308.051 809.062,327.372 809.062,319.092 809.531,379.815 809.531,332.892 810,310.811 810,321.852 810.469,379.815 810.469,377.055 810.469,374.294 810.938,410.176 810.938,371.534 810.938,388.095 810.938,440.537 811.406,473.659 811.406,473.659 811.875,443.298 811.875,446.058 812.344,423.977 812.344,415.696 812.812,382.575 812.812,354.973 812.812,426.737 812.812,396.375 812.812,415.696 813.281,390.855 813.281,407.416 813.75,388.095 813.75,382.575 814.219,346.693 814.219,349.453 814.688,332.892 814.688,319.092 815.156,354.973 815.156,410.176 815.156,412.936 815.156,407.416 815.625,459.858 815.625,443.298 816.094,457.098 816.094,462.619 816.094,426.737 816.562,393.615 816.562,366.014 817.031,382.575 817.031,415.696 817.031,459.858 817.031,410.176 817.5,388.095 817.5,401.896 817.969,390.855 817.969,368.774 818.438,335.652 818.438,368.774 818.906,423.977 818.906,321.852 818.906,366.014 818.906,330.132 818.906,343.933 819.375,349.453 819.375,393.615 819.844,415.696 819.844,379.815 820.312,382.575 820.312,388.095 820.781,360.494 820.781,437.777 821.25,299.771 821.25,280.45 821.25,393.615 821.25,368.774 821.719,349.453 821.719,332.892 821.719,349.453 822.188,379.815 822.188,327.372 822.656,374.294 822.656,388.095 823.125,332.892 823.125,343.933 823.125,371.534 823.125,421.217 823.594,418.456 823.594,410.176 824.062,371.534 824.062,388.095 824.531,371.534 824.531,404.656 824.531,396.375 825,371.534 825,349.453 825,377.055 825,410.176 825.469,388.095 825.469,360.494 825.938,379.815 825.938,332.892 826.406,377.055 826.406,374.294 826.875,390.855 826.875,335.652 827.344,349.453 827.344,426.737 827.344,363.254 827.344,415.696 827.344,415.696 827.812,421.217 827.812,401.896 828.281,379.815 828.281,371.534 828.75,462.619 828.75,495.74 829.219,451.578 829.219,457.098 829.219,412.936 829.219,396.375 829.688,335.652 829.688,310.811 830.156,321.852 830.156,332.892 830.156,366.014 830.625,343.933 830.625,352.213 831.094,357.733 831.094,335.652 831.094,335.652 831.094,319.092 831.562,349.453 831.562,360.494 832.031,341.173 832.031,363.254 832.5,404.656 832.5,396.375 832.969,377.055 832.969,327.372 833.438,332.892 833.438,366.014 833.438,388.095 833.438,388.095 833.438,423.977 833.906,421.217 833.906,399.135 834.375,346.693 834.375,371.534 834.844,388.095 834.844,426.737 835.312,412.936 835.312,407.416 835.312,432.257 835.312,454.338 835.781,415.696 835.781,377.055 835.781,352.213 836.25,319.092 836.25,360.494 836.719,357.733 836.719,410.176 837.188,371.534 837.188,390.855 837.188,388.095 837.188,410.176 837.656,418.456 837.656,473.659 838.125,429.497 838.125,498.5 838.594,465.379 838.594,451.578 839.062,446.058 839.062,429.497 839.062,379.815 839.531,421.217 839.531,437.777 839.531,410.176 839.531,429.497 840,459.858 840,454.338 840.469,421.217 840.469,426.737 840.938,446.058 840.938,470.899 841.406,473.659 841.406,421.217 841.406,385.335 841.406,396.375 841.406,412.936 841.875,401.896 841.875,363.254 842.344,390.855 842.344,421.217 842.812,401.896 842.812,382.575 843.281,343.933 843.281,390.855 843.281,354.973 843.281,418.456 843.75,313.571 843.75,435.017 844.219,432.257 844.219,429.497 844.688,421.217 844.688,399.135 844.688,382.575 845.156,404.656 845.156,404.656 845.625,277.69 845.625,272.169 845.625,321.852 845.625,285.97 846.094,277.69 846.094,225.247 846.562,219.727 846.562,338.413 847.031,277.69 847.031,366.014 847.5,352.213 847.5,415.696 847.5,390.855 847.5,421.217 847.5,385.335 847.969,346.693 847.969,360.494 848.438,352.213 848.438,341.173 848.906,377.055 848.906,366.014 849.375,393.615 849.375,379.815 849.375,377.055 849.375,354.973 849.844,421.217 849.844,360.494 850.312,308.051 850.312,352.213 850.312,354.973 850.781,418.456 850.781,404.656 851.25,473.659 851.25,490.22 851.719,468.139 851.719,448.818 851.719,506.781 851.719,388.095 852.188,432.257 852.188,421.217 852.656,396.375 852.656,443.298 853.125,446.058 853.125,446.058 853.125,462.619 853.594,421.217 853.594,354.973 853.594,341.173 853.594,366.014 854.062,343.933 854.062,366.014 854.531,341.173 854.531,310.811 855,341.173 855,368.774 855.469,341.173 855.469,357.733 855.469,377.055 855.469,291.49 855.938,236.288 855.938,338.413 855.938,327.372 856.406,297.011 856.406,343.933 856.875,366.014 856.875,346.693 857.344,319.092 857.344,327.372 857.812,390.855 857.812,354.973 857.812,313.571 857.812,280.45 858.281,330.132 858.281,285.97 858.75,272.169 858.75,283.21 858.75,330.132 859.219,346.693 859.219,382.575 859.688,379.815 859.688,230.767 859.688,283.21 859.688,371.534 860.156,343.933 860.156,335.652 860.625,291.49 860.625,313.571 861.094,297.011 861.094,363.254 861.562,255.609 861.562,291.49 861.562,415.696 861.562,299.771 861.562,324.612 862.031,343.933 862.031,352.213 862.5,319.092 862.5,330.132 862.969,404.656 862.969,390.855 863.438,244.568 863.438,277.69 863.906,269.409 863.906,319.092 863.906,313.571 863.906,280.45 864.375,274.929 864.375,299.771 864.375,288.73 864.844,354.973 864.844,280.45 865.312,230.767 865.312,183.845 865.781,274.929 865.781,222.487 865.781,228.007 865.781,233.527 866.25,156.244 866.25,247.328 866.719,189.365 866.719,316.331 867.188,343.933 867.188,285.97 867.656,305.291 867.656,283.21 867.656,297.011 867.656,272.169 867.656,214.207 868.125,255.609 868.125,230.767 868.594,203.166 868.594,186.605 869.062,181.085 869.062,145.203 869.531,131.402 869.531,150.724 870,186.605 870,145.203 870,178.325 870,244.568 870,266.649 870.469,225.247 870.469,280.45 870.938,239.048 870.938,255.609 871.406,280.45 871.406,316.331 871.875,280.45 871.875,225.247 871.875,274.929 871.875,283.21 872.344,239.048 872.344,197.646 872.812,261.129 872.812,332.892 873.281,388.095 873.281,481.939 873.281,379.815 873.75,272.169 873.75,443.298 873.75,305.291 873.75,205.926 874.219,288.73 874.219,316.331 874.688,258.369 874.688,285.97 875.156,294.25 875.156,236.288 875.625,211.447 875.625,352.213 876.094,288.73 876.094,258.369 876.094,382.575 876.094,297.011 876.094,302.531 876.562,327.372 876.562,335.652 877.031,308.051 877.031,341.173 877.5,255.609 877.5,244.568 877.969,263.889 877.969,294.25 877.969,374.294 877.969,379.815 878.438,332.892 878.438,258.369 878.906,236.288 878.906,225.247 878.906,269.409 879.375,388.095 879.375,421.217 879.844,291.49 879.844,167.284 880.312,183.845 880.312,183.845 880.312,183.845 880.312,277.69 880.781,285.97 880.781,241.808 881.25,341.173 881.25,357.733 881.719,291.49 881.719,349.453 881.719,407.416 882.188,448.818 882.188,435.017 882.188,446.058 882.188,448.818 882.656,443.298 882.656,407.416 883.125,371.534 883.125,335.652 883.594,341.173 883.594,388.095 884.062,377.055 884.062,368.774 884.062,321.852 884.062,205.926 884.531,316.331 884.531,374.294 884.531,393.615 885,401.896 885,418.456 885.469,349.453 885.469,324.612 885.938,250.088 885.938,435.017 886.406,468.139 886.406,448.818 886.406,443.298 886.406,321.852 886.875,343.933 886.875,360.494 887.344,388.095 887.344,401.896 887.344,299.771 887.812,327.372 887.812,352.213 888.281,368.774 888.281,343.933 888.281,319.092 888.281,274.929 888.75,272.169 888.75,258.369 889.219,274.929 889.219,236.288 889.688,225.247 889.688,214.207 890.156,205.926 890.156,261.129 890.156,258.369 890.156,261.129 890.156,343.933 890.625,288.73 890.625,341.173 891.094,266.649 891.094,332.892 891.562,354.973 891.562,385.335 892.031,346.693 892.031,330.132 892.5,379.815 892.5,423.977 892.5,390.855 892.5,368.774 892.969,299.771 892.969,266.649 892.969,349.453 893.438,299.771 893.438,280.45 893.906,316.331 893.906,324.612 894.375,258.369 894.375,236.288 894.375,297.011 894.375,280.45 894.844,285.97 894.844,343.933 895.312,349.453 895.312,446.058 895.781,421.217 895.781,423.977 896.25,396.375 896.25,305.291 896.25,349.453 896.25,319.092 896.25,415.696 896.719,341.173 896.719,407.416 897.188,429.497 897.188,440.537 897.656,396.375 897.656,484.7 898.125,465.379 898.125,517.821 898.594,492.98 898.594,421.217 898.594,437.777 898.594,360.494 898.594,349.453 899.062,388.095 899.062,332.892 899.531,388.095 899.531,435.017 900,349.453 900,410.176 900.469,421.217 900.469,418.456 900.469,415.696 900.469,415.696 900.938,399.135 900.938,393.615 901.406,390.855 901.406,410.176 901.875,454.338 901.875,410.176 901.875,401.896 902.344,330.132 902.344,465.379 902.344,440.537 902.344,385.335 902.812,399.135 902.812,423.977 903.281,401.896 903.281,484.7 903.75,440.537 903.75,377.055 904.219,332.892 904.219,341.173 904.688,385.335 904.688,343.933 904.688,432.257 904.688,346.693 904.688,352.213 905.156,285.97 905.156,368.774 905.625,357.733 905.625,319.092 906.094,360.494 906.094,407.416 906.562,412.936 906.562,459.858 906.562,410.176 906.562,382.575 907.031,319.092 907.031,313.571 907.5,341.173 907.5,335.652 907.5,368.774 907.969,335.652 907.969,335.652 908.438,390.855 908.438,357.733 908.438,399.135 908.906,410.176 908.906,396.375 909.375,382.575 909.375,379.815 909.844,374.294 909.844,363.254 910.312,382.575 910.312,335.652 910.312,324.612 910.781,357.733 910.781,346.693 910.781,410.176 910.781,415.696 911.25,426.737 911.25,291.49 911.719,407.416 911.719,407.416 912.188,382.575 912.188,415.696 912.656,379.815 912.656,382.575 912.656,352.213 912.656,440.537 913.125,451.578 913.125,443.298 913.125,539.902 913.594,484.7 913.594,484.7 914.062,382.575 914.062,354.973 914.531,354.973 914.531,520.581 914.531,526.102 914.531,481.939 915,490.22 915,415.696 915.469,429.497 915.469,423.977 915.938,399.135 915.938,426.737 915.938,506.781 916.406,421.217 916.406,390.855 916.875,457.098 916.875,432.257 916.875,396.375 916.875,462.619 917.344,443.298 917.344,495.74 917.812,465.379 917.812,473.659 918.281,520.581 918.281,476.419 918.75,448.818 918.75,374.294 918.75,396.375 918.75,484.7 918.75,426.737 919.219,426.737 919.219,423.977 919.688,479.179 919.688,495.74 920.156,586.825 920.156,608.906 920.625,512.301 920.625,435.017 920.625,443.298 920.625,426.737 921.094,429.497 921.094,476.419 921.562,459.858 921.562,440.537 921.562,426.737 922.031,506.781 922.031,526.102 922.5,476.419 922.5,457.098 922.969,462.619 922.969,421.217 922.969,470.899 922.969,432.257 923.438,382.575 923.438,468.139 923.906,487.46 923.906,423.977 924.375,396.375 924.375,401.896 924.844,374.294 924.844,432.257 924.844,484.7 924.844,492.98 924.844,404.656 925.312,432.257 925.312,432.257 925.781,429.497 925.781,490.22 926.25,498.5 926.25,465.379 926.719,506.781 926.719,504.021 926.719,553.703 926.719,531.622 927.188,548.183 927.188,531.622 927.188,504.021 927.656,523.341 927.656,523.341 928.125,506.781 928.125,597.865 928.594,487.46 928.594,451.578 929.062,423.977 929.062,418.456 929.062,421.217 929.062,407.416 929.531,379.815 929.531,415.696 930,451.578 930,396.375 930.469,418.456 930.469,465.379 930.469,470.899 930.938,537.142 930.938,553.703 930.938,479.179 930.938,495.74 931.406,451.578 931.406,515.061 931.875,454.338 931.875,473.659 932.344,465.379 932.344,468.139 932.812,509.541 932.812,492.98 932.812,545.423 932.812,526.102 932.812,481.939 933.281,506.781 933.281,476.419 933.75,468.139 933.75,465.379 934.219,484.7 934.219,537.142 934.688,509.541 934.688,504.021 935.156,553.703 935.156,501.26 935.156,548.183 935.156,520.581 935.625,526.102 935.625,473.659 936.094,650.308 936.094,531.622 936.094,506.781 936.562,495.74 936.562,509.541 937.031,435.017 937.031,374.294 937.031,465.379 937.031,457.098 937.5,448.818 937.5,399.135 937.969,459.858 937.969,470.899 938.438,473.659 938.438,509.541 938.906,495.74 938.906,451.578 938.906,462.619 938.906,539.902 938.906,481.939 939.375,520.581 939.375,495.74 939.844,509.541 939.844,517.821 940.312,484.7 940.312,479.179 940.781,479.179 940.781,473.659 941.25,446.058 941.25,504.021 941.25,487.46 941.25,492.98 941.719,470.899 941.719,484.7 941.719,481.939 942.188,484.7 942.188,468.139 942.656,490.22 942.656,506.781 943.125,490.22 943.125,509.541 943.125,575.784 943.125,559.223 943.594,550.943 943.594,509.541 944.062,501.26 944.062,506.781 944.531,542.662 944.531,490.22 944.531,457.098 945,526.102 945,506.781 945,487.46 945,473.659 945.469,578.544 945.469,564.744 945.938,595.105 945.938,523.341 946.406,506.781 946.406,570.264 946.875,573.024 946.875,526.102 947.344,523.341 947.344,515.061 947.344,534.382 947.344,559.223 947.344,597.865 947.812,498.5 947.812,608.906 948.281,573.024 948.281,564.744 948.75,584.065 948.75,597.865 949.219,578.544 949.219,575.784 949.219,550.943 949.219,526.102 949.688,470.899 949.688,534.382 950.156,492.98 950.156,484.7 950.625,484.7 950.625,459.858 950.625,457.098 951.094,457.098 951.094,492.98 951.094,512.301 951.094,476.419 951.562,470.899 951.562,504.021 952.031,534.382 952.031,504.021 952.5,492.98 952.5,459.858 952.969,473.659 952.969,446.058 953.438,515.061 953.438,559.223 953.438,473.659 953.438,443.298 953.438,459.858 953.906,481.939 953.906,451.578 954.375,468.139 954.375,584.065 954.844,575.784 954.844,479.179 955.312,468.139 955.312,443.298 955.312,473.659 955.312,564.744 955.781,470.899 955.781,542.662 955.781,487.46 956.25,517.821 956.25,526.102 956.719,498.5 956.719,542.662 957.188,539.902 957.188,556.463 957.188,515.061 957.188,575.784 957.656,553.703 957.656,515.061 958.125,484.7 958.125,545.423 958.594,586.825 958.594,509.541 959.062,575.784 959.062,501.26 959.062,531.622 959.531,517.821 959.531,498.5 959.531,526.102 959.531,559.223 960,542.662 960,545.423 960.469,476.419 960.469,446.058 960.938,429.497 960.938,495.74 961.406,506.781 961.406,484.7 961.406,528.862 961.406,487.46 961.875,468.139 961.875,506.781 961.875,515.061 962.344,454.338 962.344,548.183 962.812,589.585 962.812,553.703 963.281,570.264 963.281,545.423 963.281,504.021 963.281,501.26 963.75,476.419 963.75,504.021 964.219,512.301 964.219,459.858 964.688,501.26 964.688,523.341 964.688,515.061 965.156,548.183 965.156,534.382 965.625,481.939 965.625,454.338 965.625,473.659 965.625,448.818 966.094,504.021 966.094,531.622 966.562,531.622 966.562,506.781 967.031,553.703 967.031,550.943 967.5,531.622 967.5,470.899 967.5,435.017 967.5,495.74 967.5,484.7 967.969,520.581 967.969,534.382 968.438,526.102 968.438,457.098 968.906,457.098 968.906,548.183 969.375,501.26 969.375,509.541 969.375,443.298 969.375,457.098 969.844,426.737 969.844,448.818 970.312,528.862 970.312,470.899 970.312,528.862 970.781,531.622 970.781,504.021 971.25,517.821 971.25,515.061 971.719,575.784 971.719,548.183 971.719,528.862 971.719,559.223 972.188,528.862 972.188,531.622 972.656,528.862 972.656,556.463 973.125,531.622 973.125,520.581 973.594,553.703 973.594,534.382 973.594,526.102 973.594,523.341 973.594,479.179 974.062,534.382 974.062,534.382 974.531,584.065 974.531,597.865 975,600.625 975,584.065 975.469,595.105 975.469,567.504 975.469,581.304 975.469,573.024 975.938,517.821 975.938,539.902 975.938,492.98 976.406,512.301 976.406,479.179 976.875,520.581 976.875,564.744 977.344,573.024 977.344,537.142 977.812,539.902 977.812,520.581 977.812,550.943 977.812,586.825 978.281,578.544 978.281,603.385 978.75,608.906 978.75,548.183 979.219,570.264 979.219,515.061 979.219,550.943 979.688,564.744 979.688,561.983 979.688,548.183 979.688,534.382 980.156,492.98 980.156,542.662 980.625,520.581 980.625,550.943 981.094,517.821 981.094,498.5 981.562,526.102 981.562,520.581 981.562,457.098 981.562,473.659 981.562,506.781 982.031,492.98 982.031,531.622 982.5,528.862 982.5,548.183 982.969,561.983 982.969,495.74 983.438,523.341 983.438,509.541 983.906,495.74 983.906,476.419 983.906,465.379 983.906,515.061 984.375,584.065 984.375,539.902 984.844,539.902 984.844,528.862 984.844,526.102 985.312,556.463 985.312,526.102 985.781,592.345 985.781,559.223 985.781,581.304 985.781,564.744 986.25,581.304 986.25,539.902 986.719,586.825 986.719,595.105 987.188,611.666 987.188,559.223 987.656,575.784 987.656,542.662 987.656,622.706 987.656,633.747 987.656,575.784 988.125,586.825 988.125,556.463 988.594,548.183 988.594,592.345 989.062,559.223 989.062,542.662 989.531,614.426 989.531,578.544 990,578.544 990,559.223 990,625.466 990,553.703 990.469,523.341 990.469,512.301 990.469,506.781 990.938,495.74 990.938,531.622 991.406,504.021 991.406,490.22 991.875,526.102 991.875,597.865 991.875,553.703 991.875,584.065 992.344,584.065 992.344,526.102 992.812,490.22 992.812,528.862 993.281,523.341 993.281,542.662 993.281,567.504 993.75,584.065 993.75,573.024 993.75,600.625 993.75,586.825 994.219,614.426 994.219,570.264 994.688,559.223 994.688,581.304 995.156,539.902 995.156,589.585 995.625,559.223 995.625,570.264 996.094,586.825 996.094,570.264 996.094,600.625 996.094,578.544 996.094,567.504 996.562,556.463 996.562,608.906 997.031,606.146 997.031,606.146 997.5,606.146 997.5,573.024 997.969,539.902 997.969,495.74 997.969,479.179 997.969,432.257 998.438,487.46 998.438,457.098 998.906,498.5 998.906,473.659 998.906,476.419 999.375,509.541 999.375,479.179 999.844,531.622 999.844,517.821 999.844,492.98 999.844,498.5 1000.31,539.902 1000.31,556.463 1000.78,506.781 1000.78,517.821 1001.25,537.142 1001.25,481.939 1001.72,470.899 1001.72,490.22 1002.19,504.021 1002.19,523.341 1002.19,584.065 1002.19,570.264 1002.19,567.504 1002.66,504.021 1002.66,498.5 1003.12,559.223 1003.12,564.744 1003.59,534.382 1003.59,534.382 1004.06,553.703 1004.06,550.943 1004.06,567.504 1004.06,564.744 1004.53,603.385 1004.53,603.385 1004.53,606.146 1005,595.105 1005,570.264 1005.47,608.906 1005.47,578.544 1005.94,592.345 1005.94,548.183 1005.94,564.744 1005.94,545.423 1006.41,537.142 1006.41,545.423 1006.88,573.024 1006.88,484.7 1007.34,495.74 1007.34,534.382 1007.81,570.264 1007.81,534.382 1007.81,597.865 1008.28,573.024 1008.28,570.264 1008.28,556.463 1008.28,586.825 1008.75,561.983 1008.75,600.625 1009.22,573.024 1009.22,600.625 1009.69,573.024 1009.69,600.625 1010.16,550.943 1010.16,559.223 1010.16,597.865 1010.16,619.946 1010.16,589.585 1010.62,614.426 1010.62,586.825 1011.09,608.906 1011.09,647.548 1011.56,600.625 1011.56,622.706 1012.03,644.787 1012.03,619.946 1012.03,561.983 1012.03,564.744 1012.5,523.341 1012.5,559.223 1012.97,595.105 1012.97,573.024 1013.44,561.983 1013.44,584.065 1013.44,545.423 1013.91,600.625 1013.91,666.868 1014.38,608.906 1014.38,559.223 1014.38,644.787 1014.38,658.588 1014.84,611.666 1014.84,619.946 1015.31,628.227 1015.31,608.906 1015.78,611.666 1015.78,597.865 1016.25,608.906 1016.25,586.825 1016.25,628.227 1016.25,611.666 1016.25,608.906 1016.72,575.784 1016.72,534.382 1017.19,575.784 1017.19,526.102 1017.66,570.264 1017.66,534.382 1018.12,537.142 1018.12,553.703 1018.12,550.943 1018.12,556.463 1018.59,531.622 1018.59,567.504 1019.06,553.703 1019.06,539.902 1019.06,548.183 1019.53,528.862 1019.53,545.423 1020,531.622 1020,539.902 1020.47,584.065 1020.47,553.703 1020.47,559.223 1020.47,553.703 1020.94,608.906 1020.94,504.021 1021.41,470.899 1021.41,459.858 1021.88,454.338 1021.88,462.619 1021.88,479.179 1022.34,501.26 1022.34,628.227 1022.34,564.744 1022.34,561.983 1022.81,528.862 1022.81,537.142 1023.28,484.7 1023.28,407.416 1023.75,335.652 1023.75,354.973 1024.22,274.929 1024.22,316.331 1024.22,360.494 1024.22,310.811 1024.69,357.733 1024.69,368.774 1024.69,385.335 1025.16,371.534 1025.16,324.612 1025.62,357.733 1025.62,354.973 1026.09,390.855 1026.09,349.453 1026.56,324.612 1026.56,357.733 1026.56,354.973 1026.56,297.011 1027.03,319.092 1027.03,321.852 1027.5,313.571 1027.5,280.45 1027.5,360.494 1027.97,319.092 1027.97,324.612 1028.44,324.612 1028.44,360.494 1028.44,354.973 1028.44,366.014 1028.91,332.892 1028.91,377.055 1029.38,446.058 1029.38,462.619 1029.84,429.497 1029.84,462.619 1030.31,479.179 1030.31,440.537 1030.31,412.936 1030.31,440.537 1030.31,454.338 1030.78,451.578 1030.78,509.541 1031.25,501.26 1031.25,520.581 1031.72,512.301 1031.72,528.862 1032.19,512.301 1032.19,454.338 1032.66,443.298 1032.66,501.26 1032.66,528.862 1032.66,495.74 1033.12,457.098 1033.12,504.021 1033.12,504.021 1033.59,498.5 1033.59,559.223 1034.06,484.7 1034.06,504.021 1034.53,487.46 1034.53,462.619 1034.53,429.497 1034.53,423.977 1035,526.102 1035,573.024 1035.47,592.345 1035.47,581.304 1035.94,539.902 1035.94,523.341 1036.41,490.22 1036.41,550.943 1036.41,548.183 1036.41,542.662 1036.41,611.666 1036.88,595.105 1036.88,584.065 1037.34,589.585 1037.34,578.544 1037.81,523.341 1037.81,484.7 1038.28,476.419 1038.75,481.939 1038.75,512.301 1038.75,548.183 1038.75,512.301 1038.75,465.379 1039.22,495.74 1039.22,526.102 1039.69,559.223 1039.69,573.024 1040.16,567.504 1040.16,476.419 1040.62,534.382 1040.62,515.061 1040.62,523.341 1040.62,534.382 1041.09,506.781 1041.09,531.622 1041.56,515.061 1041.56,564.744 1042.03,481.939 1042.03,470.899 1042.03,515.061 1042.97,600.625 1042.97,534.382 1043.44,608.906 1043.44,559.223 1043.91,564.744 1043.91,559.223 1044.38,537.142 1044.84,548.183 1044.84,553.703 1044.84,539.902 1044.84,517.821 1045.31,550.943 1045.31,553.703 1045.78,556.463 1045.78,539.902 1046.25,531.622 1046.25,534.382 1046.72,512.301 1046.72,490.22 1046.72,542.662 1047.19,487.46 1047.19,523.341 1047.66,523.341 1047.66,484.7 1047.66,495.74 1048.12,479.179 1048.12,504.021 1048.59,487.46 1048.59,484.7 1049.06,484.7 1049.06,465.379 1049.06,421.217 1049.06,421.217 1049.53,473.659 1049.53,432.257 1050,490.22 1050,468.139 1050.47,476.419 1050.47,412.936 1050.47,437.777 1050.94,465.379 1050.94,432.257 1050.94,462.619 1050.94,517.821 1051.41,526.102 1051.41,470.899 1051.88,473.659 1051.88,468.139 1052.34,492.98 1052.34,410.176 1052.81,451.578 1052.81,432.257 1052.81,454.338 1052.81,446.058 1053.28,473.659 1053.28,490.22 1053.28,457.098 1053.75,492.98 1053.75,476.419 1054.22,451.578 1054.22,415.696 1054.69,393.615 1054.69,418.456 1055.16,473.659 1055.16,490.22 1055.62,426.737 1056.09,468.139 1056.09,440.537 1056.09,410.176 1056.56,407.416 1057.03,415.696 1057.03,410.176 1057.5,470.899 1057.5,468.139 1057.97,446.058 1057.97,443.298 1058.91,567.504 1058.91,479.179 1058.91,504.021 1059.38,459.858 1059.38,451.578 1059.84,451.578 1060.31,484.7 1061.25,556.463 1061.25,501.26 1061.25,526.102 1061.72,597.865 1061.72,581.304 1062.19,567.504 1062.66,581.304 1062.66,567.504 1063.12,603.385 1063.12,495.74 1063.12,512.301 1063.12,490.22 1063.59,548.183 1064.06,504.021 1064.53,564.744 1064.53,492.98 1065,462.619 1065,501.26 1065,501.26 1065,517.821 1065.47,487.46 1065.47,501.26 1065.94,448.818 1065.94,484.7 1066.41,470.899 1066.41,504.021 1066.88,492.98 1066.88,512.301 1067.34,490.22 1067.34,490.22 1067.34,509.541 1067.34,451.578 1067.81,476.419 1067.81,459.858 1068.28,501.26 1068.28,495.74 1068.75,476.419 1068.75,470.899 1069.22,481.939 1069.22,509.541 1069.22,490.22 1069.22,476.419 1069.69,561.983 1070.16,542.662 1070.62,534.382 1071.09,473.659 1071.09,468.139 1071.09,462.619 1071.56,440.537 1071.56,484.7 1072.03,504.021 1072.03,404.656 1072.5,437.777 1072.5,423.977 1072.97,443.298 1072.97,423.977 1073.44,481.939 1073.44,476.419 1073.44,468.139 1073.44,470.899 1073.44,465.379 1073.91,465.379 1073.91,459.858 1074.38,470.899 1074.38,465.379 1074.84,459.858 1075.31,426.737 1075.31,429.497 1075.31,454.338 1075.78,476.419 1075.78,484.7 1076.25,545.423 1076.25,484.7 1076.25,512.301 1076.72,473.659 1076.72,515.061 1077.19,473.659 1077.19,481.939 1077.19,429.497 1077.66,459.858 1078.12,473.659 1078.59,451.578 1078.59,462.619 1079.06,468.139 1079.06,435.017 1079.06,437.777 1079.53,446.058 1079.53,415.696 1079.53,446.058 1079.53,481.939 1080,481.939 1080,457.098 1080.47,423.977 1080.47,451.578 1080.94,407.416 1080.94,440.537 1081.41,446.058 1081.41,459.858 1081.41,421.217 1081.88,432.257 1081.88,490.22 1081.88,492.98 1082.34,459.858 1082.34,459.858 1082.81,490.22 1082.81,476.419 1083.28,468.139 1083.28,484.7 1083.28,457.098 1083.28,432.257 1083.75,479.179 1084.22,454.338 1084.22,454.338 1084.69,454.338 1084.69,476.419 1085.16,418.456 1085.16,423.977 1085.62,446.058 1085.62,468.139 1085.62,421.217 1086.09,446.058 1086.09,421.217 1086.56,426.737 1086.56,457.098 1087.03,501.26 1087.5,512.301 1087.5,520.581 1087.5,490.22 1087.5,523.341 1087.5,534.382 1087.97,512.301 1087.97,548.183 1088.44,559.223 1088.44,523.341 1088.91,498.5 1088.91,498.5 1089.84,517.821 1089.84,487.46 1090.31,504.021 1090.31,490.22 1090.31,457.098 1090.78,484.7 1091.25,498.5 1091.25,487.46 1091.72,515.061 1091.72,545.423 1091.72,479.179 1091.72,490.22 1092.19,465.379 1092.19,487.46 1093.12,487.46 1094.53,443.298 1095,426.737 1095.47,468.139 1095.47,517.821 1095.47,484.7 1097.34,484.7 1097.81,457.098 1097.81,432.257 1097.81,429.497 1097.81,412.936 1098.28,459.858 1098.28,457.098 1098.75,473.659 1098.75,448.818 1099.22,429.497 1099.22,437.777 1099.22,468.139 1099.69,459.858 1099.69,435.017 1099.69,435.017 1099.69,421.217 1100.16,432.257 1100.62,528.862 1101.09,423.977 1101.56,412.936 1101.56,390.855 1101.56,454.338 1101.56,443.298 1101.56,388.095 1102.5,412.936 1102.97,363.254 1102.97,412.936 1103.44,360.494 1103.44,363.254 1103.91,338.413 1103.91,457.098 1104.84,435.017 1107.66,407.416 1107.66,418.456 1107.66,435.017 1107.66,451.578 1108.12,437.777 1108.12,451.578 1108.59,459.858 1108.59,435.017 1109.06,435.017 1109.06,421.217 1109.53,429.497 1109.53,470.899 1110,481.939 1111.41,404.656 1112.81,410.176 1113.28,377.055 1113.75,390.855 1113.75,379.815 1113.75,366.014 1113.75,341.173 1114.22,346.693 1114.22,377.055 1114.69,379.815 1115.16,368.774 1115.62,382.575 1116.09,429.497 1116.09,418.456 1116.09,352.213 1116.09,451.578 1116.56,368.774 1117.03,407.416 1117.03,446.058 1117.5,437.777 1117.5,440.537 1117.97,484.7 1117.97,426.737 1117.97,446.058 1117.97,407.416 1118.44,360.494 1118.91,388.095 1120.31,426.737 1122.19,390.855 1122.19,368.774 1122.19,354.973 1122.19,330.132 1122.66,349.453 1123.59,421.217 1123.59,401.896 1124.06,435.017 1124.06,399.135 1124.06,407.416 1124.06,410.176 1124.53,415.696 1125.94,415.696 1125.94,410.176 1126.41,432.257 1126.88,437.777 1126.88,435.017 1127.34,468.139 1127.34,481.939 1127.81,459.858 1127.81,457.098 1128.28,429.497 1128.28,385.335 1128.28,401.896 1128.28,319.092 1128.75,346.693 1128.75,404.656 1129.22,332.892 1129.22,418.456 1129.69,366.014 1129.69,321.852 1130.16,288.73 1130.16,299.771 1130.16,308.051 1130.16,341.173 1130.62,357.733 1131.09,302.531 1131.56,294.25 1131.56,335.652 1132.03,327.372 1132.03,343.933 1132.03,330.132 1132.5,266.649 1132.5,297.011 1133.44,285.97 1133.44,299.771 1133.44,280.45 1133.91,250.088 1133.91,225.247 1134.38,272.169 1134.38,302.531 1134.38,454.338 1134.38,305.291 1134.84,366.014 1134.84,399.135 1135.31,330.132 1135.31,324.612 1135.78,338.413 1136.25,457.098 1136.25,446.058 1136.25,423.977 1136.25,504.021 1136.72,341.173 1136.72,321.852 1137.19,354.973 1137.19,366.014 1137.66,457.098 1137.66,415.696 1138.12,404.656 1138.12,396.375 1138.12,484.7 1138.12,484.7 1138.59,476.419 1139.06,374.294 1139.06,335.652 1139.53,319.092 1140,363.254 1140.47,341.173 1142.34,371.534 1142.34,399.135 1142.81,396.375 1142.81,401.896 1143.28,385.335 1143.28,332.892 1143.75,343.933 1143.75,363.254 1144.22,396.375 1144.22,393.615 1144.22,426.737 1144.22,454.338 1144.69,399.135 1144.69,407.416 1144.69,390.855 1145.16,421.217 1145.16,421.217 1145.62,313.571 1145.62,382.575 1146.09,399.135 1146.09,443.298 1146.56,379.815 1146.56,377.055 1146.56,310.811 1147.5,285.97 1147.5,327.372 1147.97,341.173 1147.97,393.615 1148.91,412.936 1149.38,341.173 1149.84,346.693 1150.31,410.176 1150.31,432.257 1150.78,374.294 1150.78,390.855 1151.25,382.575 1151.72,435.017 1152.19,415.696 1152.19,429.497 1152.66,404.656 1152.66,346.693 1152.66,429.497 1152.66,357.733 1153.12,388.095 1153.12,310.811 1153.59,379.815 1153.59,407.416 1153.59,385.335 1154.06,377.055 1154.06,421.217 1154.53,435.017 1154.53,393.615 1154.53,396.375 1154.53,418.456 1155,443.298 1155,457.098 1155.47,446.058 1155.47,302.531 1155.94,261.129 1155.94,366.014 1156.41,418.456 1156.41,313.571 1156.41,274.929 1157.81,346.693 1160.62,446.058 1161.56,550.943 1161.56,470.899 1162.03,448.818 1162.03,352.213 1162.03,404.656 1162.5,490.22 1162.5,401.896 1162.5,371.534 1162.5,393.615 1162.97,393.615 1162.97,440.537 1163.44,473.659 1163.44,457.098 1163.91,407.416 1163.91,454.338 1164.38,429.497 1164.38,479.179 1164.84,479.179 1164.84,446.058 1164.84,470.899 1164.84,465.379 1164.84,473.659 1165.31,476.419 1165.31,498.5 1165.78,404.656 1165.78,399.135 1166.25,374.294 1166.72,385.335 1166.72,457.098 1166.72,465.379 1167.19,462.619 1167.66,435.017 1167.66,415.696 1168.59,459.858 1169.06,473.659 1172.34,426.737 1172.81,470.899 1172.81,388.095 1172.81,506.781 1172.81,404.656 1173.28,341.173 1173.28,399.135 1173.28,388.095 1173.75,388.095 1173.75,432.257 1174.22,426.737 1174.22,407.416 1174.69,481.939 1174.69,451.578 1174.69,446.058 1174.69,454.338 1175.16,437.777 1175.16,479.179 1175.62,490.22 1175.62,545.423 1176.09,506.781 1176.56,446.058 1176.56,484.7 1176.56,526.102 1177.03,498.5 1177.03,470.899 1177.03,470.899 1177.5,426.737 1177.5,481.939 1177.97,457.098 1177.97,382.575 1178.44,454.338 1178.44,429.497 1178.91,479.179 1178.91,435.017 1178.91,465.379 1178.91,435.017 1178.91,490.22 1179.38,451.578 1179.38,454.338 1179.84,415.696 1179.84,426.737 1180.31,501.26 1180.31,443.298 1180.78,454.338 1180.78,462.619 1180.78,470.899 1180.78,506.781 1181.25,553.703 1181.25,556.463 1181.72,468.139 1181.72,459.858 1182.19,523.341 1182.19,487.46 1182.19,515.061 1182.66,462.619 1182.66,515.061 1183.12,564.744 1183.12,531.622 1183.12,553.703 1187.81,520.581 1189.22,517.821 1191.09,487.46 1191.09,595.105 1191.56,611.666 1192.03,490.22 1192.03,515.061 1192.5,492.98 1192.5,528.862 1192.97,608.906 1192.97,539.902 1192.97,459.858 1192.97,564.744 1193.44,564.744 1193.44,608.906 1193.44,578.544 1193.91,526.102 1193.91,550.943 1194.38,492.98 1194.38,495.74 1194.84,459.858 1194.84,421.217 1195.31,418.456 1195.31,443.298 1195.31,432.257 1195.31,470.899 1195.78,504.021 1195.78,492.98 1196.25,498.5 1196.25,625.466 1196.25,550.943 1196.72,578.544 1196.72,575.784 1197.19,575.784 1197.19,462.619 1197.19,487.46 1197.19,462.619 1197.66,437.777 1197.66,498.5 1198.12,589.585 1198.12,539.902 1198.59,567.504 1198.59,528.862 1199.06,515.061 1199.06,468.139 1199.06,490.22 1199.06,487.46 1199.06,539.902 1199.53,520.581 1199.53,595.105 1200,617.186 1200,586.825 1200.47,600.625 1200.47,559.223 1200.94,567.504 1200.94,528.862 1201.41,550.943 1201.41,581.304 1201.41,559.223 1201.41,479.179 1201.88,437.777 1201.88,465.379 1201.88,501.26 1202.34,526.102 1202.34,490.22 1202.81,504.021 1202.81,595.105 1203.28,575.784 1203.28,564.744 1203.28,512.301 1203.28,559.223 1203.75,523.341 1203.75,630.987 1204.22,608.906 1204.22,642.027 1204.69,608.906 1204.69,564.744 1205.16,512.301 1205.16,528.862 1205.16,548.183 1205.62,537.142 1205.62,575.784 1205.62,539.902 1205.62,537.142 1206.09,517.821 1206.09,528.862 1206.56,515.061 1206.56,526.102 1207.03,561.983 1207.03,666.868 1207.5,653.068 1207.5,559.223 1207.5,592.345 1207.5,556.463 1211.25,600.625 1211.72,561.983 1212.66,570.264 1213.59,462.619 1213.59,470.899 1213.59,495.74 1213.59,542.662 1213.59,550.943 1214.06,570.264 1214.06,592.345 1214.53,584.065 1214.53,564.744 1215,531.622 1215,564.744 1215.47,584.065 1215.47,614.426 1215.47,617.186 1215.47,586.825 1215.94,578.544 1215.94,578.544 1216.41,603.385 1216.41,581.304 1216.41,608.906 1216.88,650.308 1216.88,559.223 1217.34,567.504 1217.81,567.504 1217.81,556.463 1218.28,561.983 1218.28,575.784 1218.75,584.065 1218.75,564.744 1219.22,561.983 1219.22,553.703 1219.69,539.902 1219.69,553.703 1219.69,592.345 1219.69,575.784 1220.16,603.385 1220.16,561.983 1220.62,564.744 1220.62,567.504 1221.09,589.585 1221.09,584.065 1221.56,589.585 1221.56,628.227 1221.56,589.585 1221.56,553.703 1222.03,564.744 1222.03,619.946 1222.03,528.862 1222.5,526.102 1222.5,542.662 1222.97,528.862 1223.91,520.581 1223.91,542.662 1224.38,512.301 1224.84,517.821 1224.84,451.578 1225.78,462.619 1225.78,528.862 1225.78,506.781 1225.78,498.5 1226.25,506.781 1226.25,440.537 1226.72,459.858 1226.72,492.98 1227.19,517.821 1227.19,617.186 1227.66,550.943 1227.66,515.061 1227.66,564.744 1227.66,501.26 1228.12,570.264 1228.12,600.625 1228.59,603.385 1228.59,586.825 1229.06,570.264 1229.06,666.868 1229.53,683.429 1229.53,589.585 1230,597.865 1230,542.662 1230,595.105 1230.47,597.865 1230.47,608.906 1230.94,548.183 1231.88,592.345 1232.34,553.703 1233.28,622.706 1233.75,608.906 1233.75,559.223 1233.75,561.983 1234.22,564.744 1234.69,545.423 1234.69,548.183 1235.16,534.382 1235.16,531.622 1235.62,567.504 1235.62,584.065 1236.09,542.662 1236.09,550.943 1236.09,550.943 1236.09,506.781 1236.09,509.541 1236.56,622.706 1236.56,567.504 1237.03,597.865 1237.03,561.983 1237.5,573.024 1237.5,581.304 1237.97,559.223 1237.97,526.102 1237.97,506.781 1237.97,606.146 1238.44,578.544 1238.44,556.463 1238.91,617.186 1238.91,600.625 1239.38,561.983 1239.38,639.267 1239.38,617.186 1239.84,622.706 1239.84,597.865 1239.84,603.385 1239.84,647.548 1240.31,636.507 1240.31,603.385 1240.78,592.345 1241.25,592.345 1241.25,559.223 1241.72,597.865 1241.72,595.105 1242.19,603.385 1243.59,606.146 1244.06,642.027 1244.06,608.906 1244.53,606.146 1244.53,597.865 1245,573.024 1245.47,548.183 1245.47,515.061 1245.94,575.784 1245.94,509.541 1245.94,526.102 1245.94,495.74 1246.41,479.179 1246.41,473.659 1246.88,495.74 1246.88,512.301 1247.34,517.821 1247.81,619.946 1247.81,661.348 1247.81,768.993 1248.28,680.669 1248.28,664.108 1248.28,622.706 1248.28,584.065 1248.75,630.987 1248.75,628.227 1249.22,559.223 1249.22,628.227 1249.69,586.825 1249.69,542.662 1250.16,573.024 1250.16,542.662 1250.16,542.662 1250.16,578.544 1250.62,548.183 1250.62,567.504 1250.62,559.223 1251.09,567.504 1251.09,584.065 1251.56,564.744 1251.56,597.865 1252.03,595.105 1252.03,603.385 1252.03,608.906 1252.5,573.024 1252.97,614.426 1252.97,614.426 1253.44,642.027 1253.44,644.787 1253.44,672.389 1253.91,597.865 1253.91,617.186 1254.38,625.466 1254.38,608.906 1254.38,633.747 1254.38,636.507 1254.84,567.504 1254.84,545.423 1255.31,636.507 1255.31,506.781 1255.78,531.622 1255.78,501.26 1256.25,495.74 1256.25,504.021 1256.25,548.183 1256.25,545.423 1256.25,515.061 1256.72,556.463 1256.72,633.747 1257.19,658.588 1257.19,625.466 1257.66,603.385 1257.66,633.747 1258.12,625.466 1258.12,589.585 1258.12,639.267 1258.59,597.865 1258.59,589.585 1259.06,581.304 1259.06,608.906 1259.06,628.227 1259.53,644.787 1259.53,603.385 1260,595.105 1260,581.304 1260.47,575.784 1260.47,592.345 1260.47,573.024 1260.47,578.544 1260.94,595.105 1260.94,584.065 1261.41,619.946 1261.41,559.223 1261.88,575.784 1261.88,603.385 1262.34,647.548 1262.34,675.149 1262.34,600.625 1262.34,630.987 1262.34,705.51 1262.81,686.189 1262.81,666.868 1263.28,606.146 1263.28,672.389 1263.75,639.267 1263.75,694.47 1264.22,672.389 1264.22,680.669 1264.69,619.946 1264.69,578.544 1264.69,550.943 1265.16,564.744 1265.16,617.186 1265.62,617.186 1265.62,680.669 1266.09,666.868 1266.09,680.669 1266.56,658.588 1266.56,647.548 1266.56,611.666 1266.56,675.149 1267.03,669.629 1267.03,639.267 1267.5,614.426 1267.5,606.146 1267.97,592.345 1267.97,553.703 1267.97,633.747 1268.44,619.946 1268.44,575.784 1268.44,617.186 1268.44,617.186 1268.91,553.703 1268.91,600.625 1269.38,614.426 1269.38,578.544 1269.84,578.544 1269.84,586.825 1270.31,608.906 1270.31,633.747 1270.31,636.507 1270.31,608.906 1270.31,647.548 1270.78,655.828 1270.78,614.426 1271.25,658.588 1271.25,647.548 1271.72,625.466 1271.72,636.507 1272.19,589.585 1272.19,584.065 1272.66,542.662 1272.66,523.341 1272.66,512.301 1272.66,520.581 1273.12,570.264 1273.12,559.223 1273.59,567.504 1273.59,584.065 1273.59,561.983 1274.06,611.666 1274.06,584.065 1274.53,639.267 1274.53,647.548 1274.53,581.304 1274.53,589.585 1275,578.544 1275,630.987 1277.34,595.105 1277.81,603.385 1278.28,550.943 1278.75,523.341 1278.75,534.382 1278.75,542.662 1279.22,476.419 1279.22,432.257 1280.16,429.497 1280.62,368.774 1280.62,437.777 1280.62,374.294 1281.09,354.973 1281.56,401.896 1282.03,374.294 1282.03,357.733 1282.97,393.615 1283.91,437.777 1284.38,492.98 1284.84,539.902 1285.31,575.784 1285.78,603.385 1286.25,666.868 1286.72,595.105 1286.72,570.264 1286.72,639.267 1287.19,608.906 1287.19,584.065 1287.66,570.264 1287.66,564.744 1288.12,548.183 1288.12,506.781 1288.59,550.943 1288.59,680.669 1290.94,504.021 1290.94,512.301 1291.41,490.22 1291.41,495.74 1291.88,476.419 1292.81,520.581 1292.81,468.139 1293.28,501.26 1293.28,501.26 1293.28,437.777 1293.75,454.338 1293.75,512.301 1294.22,512.301 1294.22,553.703 1294.69,498.5 1294.69,573.024 1294.69,501.26 1294.69,512.301 1295.16,550.943 1295.16,484.7 1295.62,575.784 1295.62,550.943 1296.09,526.102 1296.09,606.146 1296.56,658.588 1296.56,600.625 1296.56,531.622 1297.03,517.821 1297.03,559.223 1297.03,545.423 1297.03,517.821 1297.5,603.385 1297.97,509.541 1298.44,614.426 1298.44,578.544 1298.91,661.348 1299.84,578.544 1299.84,545.423 1300.31,573.024 1300.78,520.581 1300.78,553.703 1300.78,548.183 1301.25,553.703 1301.25,509.541 1301.72,517.821 1301.72,487.46 1302.19,548.183 1302.19,531.622 1302.19,537.142 1302.66,498.5 1303.12,451.578 1303.12,504.021 1303.12,473.659 1303.59,454.338 1303.59,440.537 1304.53,495.74 1304.53,495.74 1305,476.419 1305,619.946 1305,470.899 1305,440.537 1305.47,462.619 1305.47,446.058 1305.94,553.703 1306.41,548.183 1306.41,487.46 1306.88,423.977 1306.88,473.659 1306.88,473.659 1306.88,454.338 1307.34,504.021 1307.34,575.784 1307.81,448.818 1308.28,537.142 1308.28,550.943 1308.75,526.102 1308.75,597.865 1309.22,628.227 1310.16,490.22 1310.62,446.058 1310.62,399.135 1311.56,481.939 1312.03,448.818 1312.5,492.98 1312.97,451.578 1312.97,470.899 1312.97,404.656 1313.44,404.656 1313.44,440.537 1313.91,462.619 1314.38,457.098 1314.84,465.379 1314.84,404.656 1315.31,385.335 1315.31,437.777 1315.31,481.939 1315.31,385.335 1316.72,316.331 1317.19,374.294 1317.19,363.254 1317.19,368.774 1317.19,435.017 1317.66,495.74 1317.66,504.021 1318.12,484.7 1318.12,498.5 1318.59,465.379 1318.59,454.338 1319.06,454.338 1319.06,440.537 1319.06,495.74 1319.06,479.179 1319.06,506.781 1319.53,487.46 1319.53,468.139 1320,492.98 1320.47,465.379 1320.47,468.139 1320.94,476.419 1321.41,440.537 1321.41,454.338 1321.41,443.298 1321.88,454.338 1322.34,490.22 1322.34,520.581 1322.34,517.821 1322.81,512.301 1322.81,567.504 1323.28,490.22 1323.28,512.301 1323.28,512.301 1323.28,548.183 1323.75,506.781 1323.75,520.581 1324.22,561.983 1324.22,492.98 1324.69,473.659 1324.69,459.858 1325.16,534.382 1325.16,476.419 1325.16,506.781 1325.16,517.821 1325.16,506.781 1325.62,567.504 1325.62,446.058 1326.09,545.423 1326.56,512.301 1326.56,539.902 1327.03,534.382 1327.5,457.098 1327.5,492.98 1327.97,517.821 1328.44,457.098 1328.44,457.098 1328.91,393.615 1329.38,421.217 1329.84,468.139 1329.84,443.298 1330.31,504.021 1330.78,534.382 1331.25,520.581 1331.25,501.26 1331.72,487.46 1331.72,454.338 1332.19,534.382 1332.66,501.26 1332.66,457.098 1333.12,487.46 1333.59,517.821 1333.59,556.463 1333.59,495.74 1333.59,495.74 1333.59,479.179 1334.06,479.179 1334.53,517.821 1335,459.858 1335.47,473.659 1335.47,476.419 1335.47,423.977 1335.47,404.656 1335.94,407.416 1335.94,374.294 1336.41,404.656 1336.41,504.021 1336.41,561.983 1336.88,451.578 1336.88,492.98 1337.34,379.815 1337.34,338.413 1337.34,363.254 1337.81,440.537 1338.28,462.619 1338.28,459.858 1338.75,490.22 1339.22,490.22 1339.69,446.058 1339.69,476.419 1339.69,492.98 1339.69,462.619 1340.16,473.659 1340.16,487.46 1340.62,523.341 1340.62,531.622 1341.09,534.382 1341.09,517.821 1341.56,490.22 1341.56,495.74 1341.56,476.419 1342.03,446.058 1342.03,504.021 1342.03,506.781 1342.5,421.217 1342.5,498.5 1342.97,446.058 1342.97,440.537 1343.44,454.338 1343.44,440.537 1343.44,481.939 1343.44,465.379 1343.91,515.061 1343.91,506.781 1344.38,501.26 1344.38,506.781 1346.25,437.777 1347.19,421.217 1347.66,446.058 1347.66,423.977 1347.66,512.301 1347.66,465.379 1347.66,468.139 1348.12,584.065 1348.12,575.784 1348.59,495.74 1348.59,492.98 1349.06,440.537 1349.53,473.659 1349.53,468.139 1349.53,481.939 1349.53,468.139 1350,564.744 1350,578.544 1350.47,459.858 1350.47,468.139 1351.41,542.662 1351.88,473.659 1352.34,495.74 1353.75,457.098 1353.75,484.7 1353.75,537.142 1354.69,465.379 1355.16,465.379 1355.16,473.659 1355.62,537.142 1355.62,468.139 1355.62,484.7 1356.09,451.578 1356.09,407.416 1356.56,412.936 1356.56,407.416 1357.03,437.777 1357.03,437.777 1357.5,537.142 1357.97,468.139 1357.97,492.98 1358.91,476.419 1359.38,421.217 1359.38,412.936 1359.84,448.818 1359.84,457.098 1359.84,446.058 1359.84,446.058 1360.31,435.017 1360.31,437.777 1360.78,421.217 1360.78,465.379 1361.25,512.301 1361.25,465.379 1361.72,432.257 1361.72,465.379 1361.72,534.382 1362.19,509.541 1362.66,443.298 1363.12,446.058 1363.59,435.017 1364.06,462.619 1364.06,468.139 1364.53,481.939 1365,454.338 1365.47,415.696 1365.47,446.058 1365.94,457.098 1365.94,396.375 1365.94,407.416 1366.41,382.575 1367.34,396.375 1367.34,432.257 1367.81,399.135 1368.28,410.176 1368.28,357.733 1368.75,393.615 1369.22,385.335 1370.62,407.416 1372.03,352.213 1372.03,357.733 1372.03,371.534 1372.5,429.497 1372.97,412.936 1373.91,410.176 1374.38,410.176 1376.25,385.335 1377.66,354.973 1378.12,346.693 1378.12,360.494 1378.12,341.173 1378.12,371.534 1378.59,371.534 1378.59,374.294 1379.06,385.335 1379.06,388.095 1379.53,410.176 1379.53,418.456 1379.53,418.456 1380,404.656 1380,382.575 1380.47,368.774 1380.47,382.575 1380.47,346.693 1380.47,357.733 1380.94,379.815 1380.94,371.534 1381.41,335.652 1381.41,363.254 1381.88,382.575 1381.88,330.132 1382.34,354.973 1382.34,346.693 1382.34,379.815 1382.34,399.135 1382.34,363.254 1382.81,374.294 1382.81,377.055 1383.28,410.176 1383.28,432.257 1383.75,379.815 1383.75,390.855 1384.22,401.896 1384.22,412.936 1384.22,412.936 1384.69,410.176 1384.69,412.936 1385.16,385.335 1385.16,393.615 1385.16,396.375 1385.62,377.055 1385.62,379.815 1386.09,371.534 1386.56,360.494 1386.56,349.453 1386.56,346.693 1386.56,335.652 1387.03,310.811 1387.03,305.291 1387.5,288.73 1387.5,305.291 1387.97,316.331 1387.97,335.652 1387.97,374.294 1388.44,341.173 1388.44,310.811 1388.44,352.213 1388.44,343.933 1388.91,346.693 1388.91,324.612 1389.38,360.494 1389.38,332.892 1389.84,335.652 1389.84,297.011 1390.31,299.771 1390.31,280.45 1390.31,261.129 1390.31,297.011 1390.78,302.531 1390.78,352.213 1390.78,297.011 1391.25,194.886 1391.25,255.609 1391.72,308.051 1391.72,261.129 1392.19,269.409 1392.66,366.014 1392.66,288.73 1393.12,283.21 1393.59,283.21 1394.06,319.092 1394.06,374.294 1394.53,388.095 1394.53,346.693 1394.53,352.213 1395,341.173 1395,374.294 1395.47,305.291 1395.47,302.531 1395.94,269.409 1395.94,274.929 1396.41,310.811 1396.41,352.213 1396.41,360.494 1396.41,341.173 1397.34,349.453 1397.81,363.254 1398.28,357.733 1398.28,313.571 1398.75,321.852 1398.75,313.571 1398.75,368.774 1399.22,352.213 1399.22,338.413 1399.69,310.811 1399.69,305.291 1400.16,299.771 1400.16,313.571 1400.62,313.571 1400.62,341.173 1400.62,343.933 1400.62,316.331 1401.09,285.97 1401.56,225.247 1401.56,294.25 1402.5,338.413 1403.44,291.49 1403.91,310.811 1403.91,327.372 1404.38,299.771 1404.38,239.048 1404.84,272.169 1404.84,343.933 1404.84,352.213 1404.84,357.733 1404.84,299.771 1405.31,274.929 1405.31,346.693 1405.78,335.652 1405.78,407.416 1406.25,390.855 1406.25,341.173 1406.72,346.693 1406.72,363.254 1406.72,385.335 1406.72,363.254 1407.19,346.693 1407.19,415.696 1407.66,354.973 1407.66,308.051 1408.12,349.453 1408.12,363.254 1408.12,379.815 1408.59,305.291 1408.59,308.051 1408.59,244.568 1408.59,299.771 1409.06,308.051 1409.06,277.69 1409.53,302.531 1409.53,368.774 1410,313.571 1410,324.612 1410.47,305.291 1410.47,299.771 1410.94,302.531 1410.94,302.531 1410.94,352.213 1410.94,363.254 1410.94,368.774 1411.41,371.534 1411.41,330.132 1411.88,330.132 1411.88,302.531 1412.34,313.571 1412.34,357.733 1412.81,396.375 1412.81,396.375 1412.81,396.375 1412.81,374.294 1413.28,393.615 1413.28,404.656 1413.75,396.375 1413.75,377.055 1413.75,360.494 1414.22,324.612 1414.22,310.811 1414.69,321.852 1414.69,346.693 1414.69,382.575 1414.69,404.656 1415.16,426.737 1415.16,385.335 1415.62,374.294 1415.62,379.815 1416.09,377.055 1416.09,385.335 1416.56,352.213 1416.56,338.413 1416.56,366.014 1417.03,390.855 1417.03,368.774 1417.03,377.055 1417.03,368.774 1417.5,404.656 1417.5,429.497 1417.97,399.135 1417.97,487.46 1418.44,443.298 1418.44,407.416 1418.91,432.257 1418.91,437.777 1418.91,377.055 1418.91,346.693 1419.38,346.693 1419.38,435.017 1419.38,435.017 1419.84,473.659 1419.84,429.497 1420.31,515.061 1420.78,495.74 1420.78,484.7 1420.78,481.939 1421.25,481.939 1421.25,492.98 1421.72,473.659 1421.72,484.7 1422.19,509.541 1422.19,437.777 1423.12,462.619 1424.06,393.615 1424.06,418.456 1424.53,371.534 1424.53,435.017 1425,426.737 1425,415.696 1425,437.777 1425,448.818 1425.47,423.977 1426.41,476.419 1426.88,454.338 1426.88,481.939 1427.34,462.619 1427.34,426.737 1427.81,495.74 1427.81,443.298 1427.81,435.017 1428.28,435.017 1432.5,490.22 1432.97,440.537 1432.97,385.335 1432.97,426.737 1433.44,473.659 1433.44,567.504 1433.44,515.061 1433.91,528.862 1433.91,495.74 1434.84,435.017 1434.84,476.419 1435.31,468.139 1435.31,443.298 1435.78,490.22 1435.78,454.338 1436.25,454.338 1436.25,542.662 1436.72,465.379 1436.72,501.26 1436.72,506.781 1437.19,484.7 1437.19,468.139 1437.19,457.098 1437.66,487.46 1437.66,476.419 1438.12,498.5 1438.59,473.659 1438.59,451.578 1439.06,479.179 1439.53,545.423 1439.53,575.784 1440.47,550.943 1440.94,539.902 1440.94,506.781 1441.41,462.619 1441.41,498.5 1444.22,550.943 1444.22,608.906 1444.69,608.906 1445.16,564.744 1445.16,537.142 1445.16,498.5 1445.16,515.061 1445.16,473.659 1446.56,561.983 1447.03,539.902 1447.5,603.385 1447.97,534.382 1448.44,545.423 1448.44,542.662 1448.91,490.22 1449.38,490.22 1449.38,509.541 1449.38,495.74 1449.38,528.862 1449.84,553.703 1449.84,592.345 1450.31,589.585 1450.31,550.943 1450.78,584.065 1450.78,603.385 1451.25,570.264 1451.25,553.703 1451.25,561.983 1451.25,584.065 1451.25,570.264 1451.72,539.902 1451.72,539.902 1452.19,523.341 1453.59,523.341 1453.59,523.341 1455.94,534.382 1456.41,515.061 1456.41,495.74 1456.41,487.46 1456.88,550.943 1456.88,573.024 1457.34,545.423 1460.62,539.902 1462.03,517.821 1467.66,539.902 1468.12,517.821 1469.53,630.987 1470,619.946 1471.41,561.983 1472.81,586.825 1473.75,617.186 1478.44,504.021 1480.31,548.183 1480.78,578.544 1481.72,581.304 1484.06,578.544 1485,584.065 1485.94,550.943 1487.34,575.784 1493.91,589.585 1494.38,608.906 1495.31,633.747 1496.25,617.186 1498.12,658.588 1498.12,636.507 1499.06,625.466 1499.53,642.027 1500.47,595.105 1500.47,644.787 1500.94,630.987 1500.94,614.426 1501.41,567.504 1501.88,586.825 1502.34,642.027 1502.34,647.548 1502.34,661.348 1502.34,655.828 1502.81,584.065 1502.81,584.065 1503.28,526.102 1503.75,595.105 1503.75,545.423 1504.22,595.105 1504.22,589.585 1504.22,658.588 1504.69,559.223 1504.69,553.703 1505.16,619.946 1505.16,581.304 1505.62,592.345 1505.62,539.902 1506.09,553.703 1506.09,537.142 1506.09,561.983 1506.56,561.983 1506.56,584.065 1507.03,542.662 1507.03,531.622 1507.5,528.862 1507.5,559.223 1507.97,611.666 1507.97,614.426 1508.44,661.348 1508.44,592.345 1508.44,636.507 1508.44,589.585 1508.91,647.548 1508.91,653.068 1509.38,647.548 1509.38,608.906 1509.84,617.186 1509.84,606.146 1510.31,619.946 1510.31,642.027 1510.31,644.787 1510.31,625.466 1510.78,628.227 1510.78,597.865 1510.78,589.585 1511.25,614.426 1512.19,581.304 1512.19,603.385 1512.66,619.946 1512.66,617.186 1513.12,633.747 1513.12,619.946 1513.59,633.747 1513.59,628.227 1514.06,600.625 1514.06,661.348 1514.06,719.311 1514.53,694.47 1514.53,705.51 1514.53,644.787 1514.53,683.429 1515,633.747 1515,636.507 1515.47,666.868 1515.47,628.227 1515.94,625.466 1516.41,550.943 1516.88,578.544 1516.88,559.223 1517.34,575.784 1517.34,694.47 1517.81,606.146 1518.28,584.065 1518.28,537.142 1518.28,600.625 1518.28,575.784 1518.75,561.983 1519.22,642.027 1519.22,614.426 1519.69,578.544 1519.69,595.105 1519.69,603.385 1520.16,614.426 1520.16,603.385 1520.62,642.027 1520.62,600.625 1520.62,603.385 1521.09,567.504 1521.09,584.065 1521.56,592.345 1521.56,570.264 1522.03,586.825 1522.5,619.946 1522.5,559.223 1523.91,600.625 1524.38,625.466 1524.38,642.027 1525.78,633.747 1526.25,697.23 1526.25,727.591 1526.72,630.987 1526.72,603.385 1526.72,597.865 1527.19,584.065 1527.19,595.105 1527.66,559.223 1528.12,589.585 1528.12,573.024 1528.12,608.906 1528.59,647.548 1528.59,639.267 1528.59,633.747 1528.59,655.828 1529.06,628.227 1529.53,603.385 1530,647.548 1530,702.75 1530.47,686.189 1530.47,653.068 1530.94,653.068 1530.94,639.267 1531.41,655.828 1531.41,666.868 1531.88,619.946 1531.88,617.186 1532.34,611.666 1532.81,642.027 1536.09,542.662 1536.56,614.426 1537.03,517.821 1537.03,542.662 1537.5,435.017 1537.5,393.615 1537.97,412.936 1537.97,418.456 1538.44,470.899 1538.91,379.815 1538.91,396.375 1539.84,407.416 1540.78,415.696 1540.78,418.456 1540.78,448.818 1540.78,468.139 1541.25,484.7 1541.72,437.777 1541.72,498.5 1542.19,534.382 1542.19,531.622 1542.66,531.622 1542.66,476.419 1542.66,534.382 1543.12,490.22 1543.12,457.098 1543.12,465.379 1543.12,481.939 1543.59,512.301 1545,526.102 1545,443.298 1545,448.818 1545,446.058 1545.47,495.74 1545.47,473.659 1545.94,435.017 1546.41,423.977 1546.41,479.179 1547.81,501.26 1548.28,567.504 1548.28,520.581 1548.75,528.862 1549.22,523.341 1549.22,487.46 1549.22,515.061 1549.69,490.22 1549.69,498.5 1550.16,487.46 1550.62,523.341 1551.09,492.98 1551.09,479.179 1551.09,509.541 1551.09,476.419 1551.56,526.102 1552.03,470.899 1552.03,451.578 1552.5,490.22 1552.5,517.821 1552.97,553.703 1552.97,548.183 1552.97,545.423 1552.97,611.666 1553.44,528.862 1553.91,451.578 1553.91,440.537 1554.38,415.696 1555.31,423.977 1555.31,426.737 1555.31,437.777 1555.78,429.497 1556.25,492.98 1556.25,584.065 1556.72,443.298 1556.72,454.338 1556.72,454.338 1557.19,465.379 1557.19,542.662 1557.66,487.46 1557.66,462.619 1558.12,462.619 1558.12,492.98 1558.59,586.825 1558.59,539.902 1559.06,528.862 1559.06,523.341 1559.06,481.939 1559.53,498.5 1561.41,487.46 1561.41,531.622 1561.88,470.899 1562.34,465.379 1562.34,512.301 1562.81,509.541 1562.81,509.541 1563.28,479.179 1563.28,534.382 1563.75,517.821 1564.22,501.26 1564.69,498.5 1565.16,539.902 1565.16,567.504 1565.16,578.544 1565.16,570.264 1565.16,584.065 1565.62,586.825 1565.62,600.625 1566.09,545.423 1566.09,567.504 1566.56,531.622 1566.56,523.341 1567.03,509.541 1567.03,528.862 1567.5,487.46 1567.5,479.179 1567.5,534.382 1567.5,548.183 1567.97,545.423 1567.97,501.26 1567.97,550.943 1568.44,470.899 1568.44,479.179 1568.91,465.379 1568.91,481.939 1569.38,481.939 1569.38,476.419 1569.38,440.537 1569.38,437.777 1569.84,462.619 1569.84,440.537 1570.31,429.497 1570.31,465.379 1570.78,399.135 1570.78,418.456 1571.25,423.977 1571.25,396.375 1571.25,354.973 1571.25,393.615 1571.25,379.815 1571.72,435.017 1571.72,440.537 1572.19,468.139 1572.66,410.176 1572.66,457.098 1573.12,410.176 1573.12,437.777 1573.59,423.977 1573.59,443.298 1573.59,457.098 1573.59,443.298 1573.59,421.217 1574.06,390.855 1575.47,429.497 1575.47,423.977 1575.47,415.696 1576.88,526.102 1577.34,534.382 1577.34,537.142 1578.28,506.781 1578.75,446.058 1579.22,534.382 1579.69,448.818 1579.69,457.098 1579.69,517.821 1579.69,476.419 1580.16,437.777 1580.16,457.098 1580.62,448.818 1580.62,421.217 1581.56,470.899 1581.56,440.537 1581.56,437.777 1582.03,484.7 1582.5,481.939 1583.44,401.896 1586.72,435.017 1587.66,490.22 1587.66,457.098 1588.12,465.379 1588.12,448.818 1588.59,468.139 1588.59,495.74 1589.06,462.619 1589.06,490.22 1589.53,468.139 1589.53,498.5 1589.53,459.858 1589.53,465.379 1590,451.578 1590,515.061 1590.47,459.858 1590.47,506.781 1590.94,509.541 1590.94,498.5 1590.94,429.497 1591.41,465.379 1591.41,404.656 1591.88,454.338 1591.88,423.977 1591.88,470.899 1591.88,374.294 1592.34,421.217 1592.81,448.818 1592.81,418.456 1593.28,443.298 1593.28,435.017 1593.75,451.578 1593.75,454.338 1593.75,465.379 1593.75,492.98 1593.75,509.541 1594.22,432.257 1594.69,462.619 1594.69,473.659 1595.16,459.858 1595.16,432.257 1595.62,454.338 1595.62,470.899 1595.62,487.46 1596.09,476.419 1597.03,432.257 1597.5,418.456 1597.5,432.257 1597.97,440.537 1597.97,437.777 1597.97,457.098 1598.44,506.781 1598.44,498.5 1598.91,484.7 1598.91,457.098 1599.38,473.659 1599.38,479.179 1599.84,476.419 1599.84,448.818 1599.84,501.26 1599.84,517.821 1600.31,504.021 1600.31,451.578 1601.72,382.575 1601.72,360.494 1601.72,396.375 1602.19,465.379 1602.19,440.537 1602.19,410.176 1602.66,412.936 1602.66,352.213 1603.12,415.696 1603.12,407.416 1603.59,415.696 1603.59,404.656 1604.06,382.575 1604.06,454.338 1604.53,432.257 1604.53,429.497 1605,440.537 1605,426.737 1605.47,401.896 1605.47,379.815 1605.47,388.095 1605.94,426.737 1606.41,385.335 1606.88,354.973 1606.88,288.73 1607.34,341.173 1607.34,343.933 1607.81,269.409 1607.81,343.933 1607.81,476.419 1609.69,412.936 1610.16,454.338 1612.97,368.774 1613.91,459.858 1613.91,423.977 1613.91,410.176 1613.91,423.977 1613.91,250.088 1614.38,319.092 1614.38,338.413 1614.84,357.733 1614.84,374.294 1615.31,421.217 1615.31,368.774 1615.78,360.494 1616.25,338.413 1616.25,288.73 1616.25,352.213 1616.25,357.733 1616.72,399.135 1616.72,366.014 1616.72,396.375 1617.19,363.254 1617.19,352.213 1617.66,319.092 1617.66,371.534 1618.12,371.534 1618.12,352.213 1618.12,338.413 1618.12,327.372 1618.59,341.173 1624.22,332.892 1624.22,338.413 1625.16,319.092"/>
</g>
</svg>
