<?xml version="1.0" encoding="UTF-8" standalone="no"?>
<svg xmlns="http://www.w3.org/2000/svg"
     xmlns:xlink="http://www.w3.org/1999/xlink"
     width="1920px" height="1016px" viewBox="0 0 1920 1016">
<title>glps_renderer figure</title>
<desc>
Creator: GL2PS 1.3.8, (C) 1999-2012 C. Geuzaine
For: Octave
CreationDate: Sun Nov  2 18:26:12 2014
</desc>
<defs>
</defs>
<g shape-rendering="crispEdges">
<polygon fill="#ffffff" points="1738.12,904.24 1738.12,76.2 1738.12,904.24"/>
<polygon fill="#ffffff" points="1738.12,76.2 1738.12,76.2 1738.12,904.24"/>
<polygon fill="#ffffff" points="249.844,76.2 1738.12,76.2 249.844,76.2"/>
<polygon fill="#ffffff" points="1738.12,76.2 1738.12,76.2 249.844,76.2"/>
<polygon fill="#ffffff" points="249.844,904.24 1738.12,904.24 249.844,76.2"/>
<polygon fill="#ffffff" points="1738.12,904.24 1738.12,76.2 249.844,76.2"/>
<polyline fill="none" stroke="#000000" stroke-width="0.5" stroke-dasharray="16,0" points="249.844,904.24 1738.12,904.24"/>
<polyline fill="none" stroke="#000000" stroke-width="0.5" stroke-dasharray="16,0" points="249.844,76.2 1738.12,76.2"/>
<polyline fill="none" stroke="#000000" stroke-width="0.5" stroke-dasharray="16,0" points="249.844,76.2 1738.12,76.2"/>
<polyline fill="none" stroke="#000000" stroke-width="0.5" stroke-dasharray="16,0" points="249.844,904.24 1738.12,904.24"/>
<polyline fill="none" stroke="#000000" stroke-width="0.5" stroke-dasharray="16,0" points="249.844,904.24 249.844,76.2"/>
<polyline fill="none" stroke="#000000" stroke-width="0.5" stroke-dasharray="16,0" points="1738.12,904.24 1738.12,76.2"/>
<polyline fill="none" stroke="#000000" stroke-width="0.5" stroke-dasharray="16,0" points="1738.12,904.24 1738.12,76.2"/>
<polyline fill="none" stroke="#000000" stroke-width="0.5" stroke-dasharray="16,0" points="249.844,904.24 249.844,76.2 249.844,76.2"/>
<polyline fill="none" stroke="#000000" stroke-width="0.5" stroke-dasharray="16,0" points="1738.12,76.2 1738.12,76.2"/>
<polyline fill="none" stroke="#000000" stroke-width="0.5" stroke-dasharray="16,0" points="1738.12,904.24 1738.12,904.24"/>
<polyline fill="none" stroke="#000000" stroke-width="0.5" stroke-dasharray="16,0" points="249.844,904.24 249.844,904.24 249.844,889.359"/>
<polyline fill="none" stroke="#000000" stroke-width="0.5" stroke-dasharray="16,0" points="249.844,76.2 249.844,91.0807"/>
<polyline fill="none" stroke="#000000" stroke-width="0.5" stroke-dasharray="16,0" points="547.5,904.24 547.5,889.359"/>
<polyline fill="none" stroke="#000000" stroke-width="0.5" stroke-dasharray="16,0" points="547.5,76.2 547.5,91.0807"/>
<polyline fill="none" stroke="#000000" stroke-width="0.5" stroke-dasharray="16,0" points="845.156,904.24 845.156,889.359"/>
<polyline fill="none" stroke="#000000" stroke-width="0.5" stroke-dasharray="16,0" points="845.156,76.2 845.156,91.0807"/>
<polyline fill="none" stroke="#000000" stroke-width="0.5" stroke-dasharray="16,0" points="1142.34,904.24 1142.34,889.359"/>
<polyline fill="none" stroke="#000000" stroke-width="0.5" stroke-dasharray="16,0" points="1142.34,76.2 1142.34,91.0807"/>
<polyline fill="none" stroke="#000000" stroke-width="0.5" stroke-dasharray="16,0" points="1440.47,904.24 1440.47,889.359"/>
<polyline fill="none" stroke="#000000" stroke-width="0.5" stroke-dasharray="16,0" points="1440.47,76.2 1440.47,91.0807"/>
<polyline fill="none" stroke="#000000" stroke-width="0.5" stroke-dasharray="16,0" points="1738.12,904.24 1738.12,889.359"/>
<polyline fill="none" stroke="#000000" stroke-width="0.5" stroke-dasharray="16,0" points="1738.12,76.2 1738.12,91.0807"/>
<text fill="#000000" x="249.237" y="909.24" font-size="10" text-anchor="middle" baseline-shift="-10" font-family="Helvetica">1.4138e+09</text>
<text fill="#000000" x="547.127" y="909.24" font-size="10" text-anchor="middle" baseline-shift="-10" font-family="Helvetica">1.4139e+09</text>
<text fill="#000000" x="844.655" y="909.24" font-size="10" text-anchor="middle" baseline-shift="-10" font-family="Helvetica">1.414e+09</text>
<text fill="#000000" x="1142.18" y="909.24" font-size="10" text-anchor="middle" baseline-shift="-10" font-family="Helvetica">1.4141e+09</text>
<text fill="#000000" x="1440.07" y="909.24" font-size="10" text-anchor="middle" baseline-shift="-10" font-family="Helvetica">1.4142e+09</text>
<text fill="#000000" x="1737.6" y="909.24" font-size="10" text-anchor="middle" baseline-shift="-10" font-family="Helvetica">1.4143e+09</text>
<polyline fill="none" stroke="#000000" stroke-width="0.5" stroke-dasharray="16,0" points="249.844,904.24 264.844,904.24"/>
<polyline fill="none" stroke="#000000" stroke-width="0.5" stroke-dasharray="16,0" points="1738.12,904.24 1723.12,904.24"/>
<polyline fill="none" stroke="#000000" stroke-width="0.5" stroke-dasharray="16,0" points="249.844,738.632 264.844,738.632"/>
<polyline fill="none" stroke="#000000" stroke-width="0.5" stroke-dasharray="16,0" points="1738.12,738.632 1723.12,738.632"/>
<polyline fill="none" stroke="#000000" stroke-width="0.5" stroke-dasharray="16,0" points="249.844,573.024 264.844,573.024"/>
<polyline fill="none" stroke="#000000" stroke-width="0.5" stroke-dasharray="16,0" points="1738.12,573.024 1723.12,573.024"/>
<polyline fill="none" stroke="#000000" stroke-width="0.5" stroke-dasharray="16,0" points="249.844,407.416 264.844,407.416"/>
<polyline fill="none" stroke="#000000" stroke-width="0.5" stroke-dasharray="16,0" points="1738.12,407.416 1723.12,407.416"/>
<polyline fill="none" stroke="#000000" stroke-width="0.5" stroke-dasharray="16,0" points="249.844,241.808 264.844,241.808"/>
<polyline fill="none" stroke="#000000" stroke-width="0.5" stroke-dasharray="16,0" points="1738.12,241.808 1723.12,241.808"/>
<polyline fill="none" stroke="#000000" stroke-width="0.5" stroke-dasharray="16,0" points="249.844,76.2 264.844,76.2"/>
<polyline fill="none" stroke="#000000" stroke-width="0.5" stroke-dasharray="16,0" points="1738.12,76.2 1723.12,76.2"/>
<text fill="#000000" x="244.151" y="904.24" font-size="10" text-anchor="end" baseline-shift="-5" font-family="Helvetica">40</text>
<text fill="#000000" x="244.151" y="738.632" font-size="10" text-anchor="end" baseline-shift="-5" font-family="Helvetica">50</text>
<text fill="#000000" x="244.151" y="573.024" font-size="10" text-anchor="end" baseline-shift="-5" font-family="Helvetica">60</text>
<text fill="#000000" x="244.151" y="407.416" font-size="10" text-anchor="end" baseline-shift="-5" font-family="Helvetica">70</text>
<text fill="#000000" x="244.151" y="241.808" font-size="10" text-anchor="end" baseline-shift="-5" font-family="Helvetica">80</text>
<text fill="#000000" x="244.151" y="76.2" font-size="10" text-anchor="end" baseline-shift="-5" font-family="Helvetica">90</text>
<polyline fill="none" stroke="#0000ff" stroke-width="0.5" points="367.5,852.901 368.438,682.325 369.844,664.108 369.844,657.484 369.844,722.071 369.844,680.669 369.844,682.325 370.312,672.389 370.312,672.389 370.781,702.198 370.781,685.637 371.25,695.574 371.25,670.733 371.719,703.854 371.719,736.976 371.719,713.791 371.719,688.95 372.188,702.198 372.188,639.267 372.656,655.828 372.656,667.421 373.125,745.256 373.125,768.441 373.125,733.664 373.594,688.95 373.594,756.849 373.594,756.849 373.594,776.722 374.062,746.912 374.062,783.346 374.531,756.849 374.531,720.415 375,745.256 375,660.796 375.469,660.796 375.469,669.077 375.938,675.701 375.938,674.045 375.938,698.886 375.938,645.891 375.938,644.235 376.406,635.955 376.406,650.86 376.875,617.738 376.875,617.738 377.344,634.299 377.344,637.611 377.812,640.923 377.812,635.955 377.812,642.579 377.812,609.458 378.281,632.643 378.281,604.489 378.75,652.516 378.75,682.325 378.75,672.389 379.219,622.706 379.219,602.833 379.688,667.421 379.688,677.357 379.688,621.05 379.688,717.103 380.156,654.172 380.156,642.579 380.625,586.273 380.625,584.617 381.094,612.77 381.094,601.177 381.562,647.547 381.562,624.362 381.562,649.204 382.031,619.394 382.031,680.669 382.031,662.452 382.031,639.267 382.5,586.273 382.5,584.617 382.969,612.77 382.969,591.241 383.438,639.267 383.438,667.421 383.906,677.357 383.906,609.458 383.906,582.96 383.906,592.897 384.375,602.833 384.375,622.706 384.375,630.987 384.844,626.018 384.844,609.458 385.312,642.579 385.312,612.77 385.781,601.177 385.781,679.013 385.781,655.828 385.781,624.362 386.25,649.204 386.25,664.108 386.719,644.235 386.719,626.018 387.188,637.611 387.188,616.082 387.188,657.484 387.656,601.177 387.656,581.304 388.125,564.744 388.125,563.087 388.125,554.807 388.125,579.648 388.594,597.865 388.594,574.68 389.062,577.992 389.062,619.394 389.531,601.177 389.531,606.146 390,611.114 390,576.336 390,619.394 390,659.14 390,619.394 390.469,642.579 390.469,654.172 390.938,644.235 390.938,654.172 391.406,667.421 391.406,675.701 391.875,650.86 391.875,655.828 392.344,626.018 392.344,624.362 392.344,645.891 392.344,652.516 392.812,639.267 392.812,665.764 392.812,670.733 393.281,667.421 393.281,665.764 393.75,647.547 393.75,682.325 394.219,690.606 394.219,644.235 394.219,652.516 394.219,690.606 394.688,655.828 394.688,659.14 395.156,665.764 395.156,642.579 395.625,626.018 395.625,655.828 396.094,654.172 396.094,634.299 396.094,642.579 396.094,627.675 396.094,604.489 396.562,627.675 396.562,649.204 397.031,629.331 397.031,627.675 397.5,657.484 397.5,647.547 397.969,674.045 397.969,665.764 398.438,705.51 398.438,722.071 398.438,670.733 398.438,637.611 398.438,639.267 398.906,632.643 398.906,672.389 399.375,660.796 399.375,669.077 399.844,655.828 399.844,644.235 400.312,607.802 400.312,609.458 400.312,642.579 400.312,611.114 400.781,591.241 400.781,616.082 401.25,659.14 401.25,627.675 401.719,619.394 401.719,619.394 401.719,609.458 402.188,637.611 402.188,647.547 402.188,621.05 402.188,587.929 402.656,587.929 402.656,627.675 403.125,551.495 403.125,516.717 403.594,587.929 403.594,642.579 404.062,617.738 404.062,599.521 404.531,599.521 404.531,665.764 404.531,657.484 404.531,584.617 404.531,571.368 405,548.183 405,634.299 405.469,576.336 405.469,523.341 405.938,602.833 405.938,584.617 406.406,634.299 406.406,645.891 406.406,654.172 406.406,609.458 406.875,579.648 406.875,617.738 407.344,559.775 407.344,587.929 407.344,558.119 407.812,559.775 407.812,543.215 408.281,584.617 408.281,539.902 408.281,576.336 408.281,566.4 408.75,589.585 408.75,606.146 409.219,571.368 409.219,577.992 409.688,549.839 409.688,569.712 410.156,582.96 410.156,616.082 410.156,556.463 410.625,581.304 410.625,587.929 410.625,561.431 410.625,558.119 411.094,551.495 411.094,587.929 411.562,601.177 411.562,614.426 412.031,624.362 412.031,607.802 412.5,586.273 412.5,634.299 412.5,645.891 412.5,645.891 412.969,621.05 412.969,626.018 412.969,677.357 413.438,675.701 413.438,685.637 413.906,639.267 413.906,626.018 414.375,637.611 414.375,629.331 414.375,602.833 414.375,614.426 414.844,703.854 414.844,665.764 415.312,677.357 415.312,703.854 415.781,690.606 415.781,717.103 415.781,700.542 416.25,708.822 416.25,698.886 416.719,655.828 416.719,647.547 416.719,629.331 416.719,708.822 417.188,632.643 417.188,654.172 417.656,660.796 417.656,728.695 418.125,672.389 418.125,688.95 418.594,624.362 418.594,644.235 418.594,700.542 418.594,672.389 418.594,644.235 419.062,662.452 419.062,700.542 419.531,682.325 419.531,692.262 420,725.383 420,730.352 420.469,700.542 420.469,692.262 420.469,695.574 420.469,662.452 420.938,664.108 420.938,626.018 421.406,650.86 421.406,602.833 421.406,596.209 421.875,591.241 421.875,634.299 422.344,642.579 422.344,607.802 422.812,630.987 422.812,627.675 422.812,629.331 422.812,660.796 423.281,644.235 423.281,645.891 423.75,622.706 423.75,617.738 424.219,635.955 424.219,635.955 424.688,667.421 424.688,647.547 424.688,642.579 424.688,621.05 424.688,634.299 425.156,657.484 425.156,649.204 425.625,581.304 425.625,591.241 426.094,624.362 426.094,635.955 426.562,627.675 426.562,634.299 426.562,650.86 426.562,708.822 427.031,707.166 427.031,710.479 427.031,697.23 427.5,680.669 427.5,639.267 427.969,634.299 427.969,677.357 428.438,664.108 428.906,674.045 428.906,657.484 428.906,640.923 428.906,644.235 429.375,677.357 429.375,679.013 429.844,698.886 429.844,667.421 430.312,680.669 430.312,710.479 430.312,685.637 430.781,660.796 430.781,698.886 430.781,700.542 430.781,695.574 431.25,688.95 431.25,682.325 431.719,665.764 431.719,692.262 432.188,685.637 432.188,665.764 432.656,717.103 432.656,740.288 432.656,750.224 432.656,733.664 432.656,720.415 433.125,679.013 433.125,659.14 433.594,627.675 433.594,634.299 434.062,630.987 434.062,639.267 434.531,667.421 434.531,647.547 435,698.886 435,672.389 435,629.331 435,616.082 435.469,619.394 435.469,639.267 435.938,640.923 435.938,674.045 435.938,667.421 436.406,624.362 436.406,647.547 436.875,657.484 436.875,627.675 436.875,612.77 436.875,645.891 437.344,702.198 437.344,634.299 437.812,606.146 437.812,626.018 438.281,642.579 438.281,665.764 438.75,617.738 438.75,581.304 438.75,604.489 438.75,632.643 438.75,644.235 439.219,642.579 439.219,665.764 439.688,657.484 439.688,599.521 440.156,672.389 440.156,626.018 440.625,577.992 440.625,604.489 441.094,584.617 441.094,591.241 441.094,586.273 441.094,674.045 441.562,667.421 441.562,632.643 441.562,634.299 442.031,634.299 442.031,655.828 442.5,614.426 442.5,621.05 442.969,644.235 442.969,683.981 442.969,655.828 442.969,708.822 443.438,657.484 443.438,639.267 443.906,674.045 443.906,712.135 444.375,657.484 444.375,642.579 444.844,611.114 444.844,607.802 444.844,637.611 444.844,616.082 444.844,657.484 445.312,645.891 445.312,705.51 445.781,652.516 445.781,670.733 446.25,647.547 446.25,611.114 446.719,617.738 446.719,635.955 447.188,637.611 447.188,635.955 447.188,664.108 447.188,680.669 447.188,672.389 447.656,674.045 447.656,667.421 448.125,659.14 448.125,667.421 448.594,665.764 448.594,667.421 449.062,672.389 449.062,675.701 449.062,650.86 449.062,637.611 449.531,632.643 449.531,655.828 450,655.828 450,687.293 450,664.108 450.469,685.637 450.469,654.172 450.938,659.14 450.938,693.918 450.938,649.204 450.938,683.981 451.406,659.14 451.406,642.579 451.875,626.018 451.875,614.426 452.344,626.018 452.344,639.267 452.812,635.955 452.812,645.891 453.281,630.987 453.281,624.362 453.281,652.516 453.281,604.489 453.281,586.273 453.75,652.516 453.75,635.955 454.219,645.891 454.219,626.018 454.688,665.764 454.688,672.389 455.156,685.637 455.156,715.447 455.156,672.389 455.156,655.828 455.625,645.891 455.625,630.987 456.094,611.114 456.094,685.637 456.094,665.764 456.562,652.516 456.562,612.77 457.031,645.891 457.031,635.955 457.031,582.96 457.031,561.431 457.5,576.336 457.5,576.336 457.969,574.68 457.969,629.331 458.438,587.929 458.438,622.706 458.906,677.357 458.906,644.235 458.906,591.241 459.375,589.585 459.375,582.96 459.375,576.336 459.375,581.304 459.844,531.622 459.844,539.902 460.312,549.839 460.312,566.4 460.781,611.114 460.781,582.96 461.25,568.056 461.25,614.426 461.25,616.082 461.25,611.114 461.25,630.987 461.719,652.516 461.719,665.764 462.188,657.484 462.188,660.796 462.656,629.331 462.656,621.05 463.125,635.955 463.125,606.146 463.125,586.273 463.125,594.553 463.594,609.458 463.594,626.018 464.062,591.241 464.062,609.458 464.531,606.146 464.531,611.114 464.531,599.521 465,592.897 465,591.241 465.469,587.929 465.469,596.209 465.469,596.209 465.469,639.267 465.938,634.299 465.938,630.987 466.406,612.77 466.406,617.738 466.875,564.744 466.875,606.146 467.344,594.553 467.344,586.273 467.344,602.833 467.344,617.738 467.344,612.77 467.812,587.929 467.812,579.648 468.281,569.712 468.281,677.357 468.75,690.606 468.75,683.981 469.219,626.018 469.219,591.241 469.219,584.617 469.219,592.897 469.688,626.018 470.156,659.14 470.156,634.299 470.156,621.05 470.625,645.891 470.625,626.018 471.094,626.018 471.094,657.484 471.562,642.579 471.562,649.204 471.562,639.267 471.562,645.891 472.031,639.267 472.031,645.891 472.5,677.357 472.5,685.637 472.969,677.357 472.969,634.299 473.438,669.077 473.438,654.172 473.438,655.828 473.438,622.706 473.438,635.955 473.906,659.14 473.906,710.479 474.375,725.383 474.375,697.23 474.844,644.235 474.844,662.452 475.312,657.484 475.312,634.299 475.312,639.267 475.312,652.516 475.781,650.86 475.781,647.547 475.781,634.299 476.25,624.362 476.25,609.458 476.719,607.802 476.719,634.299 477.188,635.955 477.188,621.05 477.656,630.987 477.656,622.706 477.656,662.452 477.656,674.045 478.125,614.426 478.125,642.579 478.594,629.331 478.594,637.611 479.062,621.05 479.062,621.05 479.062,647.547 479.531,667.421 479.531,662.452 479.531,662.452 479.531,662.452 480,644.235 480,629.331 480.469,652.516 480.469,654.172 480.938,674.045 480.938,664.108 481.406,665.764 481.406,645.891 481.406,662.452 481.406,670.733 481.406,642.579 481.875,645.891 481.875,647.547 482.344,644.235 482.344,692.262 482.812,692.262 482.812,717.103 483.281,654.172 483.281,655.828 483.75,659.14 483.75,642.579 483.75,642.579 483.75,630.987 484.219,640.923 484.219,649.204 484.688,662.452 484.688,649.204 484.688,652.516 485.156,664.108 485.156,657.484 485.625,629.331 485.625,601.177 485.625,675.701 485.625,617.738 486.094,614.426 486.094,606.146 486.562,617.738 486.562,614.426 487.031,601.177 487.031,662.452 487.5,647.547 487.5,669.077 487.5,657.484 487.5,652.516 487.5,639.267 487.969,637.611 487.969,614.426 488.438,649.204 488.438,695.574 488.906,645.891 488.906,617.738 489.375,634.299 489.375,635.955 489.844,614.426 489.844,621.05 489.844,609.458 489.844,616.082 490.312,627.675 490.312,650.86 490.312,629.331 490.781,617.738 490.781,626.018 491.25,611.114 491.25,622.706 491.719,612.77 491.719,630.987 491.719,599.521 491.719,611.114 492.188,606.146 492.188,627.675 492.656,614.426 492.656,614.426 493.125,617.738 493.125,602.833 493.125,594.553 493.594,614.426 493.594,616.082 493.594,606.146 493.594,596.209 494.062,594.553 494.062,602.833 494.531,599.521 494.531,606.146 495,584.617 495,616.082 495.469,632.643 495.469,619.394 495.938,612.77 495.938,645.891 495.938,664.108 495.938,589.585 495.938,675.701 496.406,622.706 496.406,611.114 496.875,584.617 496.875,581.304 497.344,589.585 497.344,571.368 497.812,573.024 497.812,642.579 497.812,609.458 497.812,581.304 498.281,601.177 498.281,667.421 498.75,650.86 498.75,601.177 498.75,619.394 499.219,617.738 499.219,617.738 499.688,592.897 499.688,665.764 499.688,669.077 499.688,664.108 500.156,649.204 500.156,687.293 500.625,665.764 500.625,617.738 501.094,606.146 501.094,630.987 501.562,587.929 501.562,594.553 502.031,632.643 502.031,589.585 502.031,574.68 502.031,559.775 502.031,584.617 502.5,635.955 502.5,670.733 502.969,632.643 502.969,621.05 503.438,611.114 503.438,606.146 503.906,607.802 503.906,607.802 503.906,627.675 503.906,614.426 504.375,627.675 504.375,617.738 504.375,632.643 504.844,624.362 504.844,635.955 505.312,602.833 505.312,634.299 505.781,635.955 505.781,594.553 505.781,594.553 505.781,619.394 506.25,609.458 506.25,635.955 506.719,637.611 506.719,664.108 507.188,629.331 507.188,626.018 507.656,614.426 507.656,632.643 507.656,622.706 508.125,619.394 508.125,626.018 508.125,639.267 508.125,639.267 508.594,624.362 508.594,655.828 509.062,657.484 509.062,640.923 509.531,645.891 509.531,645.891 510,654.172 510,640.923 510,630.987 510,647.547 510,655.828 510.469,629.331 510.469,634.299 510.938,630.987 510.938,617.738 511.406,612.77 511.406,612.77 511.875,602.833 511.875,679.013 511.875,637.611 511.875,659.14 512.344,634.299 512.344,617.738 512.812,682.325 512.812,655.828 513.281,637.611 513.281,642.579 513.281,683.981 513.75,674.045 513.75,649.204 514.219,632.643 514.219,664.108 514.219,624.362 514.219,602.833 514.688,647.547 514.688,635.955 515.156,626.018 515.156,604.489 515.625,616.082 515.625,609.458 516.094,626.018 516.094,597.865 516.094,576.336 516.094,581.304 516.094,568.056 516.562,577.992 516.562,594.553 517.031,621.05 517.031,614.426 517.5,606.146 517.5,621.05 517.969,599.521 517.969,592.897 517.969,582.96 517.969,569.712 518.438,563.087 518.438,533.278 518.906,546.527 518.906,541.558 518.906,539.902 519.375,539.902 519.375,511.749 519.844,539.902 519.844,496.844 520.312,490.22 520.312,529.966 520.312,523.341 520.312,520.029 520.781,652.516 520.781,619.394 521.25,586.273 521.25,632.643 521.719,604.489 521.719,586.273 521.719,584.617 522.188,546.527 522.188,496.844 522.188,528.31 522.188,614.426 522.656,579.648 522.656,493.532 523.125,445.506 523.125,463.723 523.594,496.844 523.594,582.96 524.062,508.437 524.062,511.749 524.062,420.665 524.062,402.448 524.531,392.511 524.531,432.257 524.531,491.876 525,510.093 525,556.463 525.469,533.278 525.469,506.781 525.938,467.035 525.938,472.003 526.406,637.611 526.406,546.527 526.406,515.061 526.406,467.035 526.875,486.908 526.875,523.341 527.344,556.463 527.344,569.712 527.344,533.278 527.812,592.897 527.812,609.458 528.281,586.273 528.281,589.585 528.281,503.469 528.281,467.035 528.75,420.665 528.75,498.5 529.219,529.966 529.219,490.22 529.688,457.098 529.688,475.315 530.156,513.405 530.156,488.564 530.156,440.538 530.156,450.474 530.156,465.379 530.625,463.723 530.625,496.844 531.094,496.844 531.094,500.156 531.562,539.902 531.562,520.029 532.031,516.717 532.031,515.061 532.5,508.437 532.5,518.373 532.5,520.029 532.5,650.86 532.969,629.331 532.969,604.489 532.969,556.463 533.438,554.807 533.438,529.966 533.906,520.029 533.906,520.029 534.375,470.347 534.375,400.792 534.375,427.289 534.375,402.448 534.844,410.728 534.844,414.04 535.312,493.532 535.312,503.469 535.781,531.622 536.25,475.315 536.25,465.379 536.25,495.188 536.25,521.685 536.25,520.029 536.719,463.723 536.719,465.379 537.188,529.966 537.188,630.987 537.656,587.929 537.656,493.532 538.125,480.283 538.125,501.812 538.594,538.246 538.594,483.596 538.594,490.22 538.594,475.315 538.594,448.818 539.062,503.469 539.062,475.315 539.531,475.315 539.531,546.527 540,450.474 540,518.373 540.469,611.114 540.469,531.622 540.469,500.156 540.469,493.532 540.938,596.209 540.938,463.723 541.406,453.786 541.406,481.94 541.875,488.564 541.875,548.183 541.875,496.844 542.344,448.818 542.344,425.633 542.344,506.781 542.344,506.781 542.812,533.278 542.812,553.151 543.281,582.96 543.281,543.215 543.75,536.59 543.75,510.093 544.219,483.596 544.219,536.59 544.688,510.093 544.688,467.035 544.688,488.564 544.688,491.876 544.688,521.685 545.156,515.061 545.156,503.469 545.625,526.654 545.625,538.246 546.094,491.876 546.094,475.315 546.562,501.812 546.562,559.775 546.562,496.844 546.562,428.945 547.031,486.908 547.031,443.85 547.5,513.405 547.5,516.717 547.5,521.685 547.969,536.59 547.969,472.003 548.438,568.056 548.438,478.627 548.438,481.94 548.438,528.31 548.906,526.654 548.906,440.538 549.375,410.728 549.375,458.754 549.844,422.321 549.844,433.913 550.312,460.41 550.312,472.003 550.312,457.098 550.781,460.41 550.781,483.596 550.781,508.437 550.781,397.479 551.25,435.569 551.25,450.474 551.719,448.818 551.719,506.781 552.188,453.786 552.188,433.913 552.656,485.252 552.656,563.087 552.656,581.304 552.656,586.273 553.125,526.654 553.125,470.347 553.125,423.977 553.594,428.945 553.594,496.844 554.062,470.347 554.062,485.252 554.531,563.087 554.531,637.611 555,632.643 555,654.172 555,607.802 555,503.469 555.469,467.035 555.469,455.442 555.938,500.156 555.938,486.908 555.938,506.781 556.406,476.971 556.406,475.315 556.875,433.913 556.875,485.252 556.875,520.029 556.875,551.495 557.344,556.463 557.344,490.22 557.812,536.59 557.812,536.59 558.281,496.844 558.281,523.341 558.75,587.929 558.75,576.336 558.75,508.437 558.75,551.495 558.75,621.05 559.219,645.891 559.219,609.458 559.688,582.96 559.688,650.86 560.156,611.114 560.156,574.68 560.625,556.463 560.625,558.119 561.094,568.056 561.094,534.934 561.094,601.177 561.094,553.151 561.562,549.839 561.562,500.156 561.562,515.061 562.031,563.087 562.031,581.304 562.5,566.4 562.5,606.146 562.969,579.648 562.969,594.553 562.969,569.712 562.969,571.368 563.438,581.304 563.438,574.68 563.906,541.558 563.906,551.495 564.375,586.273 564.375,601.177 564.844,599.521 564.844,559.775 564.844,621.05 564.844,571.368 564.844,564.744 565.312,501.812 565.312,458.754 565.781,457.098 565.781,476.971 566.25,490.22 566.25,536.59 566.719,516.717 566.719,495.188 567.188,478.627 567.188,440.538 567.188,495.188 567.188,505.125 567.188,455.442 567.656,419.008 567.656,404.104 568.125,432.257 568.125,463.723 568.594,493.532 568.594,529.966 569.062,515.061 569.062,531.622 569.062,510.093 569.062,480.283 569.531,561.431 569.531,558.119 570,544.871 570,526.654 570.469,476.971 570.469,581.304 570.469,573.024 570.938,526.654 570.938,524.998 570.938,500.156 570.938,496.844 571.406,553.151 571.406,543.215 571.875,510.093 571.875,486.908 572.344,493.532 572.344,531.622 572.812,539.902 572.812,510.093 573.281,546.527 573.281,534.934 573.281,548.183 573.281,549.839 573.281,531.622 573.75,523.341 573.75,573.024 574.219,576.336 574.219,642.579 574.688,627.675 574.688,579.648 575.156,561.431 575.156,582.96 575.156,549.839 575.156,596.209 575.625,564.744 575.625,564.744 576.094,594.553 576.094,536.59 576.094,614.426 576.562,592.897 576.562,548.183 577.031,548.183 577.031,501.812 577.031,576.336 577.031,606.146 577.5,534.934 577.5,506.781 577.969,501.812 577.969,493.532 578.438,538.246 578.438,529.966 578.906,476.971 578.906,483.596 578.906,463.723 579.375,473.659 579.375,455.442 579.375,473.659 579.375,462.067 579.844,472.003 579.844,450.474 580.312,539.902 580.312,617.738 580.781,604.489 580.781,592.897 581.25,554.807 581.25,597.865 581.25,639.267 581.25,670.733 581.719,712.135 581.719,655.828 581.719,682.325 582.188,659.14 582.188,584.617 582.656,561.431 582.656,601.177 583.125,558.119 583.125,639.267 583.125,644.235 583.125,697.23 583.594,630.987 583.594,622.706 584.062,579.648 584.062,543.215 584.531,541.558 584.531,531.622 585,573.024 585,617.738 585,624.362 585.469,611.114 585.469,596.209 585.469,574.68 585.469,551.495 585.938,561.431 585.938,544.871 586.406,536.59 586.406,564.744 586.875,564.744 586.875,659.14 587.344,637.611 587.344,586.273 587.344,586.273 587.344,594.553 587.344,622.706 587.812,644.235 588.281,622.706 588.281,599.521 588.75,637.611 588.75,612.77 589.219,626.018 589.219,649.204 589.219,621.05 589.219,650.86 589.688,601.177 589.688,579.648 590.156,558.119 590.156,553.151 590.156,587.929 590.625,617.738 590.625,708.822 591.094,621.05 591.094,632.643 591.562,599.521 591.562,581.304 591.562,568.056 591.562,566.4 592.031,574.68 592.031,481.94 592.5,483.596 592.5,549.839 592.969,531.622 592.969,523.341 593.438,569.712 593.438,589.585 593.438,551.495 593.438,559.775 593.438,554.807 593.906,531.622 593.906,501.812 594.375,554.807 594.375,561.431 594.844,531.622 594.844,596.209 595.312,616.082 595.312,622.706 595.312,659.14 595.312,611.114 595.781,609.458 595.781,579.648 596.25,667.421 596.25,553.151 596.25,528.31 596.719,543.215 596.719,546.527 597.188,589.585 597.188,601.177 597.656,538.246 597.656,546.527 597.656,619.394 597.656,549.839 598.125,592.897 598.125,556.463 598.594,584.617 598.594,549.839 599.062,546.527 599.062,516.717 599.062,513.405 599.531,520.029 599.531,498.5 599.531,448.818 599.531,475.315 600,473.659 600,450.474 600.469,437.225 600.469,455.442 600.938,472.003 600.938,470.347 601.406,467.035 601.406,520.029 601.406,483.596 601.406,453.786 601.406,465.379 601.875,462.067 601.875,470.347 602.344,455.442 602.344,450.474 602.812,428.945 602.812,485.252 603.281,549.839 603.281,500.156 603.75,549.839 603.75,568.056 603.75,506.781 603.75,569.712 604.219,546.527 604.219,549.839 604.688,529.966 604.688,493.532 604.688,515.061 605.156,458.754 605.156,458.754 605.625,602.833 605.625,563.087 605.625,472.003 605.625,415.696 606.094,407.416 606.094,422.321 606.562,405.76 606.562,415.696 607.031,513.405 607.031,520.029 607.5,476.971 607.5,450.474 607.5,394.167 607.5,390.855 607.5,392.511 607.969,415.696 607.969,478.627 608.438,589.585 608.438,518.373 608.906,483.596 608.906,472.003 609.375,417.352 609.375,415.696 609.844,452.13 609.844,462.067 609.844,457.098 609.844,493.532 610.312,498.5 610.312,472.003 610.312,483.596 610.781,576.336 610.781,558.119 611.25,531.622 611.25,520.029 611.719,476.971 611.719,452.13 611.719,432.257 611.719,445.506 612.188,440.538 612.188,490.22 612.656,443.85 612.656,438.882 613.125,480.283 613.125,491.876 613.594,493.532 613.594,491.876 613.594,483.596 613.594,443.85 613.594,382.575 614.062,384.231 614.062,382.575 614.531,404.104 614.531,397.479 615,399.135 615,402.448 615.469,384.231 615.469,390.855 615.938,420.665 615.938,407.416 615.938,433.913 615.938,463.723 615.938,498.5 616.406,510.093 616.406,561.431 616.875,543.215 616.875,592.897 617.344,538.246 617.344,460.41 617.812,430.601 617.812,440.538 617.812,438.882 617.812,447.162 618.281,447.162 618.281,463.723 618.75,452.13 618.75,457.098 619.219,486.908 619.219,447.162 619.219,500.156 619.688,523.341 619.688,528.31 619.688,467.035 619.688,443.85 620.156,511.749 620.156,476.971 620.625,465.379 620.625,472.003 621.094,491.876 621.094,470.347 621.562,438.882 621.562,419.008 622.031,447.162 622.031,453.786 622.031,501.812 622.031,460.41 622.031,448.818 622.5,467.035 622.5,483.596 622.969,476.971 622.969,450.474 623.438,510.093 623.438,468.691 623.906,510.093 623.906,513.405 623.906,483.596 623.906,445.506 624.375,462.067 624.375,465.379 624.844,463.723 624.844,478.627 624.844,465.379 625.312,496.844 625.312,483.596 625.781,476.971 625.781,470.347 625.781,481.94 625.781,467.035 626.25,470.347 626.25,470.347 626.719,412.384 626.719,442.194 627.188,523.341 627.188,480.283 627.656,448.818 627.656,422.321 627.656,467.035 628.125,442.194 628.125,475.315 628.125,442.194 628.125,468.691 628.594,423.977 628.594,392.511 629.062,414.04 629.062,445.506 629.531,435.569 629.531,409.072 630,428.945 630,433.913 630,430.601 630,407.416 630.469,457.098 630.469,483.596 630.469,488.564 630.938,475.315 630.938,457.098 631.406,450.474 631.406,490.22 631.875,453.786 631.875,523.341 631.875,569.712 631.875,548.183 632.344,529.966 632.344,556.463 632.812,584.617 632.812,559.775 633.281,554.807 633.281,523.341 633.281,584.617 633.75,586.273 633.75,521.685 634.219,506.781 634.219,472.003 634.219,443.85 634.219,430.601 634.688,419.008 634.688,432.257 635.156,445.506 635.156,506.781 635.625,481.94 635.625,470.347 636.094,467.035 636.094,455.442 636.094,523.341 636.094,495.188 636.094,470.347 636.562,599.521 636.562,544.871 637.031,473.659 637.031,475.315 637.5,473.659 637.5,455.442 637.969,435.569 637.969,445.506 637.969,458.754 637.969,438.882 638.438,465.379 638.438,467.035 638.906,440.538 638.906,476.971 638.906,478.627 639.375,483.596 639.375,506.781 639.844,496.844 639.844,480.283 640.312,452.13 640.312,440.538 640.312,440.538 640.312,435.569 640.781,468.691 640.781,463.723 641.25,495.188 641.25,476.971 641.719,495.188 641.719,518.373 642.188,508.437 642.188,496.844 642.188,488.564 642.188,467.035 642.188,440.538 642.656,427.289 642.656,428.945 643.125,428.945 643.125,415.696 643.594,414.04 643.594,442.194 644.062,437.225 644.062,428.945 644.062,412.384 644.062,387.543 644.531,374.294 644.531,420.665 644.531,476.971 645,445.506 645,455.442 645.469,427.289 645.469,440.538 645.938,428.945 645.938,443.85 646.406,432.257 646.406,452.13 646.406,405.76 646.406,427.289 646.875,465.379 646.875,481.94 647.344,523.341 647.344,480.283 647.812,420.665 647.812,404.104 647.812,435.569 648.281,402.448 648.281,423.977 648.281,458.754 648.281,458.754 648.75,445.506 648.75,463.723 649.219,427.289 649.219,433.913 649.688,423.977 649.688,465.379 650.156,468.691 650.156,490.22 650.156,457.098 650.156,430.601 650.156,490.22 650.625,491.876 650.625,472.003 651.094,485.252 651.094,481.94 651.562,488.564 651.562,480.283 652.031,472.003 652.031,501.812 652.5,501.812 652.5,488.564 652.5,508.437 652.5,495.188 652.969,508.437 652.969,528.31 653.438,556.463 653.438,546.527 653.438,546.527 653.906,516.717 653.906,508.437 654.375,508.437 654.375,549.839 654.375,533.278 654.375,533.278 654.844,528.31 654.844,539.902 655.312,528.31 655.312,520.029 655.781,556.463 655.781,548.183 656.25,574.68 656.25,579.648 656.25,526.654 656.25,619.394 656.25,576.336 656.719,558.119 656.719,571.368 657.188,592.897 657.188,582.96 657.656,546.527 657.656,602.833 658.125,574.68 658.594,553.151 658.594,548.183 658.594,539.902 658.594,544.871 659.062,520.029 659.062,505.125 659.062,511.749 659.531,506.781 659.531,539.902 660,520.029 660,511.749 660.469,505.125 660.469,495.188 660.469,500.156 660.469,503.469 660.938,488.564 660.938,493.532 661.406,472.003 661.406,460.41 661.875,427.289 661.875,422.321 661.875,476.971 662.344,455.442 662.344,445.506 662.344,437.225 662.344,457.098 662.812,437.225 662.812,423.977 663.281,414.04 663.281,405.76 663.75,395.823 663.75,417.352 664.219,419.008 664.219,430.601 664.688,415.696 664.688,412.384 664.688,423.977 664.688,414.04 664.688,407.416 665.156,438.882 665.156,450.474 665.625,412.384 665.625,415.696 666.094,445.506 666.094,481.94 666.562,467.035 666.562,467.035 666.562,518.373 666.562,543.215 667.031,470.347 667.031,452.13 667.5,445.506 667.5,455.442 667.5,546.527 667.969,496.844 667.969,524.998 668.438,538.246 668.438,551.495 668.438,554.807 668.438,549.839 668.906,531.622 668.906,515.061 669.375,511.749 669.375,511.749 669.844,498.5 669.844,544.871 670.312,579.648 670.312,556.463 670.781,591.241 670.781,559.775 670.781,539.902 670.781,569.712 670.781,558.119 671.25,584.617 671.25,577.992 671.719,592.897 671.719,573.024 672.188,561.431 672.188,559.775 672.656,554.807 672.656,566.4 672.656,551.495 672.656,582.96 673.125,577.992 673.125,568.056 673.125,568.056 673.594,551.495 673.594,573.024 674.062,558.119 674.062,549.839 674.531,544.871 674.531,586.273 674.531,586.273 674.531,574.68 675,594.553 675,602.833 675.469,573.024 675.469,577.992 675.938,576.336 675.938,612.77 676.406,586.273 676.406,604.489 676.875,591.241 676.875,586.273 676.875,587.929 676.875,553.151 677.344,592.897 677.344,611.114 677.812,584.617 677.812,551.495 678.281,531.622 678.281,518.373 678.75,524.998 678.75,558.119 678.75,611.114 678.75,589.585 678.75,533.278 679.219,538.246 679.219,516.717 679.688,526.654 679.688,524.998 680.156,596.209 680.156,586.273 680.625,543.215 680.625,559.775 680.625,553.151 680.625,548.183 681.094,559.775 681.094,528.31 681.562,516.717 681.562,528.31 682.031,515.061 682.031,495.188 682.031,493.532 682.5,520.029 682.5,568.056 682.969,592.897 682.969,543.215 682.969,541.558 682.969,558.119 683.438,558.119 683.438,546.527 683.906,539.902 683.906,566.4 684.375,582.96 684.844,533.278 684.844,524.998 684.844,490.22 684.844,533.278 684.844,541.558 685.312,609.458 685.312,577.992 685.781,531.622 685.781,529.966 686.25,510.093 686.25,521.685 686.719,564.744 686.719,564.744 686.719,596.209 686.719,602.833 687.188,576.336 687.188,594.553 687.656,632.643 687.656,596.209 687.656,549.839 688.125,568.056 688.125,624.362 688.594,594.553 688.594,594.553 689.062,591.241 689.062,564.744 689.062,630.987 689.062,630.987 689.531,607.802 689.531,577.992 690,602.833 690,611.114 690.469,568.056 690.469,573.024 690.469,576.336 690.938,551.495 690.938,546.527 690.938,548.183 690.938,531.622 691.406,539.902 691.406,523.341 691.875,582.96 691.875,539.902 692.344,528.31 692.344,553.151 692.812,563.087 692.812,571.368 692.812,573.024 692.812,573.024 693.281,568.056 693.281,579.648 693.281,536.59 693.75,541.558 693.75,534.934 694.219,563.087 694.219,596.209 694.688,571.368 694.688,558.119 695.156,571.368 695.156,589.585 695.156,596.209 695.156,591.241 695.625,604.489 695.625,584.617 696.094,594.553 696.094,582.96 696.094,591.241 696.562,564.744 696.562,586.273 697.031,556.463 697.031,531.622 697.031,546.527 697.031,543.215 697.5,554.807 697.5,571.368 697.969,579.648 697.969,568.056 698.438,573.024 698.438,568.056 698.906,529.966 698.906,543.215 698.906,501.812 698.906,501.812 698.906,541.558 699.375,606.146 699.375,596.209 699.844,543.215 699.844,554.807 700.312,549.839 700.312,533.278 700.781,564.744 700.781,566.4 701.25,586.273 701.25,543.215 701.25,524.998 700.781,495.188 701.25,481.94 701.25,569.712 701.25,571.368 701.25,563.087 701.25,553.151 701.719,508.437 701.719,478.627 702.188,521.685 702.188,485.252 702.656,528.31 702.656,501.812 703.125,503.469 703.125,543.215 703.125,577.992 703.125,563.087 703.594,531.622 703.594,520.029 704.062,516.717 704.062,516.717 704.531,526.654 704.531,554.807 704.531,551.495 705,531.622 705,516.717 705,508.437 705,529.966 705.469,508.437 705.469,485.252 705.938,496.844 705.938,486.908 706.406,556.463 706.406,558.119 706.875,551.495 706.875,533.278 707.344,551.495 707.344,549.839 707.344,541.558 707.344,576.336 707.344,561.431 707.812,617.738 707.812,581.304 708.281,586.273 708.281,609.458 708.75,576.336 708.75,584.617 709.219,576.336 709.219,548.183 709.219,561.431 709.219,619.394 709.688,587.929 709.688,582.96 710.156,569.712 710.156,577.992 710.156,563.087 710.625,594.553 710.625,582.96 711.094,573.024 711.094,577.992 711.094,581.304 711.094,581.304 711.562,612.77 711.562,566.4 712.031,561.431 712.031,563.087 712.5,554.807 712.5,551.495 712.969,523.341 712.969,559.775 712.969,523.341 713.438,529.966 713.438,551.495 713.438,524.998 713.438,513.405 713.906,520.029 713.906,506.781 714.375,478.627 714.375,500.156 714.844,473.659 714.844,520.029 715.312,511.749 715.312,480.283 715.312,465.379 715.312,472.003 715.781,500.156 715.781,536.59 715.781,589.585 716.25,566.4 716.25,577.992 716.719,551.495 716.719,596.209 717.188,553.151 717.188,594.553 717.656,579.648 717.656,581.304 717.656,544.871 717.656,573.024 718.125,606.146 718.125,607.802 718.594,594.553 718.594,582.96 719.062,591.241 719.062,577.992 719.062,589.585 719.531,581.304 719.531,569.712 719.531,581.304 719.531,563.087 720,536.59 720,561.431 720.469,541.558 720.469,586.273 720.938,571.368 720.938,597.865 721.406,597.865 721.406,594.553 721.406,597.865 721.406,579.648 721.406,586.273 721.875,596.209 721.875,589.585 722.344,617.738 722.344,579.648 722.812,574.68 722.812,563.087 723.281,579.648 723.281,581.304 723.75,566.4 723.75,543.215 723.75,556.463 723.75,558.119 724.219,569.712 724.219,544.871 724.219,541.558 724.688,528.31 724.688,491.876 725.156,501.812 725.156,569.712 725.625,596.209 725.625,573.024 725.625,589.585 725.625,564.744 726.094,551.495 726.094,548.183 726.562,596.209 726.562,609.458 727.031,571.368 727.031,543.215 727.5,602.833 727.5,604.489 727.5,569.712 727.5,599.521 727.5,592.897 727.969,571.368 727.969,551.495 728.438,559.775 728.438,617.738 728.906,606.146 728.906,599.521 729.375,591.241 729.375,579.648 729.844,601.177 729.844,579.648 729.844,563.087 729.844,599.521 730.312,574.68 730.312,561.431 730.312,554.807 730.781,566.4 730.781,596.209 731.25,606.146 731.25,586.273 731.719,579.648 731.719,556.463 731.719,568.056 731.719,563.087 732.188,576.336 732.188,566.4 732.656,549.839 732.656,503.469 733.125,539.902 733.125,549.839 733.125,549.839 733.594,553.151 733.594,563.087 733.594,539.902 733.594,536.59 734.062,533.278 734.062,534.934 734.531,531.622 734.531,520.029 735,508.437 735,569.712 735.469,568.056 735.469,549.839 735.938,505.125 735.938,508.437 735.938,516.717 735.938,501.812 735.938,515.061 736.406,490.22 736.406,500.156 736.875,490.22 736.875,508.437 737.344,528.31 737.344,501.812 737.812,480.283 737.812,476.971 737.812,481.94 737.812,485.252 738.281,579.648 738.281,529.966 738.75,543.215 738.75,554.807 738.75,534.934 739.219,533.278 739.219,536.59 739.688,523.341 739.688,539.902 739.688,495.188 739.688,513.405 740.156,485.252 740.156,475.315 740.625,520.029 740.625,536.59 741.094,536.59 741.094,538.246 741.562,561.431 741.562,594.553 742.031,561.431 742.031,574.68 742.031,574.68 742.031,634.299 742.031,612.77 742.5,617.738 742.5,627.675 742.969,622.706 742.969,612.77 743.438,584.617 743.438,581.304 743.906,584.617 743.906,541.558 743.906,576.336 743.906,566.4 744.375,594.553 744.375,586.273 744.375,606.146 744.844,645.891 744.844,639.267 745.312,645.891 745.312,672.389 745.781,630.987 745.781,642.579 745.781,611.114 745.781,594.553 746.25,614.426 746.25,587.929 746.719,559.775 746.719,564.744 747.188,589.585 747.188,599.521 747.656,597.865 747.656,579.648 747.656,563.087 748.125,568.056 748.125,549.839 748.125,539.902 748.125,548.183 748.594,534.934 748.594,561.431 749.062,577.992 749.062,556.463 749.531,559.775 749.531,546.527 750,584.617 750,551.495 750,541.558 750,563.087 750,546.527 750.469,524.998 750.469,533.278 750.938,546.527 750.938,566.4 751.406,551.495 751.406,544.871 751.875,536.59 751.875,541.558 751.875,584.617 751.875,579.648 752.344,563.087 752.344,556.463 752.812,576.336 752.812,626.018 753.281,584.617 753.281,614.426 753.281,599.521 753.75,586.273 753.75,581.304 754.219,582.96 754.219,569.712 754.219,577.992 754.219,621.05 754.688,574.68 754.688,568.056 755.156,581.304 755.156,576.336 755.625,577.992 755.625,589.585 756.094,591.241 756.094,627.675 756.094,642.579 756.094,612.77 756.094,606.146 756.562,597.865 756.562,614.426 757.031,587.929 757.031,596.209 757.5,582.96 757.5,587.929 757.969,591.241 757.969,614.426 757.969,647.547 757.969,642.579 758.438,604.489 758.438,581.304 758.906,596.209 758.906,602.833 758.906,574.68 759.375,587.929 759.375,559.775 759.844,546.527 759.844,546.527 760.312,533.278 760.312,558.119 760.312,563.087 760.312,581.304 760.781,587.929 760.781,607.802 761.25,602.833 761.25,634.299 761.719,622.706 761.719,621.05 761.719,621.05 762.188,582.96 762.188,543.215 762.188,528.31 762.188,534.934 762.656,551.495 762.656,536.59 763.125,486.908 763.125,463.723 763.594,428.945 763.594,458.754 764.062,430.601 764.062,465.379 764.062,490.22 764.062,450.474 764.531,480.283 764.531,481.94 764.531,523.341 765,534.934 765,586.273 765.469,573.024 765.469,554.807 765.938,500.156 765.938,511.749 766.406,520.029 766.406,518.373 766.406,505.125 766.406,501.812 766.875,541.558 766.875,506.781 767.344,506.781 767.344,485.252 767.344,515.061 767.812,553.151 767.812,563.087 768.281,591.241 768.281,544.871 768.281,480.283 768.281,493.532 768.75,548.183 908.438,400.792 1038.28,549.839 1042.5,453.786 1042.5,465.379 1042.97,478.627 1042.97,480.283 1044.38,414.04 1044.84,414.04 1046.72,481.94 1055.16,490.22 1055.16,470.347 1055.62,458.754 1056.56,432.257 1057.03,440.538 1057.03,460.41 1058.44,458.754 1058.44,534.934 1058.91,541.558 1058.91,493.532 1059.84,407.416 1060.31,370.982 1060.78,423.977 1060.78,370.982 1061.25,377.606 1061.72,367.67 1062.19,344.485 1063.59,472.003 1064.06,475.315 1065,478.627 1067.34,496.844 1069.69,513.405 1070.16,490.22 1070.62,533.278 1070.62,488.564 1071.09,491.876 1074.84,485.252 1075.31,445.506 1077.19,425.633 1077.66,430.601 1078.12,448.818 1081.41,533.278 1083.75,604.489 1084.69,475.315 1085.62,457.098 1087.03,460.41 1089.38,510.093 1089.38,490.22 1089.38,488.564 1089.38,503.469 1090.78,516.717 1092.66,473.659 1092.66,473.659 1093.12,432.257 1093.59,428.945 1093.59,531.622 1093.59,511.749 1093.59,520.029 1093.59,470.347 1094.06,472.003 1094.06,475.315 1094.53,462.067 1095,423.977 1095.47,529.966 1095.94,526.654 1095.94,505.125 1095.94,516.717 1096.41,480.283 1096.41,462.067 1096.88,453.786 1096.88,440.538 1097.34,438.882 1100.16,447.162 1100.62,475.315 1101.09,485.252 1102.03,463.723 1102.03,443.85 1102.5,496.844 1103.91,337.861 1103.91,346.141 1104.38,346.141 1104.38,374.294 1104.84,364.358 1104.84,440.538 1105.31,405.76 1105.31,347.797 1105.78,377.606 1105.78,347.797 1105.78,352.765 1105.78,410.728 1106.25,546.527 1106.25,409.072 1106.72,390.855 1106.72,367.67 1107.19,414.04 1107.19,402.448 1107.66,409.072 1110,432.257 1110,427.289 1110,420.665 1110.47,405.76 1110.47,410.728 1110.47,423.977 1110.94,427.289 1110.94,427.289 1111.41,478.627 1111.88,440.538 1111.88,440.538 1111.88,476.971 1111.88,478.627 1112.34,480.283 1112.34,503.469 1112.81,452.13 1113.28,463.723 1113.28,485.252 1114.69,447.162 1115.16,414.04 1115.62,486.908 1116.09,491.876 1116.56,465.379 1118.44,496.844 1118.91,515.061 1118.91,460.41 1119.38,473.659 1119.38,458.754 1119.84,422.321 1119.84,417.352 1119.84,420.665 1119.84,404.104 1120.31,432.257 1120.78,445.506 1120.78,450.474 1121.25,548.183 1121.25,650.86 1121.72,551.495 1121.72,486.908 1122.19,524.998 1122.66,495.188 1123.12,473.659 1123.12,463.723 1124.53,614.426 1124.53,635.955 1125,607.802 1125,602.833 1125.47,529.966 1125.47,501.812 1125.94,548.183 1125.94,506.781 1126.41,574.68 1127.81,467.035 1130.16,457.098 1130.62,404.104 1131.09,420.665 1132.03,486.908 1132.97,493.532 1132.97,503.469 1135.78,417.352 1136.25,438.882 1138.59,500.156 1139.06,463.723 1139.53,433.913 1140,423.977 1140.47,412.384 1140.47,412.384 1140.47,455.442 1140.94,458.754 1140.94,420.665 1141.41,389.199 1141.41,379.263 1141.88,407.416 1141.88,397.479 1141.88,402.448 1142.34,420.665 1142.34,392.511 1146.56,417.352 1147.03,427.289 1147.03,404.104 1147.97,465.379 1148.44,488.564 1148.44,467.035 1148.44,443.85 1148.44,447.162 1148.91,472.003 1149.38,483.596 1149.84,440.538 1150.31,440.538 1150.31,419.008 1150.31,400.792 1151.25,442.194 1151.72,420.665 1156.41,392.511 1156.41,423.977 1156.88,462.067 1156.88,438.882 1157.34,443.85 1157.34,404.104 1157.81,409.072 1158.28,473.659 1158.28,463.723 1158.75,423.977 1158.75,402.448 1158.75,432.257 1158.75,495.188 1158.75,470.347 1159.22,445.506 1159.22,440.538 1159.69,430.601 1159.69,404.104 1160.16,435.569 1160.16,428.945 1160.62,433.913 1160.62,419.008 1160.62,524.998 1161.09,573.024 1161.09,529.966 1166.25,468.691 1166.72,438.882 1167.19,467.035 1167.66,457.098 1168.12,468.691 1168.12,458.754 1168.59,455.442 1168.59,465.379 1168.59,453.786 1169.06,457.098 1169.53,458.754 1169.53,472.003 1170,505.125 1170,438.882 1170.47,409.072 1170.47,486.908 1170.47,397.479 1170.94,387.543 1170.94,453.786 1170.94,433.913 1170.94,412.384 1171.41,410.728 1171.41,410.728 1171.88,475.315 1171.88,520.029 1172.34,453.786 1176.09,354.421 1177.03,473.659 1183.12,447.162 1183.59,500.156 1183.59,534.934 1184.06,488.564 1184.06,473.659 1184.53,463.723 1184.53,520.029 1185,505.125 1185,554.807 1185,571.368 1185,538.246 1185,476.971 1185.47,455.442 1185.47,463.723 1185.94,662.452 1185.94,680.669 1186.41,551.495 1186.41,501.812 1186.88,500.156 1186.88,549.839 1186.88,510.093 1186.88,556.463 1187.34,568.056 1187.34,544.871 1187.34,536.59 1187.81,528.31 1188.28,498.5 1188.28,528.31 1188.75,551.495 1188.75,564.744 1189.22,624.362 1189.22,662.452 1189.22,630.987 1189.69,627.675 1189.69,674.045 1190.16,541.558 1190.16,498.5 1190.62,470.347 1190.62,569.712 1190.62,498.5 1191.09,485.252 1191.09,513.405 1191.56,491.876 1207.5,495.188 1207.97,485.252 1207.97,478.627 1208.44,470.347 1208.44,486.908 1208.91,485.252 1208.91,559.775 1209.38,505.125 1209.38,548.183 1209.38,556.463 1209.38,526.654 1209.84,523.341 1209.84,515.061 1210.31,520.029 1210.31,679.013 1210.31,657.484 1210.78,634.299 1210.78,672.389 1211.25,630.987 1211.72,549.839 1211.72,576.336 1211.72,586.273 1212.19,591.241 1212.19,538.246 1212.66,533.278 1213.12,559.775 1213.12,577.992 1217.34,510.093 1217.81,491.876 1217.81,503.469 1219.22,523.341 1222.97,531.622 1223.44,546.527 1223.44,558.119 1223.91,563.087 1223.91,520.029 1224.38,539.902 1224.84,581.304 1225.31,594.553 1225.31,574.68 1227.66,475.315 1230,500.156 1230.47,475.315 1230.94,475.315 1231.41,493.532 1231.41,486.908 1231.88,528.31 1231.88,500.156 1231.88,480.283 1232.34,500.156 1232.81,501.812 1232.81,490.22 1233.28,445.506 1233.75,462.067 1233.75,549.839 1234.22,561.431 1240.78,480.283 1242.19,531.622 1242.19,576.336 1242.19,594.553 1242.19,592.897 1242.66,551.495 1242.66,508.437 1243.12,515.061 1243.12,516.717 1243.59,518.373 1244.06,510.093 1244.06,515.061 1245,510.093 1245,472.003 1247.34,460.41 1252.03,472.003 1252.5,558.119 1258.12,624.362 1264.22,573.024 1264.22,546.527 1275.47,539.902 1275.47,592.897 1275.94,531.622 1275.94,533.278 1276.41,518.373 1276.41,536.59 1276.41,549.839 1276.41,539.902 1276.41,559.775 1276.88,551.495 1276.88,549.839 1277.34,531.622 1277.81,554.807 1278.28,571.368 1278.75,581.304 1279.22,582.96 1279.69,604.489 1279.69,601.177 1280.16,594.553 1280.62,576.336 1281.09,551.495 1281.56,564.744 1282.03,526.654 1282.5,559.775 1282.5,556.463 1282.5,596.209 1282.5,521.685 1282.97,472.003 1283.44,488.564 1283.44,574.68 1283.91,511.749 1284.38,518.373 1284.84,472.003 1284.84,486.908 1284.84,448.818 1284.84,453.786 1285.31,491.876 1285.78,520.029 1286.25,510.093 1286.72,433.913 1288.12,379.263 1288.59,453.786 1288.59,450.474 1289.06,498.5 1289.06,488.564 1289.53,529.966 1289.53,518.373 1290,538.246 1290,612.77 1290.47,546.527 1290.47,553.151 1290.94,553.151 1290.94,438.882 1290.94,414.04 1291.88,433.913 1292.34,526.654 1292.34,607.802 1292.81,662.452 1292.81,655.828 1297.5,447.162 1297.97,445.506 1298.91,375.95 1298.91,364.358 1298.91,400.792 1298.91,432.257 1299.38,435.569 1299.38,374.294 1300.31,404.104 1300.78,458.754 1302.66,370.982 1303.12,356.077 1304.06,352.765 1304.06,361.046 1305,344.485 1305.94,453.786 1307.81,428.945 1307.81,433.913 1309.22,422.321 1309.22,409.072 1309.22,480.283 1309.69,428.945 1309.69,428.945 1310.16,463.723 1310.62,443.85 1311.09,476.971 1311.09,457.098 1311.09,508.437 1311.09,498.5 1311.56,473.659 1312.03,579.648 1312.5,516.717 1312.97,516.717 1313.44,470.347 1313.91,476.971 1314.38,520.029 1315.78,637.611 1315.78,503.469 1316.25,476.971 1316.25,476.971 1316.25,476.971 1316.72,510.093 1320,347.797 1320.94,298.115 1321.41,283.21 1321.88,364.358 1326.09,404.104 1327.03,473.659 1327.5,356.077 1327.5,382.575 1327.5,377.606 1327.97,347.797 1328.91,380.919 1329.38,361.046 1329.38,463.723 1329.38,437.225 1330.31,366.014 1330.78,306.395 1330.78,321.3 1331.25,402.448 1331.25,394.167 1332.19,448.818 1333.12,634.299 1334.06,458.754 1334.53,619.394 1335,621.05 1337.34,382.575 1337.81,374.294 1338.75,384.231 1339.22,380.919 1339.22,354.421 1341.56,380.919 1344.84,577.992 1344.84,624.362 1344.84,579.648 1345.31,665.764 1345.31,571.368 1345.78,654.172 1345.78,635.955 1345.78,495.188 1345.78,460.41 1346.25,531.622 1346.72,495.188 1346.72,476.971 1347.19,498.5 1349.06,443.85 1350.47,420.665 1350.94,400.792 1350.94,399.135 1351.41,480.283 1351.88,667.421 1351.88,703.854 1351.88,629.331 1352.34,533.278 1352.81,524.998 1352.81,526.654 1353.28,539.902 1353.28,518.373 1353.75,543.215 1353.75,569.712 1354.22,486.908 1354.22,582.96 1354.69,563.087 1355.62,629.331 1356.56,538.246 1357.5,478.627 1357.97,460.41 1357.97,458.754 1358.44,437.225 1358.44,483.596 1358.91,486.908 1359.38,452.13 1361.72,440.538 1362.19,438.882 1362.19,422.321 1362.66,414.04 1363.12,450.474 1363.59,422.321 1364.06,450.474 1364.06,417.352 1364.53,511.749 1365,606.146 1365,470.347 1365.94,379.263 1366.41,412.384 1366.88,465.379 1366.88,410.728 1367.81,433.913 1368.28,472.003 1368.28,538.246 1368.28,563.087 1368.75,399.135 1369.22,364.358 1369.69,372.638 1369.69,361.046 1370.16,409.072 1370.16,359.39 1370.16,321.3 1370.16,321.3 1370.62,339.517 1370.62,361.046 1371.09,349.453 1371.09,369.326 1371.56,405.76 1371.56,410.728 1372.03,425.633 1372.5,385.887 1372.97,359.39 1373.44,354.421 1373.44,422.321 1373.44,467.035 1373.91,397.479 1374.38,369.326 1374.38,347.797 1374.38,420.665 1374.84,465.379 1374.84,445.506 1375.31,370.982 1375.31,395.823 1375.78,412.384 1375.78,367.67 1376.25,392.511 1376.25,405.76 1376.25,417.352 1376.25,520.029 1376.72,399.135 1376.72,443.85 1377.19,450.474 1377.19,445.506 1377.66,475.315 1384.22,518.373 1386.09,432.257 1392.19,604.489 1392.66,586.273 1392.66,541.558 1393.12,440.538 1393.59,468.691 1393.59,395.823 1394.53,541.558 1396.41,475.315 1396.88,682.325 1396.88,539.902 1397.34,440.538 1397.81,470.347 1398.75,448.818 1399.22,488.564 1401.09,427.289 1402.03,400.792 1402.03,410.728 1402.5,402.448 1402.5,457.098 1402.5,407.416 1402.5,463.723 1402.97,460.41 1402.97,465.379 1403.44,627.675 1420.31,486.908 1420.78,511.749 1422.19,467.035 1422.66,467.035 1422.66,475.315 1423.12,486.908 1423.12,486.908 1423.12,462.067 1423.59,452.13 1423.59,468.691 1425,450.474 1425.47,422.321 1425.94,445.506 1425.94,453.786 1426.41,453.786 1426.88,452.13 1426.88,438.882 1428.28,465.379 1428.75,576.336 1428.75,515.061 1429.22,518.373 1429.22,528.31 1429.22,447.162 1429.22,475.315 1429.69,438.882 1429.69,468.691 1430.16,428.945 1430.16,410.728 1430.62,450.474 1430.62,405.76 1431.09,427.289 1431.09,498.5 1431.09,447.162 1431.09,470.347 1431.09,467.035 1431.56,465.379 1431.56,531.622 1432.03,473.659 1432.03,486.908 1432.5,462.067 1432.97,490.22 1434.38,503.469 1434.38,513.405 1435.31,473.659 1435.31,488.564 1437.19,412.384 1438.12,427.289 1439.06,450.474 1439.06,453.786 1439.06,490.22 1439.06,202.062 1440,496.844 1440,591.241 1440.47,549.839 1441.41,518.373 1441.41,639.267 1441.88,630.987 1441.88,586.273 1442.34,549.839 1442.34,513.405 1442.34,521.685 1442.81,478.627 1442.81,467.035 1443.28,490.22 1443.28,493.532 1443.28,495.188 1443.28,518.373 1443.75,543.215 1443.75,524.998 1444.69,534.934 1445.62,539.902 1445.62,510.093 1446.09,559.775 1446.09,571.368 1446.56,518.373 1447.03,546.527 1447.5,513.405 1447.5,523.341 1447.5,539.902 1447.97,534.934 1447.97,576.336 1448.91,635.955 1452.19,556.463 1452.66,573.024 1452.66,566.4 1453.12,505.125 1453.12,488.564 1453.59,597.865 1453.59,546.527 1453.59,516.717 1454.06,586.273 1454.06,682.325 1454.53,539.902 1454.53,488.564 1455,480.283 1455,458.754 1455.47,539.902 1455.47,505.125 1455.47,470.347 1455.47,495.188 1455.94,475.315 1457.34,467.035 1457.34,553.151 1457.34,614.426 1457.81,536.59 1457.81,616.082 1458.28,579.648 1458.28,553.151 1458.75,520.029 1458.75,501.812 1459.22,472.003 1459.22,518.373 1459.69,457.098 1459.69,541.558 1459.69,486.908 1459.69,433.913 1459.69,476.971 1460.16,465.379 1460.16,496.844 1460.62,611.114 1461.09,506.781 1461.09,463.723 1461.56,447.162 1461.56,531.622 1461.56,546.527 1461.56,496.844 1462.03,460.41 1462.03,493.532 1462.5,538.246 1462.5,597.865 1462.97,538.246 1462.97,476.971 1463.44,443.85 1463.44,458.754 1463.44,442.194 1463.44,473.659 1463.91,498.5 1463.91,447.162 1464.38,470.347 1464.38,480.283 1464.84,480.283 1464.84,438.882 1465.31,467.035 1465.31,506.781 1465.31,586.273 1465.78,587.929 1465.78,528.31 1465.78,538.246 1465.78,574.68 1466.25,546.527 1466.25,520.029 1466.72,506.781 1466.72,483.596 1467.19,501.812 1467.19,531.622 1467.66,538.246 1467.66,536.59 1467.66,614.426 1467.66,647.547 1468.12,621.05 1468.59,531.622 1468.59,515.061 1469.06,515.061 1469.06,506.781 1469.53,498.5 1469.53,539.902 1469.53,506.781 1470,493.532 1470.47,476.971 1470.47,480.283 1470.94,453.786 1470.94,463.723 1470.94,543.215 1471.41,541.558 1471.88,531.622 1471.88,528.31 1471.88,531.622 1471.88,524.998 1472.34,510.093 1472.34,559.775 1472.81,548.183 1473.28,506.781 1473.28,503.469 1473.75,652.516 1473.75,645.891 1473.75,596.209 1473.75,548.183 1474.22,511.749 1474.22,576.336 1474.69,589.585 1474.69,544.871 1475.16,558.119 1475.16,621.05 1475.62,574.68 1475.62,594.553 1475.62,523.341 1475.62,544.871 1476.09,523.341 1476.09,491.876 1476.56,516.717 1476.56,539.902 1476.56,503.469 1477.03,511.749 1477.03,538.246 1477.5,541.558 1477.5,634.299 1477.97,544.871 1477.97,495.188 1477.97,506.781 1477.97,526.654 1478.44,510.093 1478.91,549.839 1478.91,515.061 1479.38,538.246 1479.38,516.717 1479.38,604.489 1479.84,576.336 1479.84,523.341 1479.84,536.59 1479.84,586.273 1480.31,626.018 1480.78,551.495 1481.25,518.373 1481.25,541.558 1481.72,524.998 1481.72,520.029 1481.72,563.087 1482.19,543.215 1482.19,573.024 1482.19,589.585 1482.66,645.891 1482.66,617.738 1483.12,619.394 1483.12,577.992 1483.59,534.934 1483.59,533.278 1484.06,529.966 1484.06,541.558 1484.06,546.527 1484.53,488.564 1484.53,506.781 1485,546.527 1485,582.96 1485.47,543.215 1485.47,546.527 1485.94,554.807 1485.94,490.22 1485.94,475.315 1486.41,516.717 1486.41,564.744 1486.88,544.871 1486.88,506.781 1487.34,601.177 1487.81,587.929 1487.81,594.553 1487.81,495.188 1487.81,475.315 1487.81,433.913 1488.28,420.665 1488.28,420.665 1488.75,539.902 1488.75,493.532 1489.22,470.347 1489.22,455.442 1489.69,457.098 1489.69,417.352 1490.16,432.257 1490.16,452.13 1490.16,468.691 1490.16,501.812 1490.62,460.41 1490.62,478.627 1490.62,521.685 1491.09,498.5 1491.09,662.452 1491.56,571.368 1491.56,529.966 1492.03,541.558 1492.03,549.839 1492.03,538.246 1492.03,617.738 1492.5,531.622 1492.5,520.029 1492.97,518.373 1492.97,577.992 1493.44,579.648 1493.44,566.4 1493.91,526.654 1493.91,491.876 1493.91,543.215 1493.91,538.246 1494.38,528.31 1494.84,604.489 1494.84,604.489 1495.31,463.723 1495.78,463.723 1495.78,465.379 1496.25,476.971 1496.25,480.283 1496.25,486.908 1496.25,481.94 1496.72,587.929 1496.72,581.304 1497.19,574.68 1497.19,486.908 1497.66,486.908 1497.66,481.94 1498.12,513.405 1498.12,518.373 1498.59,685.637 1498.59,675.701 1499.06,536.59 1499.53,491.876 1499.53,647.547 1500,513.405 1500,496.844 1500,500.156 1500,510.093 1501.41,490.22 1501.88,539.902 1502.34,538.246 1503.28,582.96 1504.22,500.156 1505.16,447.162 1506.09,543.215 1508.44,546.527 1511.25,543.215 1511.72,539.902 1511.72,549.839 1512.19,513.405 1512.19,538.246 1515.94,604.489 1516.41,674.045 1516.41,584.617 1516.41,546.527 1516.41,521.685 1517.81,556.463 1518.75,500.156 1520.62,549.839 1522.03,533.278 1522.5,500.156 1522.5,586.273 1522.5,576.336 1522.97,546.527 1522.97,539.902 1523.44,518.373 1523.44,508.437 1523.91,520.029 1524.38,510.093 1524.38,503.469 1524.84,523.341 1524.84,493.532 1524.84,510.093 1525.31,599.521 1525.31,558.119 1525.78,485.252 1526.72,589.585 1527.66,508.437 1529.06,506.781 1529.53,531.622 1530.94,569.712 1530.94,584.617 1530.94,597.865 1532.34,518.373 1532.81,553.151 1532.81,546.527 1532.81,526.654 1533.28,506.781 1533.28,528.31 1533.75,609.458 1533.75,559.775 1533.75,584.617 1534.22,607.802 1534.22,614.426 1534.69,602.833 1534.69,561.431 1534.69,543.215 1534.69,548.183 1535.16,528.31 1535.16,520.029 1535.62,619.394 1535.62,556.463 1536.09,528.31 1536.56,503.469 1536.56,500.156 1537.03,478.627 1537.03,453.786 1538.44,463.723 1538.91,430.601 1538.91,422.321 1539.38,467.035 1539.38,472.003 1539.38,445.506 1539.84,404.104 1540.31,541.558 1540.31,500.156 1541.25,503.469 1543.59,452.13 1544.06,457.098 1544.06,475.315 1544.53,453.786 1544.53,472.003 1545,480.283 1545.94,521.685 1546.88,455.442 1546.88,440.538 1546.88,584.617 1546.88,496.844 1547.34,483.596 1547.34,481.94 1547.81,533.278 1547.81,556.463 1548.75,611.114 1549.22,544.871 1550.16,495.188 1550.62,510.093 1551.09,402.448 1551.56,397.479 1553.44,533.278 1553.91,566.4 1554.38,513.405 1554.84,503.469 1554.84,453.786 1555.31,447.162 1555.78,513.405 1557.19,432.257 1557.19,399.135 1559.06,587.929 1559.53,579.648 1559.53,503.469 1560,473.659 1560,481.94 1560.47,500.156 1560.47,463.723 1560.94,488.564 1560.94,493.532 1561.41,524.998 1561.41,521.685 1561.88,437.225 1562.34,389.199 1563.28,419.008 1563.28,394.167 1563.75,422.321 1564.22,576.336 1564.69,457.098 1572.19,483.596 1574.06,480.283 1574.53,531.622 1574.53,568.056 1575,495.188 1575,485.252 1575.47,452.13 1575.94,607.802 1575.94,498.5 1576.41,510.093 1576.41,437.225 1576.88,440.538 1576.88,423.977 1577.34,419.008 1577.34,410.728 1577.81,420.665 1577.81,417.352 1578.28,433.913 1578.75,526.654 1579.22,529.966 1579.69,508.437 1581.09,486.908 1581.09,569.712 1581.56,521.685 1582.03,518.373 1582.5,452.13 1582.5,402.448 1582.97,407.416 1582.97,485.252 1583.44,510.093 1583.44,553.151 1583.44,563.087 1583.91,491.876 1583.91,460.41 1584.38,455.442 1584.38,463.723 1584.84,445.506 1584.84,447.162 1585.31,463.723 1585.31,423.977 1585.31,419.008 1585.78,428.945 1585.78,511.749 1585.78,493.532 1585.78,423.977 1586.25,430.601 1586.25,435.569 1586.72,397.479 1587.19,379.263 1587.19,443.85 1587.66,415.696 1587.66,402.448 1588.12,415.696 1592.34,475.315 1594.22,460.41 1595.62,402.448 1596.09,380.919 1596.56,380.919 1596.56,354.421 1596.56,409.072 1597.03,379.263 1597.97,430.601 1599.84,467.035 1600.78,496.844 1600.78,511.749 1601.25,470.347 1601.25,450.474 1601.72,475.315 1604.06,412.384 1604.06,564.744 1605.94,518.373 1605.94,508.437 1605.94,490.22 1606.41,521.685 1607.81,604.489 1607.81,472.003 1608.28,516.717 1608.28,505.125 1608.75,473.659 1608.75,472.003 1609.22,478.627 1609.22,473.659 1609.69,498.5 1610.16,549.839 1610.16,523.341 1610.16,563.087 1610.62,617.738 1610.62,568.056 1611.09,541.558 1611.09,470.347 1611.09,467.035 1611.56,476.971 1611.56,508.437 1612.03,505.125 1612.03,465.379 1612.03,460.41 1612.03,425.633 1612.5,423.977 1612.5,447.162 1612.97,443.85 1613.44,427.289 1613.44,452.13 1615.78,460.41 1618.59,561.431 1619.06,515.061 1619.06,485.252 1619.53,478.627 1619.53,516.717 1619.53,581.304 1620,584.617 1620,559.775 1620,521.685 1620,596.209 1620.47,529.966 1620.47,447.162 1620.94,498.5 1620.94,529.966 1621.41,539.902 1621.41,526.654 1621.88,465.379 1621.88,513.405 1622.34,526.654 1622.34,546.527 1622.34,483.596 1622.34,496.844 1622.34,476.971 1622.81,500.156 1622.81,443.85 1623.28,513.405 1623.28,478.627 1623.75,476.971 1623.75,470.347 1624.22,475.315 1624.22,467.035 1624.69,462.067 1624.69,457.098 1625.16,452.13"/>
</g>
</svg>
