<?xml version="1.0" encoding="UTF-8" standalone="no"?>
<svg xmlns="http://www.w3.org/2000/svg"
     xmlns:xlink="http://www.w3.org/1999/xlink"
     width="1920px" height="1016px" viewBox="0 0 1920 1016">
<title>glps_renderer figure</title>
<desc>
Creator: GL2PS 1.3.8, (C) 1999-2012 C. Geuzaine
For: Octave
CreationDate: Sun Nov  2 18:39:11 2014
</desc>
<defs>
</defs>
<g shape-rendering="crispEdges">
<polygon fill="#ffffff" points="1737.6,904.24 1737.6,76.2 1737.6,904.24"/>
<polygon fill="#ffffff" points="1737.6,76.2 1737.6,76.2 1737.6,904.24"/>
<polygon fill="#ffffff" points="249.6,76.2 1737.6,76.2 249.6,76.2"/>
<polygon fill="#ffffff" points="1737.6,76.2 1737.6,76.2 249.6,76.2"/>
<polygon fill="#ffffff" points="249.6,904.24 1737.6,904.24 249.6,76.2"/>
<polygon fill="#ffffff" points="1737.6,904.24 1737.6,76.2 249.6,76.2"/>
<polyline fill="none" stroke="#000000" stroke-width="0.5" stroke-dasharray="16,0" points="249.6,904.24 1737.6,904.24"/>
<polyline fill="none" stroke="#000000" stroke-width="0.5" stroke-dasharray="16,0" points="249.6,76.2 1737.6,76.2"/>
<polyline fill="none" stroke="#000000" stroke-width="0.5" stroke-dasharray="16,0" points="249.6,76.2 1737.6,76.2"/>
<polyline fill="none" stroke="#000000" stroke-width="0.5" stroke-dasharray="16,0" points="249.6,904.24 1737.6,904.24"/>
<polyline fill="none" stroke="#000000" stroke-width="0.5" stroke-dasharray="16,0" points="249.6,904.24 249.6,76.2"/>
<polyline fill="none" stroke="#000000" stroke-width="0.5" stroke-dasharray="16,0" points="1737.6,904.24 1737.6,76.2"/>
<polyline fill="none" stroke="#000000" stroke-width="0.5" stroke-dasharray="16,0" points="1737.6,904.24 1737.6,76.2"/>
<polyline fill="none" stroke="#000000" stroke-width="0.5" stroke-dasharray="16,0" points="249.6,904.24 249.6,76.2 249.6,76.2"/>
<polyline fill="none" stroke="#000000" stroke-width="0.5" stroke-dasharray="16,0" points="1737.6,76.2 1737.6,76.2"/>
<polyline fill="none" stroke="#000000" stroke-width="0.5" stroke-dasharray="16,0" points="1737.6,904.24 1737.6,904.24"/>
<polyline fill="none" stroke="#000000" stroke-width="0.5" stroke-dasharray="16,0" points="249.6,904.24 249.6,904.24 249.6,889.359"/>
<polyline fill="none" stroke="#000000" stroke-width="0.5" stroke-dasharray="16,0" points="249.6,76.2 249.6,91.0807"/>
<polyline fill="none" stroke="#000000" stroke-width="0.5" stroke-dasharray="16,0" points="547.2,904.24 547.2,889.359"/>
<polyline fill="none" stroke="#000000" stroke-width="0.5" stroke-dasharray="16,0" points="547.2,76.2 547.2,91.0807"/>
<polyline fill="none" stroke="#000000" stroke-width="0.5" stroke-dasharray="16,0" points="844.8,904.24 844.8,889.359"/>
<polyline fill="none" stroke="#000000" stroke-width="0.5" stroke-dasharray="16,0" points="844.8,76.2 844.8,91.0807"/>
<polyline fill="none" stroke="#000000" stroke-width="0.5" stroke-dasharray="16,0" points="1142.4,904.24 1142.4,889.359"/>
<polyline fill="none" stroke="#000000" stroke-width="0.5" stroke-dasharray="16,0" points="1142.4,76.2 1142.4,91.0807"/>
<polyline fill="none" stroke="#000000" stroke-width="0.5" stroke-dasharray="16,0" points="1440,904.24 1440,889.359"/>
<polyline fill="none" stroke="#000000" stroke-width="0.5" stroke-dasharray="16,0" points="1440,76.2 1440,91.0807"/>
<polyline fill="none" stroke="#000000" stroke-width="0.5" stroke-dasharray="16,0" points="1737.6,904.24 1737.6,889.359"/>
<polyline fill="none" stroke="#000000" stroke-width="0.5" stroke-dasharray="16,0" points="1737.6,76.2 1737.6,91.0807"/>
<text fill="#000000" x="249.6" y="909.24" font-size="10" text-anchor="middle" baseline-shift="-10" font-family="Helvetica">40</text>
<text fill="#000000" x="547.2" y="909.24" font-size="10" text-anchor="middle" baseline-shift="-10" font-family="Helvetica">50</text>
<text fill="#000000" x="844.8" y="909.24" font-size="10" text-anchor="middle" baseline-shift="-10" font-family="Helvetica">60</text>
<text fill="#000000" x="1142.4" y="909.24" font-size="10" text-anchor="middle" baseline-shift="-10" font-family="Helvetica">70</text>
<text fill="#000000" x="1440" y="909.24" font-size="10" text-anchor="middle" baseline-shift="-10" font-family="Helvetica">80</text>
<text fill="#000000" x="1737.6" y="909.24" font-size="10" text-anchor="middle" baseline-shift="-10" font-family="Helvetica">90</text>
<polyline fill="none" stroke="#000000" stroke-width="0.5" stroke-dasharray="16,0" points="249.6,904.24 264.48,904.24"/>
<polyline fill="none" stroke="#000000" stroke-width="0.5" stroke-dasharray="16,0" points="1737.6,904.24 1722.72,904.24"/>
<polyline fill="none" stroke="#000000" stroke-width="0.5" stroke-dasharray="16,0" points="249.6,738.632 264.48,738.632"/>
<polyline fill="none" stroke="#000000" stroke-width="0.5" stroke-dasharray="16,0" points="1737.6,738.632 1722.72,738.632"/>
<polyline fill="none" stroke="#000000" stroke-width="0.5" stroke-dasharray="16,0" points="249.6,573.024 264.48,573.024"/>
<polyline fill="none" stroke="#000000" stroke-width="0.5" stroke-dasharray="16,0" points="1737.6,573.024 1722.72,573.024"/>
<polyline fill="none" stroke="#000000" stroke-width="0.5" stroke-dasharray="16,0" points="249.6,407.416 264.48,407.416"/>
<polyline fill="none" stroke="#000000" stroke-width="0.5" stroke-dasharray="16,0" points="1737.6,407.416 1722.72,407.416"/>
<polyline fill="none" stroke="#000000" stroke-width="0.5" stroke-dasharray="16,0" points="249.6,241.808 264.48,241.808"/>
<polyline fill="none" stroke="#000000" stroke-width="0.5" stroke-dasharray="16,0" points="1737.6,241.808 1722.72,241.808"/>
<polyline fill="none" stroke="#000000" stroke-width="0.5" stroke-dasharray="16,0" points="249.6,76.2 264.48,76.2"/>
<polyline fill="none" stroke="#000000" stroke-width="0.5" stroke-dasharray="16,0" points="1737.6,76.2 1722.72,76.2"/>
<text fill="#000000" x="244.6" y="904.24" font-size="10" text-anchor="end" baseline-shift="-5" font-family="Helvetica">0</text>
<text fill="#000000" x="244.6" y="738.632" font-size="10" text-anchor="end" baseline-shift="-5" font-family="Helvetica">50</text>
<text fill="#000000" x="244.6" y="573.024" font-size="10" text-anchor="end" baseline-shift="-5" font-family="Helvetica">100</text>
<text fill="#000000" x="244.6" y="407.416" font-size="10" text-anchor="end" baseline-shift="-5" font-family="Helvetica">150</text>
<text fill="#000000" x="244.6" y="241.808" font-size="10" text-anchor="end" baseline-shift="-5" font-family="Helvetica">200</text>
<text fill="#000000" x="244.6" y="76.2" font-size="10" text-anchor="end" baseline-shift="-5" font-family="Helvetica">250</text>
<polygon fill="#00007f" points="362.908,900.928 344.195,904.24 344.195,900.928"/>
<polygon fill="#00007f" points="344.195,904.24 362.908,900.928 362.908,904.24"/>
<polygon fill="#00007f" points="479.865,897.616 461.152,904.24 461.152,897.616"/>
<polygon fill="#00007f" points="461.152,904.24 479.865,897.616 479.865,904.24"/>
<polygon fill="#00007f" points="503.256,900.928 484.543,904.24 484.543,900.928"/>
<polygon fill="#00007f" points="484.543,904.24 503.256,900.928 503.256,904.24"/>
<polygon fill="#00007f" points="526.648,890.991 507.935,904.24 507.935,890.991"/>
<polygon fill="#00007f" points="507.935,904.24 526.648,890.991 526.648,904.24"/>
<polygon fill="#00007f" points="550.039,887.679 531.326,904.24 531.326,887.679"/>
<polygon fill="#00007f" points="531.326,904.24 550.039,887.679 550.039,904.24"/>
<polygon fill="#00007f" points="573.431,884.367 554.717,904.24 554.717,884.367"/>
<polygon fill="#00007f" points="554.717,904.24 573.431,884.367 573.431,904.24"/>
<polygon fill="#00007f" points="596.822,854.558 578.109,904.24 578.109,854.558"/>
<polygon fill="#00007f" points="578.109,904.24 596.822,854.558 596.822,904.24"/>
<polygon fill="#00007f" points="620.213,811.5 601.5,904.24 601.5,811.5"/>
<polygon fill="#00007f" points="601.5,904.24 620.213,811.5 620.213,904.24"/>
<polygon fill="#00007f" points="643.604,794.939 624.891,904.24 624.891,794.939"/>
<polygon fill="#00007f" points="624.891,904.24 643.604,794.939 643.604,904.24"/>
<polygon fill="#00007f" points="666.996,669.077 648.283,904.24 648.283,669.077"/>
<polygon fill="#00007f" points="648.283,904.24 666.996,669.077 666.996,904.24"/>
<polygon fill="#00007f" points="690.387,612.77 671.674,904.24 671.674,612.77"/>
<polygon fill="#00007f" points="671.674,904.24 690.387,612.77 690.387,904.24"/>
<polygon fill="#00007f" points="713.779,467.035 695.066,904.24 695.066,467.035"/>
<polygon fill="#00007f" points="695.066,904.24 713.779,467.035 713.779,904.24"/>
<polygon fill="#00007f" points="737.17,394.167 718.457,904.24 718.457,394.167"/>
<polygon fill="#00007f" points="718.457,904.24 737.17,394.167 737.17,904.24"/>
<polygon fill="#00007f" points="760.561,394.167 741.848,904.24 741.848,394.167"/>
<polygon fill="#00007f" points="741.848,904.24 760.561,394.167 760.561,904.24"/>
<polygon fill="#00007f" points="783.953,357.734 765.24,904.24 765.24,357.734"/>
<polygon fill="#00007f" points="765.24,904.24 783.953,357.734 783.953,904.24"/>
<polygon fill="#00007f" points="807.344,387.543 788.631,904.24 788.631,387.543"/>
<polygon fill="#00007f" points="788.631,904.24 807.344,387.543 807.344,904.24"/>
<polygon fill="#00007f" points="830.736,202.062 812.022,904.24 812.022,202.062"/>
<polygon fill="#00007f" points="812.022,904.24 830.736,202.062 830.736,904.24"/>
<polygon fill="#00007f" points="854.127,394.167 835.414,904.24 835.414,394.167"/>
<polygon fill="#00007f" points="835.414,904.24 854.127,394.167 854.127,904.24"/>
<polygon fill="#00007f" points="877.518,341.173 858.805,904.24 858.805,341.173"/>
<polygon fill="#00007f" points="858.805,904.24 877.518,341.173 877.518,904.24"/>
<polygon fill="#00007f" points="900.91,208.686 882.196,904.24 882.196,208.686"/>
<polygon fill="#00007f" points="882.196,904.24 900.91,208.686 900.91,904.24"/>
<polygon fill="#00007f" points="924.301,245.12 905.588,904.24 905.588,245.12"/>
<polygon fill="#00007f" points="905.588,904.24 924.301,245.12 924.301,904.24"/>
<polygon fill="#00007f" points="947.692,321.3 928.979,904.24 928.979,321.3"/>
<polygon fill="#00007f" points="928.979,904.24 947.692,321.3 947.692,904.24"/>
<polygon fill="#00007f" points="971.084,354.421 952.371,904.24 952.371,354.421"/>
<polygon fill="#00007f" points="952.371,904.24 971.084,354.421 971.084,904.24"/>
<polygon fill="#00007f" points="994.475,327.924 975.762,904.24 975.762,327.924"/>
<polygon fill="#00007f" points="975.762,904.24 994.475,327.924 994.475,904.24"/>
<polygon fill="#00007f" points="1017.87,394.167 999.153,904.24 999.153,394.167"/>
<polygon fill="#00007f" points="999.153,904.24 1017.87,394.167 1017.87,904.24"/>
<polygon fill="#00007f" points="1041.26,238.496 1022.54,904.24 1022.54,238.496"/>
<polygon fill="#00007f" points="1022.54,904.24 1041.26,238.496 1041.26,904.24"/>
<polygon fill="#00007f" points="1064.65,440.538 1045.94,904.24 1045.94,440.538"/>
<polygon fill="#00007f" points="1045.94,904.24 1064.65,440.538 1064.65,904.24"/>
<polygon fill="#00007f" points="1088.04,516.717 1069.33,904.24 1069.33,516.717"/>
<polygon fill="#00007f" points="1069.33,904.24 1088.04,516.717 1088.04,904.24"/>
<polygon fill="#00007f" points="1111.43,576.336 1092.72,904.24 1092.72,576.336"/>
<polygon fill="#00007f" points="1092.72,904.24 1111.43,576.336 1111.43,904.24"/>
<polygon fill="#00007f" points="1134.82,612.77 1116.11,904.24 1116.11,612.77"/>
<polygon fill="#00007f" points="1116.11,904.24 1134.82,612.77 1134.82,904.24"/>
<polygon fill="#00007f" points="1158.21,685.637 1139.5,904.24 1139.5,685.637"/>
<polygon fill="#00007f" points="1139.5,904.24 1158.21,685.637 1158.21,904.24"/>
<polygon fill="#00007f" points="1181.61,837.997 1162.89,904.24 1162.89,837.997"/>
<polygon fill="#00007f" points="1162.89,904.24 1181.61,837.997 1181.61,904.24"/>
<polygon fill="#00007f" points="1205,818.124 1186.28,904.24 1186.28,818.124"/>
<polygon fill="#00007f" points="1186.28,904.24 1205,818.124 1205,904.24"/>
<polygon fill="#00007f" points="1228.39,837.997 1209.68,904.24 1209.68,837.997"/>
<polygon fill="#00007f" points="1209.68,904.24 1228.39,837.997 1228.39,904.24"/>
<polygon fill="#00007f" points="1251.78,851.245 1233.07,904.24 1233.07,851.245"/>
<polygon fill="#00007f" points="1233.07,904.24 1251.78,851.245 1251.78,904.24"/>
<polygon fill="#00007f" points="1275.17,890.991 1256.46,904.24 1256.46,890.991"/>
<polygon fill="#00007f" points="1256.46,904.24 1275.17,890.991 1275.17,904.24"/>
<polygon fill="#00007f" points="1298.56,894.304 1279.85,904.24 1279.85,894.304"/>
<polygon fill="#00007f" points="1279.85,904.24 1298.56,894.304 1298.56,904.24"/>
<polygon fill="#00007f" points="1321.95,900.928 1303.24,904.24 1303.24,900.928"/>
<polygon fill="#00007f" points="1303.24,904.24 1321.95,900.928 1321.95,904.24"/>
<polygon fill="#00007f" points="1345.35,900.928 1326.63,904.24 1326.63,900.928"/>
<polygon fill="#00007f" points="1326.63,904.24 1345.35,900.928 1345.35,904.24"/>
<polygon fill="#00007f" points="1368.74,900.928 1350.02,904.24 1350.02,900.928"/>
<polygon fill="#00007f" points="1350.02,904.24 1368.74,900.928 1368.74,904.24"/>
<polygon fill="#00007f" points="1509.08,900.928 1490.37,904.24 1490.37,900.928"/>
<polygon fill="#00007f" points="1490.37,904.24 1509.08,900.928 1509.08,904.24"/>
<polyline fill="none" stroke="#000000" stroke-width="0.5" points="362.908,904.24 344.195,904.24 344.195,900.928 362.908,900.928 362.908,904.24"/>
<polyline fill="none" stroke="#000000" stroke-width="0.5" points="479.865,904.24 461.152,904.24 461.152,897.616 479.865,897.616 479.865,904.24"/>
<polyline fill="none" stroke="#000000" stroke-width="0.5" points="503.256,904.24 484.543,904.24 484.543,900.928 503.256,900.928 503.256,904.24"/>
<polyline fill="none" stroke="#000000" stroke-width="0.5" points="526.648,904.24 507.935,904.24 507.935,890.991 526.648,890.991 526.648,904.24"/>
<polyline fill="none" stroke="#000000" stroke-width="0.5" points="550.039,904.24 531.326,904.24 531.326,887.679 550.039,887.679 550.039,904.24"/>
<polyline fill="none" stroke="#000000" stroke-width="0.5" points="573.431,904.24 554.717,904.24 554.717,884.367 573.431,884.367 573.431,904.24"/>
<polyline fill="none" stroke="#000000" stroke-width="0.5" points="596.822,904.24 578.109,904.24 578.109,854.558 596.822,854.558 596.822,904.24"/>
<polyline fill="none" stroke="#000000" stroke-width="0.5" points="620.213,904.24 601.5,904.24 601.5,811.5 620.213,811.5 620.213,904.24"/>
<polyline fill="none" stroke="#000000" stroke-width="0.5" points="643.604,904.24 624.891,904.24 624.891,794.939 643.604,794.939 643.604,904.24"/>
<polyline fill="none" stroke="#000000" stroke-width="0.5" points="666.996,904.24 648.283,904.24 648.283,669.077 666.996,669.077 666.996,904.24"/>
<polyline fill="none" stroke="#000000" stroke-width="0.5" points="690.387,904.24 671.674,904.24 671.674,612.77 690.387,612.77 690.387,904.24"/>
<polyline fill="none" stroke="#000000" stroke-width="0.5" points="713.779,904.24 695.066,904.24 695.066,467.035 713.779,467.035 713.779,904.24"/>
<polyline fill="none" stroke="#000000" stroke-width="0.5" points="737.17,904.24 718.457,904.24 718.457,394.167 737.17,394.167 737.17,904.24"/>
<polyline fill="none" stroke="#000000" stroke-width="0.5" points="760.561,904.24 741.848,904.24 741.848,394.167 760.561,394.167 760.561,904.24"/>
<polyline fill="none" stroke="#000000" stroke-width="0.5" points="783.953,904.24 765.24,904.24 765.24,357.734 783.953,357.734 783.953,904.24"/>
<polyline fill="none" stroke="#000000" stroke-width="0.5" points="807.344,904.24 788.631,904.24 788.631,387.543 807.344,387.543 807.344,904.24"/>
<polyline fill="none" stroke="#000000" stroke-width="0.5" points="830.736,904.24 812.022,904.24 812.022,202.062 830.736,202.062 830.736,904.24"/>
<polyline fill="none" stroke="#000000" stroke-width="0.5" points="854.127,904.24 835.414,904.24 835.414,394.167 854.127,394.167 854.127,904.24"/>
<polyline fill="none" stroke="#000000" stroke-width="0.5" points="877.518,904.24 858.805,904.24 858.805,341.173 877.518,341.173 877.518,904.24"/>
<polyline fill="none" stroke="#000000" stroke-width="0.5" points="900.91,904.24 882.196,904.24 882.196,208.686 900.91,208.686 900.91,904.24"/>
<polyline fill="none" stroke="#000000" stroke-width="0.5" points="924.301,904.24 905.588,904.24 905.588,245.12 924.301,245.12 924.301,904.24"/>
<polyline fill="none" stroke="#000000" stroke-width="0.5" points="947.692,904.24 928.979,904.24 928.979,321.3 947.692,321.3 947.692,904.24"/>
<polyline fill="none" stroke="#000000" stroke-width="0.5" points="971.084,904.24 952.371,904.24 952.371,354.421 971.084,354.421 971.084,904.24"/>
<polyline fill="none" stroke="#000000" stroke-width="0.5" points="994.475,904.24 975.762,904.24 975.762,327.924 994.475,327.924 994.475,904.24"/>
<polyline fill="none" stroke="#000000" stroke-width="0.5" points="1017.87,904.24 999.153,904.24 999.153,394.167 1017.87,394.167 1017.87,904.24"/>
<polyline fill="none" stroke="#000000" stroke-width="0.5" points="1041.26,904.24 1022.54,904.24 1022.54,238.496 1041.26,238.496 1041.26,904.24"/>
<polyline fill="none" stroke="#000000" stroke-width="0.5" points="1064.65,904.24 1045.94,904.24 1045.94,440.538 1064.65,440.538 1064.65,904.24"/>
<polyline fill="none" stroke="#000000" stroke-width="0.5" points="1088.04,904.24 1069.33,904.24 1069.33,516.717 1088.04,516.717 1088.04,904.24"/>
<polyline fill="none" stroke="#000000" stroke-width="0.5" points="1111.43,904.24 1092.72,904.24 1092.72,576.336 1111.43,576.336 1111.43,904.24"/>
<polyline fill="none" stroke="#000000" stroke-width="0.5" points="1134.82,904.24 1116.11,904.24 1116.11,612.77 1134.82,612.77 1134.82,904.24"/>
<polyline fill="none" stroke="#000000" stroke-width="0.5" points="1158.21,904.24 1139.5,904.24 1139.5,685.637 1158.21,685.637 1158.21,904.24"/>
<polyline fill="none" stroke="#000000" stroke-width="0.5" points="1181.61,904.24 1162.89,904.24 1162.89,837.997 1181.61,837.997 1181.61,904.24"/>
<polyline fill="none" stroke="#000000" stroke-width="0.5" points="1205,904.24 1186.28,904.24 1186.28,818.124 1205,818.124 1205,904.24"/>
<polyline fill="none" stroke="#000000" stroke-width="0.5" points="1228.39,904.24 1209.68,904.24 1209.68,837.997 1228.39,837.997 1228.39,904.24"/>
<polyline fill="none" stroke="#000000" stroke-width="0.5" points="1251.78,904.24 1233.07,904.24 1233.07,851.245 1251.78,851.245 1251.78,904.24"/>
<polyline fill="none" stroke="#000000" stroke-width="0.5" points="1275.17,904.24 1256.46,904.24 1256.46,890.991 1275.17,890.991 1275.17,904.24"/>
<polyline fill="none" stroke="#000000" stroke-width="0.5" points="1298.56,904.24 1279.85,904.24 1279.85,894.304 1298.56,894.304 1298.56,904.24"/>
<polyline fill="none" stroke="#000000" stroke-width="0.5" points="1321.95,904.24 1303.24,904.24 1303.24,900.928 1321.95,900.928 1321.95,904.24"/>
<polyline fill="none" stroke="#000000" stroke-width="0.5" points="1345.35,904.24 1326.63,904.24 1326.63,900.928 1345.35,900.928 1345.35,904.24"/>
<polyline fill="none" stroke="#000000" stroke-width="0.5" points="1368.74,904.24 1350.02,904.24 1350.02,900.928 1368.74,900.928 1368.74,904.24"/>
<polyline fill="none" stroke="#000000" stroke-width="0.5" points="1509.08,904.24 1490.37,904.24 1490.37,900.928 1509.08,900.928 1509.08,904.24"/>
<polyline fill="none" stroke="#000000" stroke-width="0.5" points="249.6,904.24 1737.6,904.24"/>
</g>
</svg>
