<?xml version="1.0" encoding="UTF-8" standalone="no"?>
<svg xmlns="http://www.w3.org/2000/svg"
     xmlns:xlink="http://www.w3.org/1999/xlink"
     width="1920px" height="1016px" viewBox="0 0 1920 1016">
<title>glps_renderer figure</title>
<desc>
Creator: GL2PS 1.3.8, (C) 1999-2012 C. Geuzaine
For: Octave
CreationDate: Sun Nov  2 18:39:23 2014
</desc>
<defs>
</defs>
<g shape-rendering="crispEdges">
<polygon fill="#ffffff" points="1737.6,904.24 1737.6,76.2 1737.6,904.24"/>
<polygon fill="#ffffff" points="1737.6,76.2 1737.6,76.2 1737.6,904.24"/>
<polygon fill="#ffffff" points="249.6,76.2 1737.6,76.2 249.6,76.2"/>
<polygon fill="#ffffff" points="1737.6,76.2 1737.6,76.2 249.6,76.2"/>
<polygon fill="#ffffff" points="249.6,904.24 1737.6,904.24 249.6,76.2"/>
<polygon fill="#ffffff" points="1737.6,904.24 1737.6,76.2 249.6,76.2"/>
<polyline fill="none" stroke="#000000" stroke-width="0.5" stroke-dasharray="16,0" points="249.6,904.24 1737.6,904.24"/>
<polyline fill="none" stroke="#000000" stroke-width="0.5" stroke-dasharray="16,0" points="249.6,76.2 1737.6,76.2"/>
<polyline fill="none" stroke="#000000" stroke-width="0.5" stroke-dasharray="16,0" points="249.6,76.2 1737.6,76.2"/>
<polyline fill="none" stroke="#000000" stroke-width="0.5" stroke-dasharray="16,0" points="249.6,904.24 1737.6,904.24"/>
<polyline fill="none" stroke="#000000" stroke-width="0.5" stroke-dasharray="16,0" points="249.6,904.24 249.6,76.2"/>
<polyline fill="none" stroke="#000000" stroke-width="0.5" stroke-dasharray="16,0" points="1737.6,904.24 1737.6,76.2"/>
<polyline fill="none" stroke="#000000" stroke-width="0.5" stroke-dasharray="16,0" points="1737.6,904.24 1737.6,76.2"/>
<polyline fill="none" stroke="#000000" stroke-width="0.5" stroke-dasharray="16,0" points="249.6,904.24 249.6,76.2 249.6,76.2"/>
<polyline fill="none" stroke="#000000" stroke-width="0.5" stroke-dasharray="16,0" points="1737.6,76.2 1737.6,76.2"/>
<polyline fill="none" stroke="#000000" stroke-width="0.5" stroke-dasharray="16,0" points="1737.6,904.24 1737.6,904.24"/>
<polyline fill="none" stroke="#000000" stroke-width="0.5" stroke-dasharray="16,0" points="249.6,904.24 249.6,904.24 249.6,889.359"/>
<polyline fill="none" stroke="#000000" stroke-width="0.5" stroke-dasharray="16,0" points="249.6,76.2 249.6,91.0807"/>
<polyline fill="none" stroke="#000000" stroke-width="0.5" stroke-dasharray="16,0" points="497.6,904.24 497.6,889.359"/>
<polyline fill="none" stroke="#000000" stroke-width="0.5" stroke-dasharray="16,0" points="497.6,76.2 497.6,91.0807"/>
<polyline fill="none" stroke="#000000" stroke-width="0.5" stroke-dasharray="16,0" points="745.6,904.24 745.6,889.359"/>
<polyline fill="none" stroke="#000000" stroke-width="0.5" stroke-dasharray="16,0" points="745.6,76.2 745.6,91.0807"/>
<polyline fill="none" stroke="#000000" stroke-width="0.5" stroke-dasharray="16,0" points="993.6,904.24 993.6,889.359"/>
<polyline fill="none" stroke="#000000" stroke-width="0.5" stroke-dasharray="16,0" points="993.6,76.2 993.6,91.0807"/>
<polyline fill="none" stroke="#000000" stroke-width="0.5" stroke-dasharray="16,0" points="1241.6,904.24 1241.6,889.359"/>
<polyline fill="none" stroke="#000000" stroke-width="0.5" stroke-dasharray="16,0" points="1241.6,76.2 1241.6,91.0807"/>
<polyline fill="none" stroke="#000000" stroke-width="0.5" stroke-dasharray="16,0" points="1489.6,904.24 1489.6,889.359"/>
<polyline fill="none" stroke="#000000" stroke-width="0.5" stroke-dasharray="16,0" points="1489.6,76.2 1489.6,91.0807"/>
<polyline fill="none" stroke="#000000" stroke-width="0.5" stroke-dasharray="16,0" points="1737.6,904.24 1737.6,889.359"/>
<polyline fill="none" stroke="#000000" stroke-width="0.5" stroke-dasharray="16,0" points="1737.6,76.2 1737.6,91.0807"/>
<text fill="#000000" x="249.6" y="909.24" font-size="10" text-anchor="middle" baseline-shift="-10" font-family="Helvetica">50</text>
<text fill="#000000" x="497.6" y="909.24" font-size="10" text-anchor="middle" baseline-shift="-10" font-family="Helvetica">55</text>
<text fill="#000000" x="745.6" y="909.24" font-size="10" text-anchor="middle" baseline-shift="-10" font-family="Helvetica">60</text>
<text fill="#000000" x="993.6" y="909.24" font-size="10" text-anchor="middle" baseline-shift="-10" font-family="Helvetica">65</text>
<text fill="#000000" x="1241.6" y="909.24" font-size="10" text-anchor="middle" baseline-shift="-10" font-family="Helvetica">70</text>
<text fill="#000000" x="1489.6" y="909.24" font-size="10" text-anchor="middle" baseline-shift="-10" font-family="Helvetica">75</text>
<text fill="#000000" x="1737.6" y="909.24" font-size="10" text-anchor="middle" baseline-shift="-10" font-family="Helvetica">80</text>
<polyline fill="none" stroke="#000000" stroke-width="0.5" stroke-dasharray="16,0" points="249.6,904.24 264.48,904.24"/>
<polyline fill="none" stroke="#000000" stroke-width="0.5" stroke-dasharray="16,0" points="1737.6,904.24 1722.72,904.24"/>
<polyline fill="none" stroke="#000000" stroke-width="0.5" stroke-dasharray="16,0" points="249.6,785.949 264.48,785.949"/>
<polyline fill="none" stroke="#000000" stroke-width="0.5" stroke-dasharray="16,0" points="1737.6,785.949 1722.72,785.949"/>
<polyline fill="none" stroke="#000000" stroke-width="0.5" stroke-dasharray="16,0" points="249.6,667.657 264.48,667.657"/>
<polyline fill="none" stroke="#000000" stroke-width="0.5" stroke-dasharray="16,0" points="1737.6,667.657 1722.72,667.657"/>
<polyline fill="none" stroke="#000000" stroke-width="0.5" stroke-dasharray="16,0" points="249.6,549.366 264.48,549.366"/>
<polyline fill="none" stroke="#000000" stroke-width="0.5" stroke-dasharray="16,0" points="1737.6,549.366 1722.72,549.366"/>
<polyline fill="none" stroke="#000000" stroke-width="0.5" stroke-dasharray="16,0" points="249.6,431.074 264.48,431.074"/>
<polyline fill="none" stroke="#000000" stroke-width="0.5" stroke-dasharray="16,0" points="1737.6,431.074 1722.72,431.074"/>
<polyline fill="none" stroke="#000000" stroke-width="0.5" stroke-dasharray="16,0" points="249.6,312.783 264.48,312.783"/>
<polyline fill="none" stroke="#000000" stroke-width="0.5" stroke-dasharray="16,0" points="1737.6,312.783 1722.72,312.783"/>
<polyline fill="none" stroke="#000000" stroke-width="0.5" stroke-dasharray="16,0" points="249.6,194.491 264.48,194.491"/>
<polyline fill="none" stroke="#000000" stroke-width="0.5" stroke-dasharray="16,0" points="1737.6,194.491 1722.72,194.491"/>
<polyline fill="none" stroke="#000000" stroke-width="0.5" stroke-dasharray="16,0" points="249.6,76.2 264.48,76.2"/>
<polyline fill="none" stroke="#000000" stroke-width="0.5" stroke-dasharray="16,0" points="1737.6,76.2 1722.72,76.2"/>
<text fill="#000000" x="244.6" y="904.24" font-size="10" text-anchor="end" baseline-shift="-5" font-family="Helvetica">0</text>
<text fill="#000000" x="244.6" y="785.949" font-size="10" text-anchor="end" baseline-shift="-5" font-family="Helvetica">50</text>
<text fill="#000000" x="244.6" y="667.657" font-size="10" text-anchor="end" baseline-shift="-5" font-family="Helvetica">100</text>
<text fill="#000000" x="244.6" y="549.366" font-size="10" text-anchor="end" baseline-shift="-5" font-family="Helvetica">150</text>
<text fill="#000000" x="244.6" y="431.074" font-size="10" text-anchor="end" baseline-shift="-5" font-family="Helvetica">200</text>
<text fill="#000000" x="244.6" y="312.783" font-size="10" text-anchor="end" baseline-shift="-5" font-family="Helvetica">250</text>
<text fill="#000000" x="244.6" y="194.491" font-size="10" text-anchor="end" baseline-shift="-5" font-family="Helvetica">300</text>
<text fill="#000000" x="244.6" y="76.2" font-size="10" text-anchor="end" baseline-shift="-5" font-family="Helvetica">350</text>
<polygon fill="#00007f" points="493.781,901.874 475.131,904.24 475.131,901.874"/>
<polygon fill="#00007f" points="475.131,904.24 493.781,901.874 493.781,904.24"/>
<polygon fill="#00007f" points="517.093,901.874 498.443,904.24 498.443,901.874"/>
<polygon fill="#00007f" points="498.443,904.24 517.093,901.874 517.093,904.24"/>
<polygon fill="#00007f" points="587.029,894.777 568.379,904.24 568.379,894.777"/>
<polygon fill="#00007f" points="568.379,904.24 587.029,894.777 587.029,904.24"/>
<polygon fill="#00007f" points="610.341,871.118 591.691,904.24 591.691,871.118"/>
<polygon fill="#00007f" points="591.691,904.24 610.341,871.118 610.341,904.24"/>
<polygon fill="#00007f" points="633.653,868.753 615.003,904.24 615.003,868.753"/>
<polygon fill="#00007f" points="615.003,904.24 633.653,868.753 633.653,904.24"/>
<polygon fill="#00007f" points="656.965,809.607 638.315,904.24 638.315,809.607"/>
<polygon fill="#00007f" points="638.315,904.24 656.965,809.607 656.965,904.24"/>
<polygon fill="#00007f" points="680.277,731.534 661.627,904.24 661.627,731.534"/>
<polygon fill="#00007f" points="661.627,904.24 680.277,731.534 680.277,904.24"/>
<polygon fill="#00007f" points="703.589,629.804 684.939,904.24 684.939,629.804"/>
<polygon fill="#00007f" points="684.939,904.24 703.589,629.804 703.589,904.24"/>
<polygon fill="#00007f" points="726.901,575.39 708.251,904.24 708.251,575.39"/>
<polygon fill="#00007f" points="708.251,904.24 726.901,575.39 726.901,904.24"/>
<polygon fill="#00007f" points="750.213,435.806 731.563,904.24 731.563,435.806"/>
<polygon fill="#00007f" points="731.563,904.24 750.213,435.806 750.213,904.24"/>
<polygon fill="#00007f" points="773.525,386.124 754.875,904.24 754.875,386.124"/>
<polygon fill="#00007f" points="754.875,904.24 773.525,386.124 773.525,904.24"/>
<polygon fill="#00007f" points="796.837,409.782 778.188,904.24 778.188,409.782"/>
<polygon fill="#00007f" points="778.188,904.24 796.837,409.782 796.837,904.24"/>
<polygon fill="#00007f" points="820.149,274.93 801.499,904.24 801.499,274.93"/>
<polygon fill="#00007f" points="801.499,904.24 820.149,274.93 820.149,904.24"/>
<polygon fill="#00007f" points="843.461,206.321 824.811,904.24 824.811,206.321"/>
<polygon fill="#00007f" points="824.811,904.24 843.461,206.321 843.461,904.24"/>
<polygon fill="#00007f" points="866.773,326.978 848.123,904.24 848.123,326.978"/>
<polygon fill="#00007f" points="848.123,904.24 866.773,326.978 866.773,904.24"/>
<polygon fill="#00007f" points="890.085,251.271 871.435,904.24 871.435,251.271"/>
<polygon fill="#00007f" points="871.435,904.24 890.085,251.271 890.085,904.24"/>
<polygon fill="#00007f" points="913.397,166.101 894.747,904.24 894.747,166.101"/>
<polygon fill="#00007f" points="894.747,904.24 913.397,166.101 913.397,904.24"/>
<polygon fill="#00007f" points="936.709,142.443 918.059,904.24 918.059,142.443"/>
<polygon fill="#00007f" points="918.059,904.24 936.709,142.443 936.709,904.24"/>
<polygon fill="#00007f" points="960.021,353.002 941.371,904.24 941.371,353.002"/>
<polygon fill="#00007f" points="941.371,904.24 960.021,353.002 960.021,904.24"/>
<polygon fill="#00007f" points="983.333,284.393 964.683,904.24 964.683,284.393"/>
<polygon fill="#00007f" points="964.683,904.24 983.333,284.393 983.333,904.24"/>
<polygon fill="#00007f" points="1006.64,194.491 987.995,904.24 987.995,194.491"/>
<polygon fill="#00007f" points="987.995,904.24 1006.64,194.491 1006.64,904.24"/>
<polygon fill="#00007f" points="1029.96,270.198 1011.31,904.24 1011.31,270.198"/>
<polygon fill="#00007f" points="1011.31,904.24 1029.96,270.198 1029.96,904.24"/>
<polygon fill="#00007f" points="1053.27,154.272 1034.62,904.24 1034.62,154.272"/>
<polygon fill="#00007f" points="1034.62,904.24 1053.27,154.272 1053.27,904.24"/>
<polygon fill="#00007f" points="1076.58,334.075 1057.93,904.24 1057.93,334.075"/>
<polygon fill="#00007f" points="1057.93,904.24 1076.58,334.075 1076.58,904.24"/>
<polygon fill="#00007f" points="1099.89,383.758 1081.24,904.24 1081.24,383.758"/>
<polygon fill="#00007f" points="1081.24,904.24 1099.89,383.758 1099.89,904.24"/>
<polygon fill="#00007f" points="1123.21,253.637 1104.56,904.24 1104.56,253.637"/>
<polygon fill="#00007f" points="1104.56,904.24 1123.21,253.637 1123.21,904.24"/>
<polygon fill="#00007f" points="1146.52,265.466 1127.87,904.24 1127.87,265.466"/>
<polygon fill="#00007f" points="1127.87,904.24 1146.52,265.466 1146.52,904.24"/>
<polygon fill="#00007f" points="1169.83,322.246 1151.18,904.24 1151.18,322.246"/>
<polygon fill="#00007f" points="1151.18,904.24 1169.83,322.246 1169.83,904.24"/>
<polygon fill="#00007f" points="1193.14,509.147 1174.49,904.24 1174.49,509.147"/>
<polygon fill="#00007f" points="1174.49,904.24 1193.14,509.147 1193.14,904.24"/>
<polygon fill="#00007f" points="1216.45,454.733 1197.8,904.24 1197.8,454.733"/>
<polygon fill="#00007f" points="1197.8,904.24 1216.45,454.733 1216.45,904.24"/>
<polygon fill="#00007f" points="1239.77,466.562 1221.12,904.24 1221.12,466.562"/>
<polygon fill="#00007f" points="1221.12,904.24 1239.77,466.562 1239.77,904.24"/>
<polygon fill="#00007f" points="1263.08,632.17 1244.43,904.24 1244.43,632.17"/>
<polygon fill="#00007f" points="1244.43,904.24 1263.08,632.17 1263.08,904.24"/>
<polygon fill="#00007f" points="1286.39,577.756 1267.74,904.24 1267.74,577.756"/>
<polygon fill="#00007f" points="1267.74,904.24 1286.39,577.756 1286.39,904.24"/>
<polygon fill="#00007f" points="1309.7,632.17 1291.05,904.24 1291.05,632.17"/>
<polygon fill="#00007f" points="1291.05,904.24 1309.7,632.17 1309.7,904.24"/>
<polygon fill="#00007f" points="1333.01,681.852 1314.36,904.24 1314.36,681.852"/>
<polygon fill="#00007f" points="1314.36,904.24 1333.01,681.852 1333.01,904.24"/>
<polygon fill="#00007f" points="1356.33,714.974 1337.68,904.24 1337.68,714.974"/>
<polygon fill="#00007f" points="1337.68,904.24 1356.33,714.974 1356.33,904.24"/>
<polygon fill="#00007f" points="1379.64,771.754 1360.99,904.24 1360.99,771.754"/>
<polygon fill="#00007f" points="1360.99,904.24 1379.64,771.754 1379.64,904.24"/>
<polygon fill="#00007f" points="1402.95,826.168 1384.3,904.24 1384.3,826.168"/>
<polygon fill="#00007f" points="1384.3,904.24 1402.95,826.168 1402.95,904.24"/>
<polygon fill="#00007f" points="1426.26,842.728 1407.61,904.24 1407.61,842.728"/>
<polygon fill="#00007f" points="1407.61,904.24 1426.26,842.728 1426.26,904.24"/>
<polygon fill="#00007f" points="1449.57,849.826 1430.92,904.24 1430.92,849.826"/>
<polygon fill="#00007f" points="1430.92,904.24 1449.57,849.826 1449.57,904.24"/>
<polygon fill="#00007f" points="1472.89,864.021 1454.24,904.24 1454.24,864.021"/>
<polygon fill="#00007f" points="1454.24,904.24 1472.89,864.021 1472.89,904.24"/>
<polygon fill="#00007f" points="1496.2,871.118 1477.55,904.24 1477.55,871.118"/>
<polygon fill="#00007f" points="1477.55,904.24 1496.2,871.118 1496.2,904.24"/>
<polygon fill="#00007f" points="1519.51,861.655 1500.86,904.24 1500.86,861.655"/>
<polygon fill="#00007f" points="1500.86,904.24 1519.51,861.655 1519.51,904.24"/>
<polygon fill="#00007f" points="1542.82,887.679 1524.17,904.24 1524.17,887.679"/>
<polygon fill="#00007f" points="1524.17,904.24 1542.82,887.679 1542.82,904.24"/>
<polygon fill="#00007f" points="1566.13,887.679 1547.48,904.24 1547.48,887.679"/>
<polygon fill="#00007f" points="1547.48,904.24 1566.13,887.679 1566.13,904.24"/>
<polygon fill="#00007f" points="1589.45,890.045 1570.8,904.24 1570.8,890.045"/>
<polygon fill="#00007f" points="1570.8,904.24 1589.45,890.045 1589.45,904.24"/>
<polygon fill="#00007f" points="1612.76,890.045 1594.11,904.24 1594.11,890.045"/>
<polygon fill="#00007f" points="1594.11,904.24 1612.76,890.045 1612.76,904.24"/>
<polygon fill="#00007f" points="1636.07,892.411 1617.42,904.24 1617.42,892.411"/>
<polygon fill="#00007f" points="1617.42,904.24 1636.07,892.411 1636.07,904.24"/>
<polyline fill="none" stroke="#000000" stroke-width="0.5" points="493.781,904.24 475.131,904.24 475.131,901.874 493.781,901.874 493.781,904.24"/>
<polyline fill="none" stroke="#000000" stroke-width="0.5" points="517.093,904.24 498.443,904.24 498.443,901.874 517.093,901.874 517.093,904.24"/>
<polyline fill="none" stroke="#000000" stroke-width="0.5" points="587.029,904.24 568.379,904.24 568.379,894.777 587.029,894.777 587.029,904.24"/>
<polyline fill="none" stroke="#000000" stroke-width="0.5" points="610.341,904.24 591.691,904.24 591.691,871.118 610.341,871.118 610.341,904.24"/>
<polyline fill="none" stroke="#000000" stroke-width="0.5" points="633.653,904.24 615.003,904.24 615.003,868.753 633.653,868.753 633.653,904.24"/>
<polyline fill="none" stroke="#000000" stroke-width="0.5" points="656.965,904.24 638.315,904.24 638.315,809.607 656.965,809.607 656.965,904.24"/>
<polyline fill="none" stroke="#000000" stroke-width="0.5" points="680.277,904.24 661.627,904.24 661.627,731.534 680.277,731.534 680.277,904.24"/>
<polyline fill="none" stroke="#000000" stroke-width="0.5" points="703.589,904.24 684.939,904.24 684.939,629.804 703.589,629.804 703.589,904.24"/>
<polyline fill="none" stroke="#000000" stroke-width="0.5" points="726.901,904.24 708.251,904.24 708.251,575.39 726.901,575.39 726.901,904.24"/>
<polyline fill="none" stroke="#000000" stroke-width="0.5" points="750.213,904.24 731.563,904.24 731.563,435.806 750.213,435.806 750.213,904.24"/>
<polyline fill="none" stroke="#000000" stroke-width="0.5" points="773.525,904.24 754.875,904.24 754.875,386.124 773.525,386.124 773.525,904.24"/>
<polyline fill="none" stroke="#000000" stroke-width="0.5" points="796.837,904.24 778.188,904.24 778.188,409.782 796.837,409.782 796.837,904.24"/>
<polyline fill="none" stroke="#000000" stroke-width="0.5" points="820.149,904.24 801.499,904.24 801.499,274.93 820.149,274.93 820.149,904.24"/>
<polyline fill="none" stroke="#000000" stroke-width="0.5" points="843.461,904.24 824.811,904.24 824.811,206.321 843.461,206.321 843.461,904.24"/>
<polyline fill="none" stroke="#000000" stroke-width="0.5" points="866.773,904.24 848.123,904.24 848.123,326.978 866.773,326.978 866.773,904.24"/>
<polyline fill="none" stroke="#000000" stroke-width="0.5" points="890.085,904.24 871.435,904.24 871.435,251.271 890.085,251.271 890.085,904.24"/>
<polyline fill="none" stroke="#000000" stroke-width="0.5" points="913.397,904.24 894.747,904.24 894.747,166.101 913.397,166.101 913.397,904.24"/>
<polyline fill="none" stroke="#000000" stroke-width="0.5" points="936.709,904.24 918.059,904.24 918.059,142.443 936.709,142.443 936.709,904.24"/>
<polyline fill="none" stroke="#000000" stroke-width="0.5" points="960.021,904.24 941.371,904.24 941.371,353.002 960.021,353.002 960.021,904.24"/>
<polyline fill="none" stroke="#000000" stroke-width="0.5" points="983.333,904.24 964.683,904.24 964.683,284.393 983.333,284.393 983.333,904.24"/>
<polyline fill="none" stroke="#000000" stroke-width="0.5" points="1006.64,904.24 987.995,904.24 987.995,194.491 1006.64,194.491 1006.64,904.24"/>
<polyline fill="none" stroke="#000000" stroke-width="0.5" points="1029.96,904.24 1011.31,904.24 1011.31,270.198 1029.96,270.198 1029.96,904.24"/>
<polyline fill="none" stroke="#000000" stroke-width="0.5" points="1053.27,904.24 1034.62,904.24 1034.62,154.272 1053.27,154.272 1053.27,904.24"/>
<polyline fill="none" stroke="#000000" stroke-width="0.5" points="1076.58,904.24 1057.93,904.24 1057.93,334.075 1076.58,334.075 1076.58,904.24"/>
<polyline fill="none" stroke="#000000" stroke-width="0.5" points="1099.89,904.24 1081.24,904.24 1081.24,383.758 1099.89,383.758 1099.89,904.24"/>
<polyline fill="none" stroke="#000000" stroke-width="0.5" points="1123.21,904.24 1104.56,904.24 1104.56,253.637 1123.21,253.637 1123.21,904.24"/>
<polyline fill="none" stroke="#000000" stroke-width="0.5" points="1146.52,904.24 1127.87,904.24 1127.87,265.466 1146.52,265.466 1146.52,904.24"/>
<polyline fill="none" stroke="#000000" stroke-width="0.5" points="1169.83,904.24 1151.18,904.24 1151.18,322.246 1169.83,322.246 1169.83,904.24"/>
<polyline fill="none" stroke="#000000" stroke-width="0.5" points="1193.14,904.24 1174.49,904.24 1174.49,509.147 1193.14,509.147 1193.14,904.24"/>
<polyline fill="none" stroke="#000000" stroke-width="0.5" points="1216.45,904.24 1197.8,904.24 1197.8,454.733 1216.45,454.733 1216.45,904.24"/>
<polyline fill="none" stroke="#000000" stroke-width="0.5" points="1239.77,904.24 1221.12,904.24 1221.12,466.562 1239.77,466.562 1239.77,904.24"/>
<polyline fill="none" stroke="#000000" stroke-width="0.5" points="1263.08,904.24 1244.43,904.24 1244.43,632.17 1263.08,632.17 1263.08,904.24"/>
<polyline fill="none" stroke="#000000" stroke-width="0.5" points="1286.39,904.24 1267.74,904.24 1267.74,577.756 1286.39,577.756 1286.39,904.24"/>
<polyline fill="none" stroke="#000000" stroke-width="0.5" points="1309.7,904.24 1291.05,904.24 1291.05,632.17 1309.7,632.17 1309.7,904.24"/>
<polyline fill="none" stroke="#000000" stroke-width="0.5" points="1333.01,904.24 1314.36,904.24 1314.36,681.852 1333.01,681.852 1333.01,904.24"/>
<polyline fill="none" stroke="#000000" stroke-width="0.5" points="1356.33,904.24 1337.68,904.24 1337.68,714.974 1356.33,714.974 1356.33,904.24"/>
<polyline fill="none" stroke="#000000" stroke-width="0.5" points="1379.64,904.24 1360.99,904.24 1360.99,771.754 1379.64,771.754 1379.64,904.24"/>
<polyline fill="none" stroke="#000000" stroke-width="0.5" points="1402.95,904.24 1384.3,904.24 1384.3,826.168 1402.95,826.168 1402.95,904.24"/>
<polyline fill="none" stroke="#000000" stroke-width="0.5" points="1426.26,904.24 1407.61,904.24 1407.61,842.728 1426.26,842.728 1426.26,904.24"/>
<polyline fill="none" stroke="#000000" stroke-width="0.5" points="1449.57,904.24 1430.92,904.24 1430.92,849.826 1449.57,849.826 1449.57,904.24"/>
<polyline fill="none" stroke="#000000" stroke-width="0.5" points="1472.89,904.24 1454.24,904.24 1454.24,864.021 1472.89,864.021 1472.89,904.24"/>
<polyline fill="none" stroke="#000000" stroke-width="0.5" points="1496.2,904.24 1477.55,904.24 1477.55,871.118 1496.2,871.118 1496.2,904.24"/>
<polyline fill="none" stroke="#000000" stroke-width="0.5" points="1519.51,904.24 1500.86,904.24 1500.86,861.655 1519.51,861.655 1519.51,904.24"/>
<polyline fill="none" stroke="#000000" stroke-width="0.5" points="1542.82,904.24 1524.17,904.24 1524.17,887.679 1542.82,887.679 1542.82,904.24"/>
<polyline fill="none" stroke="#000000" stroke-width="0.5" points="1566.13,904.24 1547.48,904.24 1547.48,887.679 1566.13,887.679 1566.13,904.24"/>
<polyline fill="none" stroke="#000000" stroke-width="0.5" points="1589.45,904.24 1570.8,904.24 1570.8,890.045 1589.45,890.045 1589.45,904.24"/>
<polyline fill="none" stroke="#000000" stroke-width="0.5" points="1612.76,904.24 1594.11,904.24 1594.11,890.045 1612.76,890.045 1612.76,904.24"/>
<polyline fill="none" stroke="#000000" stroke-width="0.5" points="1636.07,904.24 1617.42,904.24 1617.42,892.411 1636.07,892.411 1636.07,904.24"/>
<polyline fill="none" stroke="#000000" stroke-width="0.5" points="249.6,904.24 1737.6,904.24"/>
</g>
</svg>
