<?xml version="1.0" encoding="UTF-8" standalone="no"?>
<svg xmlns="http://www.w3.org/2000/svg"
     xmlns:xlink="http://www.w3.org/1999/xlink"
     width="1920px" height="1016px" viewBox="0 0 1920 1016">
<title>glps_renderer figure</title>
<desc>
Creator: GL2PS 1.3.8, (C) 1999-2012 C. Geuzaine
For: Octave
CreationDate: Sun Nov  2 18:38:59 2014
</desc>
<defs>
</defs>
<g shape-rendering="crispEdges">
<polygon fill="#ffffff" points="1737.6,904.24 1737.6,76.2 1737.6,904.24"/>
<polygon fill="#ffffff" points="1737.6,76.2 1737.6,76.2 1737.6,904.24"/>
<polygon fill="#ffffff" points="249.6,76.2 1737.6,76.2 249.6,76.2"/>
<polygon fill="#ffffff" points="1737.6,76.2 1737.6,76.2 249.6,76.2"/>
<polygon fill="#ffffff" points="249.6,904.24 1737.6,904.24 249.6,76.2"/>
<polygon fill="#ffffff" points="1737.6,904.24 1737.6,76.2 249.6,76.2"/>
<polyline fill="none" stroke="#000000" stroke-width="0.5" stroke-dasharray="16,0" points="249.6,904.24 1737.6,904.24"/>
<polyline fill="none" stroke="#000000" stroke-width="0.5" stroke-dasharray="16,0" points="249.6,76.2 1737.6,76.2"/>
<polyline fill="none" stroke="#000000" stroke-width="0.5" stroke-dasharray="16,0" points="249.6,76.2 1737.6,76.2"/>
<polyline fill="none" stroke="#000000" stroke-width="0.5" stroke-dasharray="16,0" points="249.6,904.24 1737.6,904.24"/>
<polyline fill="none" stroke="#000000" stroke-width="0.5" stroke-dasharray="16,0" points="249.6,904.24 249.6,76.2"/>
<polyline fill="none" stroke="#000000" stroke-width="0.5" stroke-dasharray="16,0" points="1737.6,904.24 1737.6,76.2"/>
<polyline fill="none" stroke="#000000" stroke-width="0.5" stroke-dasharray="16,0" points="1737.6,904.24 1737.6,76.2"/>
<polyline fill="none" stroke="#000000" stroke-width="0.5" stroke-dasharray="16,0" points="249.6,904.24 249.6,76.2 249.6,76.2"/>
<polyline fill="none" stroke="#000000" stroke-width="0.5" stroke-dasharray="16,0" points="1737.6,76.2 1737.6,76.2"/>
<polyline fill="none" stroke="#000000" stroke-width="0.5" stroke-dasharray="16,0" points="1737.6,904.24 1737.6,904.24"/>
<polyline fill="none" stroke="#000000" stroke-width="0.5" stroke-dasharray="16,0" points="249.6,904.24 249.6,904.24 249.6,889.359"/>
<polyline fill="none" stroke="#000000" stroke-width="0.5" stroke-dasharray="16,0" points="249.6,76.2 249.6,91.0806"/>
<polyline fill="none" stroke="#000000" stroke-width="0.5" stroke-dasharray="16,0" points="547.2,904.24 547.2,889.359"/>
<polyline fill="none" stroke="#000000" stroke-width="0.5" stroke-dasharray="16,0" points="547.2,76.2 547.2,91.0806"/>
<polyline fill="none" stroke="#000000" stroke-width="0.5" stroke-dasharray="16,0" points="844.8,904.24 844.8,889.359"/>
<polyline fill="none" stroke="#000000" stroke-width="0.5" stroke-dasharray="16,0" points="844.8,76.2 844.8,91.0806"/>
<polyline fill="none" stroke="#000000" stroke-width="0.5" stroke-dasharray="16,0" points="1142.4,904.24 1142.4,889.359"/>
<polyline fill="none" stroke="#000000" stroke-width="0.5" stroke-dasharray="16,0" points="1142.4,76.2 1142.4,91.0806"/>
<polyline fill="none" stroke="#000000" stroke-width="0.5" stroke-dasharray="16,0" points="1440,904.24 1440,889.359"/>
<polyline fill="none" stroke="#000000" stroke-width="0.5" stroke-dasharray="16,0" points="1440,76.2 1440,91.0806"/>
<polyline fill="none" stroke="#000000" stroke-width="0.5" stroke-dasharray="16,0" points="1737.6,904.24 1737.6,889.359"/>
<polyline fill="none" stroke="#000000" stroke-width="0.5" stroke-dasharray="16,0" points="1737.6,76.2 1737.6,91.0806"/>
<text fill="#000000" x="249.6" y="909.24" font-size="10" text-anchor="middle" baseline-shift="-10" font-family="Helvetica">40</text>
<text fill="#000000" x="547.2" y="909.24" font-size="10" text-anchor="middle" baseline-shift="-10" font-family="Helvetica">50</text>
<text fill="#000000" x="844.8" y="909.24" font-size="10" text-anchor="middle" baseline-shift="-10" font-family="Helvetica">60</text>
<text fill="#000000" x="1142.4" y="909.24" font-size="10" text-anchor="middle" baseline-shift="-10" font-family="Helvetica">70</text>
<text fill="#000000" x="1440" y="909.24" font-size="10" text-anchor="middle" baseline-shift="-10" font-family="Helvetica">80</text>
<text fill="#000000" x="1737.6" y="909.24" font-size="10" text-anchor="middle" baseline-shift="-10" font-family="Helvetica">90</text>
<polyline fill="none" stroke="#000000" stroke-width="0.5" stroke-dasharray="16,0" points="249.6,904.24 264.48,904.24"/>
<polyline fill="none" stroke="#000000" stroke-width="0.5" stroke-dasharray="16,0" points="1737.6,904.24 1722.72,904.24"/>
<polyline fill="none" stroke="#000000" stroke-width="0.5" stroke-dasharray="16,0" points="249.6,766.233 264.48,766.233"/>
<polyline fill="none" stroke="#000000" stroke-width="0.5" stroke-dasharray="16,0" points="1737.6,766.233 1722.72,766.233"/>
<polyline fill="none" stroke="#000000" stroke-width="0.5" stroke-dasharray="16,0" points="249.6,628.227 264.48,628.227"/>
<polyline fill="none" stroke="#000000" stroke-width="0.5" stroke-dasharray="16,0" points="1737.6,628.227 1722.72,628.227"/>
<polyline fill="none" stroke="#000000" stroke-width="0.5" stroke-dasharray="16,0" points="249.6,490.22 264.48,490.22"/>
<polyline fill="none" stroke="#000000" stroke-width="0.5" stroke-dasharray="16,0" points="1737.6,490.22 1722.72,490.22"/>
<polyline fill="none" stroke="#000000" stroke-width="0.5" stroke-dasharray="16,0" points="249.6,352.213 264.48,352.213"/>
<polyline fill="none" stroke="#000000" stroke-width="0.5" stroke-dasharray="16,0" points="1737.6,352.213 1722.72,352.213"/>
<polyline fill="none" stroke="#000000" stroke-width="0.5" stroke-dasharray="16,0" points="249.6,214.207 264.48,214.207"/>
<polyline fill="none" stroke="#000000" stroke-width="0.5" stroke-dasharray="16,0" points="1737.6,214.207 1722.72,214.207"/>
<polyline fill="none" stroke="#000000" stroke-width="0.5" stroke-dasharray="16,0" points="249.6,76.2 264.48,76.2"/>
<polyline fill="none" stroke="#000000" stroke-width="0.5" stroke-dasharray="16,0" points="1737.6,76.2 1722.72,76.2"/>
<text fill="#000000" x="244.6" y="904.24" font-size="10" text-anchor="end" baseline-shift="-5" font-family="Helvetica">0</text>
<text fill="#000000" x="244.6" y="766.233" font-size="10" text-anchor="end" baseline-shift="-5" font-family="Helvetica">100</text>
<text fill="#000000" x="244.6" y="628.227" font-size="10" text-anchor="end" baseline-shift="-5" font-family="Helvetica">200</text>
<text fill="#000000" x="244.6" y="490.22" font-size="10" text-anchor="end" baseline-shift="-5" font-family="Helvetica">300</text>
<text fill="#000000" x="244.6" y="352.213" font-size="10" text-anchor="end" baseline-shift="-5" font-family="Helvetica">400</text>
<text fill="#000000" x="244.6" y="214.207" font-size="10" text-anchor="end" baseline-shift="-5" font-family="Helvetica">500</text>
<text fill="#000000" x="244.6" y="76.2" font-size="10" text-anchor="end" baseline-shift="-5" font-family="Helvetica">600</text>
<polygon fill="#00007f" points="451.599,900.1 433.41,904.24 433.41,900.1"/>
<polygon fill="#00007f" points="433.41,904.24 451.599,900.1 451.599,904.24"/>
<polygon fill="#00007f" points="474.336,887.679 456.146,904.24 456.146,887.679"/>
<polygon fill="#00007f" points="456.146,904.24 474.336,887.679 474.336,904.24"/>
<polygon fill="#00007f" points="497.072,882.159 478.883,904.24 478.883,882.159"/>
<polygon fill="#00007f" points="478.883,904.24 497.072,882.159 497.072,904.24"/>
<polygon fill="#00007f" points="519.809,847.657 501.62,904.24 501.62,847.657"/>
<polygon fill="#00007f" points="501.62,904.24 519.809,847.657 519.809,904.24"/>
<polygon fill="#00007f" points="542.546,822.816 524.356,904.24 524.356,822.816"/>
<polygon fill="#00007f" points="524.356,904.24 542.546,822.816 542.546,904.24"/>
<polygon fill="#00007f" points="565.282,775.894 547.093,904.24 547.093,775.894"/>
<polygon fill="#00007f" points="547.093,904.24 565.282,775.894 565.282,904.24"/>
<polygon fill="#00007f" points="588.019,654.448 569.829,904.24 569.829,654.448"/>
<polygon fill="#00007f" points="569.829,904.24 588.019,654.448 588.019,904.24"/>
<polygon fill="#00007f" points="610.755,575.784 592.566,904.24 592.566,575.784"/>
<polygon fill="#00007f" points="592.566,904.24 610.755,575.784 610.755,904.24"/>
<polygon fill="#00007f" points="633.492,574.404 615.303,904.24 615.303,574.404"/>
<polygon fill="#00007f" points="615.303,904.24 633.492,574.404 633.492,904.24"/>
<polygon fill="#00007f" points="656.229,430.877 638.039,904.24 638.039,430.877"/>
<polygon fill="#00007f" points="638.039,904.24 656.229,430.877 656.229,904.24"/>
<polygon fill="#00007f" points="678.965,366.014 660.776,904.24 660.776,366.014"/>
<polygon fill="#00007f" points="660.776,904.24 678.965,366.014 678.965,904.24"/>
<polygon fill="#00007f" points="701.702,361.874 683.513,904.24 683.513,361.874"/>
<polygon fill="#00007f" points="683.513,904.24 701.702,361.874 701.702,904.24"/>
<polygon fill="#00007f" points="724.439,243.188 706.249,904.24 706.249,243.188"/>
<polygon fill="#00007f" points="706.249,904.24 724.439,243.188 724.439,904.24"/>
<polygon fill="#00007f" points="747.175,272.169 728.986,904.24 728.986,272.169"/>
<polygon fill="#00007f" points="728.986,904.24 747.175,272.169 747.175,904.24"/>
<polygon fill="#00007f" points="769.912,219.727 751.723,904.24 751.723,219.727"/>
<polygon fill="#00007f" points="751.723,904.24 769.912,219.727 769.912,904.24"/>
<polygon fill="#00007f" points="792.649,125.882 774.459,904.24 774.459,125.882"/>
<polygon fill="#00007f" points="774.459,904.24 792.649,125.882 792.649,904.24"/>
<polygon fill="#00007f" points="815.385,277.69 797.196,904.24 797.196,277.69"/>
<polygon fill="#00007f" points="797.196,904.24 815.385,277.69 815.385,904.24"/>
<polygon fill="#00007f" points="838.122,187.985 819.933,904.24 819.933,187.985"/>
<polygon fill="#00007f" points="819.933,904.24 838.122,187.985 838.122,904.24"/>
<polygon fill="#00007f" points="860.859,325.992 842.669,904.24 842.669,325.992"/>
<polygon fill="#00007f" points="842.669,904.24 860.859,325.992 860.859,904.24"/>
<polygon fill="#00007f" points="883.595,450.198 865.406,904.24 865.406,450.198"/>
<polygon fill="#00007f" points="865.406,904.24 883.595,450.198 883.595,904.24"/>
<polygon fill="#00007f" points="906.332,504.021 888.143,904.24 888.143,504.021"/>
<polygon fill="#00007f" points="888.143,904.24 906.332,504.021 906.332,904.24"/>
<polygon fill="#00007f" points="929.068,635.127 910.879,904.24 910.879,635.127"/>
<polygon fill="#00007f" points="910.879,904.24 929.068,635.127 929.068,904.24"/>
<polygon fill="#00007f" points="951.805,699.99 933.616,904.24 933.616,699.99"/>
<polygon fill="#00007f" points="933.616,904.24 951.805,699.99 951.805,904.24"/>
<polygon fill="#00007f" points="974.542,740.012 956.353,904.24 956.353,740.012"/>
<polygon fill="#00007f" points="956.353,904.24 974.542,740.012 974.542,904.24"/>
<polygon fill="#00007f" points="997.278,820.056 979.089,904.24 979.089,820.056"/>
<polygon fill="#00007f" points="979.089,904.24 997.278,820.056 997.278,904.24"/>
<polygon fill="#00007f" points="1020.02,829.716 1001.83,904.24 1001.83,829.716"/>
<polygon fill="#00007f" points="1001.83,904.24 1020.02,829.716 1020.02,904.24"/>
<polygon fill="#00007f" points="1042.75,861.458 1024.56,904.24 1024.56,861.458"/>
<polygon fill="#00007f" points="1024.56,904.24 1042.75,861.458 1042.75,904.24"/>
<polygon fill="#00007f" points="1065.49,883.539 1047.3,904.24 1047.3,883.539"/>
<polygon fill="#00007f" points="1047.3,904.24 1065.49,883.539 1065.49,904.24"/>
<polygon fill="#00007f" points="1088.23,884.919 1070.04,904.24 1070.04,884.919"/>
<polygon fill="#00007f" points="1070.04,904.24 1088.23,884.919 1088.23,904.24"/>
<polygon fill="#00007f" points="1110.96,890.439 1092.77,904.24 1092.77,890.439"/>
<polygon fill="#00007f" points="1092.77,904.24 1110.96,890.439 1110.96,904.24"/>
<polygon fill="#00007f" points="1133.7,894.579 1115.51,904.24 1115.51,894.579"/>
<polygon fill="#00007f" points="1115.51,904.24 1133.7,894.579 1133.7,904.24"/>
<polygon fill="#00007f" points="1156.44,890.439 1138.25,904.24 1138.25,890.439"/>
<polygon fill="#00007f" points="1138.25,904.24 1156.44,890.439 1156.44,904.24"/>
<polygon fill="#00007f" points="1179.17,894.579 1160.98,904.24 1160.98,894.579"/>
<polygon fill="#00007f" points="1160.98,904.24 1179.17,894.579 1179.17,904.24"/>
<polygon fill="#00007f" points="1201.91,897.34 1183.72,904.24 1183.72,897.34"/>
<polygon fill="#00007f" points="1183.72,904.24 1201.91,897.34 1201.91,904.24"/>
<polygon fill="#00007f" points="1224.64,894.579 1206.46,904.24 1206.46,894.579"/>
<polygon fill="#00007f" points="1206.46,904.24 1224.64,894.579 1224.64,904.24"/>
<polygon fill="#00007f" points="1247.38,894.579 1229.19,904.24 1229.19,894.579"/>
<polygon fill="#00007f" points="1229.19,904.24 1247.38,894.579 1247.38,904.24"/>
<polygon fill="#00007f" points="1270.12,897.34 1251.93,904.24 1251.93,897.34"/>
<polygon fill="#00007f" points="1251.93,904.24 1270.12,897.34 1270.12,904.24"/>
<polygon fill="#00007f" points="1292.85,895.96 1274.67,904.24 1274.67,895.96"/>
<polygon fill="#00007f" points="1274.67,904.24 1292.85,895.96 1292.85,904.24"/>
<polygon fill="#00007f" points="1315.59,900.1 1297.4,904.24 1297.4,900.1"/>
<polygon fill="#00007f" points="1297.4,904.24 1315.59,900.1 1315.59,904.24"/>
<polygon fill="#00007f" points="1338.33,889.059 1320.14,904.24 1320.14,889.059"/>
<polygon fill="#00007f" points="1320.14,904.24 1338.33,889.059 1338.33,904.24"/>
<polygon fill="#00007f" points="1361.06,897.34 1342.88,904.24 1342.88,897.34"/>
<polygon fill="#00007f" points="1342.88,904.24 1361.06,897.34 1361.06,904.24"/>
<polygon fill="#00007f" points="1383.8,902.86 1365.61,904.24 1365.61,902.86"/>
<polygon fill="#00007f" points="1365.61,904.24 1383.8,902.86 1383.8,904.24"/>
<polygon fill="#00007f" points="1406.54,898.72 1388.35,904.24 1388.35,898.72"/>
<polygon fill="#00007f" points="1388.35,904.24 1406.54,898.72 1406.54,904.24"/>
<polygon fill="#00007f" points="1429.27,901.48 1411.09,904.24 1411.09,901.48"/>
<polygon fill="#00007f" points="1411.09,904.24 1429.27,901.48 1429.27,904.24"/>
<polygon fill="#00007f" points="1452.01,897.34 1433.82,904.24 1433.82,897.34"/>
<polygon fill="#00007f" points="1433.82,904.24 1452.01,897.34 1452.01,904.24"/>
<polygon fill="#00007f" points="1474.75,894.579 1456.56,904.24 1456.56,894.579"/>
<polygon fill="#00007f" points="1456.56,904.24 1474.75,894.579 1474.75,904.24"/>
<polygon fill="#00007f" points="1497.48,902.86 1479.3,904.24 1479.3,902.86"/>
<polygon fill="#00007f" points="1479.3,904.24 1497.48,902.86 1497.48,904.24"/>
<polygon fill="#00007f" points="1542.96,901.48 1524.77,904.24 1524.77,901.48"/>
<polygon fill="#00007f" points="1524.77,904.24 1542.96,901.48 1542.96,904.24"/>
<polygon fill="#00007f" points="1565.69,902.86 1547.51,904.24 1547.51,902.86"/>
<polygon fill="#00007f" points="1547.51,904.24 1565.69,902.86 1565.69,904.24"/>
<polyline fill="none" stroke="#000000" stroke-width="0.5" points="451.599,904.24 433.41,904.24 433.41,900.1 451.599,900.1 451.599,904.24"/>
<polyline fill="none" stroke="#000000" stroke-width="0.5" points="474.336,904.24 456.146,904.24 456.146,887.679 474.336,887.679 474.336,904.24"/>
<polyline fill="none" stroke="#000000" stroke-width="0.5" points="497.072,904.24 478.883,904.24 478.883,882.159 497.072,882.159 497.072,904.24"/>
<polyline fill="none" stroke="#000000" stroke-width="0.5" points="519.809,904.24 501.62,904.24 501.62,847.657 519.809,847.657 519.809,904.24"/>
<polyline fill="none" stroke="#000000" stroke-width="0.5" points="542.546,904.24 524.356,904.24 524.356,822.816 542.546,822.816 542.546,904.24"/>
<polyline fill="none" stroke="#000000" stroke-width="0.5" points="565.282,904.24 547.093,904.24 547.093,775.894 565.282,775.894 565.282,904.24"/>
<polyline fill="none" stroke="#000000" stroke-width="0.5" points="588.019,904.24 569.829,904.24 569.829,654.448 588.019,654.448 588.019,904.24"/>
<polyline fill="none" stroke="#000000" stroke-width="0.5" points="610.755,904.24 592.566,904.24 592.566,575.784 610.755,575.784 610.755,904.24"/>
<polyline fill="none" stroke="#000000" stroke-width="0.5" points="633.492,904.24 615.303,904.24 615.303,574.404 633.492,574.404 633.492,904.24"/>
<polyline fill="none" stroke="#000000" stroke-width="0.5" points="656.229,904.24 638.039,904.24 638.039,430.877 656.229,430.877 656.229,904.24"/>
<polyline fill="none" stroke="#000000" stroke-width="0.5" points="678.965,904.24 660.776,904.24 660.776,366.014 678.965,366.014 678.965,904.24"/>
<polyline fill="none" stroke="#000000" stroke-width="0.5" points="701.702,904.24 683.513,904.24 683.513,361.874 701.702,361.874 701.702,904.24"/>
<polyline fill="none" stroke="#000000" stroke-width="0.5" points="724.439,904.24 706.249,904.24 706.249,243.188 724.439,243.188 724.439,904.24"/>
<polyline fill="none" stroke="#000000" stroke-width="0.5" points="747.175,904.24 728.986,904.24 728.986,272.169 747.175,272.169 747.175,904.24"/>
<polyline fill="none" stroke="#000000" stroke-width="0.5" points="769.912,904.24 751.723,904.24 751.723,219.727 769.912,219.727 769.912,904.24"/>
<polyline fill="none" stroke="#000000" stroke-width="0.5" points="792.649,904.24 774.459,904.24 774.459,125.882 792.649,125.882 792.649,904.24"/>
<polyline fill="none" stroke="#000000" stroke-width="0.5" points="815.385,904.24 797.196,904.24 797.196,277.69 815.385,277.69 815.385,904.24"/>
<polyline fill="none" stroke="#000000" stroke-width="0.5" points="838.122,904.24 819.933,904.24 819.933,187.985 838.122,187.985 838.122,904.24"/>
<polyline fill="none" stroke="#000000" stroke-width="0.5" points="860.859,904.24 842.669,904.24 842.669,325.992 860.859,325.992 860.859,904.24"/>
<polyline fill="none" stroke="#000000" stroke-width="0.5" points="883.595,904.24 865.406,904.24 865.406,450.198 883.595,450.198 883.595,904.24"/>
<polyline fill="none" stroke="#000000" stroke-width="0.5" points="906.332,904.24 888.143,904.24 888.143,504.021 906.332,504.021 906.332,904.24"/>
<polyline fill="none" stroke="#000000" stroke-width="0.5" points="929.068,904.24 910.879,904.24 910.879,635.127 929.068,635.127 929.068,904.24"/>
<polyline fill="none" stroke="#000000" stroke-width="0.5" points="951.805,904.24 933.616,904.24 933.616,699.99 951.805,699.99 951.805,904.24"/>
<polyline fill="none" stroke="#000000" stroke-width="0.5" points="974.542,904.24 956.353,904.24 956.353,740.012 974.542,740.012 974.542,904.24"/>
<polyline fill="none" stroke="#000000" stroke-width="0.5" points="997.278,904.24 979.089,904.24 979.089,820.056 997.278,820.056 997.278,904.24"/>
<polyline fill="none" stroke="#000000" stroke-width="0.5" points="1020.02,904.24 1001.83,904.24 1001.83,829.716 1020.02,829.716 1020.02,904.24"/>
<polyline fill="none" stroke="#000000" stroke-width="0.5" points="1042.75,904.24 1024.56,904.24 1024.56,861.458 1042.75,861.458 1042.75,904.24"/>
<polyline fill="none" stroke="#000000" stroke-width="0.5" points="1065.49,904.24 1047.3,904.24 1047.3,883.539 1065.49,883.539 1065.49,904.24"/>
<polyline fill="none" stroke="#000000" stroke-width="0.5" points="1088.23,904.24 1070.04,904.24 1070.04,884.919 1088.23,884.919 1088.23,904.24"/>
<polyline fill="none" stroke="#000000" stroke-width="0.5" points="1110.96,904.24 1092.77,904.24 1092.77,890.439 1110.96,890.439 1110.96,904.24"/>
<polyline fill="none" stroke="#000000" stroke-width="0.5" points="1133.7,904.24 1115.51,904.24 1115.51,894.579 1133.7,894.579 1133.7,904.24"/>
<polyline fill="none" stroke="#000000" stroke-width="0.5" points="1156.44,904.24 1138.25,904.24 1138.25,890.439 1156.44,890.439 1156.44,904.24"/>
<polyline fill="none" stroke="#000000" stroke-width="0.5" points="1179.17,904.24 1160.98,904.24 1160.98,894.579 1179.17,894.579 1179.17,904.24"/>
<polyline fill="none" stroke="#000000" stroke-width="0.5" points="1201.91,904.24 1183.72,904.24 1183.72,897.34 1201.91,897.34 1201.91,904.24"/>
<polyline fill="none" stroke="#000000" stroke-width="0.5" points="1224.64,904.24 1206.46,904.24 1206.46,894.579 1224.64,894.579 1224.64,904.24"/>
<polyline fill="none" stroke="#000000" stroke-width="0.5" points="1247.38,904.24 1229.19,904.24 1229.19,894.579 1247.38,894.579 1247.38,904.24"/>
<polyline fill="none" stroke="#000000" stroke-width="0.5" points="1270.12,904.24 1251.93,904.24 1251.93,897.34 1270.12,897.34 1270.12,904.24"/>
<polyline fill="none" stroke="#000000" stroke-width="0.5" points="1292.85,904.24 1274.67,904.24 1274.67,895.96 1292.85,895.96 1292.85,904.24"/>
<polyline fill="none" stroke="#000000" stroke-width="0.5" points="1315.59,904.24 1297.4,904.24 1297.4,900.1 1315.59,900.1 1315.59,904.24"/>
<polyline fill="none" stroke="#000000" stroke-width="0.5" points="1338.33,904.24 1320.14,904.24 1320.14,889.059 1338.33,889.059 1338.33,904.24"/>
<polyline fill="none" stroke="#000000" stroke-width="0.5" points="1361.06,904.24 1342.88,904.24 1342.88,897.34 1361.06,897.34 1361.06,904.24"/>
<polyline fill="none" stroke="#000000" stroke-width="0.5" points="1383.8,904.24 1365.61,904.24 1365.61,902.86 1383.8,902.86 1383.8,904.24"/>
<polyline fill="none" stroke="#000000" stroke-width="0.5" points="1406.54,904.24 1388.35,904.24 1388.35,898.72 1406.54,898.72 1406.54,904.24"/>
<polyline fill="none" stroke="#000000" stroke-width="0.5" points="1429.27,904.24 1411.09,904.24 1411.09,901.48 1429.27,901.48 1429.27,904.24"/>
<polyline fill="none" stroke="#000000" stroke-width="0.5" points="1452.01,904.24 1433.82,904.24 1433.82,897.34 1452.01,897.34 1452.01,904.24"/>
<polyline fill="none" stroke="#000000" stroke-width="0.5" points="1474.75,904.24 1456.56,904.24 1456.56,894.579 1474.75,894.579 1474.75,904.24"/>
<polyline fill="none" stroke="#000000" stroke-width="0.5" points="1497.48,904.24 1479.3,904.24 1479.3,902.86 1497.48,902.86 1497.48,904.24"/>
<polyline fill="none" stroke="#000000" stroke-width="0.5" points="1542.96,904.24 1524.77,904.24 1524.77,901.48 1542.96,901.48 1542.96,904.24"/>
<polyline fill="none" stroke="#000000" stroke-width="0.5" points="1565.69,904.24 1547.51,904.24 1547.51,902.86 1565.69,902.86 1565.69,904.24"/>
<polyline fill="none" stroke="#000000" stroke-width="0.5" points="249.6,904.24 1737.6,904.24"/>
</g>
</svg>
