<?xml version="1.0" encoding="UTF-8" standalone="no"?>
<svg xmlns="http://www.w3.org/2000/svg"
     xmlns:xlink="http://www.w3.org/1999/xlink"
     width="1920px" height="1016px" viewBox="0 0 1920 1016">
<title>glps_renderer figure</title>
<desc>
Creator: GL2PS 1.3.8, (C) 1999-2012 C. Geuzaine
For: Octave
CreationDate: Sun Nov  2 18:38:15 2014
</desc>
<defs>
</defs>
<g shape-rendering="crispEdges">
<polygon fill="#ffffff" points="1737.6,904.24 1737.6,76.2001 1737.6,904.24"/>
<polygon fill="#ffffff" points="1737.6,76.2001 1737.6,76.2001 1737.6,904.24"/>
<polygon fill="#ffffff" points="249.6,76.2001 1737.6,76.2001 249.6,76.2001"/>
<polygon fill="#ffffff" points="1737.6,76.2001 1737.6,76.2001 249.6,76.2001"/>
<polygon fill="#ffffff" points="249.6,904.24 1737.6,904.24 249.6,76.2001"/>
<polygon fill="#ffffff" points="1737.6,904.24 1737.6,76.2001 249.6,76.2001"/>
<polyline fill="none" stroke="#000000" stroke-width="0.5" stroke-dasharray="16,0" points="249.6,904.24 1737.6,904.24"/>
<polyline fill="none" stroke="#000000" stroke-width="0.5" stroke-dasharray="16,0" points="249.6,76.2001 1737.6,76.2001"/>
<polyline fill="none" stroke="#000000" stroke-width="0.5" stroke-dasharray="16,0" points="249.6,76.2001 1737.6,76.2001"/>
<polyline fill="none" stroke="#000000" stroke-width="0.5" stroke-dasharray="16,0" points="249.6,904.24 1737.6,904.24"/>
<polyline fill="none" stroke="#000000" stroke-width="0.5" stroke-dasharray="16,0" points="249.6,904.24 249.6,76.2001"/>
<polyline fill="none" stroke="#000000" stroke-width="0.5" stroke-dasharray="16,0" points="1737.6,904.24 1737.6,76.2001"/>
<polyline fill="none" stroke="#000000" stroke-width="0.5" stroke-dasharray="16,0" points="1737.6,904.24 1737.6,76.2001"/>
<polyline fill="none" stroke="#000000" stroke-width="0.5" stroke-dasharray="16,0" points="249.6,904.24 249.6,76.2001 249.6,76.2001"/>
<polyline fill="none" stroke="#000000" stroke-width="0.5" stroke-dasharray="16,0" points="1737.6,76.2001 1737.6,76.2001"/>
<polyline fill="none" stroke="#000000" stroke-width="0.5" stroke-dasharray="16,0" points="1737.6,904.24 1737.6,904.24"/>
<polyline fill="none" stroke="#000000" stroke-width="0.5" stroke-dasharray="16,0" points="249.6,904.24 249.6,904.24 249.6,889.359"/>
<polyline fill="none" stroke="#000000" stroke-width="0.5" stroke-dasharray="16,0" points="249.6,76.2001 249.6,91.0807"/>
<polyline fill="none" stroke="#000000" stroke-width="0.5" stroke-dasharray="16,0" points="547.2,904.24 547.2,889.359"/>
<polyline fill="none" stroke="#000000" stroke-width="0.5" stroke-dasharray="16,0" points="547.2,76.2001 547.2,91.0807"/>
<polyline fill="none" stroke="#000000" stroke-width="0.5" stroke-dasharray="16,0" points="844.8,904.24 844.8,889.359"/>
<polyline fill="none" stroke="#000000" stroke-width="0.5" stroke-dasharray="16,0" points="844.8,76.2001 844.8,91.0807"/>
<polyline fill="none" stroke="#000000" stroke-width="0.5" stroke-dasharray="16,0" points="1142.4,904.24 1142.4,889.359"/>
<polyline fill="none" stroke="#000000" stroke-width="0.5" stroke-dasharray="16,0" points="1142.4,76.2001 1142.4,91.0807"/>
<polyline fill="none" stroke="#000000" stroke-width="0.5" stroke-dasharray="16,0" points="1440,904.24 1440,889.359"/>
<polyline fill="none" stroke="#000000" stroke-width="0.5" stroke-dasharray="16,0" points="1440,76.2001 1440,91.0807"/>
<polyline fill="none" stroke="#000000" stroke-width="0.5" stroke-dasharray="16,0" points="1737.6,904.24 1737.6,889.359"/>
<polyline fill="none" stroke="#000000" stroke-width="0.5" stroke-dasharray="16,0" points="1737.6,76.2001 1737.6,91.0807"/>
<text fill="#000000" x="249.6" y="909.24" font-size="10" text-anchor="middle" baseline-shift="-10" font-family="Helvetica">45</text>
<text fill="#000000" x="547.2" y="909.24" font-size="10" text-anchor="middle" baseline-shift="-10" font-family="Helvetica">50</text>
<text fill="#000000" x="844.8" y="909.24" font-size="10" text-anchor="middle" baseline-shift="-10" font-family="Helvetica">55</text>
<text fill="#000000" x="1142.4" y="909.24" font-size="10" text-anchor="middle" baseline-shift="-10" font-family="Helvetica">60</text>
<text fill="#000000" x="1440" y="909.24" font-size="10" text-anchor="middle" baseline-shift="-10" font-family="Helvetica">65</text>
<text fill="#000000" x="1737.6" y="909.24" font-size="10" text-anchor="middle" baseline-shift="-10" font-family="Helvetica">70</text>
<polyline fill="none" stroke="#000000" stroke-width="0.5" stroke-dasharray="16,0" points="249.6,904.24 264.48,904.24"/>
<polyline fill="none" stroke="#000000" stroke-width="0.5" stroke-dasharray="16,0" points="1737.6,904.24 1722.72,904.24"/>
<polyline fill="none" stroke="#000000" stroke-width="0.5" stroke-dasharray="16,0" points="249.6,738.632 264.48,738.632"/>
<polyline fill="none" stroke="#000000" stroke-width="0.5" stroke-dasharray="16,0" points="1737.6,738.632 1722.72,738.632"/>
<polyline fill="none" stroke="#000000" stroke-width="0.5" stroke-dasharray="16,0" points="249.6,573.024 264.48,573.024"/>
<polyline fill="none" stroke="#000000" stroke-width="0.5" stroke-dasharray="16,0" points="1737.6,573.024 1722.72,573.024"/>
<polyline fill="none" stroke="#000000" stroke-width="0.5" stroke-dasharray="16,0" points="249.6,407.416 264.48,407.416"/>
<polyline fill="none" stroke="#000000" stroke-width="0.5" stroke-dasharray="16,0" points="1737.6,407.416 1722.72,407.416"/>
<polyline fill="none" stroke="#000000" stroke-width="0.5" stroke-dasharray="16,0" points="249.6,241.808 264.48,241.808"/>
<polyline fill="none" stroke="#000000" stroke-width="0.5" stroke-dasharray="16,0" points="1737.6,241.808 1722.72,241.808"/>
<polyline fill="none" stroke="#000000" stroke-width="0.5" stroke-dasharray="16,0" points="249.6,76.2001 264.48,76.2001"/>
<polyline fill="none" stroke="#000000" stroke-width="0.5" stroke-dasharray="16,0" points="1737.6,76.2001 1722.72,76.2001"/>
<text fill="#000000" x="244.6" y="904.24" font-size="10" text-anchor="end" baseline-shift="-5" font-family="Helvetica">0</text>
<text fill="#000000" x="244.6" y="738.632" font-size="10" text-anchor="end" baseline-shift="-5" font-family="Helvetica">1000</text>
<text fill="#000000" x="244.6" y="573.024" font-size="10" text-anchor="end" baseline-shift="-5" font-family="Helvetica">2000</text>
<text fill="#000000" x="244.6" y="407.416" font-size="10" text-anchor="end" baseline-shift="-5" font-family="Helvetica">3000</text>
<text fill="#000000" x="244.6" y="241.808" font-size="10" text-anchor="end" baseline-shift="-5" font-family="Helvetica">4000</text>
<text fill="#000000" x="244.6" y="76.2" font-size="10" text-anchor="end" baseline-shift="-5" font-family="Helvetica">5000</text>
<polygon fill="#00007f" points="527.285,903.909 507.953,904.24 507.953,903.909"/>
<polygon fill="#00007f" points="507.953,904.24 527.285,903.909 527.285,904.24"/>
<polygon fill="#00007f" points="575.615,903.743 556.283,904.24 556.283,903.743"/>
<polygon fill="#00007f" points="556.283,904.24 575.615,903.743 575.615,904.24"/>
<polygon fill="#00007f" points="599.78,903.909 580.448,904.24 580.448,903.909"/>
<polygon fill="#00007f" points="580.448,904.24 599.78,903.909 599.78,904.24"/>
<polygon fill="#00007f" points="623.945,903.743 604.613,904.24 604.613,903.743"/>
<polygon fill="#00007f" points="604.613,904.24 623.945,903.743 623.945,904.24"/>
<polygon fill="#00007f" points="648.11,903.743 628.778,904.24 628.778,903.743"/>
<polygon fill="#00007f" points="628.778,904.24 648.11,903.743 648.11,904.24"/>
<polygon fill="#00007f" points="672.275,903.081 652.943,904.24 652.943,903.081"/>
<polygon fill="#00007f" points="652.943,904.24 672.275,903.081 672.275,904.24"/>
<polygon fill="#00007f" points="696.441,901.922 677.108,904.24 677.108,901.922"/>
<polygon fill="#00007f" points="677.108,904.24 696.441,901.922 696.441,904.24"/>
<polygon fill="#00007f" points="720.606,900.597 701.274,904.24 701.274,900.597"/>
<polygon fill="#00007f" points="701.274,904.24 720.606,900.597 720.606,904.24"/>
<polygon fill="#00007f" points="744.771,900.265 725.439,904.24 725.439,900.265"/>
<polygon fill="#00007f" points="725.439,904.24 744.771,900.265 744.771,904.24"/>
<polygon fill="#00007f" points="768.936,899.272 749.604,904.24 749.604,899.272"/>
<polygon fill="#00007f" points="749.604,904.24 768.936,899.272 768.936,904.24"/>
<polygon fill="#00007f" points="793.101,898.775 773.769,904.24 773.769,898.775"/>
<polygon fill="#00007f" points="773.769,904.24 793.101,898.775 793.101,904.24"/>
<polygon fill="#00007f" points="817.266,894.966 797.934,904.24 797.934,894.966"/>
<polygon fill="#00007f" points="797.934,904.24 817.266,894.966 817.266,904.24"/>
<polygon fill="#00007f" points="841.431,894.635 822.099,904.24 822.099,894.635"/>
<polygon fill="#00007f" points="822.099,904.24 841.431,894.635 841.431,904.24"/>
<polygon fill="#00007f" points="865.597,891.654 846.265,904.24 846.265,891.654"/>
<polygon fill="#00007f" points="846.265,904.24 865.597,891.654 865.597,904.24"/>
<polygon fill="#00007f" points="889.762,891.654 870.429,904.24 870.429,891.654"/>
<polygon fill="#00007f" points="870.429,904.24 889.762,891.654 889.762,904.24"/>
<polygon fill="#00007f" points="913.927,881.22 894.595,904.24 894.595,881.22"/>
<polygon fill="#00007f" points="894.595,904.24 913.927,881.22 913.927,904.24"/>
<polygon fill="#00007f" points="938.092,890.66 918.76,904.24 918.76,890.66"/>
<polygon fill="#00007f" points="918.76,904.24 938.092,890.66 938.092,904.24"/>
<polygon fill="#00007f" points="962.257,891.985 942.925,904.24 942.925,891.985"/>
<polygon fill="#00007f" points="942.925,904.24 962.257,891.985 962.257,904.24"/>
<polygon fill="#00007f" points="986.422,893.641 967.09,904.24 967.09,893.641"/>
<polygon fill="#00007f" points="967.09,904.24 986.422,893.641 986.422,904.24"/>
<polygon fill="#00007f" points="1010.59,892.647 991.255,904.24 991.255,892.647"/>
<polygon fill="#00007f" points="991.255,904.24 1010.59,892.647 1010.59,904.24"/>
<polygon fill="#00007f" points="1034.75,890.163 1015.42,904.24 1015.42,890.163"/>
<polygon fill="#00007f" points="1015.42,904.24 1034.75,890.163 1034.75,904.24"/>
<polygon fill="#00007f" points="1058.92,889.998 1039.59,904.24 1039.59,889.998"/>
<polygon fill="#00007f" points="1039.59,904.24 1058.92,889.998 1058.92,904.24"/>
<polygon fill="#00007f" points="1083.08,889.17 1063.75,904.24 1063.75,889.17"/>
<polygon fill="#00007f" points="1063.75,904.24 1083.08,889.17 1083.08,904.24"/>
<polygon fill="#00007f" points="1107.25,887.514 1087.92,904.24 1087.92,887.514"/>
<polygon fill="#00007f" points="1087.92,904.24 1107.25,887.514 1107.25,904.24"/>
<polygon fill="#00007f" points="1131.41,884.367 1112.08,904.24 1112.08,884.367"/>
<polygon fill="#00007f" points="1112.08,904.24 1131.41,884.367 1131.41,904.24"/>
<polygon fill="#00007f" points="1155.58,881.055 1136.25,904.24 1136.25,881.055"/>
<polygon fill="#00007f" points="1136.25,904.24 1155.58,881.055 1155.58,904.24"/>
<polygon fill="#00007f" points="1179.74,885.858 1160.41,904.24 1160.41,885.858"/>
<polygon fill="#00007f" points="1160.41,904.24 1179.74,885.858 1179.74,904.24"/>
<polygon fill="#00007f" points="1203.91,874.927 1184.58,904.24 1184.58,874.927"/>
<polygon fill="#00007f" points="1184.58,904.24 1203.91,874.927 1203.91,904.24"/>
<polygon fill="#00007f" points="1228.07,886.023 1208.74,904.24 1208.74,886.023"/>
<polygon fill="#00007f" points="1208.74,904.24 1228.07,886.023 1228.07,904.24"/>
<polygon fill="#00007f" points="1252.24,876.252 1232.91,904.24 1232.91,876.252"/>
<polygon fill="#00007f" points="1232.91,904.24 1252.24,876.252 1252.24,904.24"/>
<polygon fill="#00007f" points="1276.4,886.354 1257.07,904.24 1257.07,886.354"/>
<polygon fill="#00007f" points="1257.07,904.24 1276.4,886.354 1276.4,904.24"/>
<polygon fill="#00007f" points="1300.57,884.036 1281.24,904.24 1281.24,884.036"/>
<polygon fill="#00007f" points="1281.24,904.24 1300.57,884.036 1300.57,904.24"/>
<polygon fill="#00007f" points="1324.73,886.189 1305.4,904.24 1305.4,886.189"/>
<polygon fill="#00007f" points="1305.4,904.24 1324.73,886.189 1324.73,904.24"/>
<polygon fill="#00007f" points="1348.9,892.813 1329.57,904.24 1329.57,892.813"/>
<polygon fill="#00007f" points="1329.57,904.24 1348.9,892.813 1348.9,904.24"/>
<polygon fill="#00007f" points="1373.06,169.437 1353.73,904.24 1353.73,169.437"/>
<polygon fill="#00007f" points="1353.73,904.24 1373.06,169.437 1373.06,904.24"/>
<polygon fill="#00007f" points="1397.23,895.463 1377.9,904.24 1377.9,895.463"/>
<polygon fill="#00007f" points="1377.9,904.24 1397.23,895.463 1397.23,904.24"/>
<polygon fill="#00007f" points="1421.39,896.291 1402.06,904.24 1402.06,896.291"/>
<polygon fill="#00007f" points="1402.06,904.24 1421.39,896.291 1421.39,904.24"/>
<polygon fill="#00007f" points="1445.56,899.603 1426.23,904.24 1426.23,899.603"/>
<polygon fill="#00007f" points="1426.23,904.24 1445.56,899.603 1445.56,904.24"/>
<polygon fill="#00007f" points="1469.72,901.425 1450.39,904.24 1450.39,901.425"/>
<polygon fill="#00007f" points="1450.39,904.24 1469.72,901.425 1469.72,904.24"/>
<polygon fill="#00007f" points="1493.89,902.584 1474.56,904.24 1474.56,902.584"/>
<polygon fill="#00007f" points="1474.56,904.24 1493.89,902.584 1493.89,904.24"/>
<polygon fill="#00007f" points="1518.05,902.915 1498.72,904.24 1498.72,902.915"/>
<polygon fill="#00007f" points="1498.72,904.24 1518.05,902.915 1518.05,904.24"/>
<polygon fill="#00007f" points="1542.22,903.412 1522.89,904.24 1522.89,903.412"/>
<polygon fill="#00007f" points="1522.89,904.24 1542.22,903.412 1542.22,904.24"/>
<polygon fill="#00007f" points="1566.38,902.915 1547.05,904.24 1547.05,902.915"/>
<polygon fill="#00007f" points="1547.05,904.24 1566.38,902.915 1566.38,904.24"/>
<polygon fill="#00007f" points="1590.55,903.743 1571.22,904.24 1571.22,903.743"/>
<polygon fill="#00007f" points="1571.22,904.24 1590.55,903.743 1590.55,904.24"/>
<polygon fill="#00007f" points="1614.72,903.743 1595.38,904.24 1595.38,903.743"/>
<polygon fill="#00007f" points="1595.38,904.24 1614.72,903.743 1614.72,904.24"/>
<polygon fill="#00007f" points="1638.88,903.743 1619.55,904.24 1619.55,903.743"/>
<polygon fill="#00007f" points="1619.55,904.24 1638.88,903.743 1638.88,904.24"/>
<polygon fill="#00007f" points="1663.05,903.246 1643.71,904.24 1643.71,903.246"/>
<polygon fill="#00007f" points="1643.71,904.24 1663.05,903.246 1663.05,904.24"/>
<polygon fill="#00007f" points="1687.21,903.081 1667.88,904.24 1667.88,903.081"/>
<polygon fill="#00007f" points="1667.88,904.24 1687.21,903.081 1687.21,904.24"/>
<polygon fill="#00007f" points="1711.38,904.074 1692.04,904.24 1692.04,904.074"/>
<polygon fill="#00007f" points="1692.04,904.24 1711.38,904.074 1711.38,904.24"/>
<polyline fill="none" stroke="#000000" stroke-width="0.5" points="527.285,904.24 507.953,904.24 507.953,903.909 527.285,903.909 527.285,904.24"/>
<polyline fill="none" stroke="#000000" stroke-width="0.5" points="575.615,904.24 556.283,904.24 556.283,903.743 575.615,903.743 575.615,904.24"/>
<polyline fill="none" stroke="#000000" stroke-width="0.5" points="599.78,904.24 580.448,904.24 580.448,903.909 599.78,903.909 599.78,904.24"/>
<polyline fill="none" stroke="#000000" stroke-width="0.5" points="623.945,904.24 604.613,904.24 604.613,903.743 623.945,903.743 623.945,904.24"/>
<polyline fill="none" stroke="#000000" stroke-width="0.5" points="648.11,904.24 628.778,904.24 628.778,903.743 648.11,903.743 648.11,904.24"/>
<polyline fill="none" stroke="#000000" stroke-width="0.5" points="672.275,904.24 652.943,904.24 652.943,903.081 672.275,903.081 672.275,904.24"/>
<polyline fill="none" stroke="#000000" stroke-width="0.5" points="696.441,904.24 677.108,904.24 677.108,901.922 696.441,901.922 696.441,904.24"/>
<polyline fill="none" stroke="#000000" stroke-width="0.5" points="720.606,904.24 701.274,904.24 701.274,900.597 720.606,900.597 720.606,904.24"/>
<polyline fill="none" stroke="#000000" stroke-width="0.5" points="744.771,904.24 725.439,904.24 725.439,900.265 744.771,900.265 744.771,904.24"/>
<polyline fill="none" stroke="#000000" stroke-width="0.5" points="768.936,904.24 749.604,904.24 749.604,899.272 768.936,899.272 768.936,904.24"/>
<polyline fill="none" stroke="#000000" stroke-width="0.5" points="793.101,904.24 773.769,904.24 773.769,898.775 793.101,898.775 793.101,904.24"/>
<polyline fill="none" stroke="#000000" stroke-width="0.5" points="817.266,904.24 797.934,904.24 797.934,894.966 817.266,894.966 817.266,904.24"/>
<polyline fill="none" stroke="#000000" stroke-width="0.5" points="841.431,904.24 822.099,904.24 822.099,894.635 841.431,894.635 841.431,904.24"/>
<polyline fill="none" stroke="#000000" stroke-width="0.5" points="865.597,904.24 846.265,904.24 846.265,891.654 865.597,891.654 865.597,904.24"/>
<polyline fill="none" stroke="#000000" stroke-width="0.5" points="889.762,904.24 870.429,904.24 870.429,891.654 889.762,891.654 889.762,904.24"/>
<polyline fill="none" stroke="#000000" stroke-width="0.5" points="913.927,904.24 894.595,904.24 894.595,881.22 913.927,881.22 913.927,904.24"/>
<polyline fill="none" stroke="#000000" stroke-width="0.5" points="938.092,904.24 918.76,904.24 918.76,890.66 938.092,890.66 938.092,904.24"/>
<polyline fill="none" stroke="#000000" stroke-width="0.5" points="962.257,904.24 942.925,904.24 942.925,891.985 962.257,891.985 962.257,904.24"/>
<polyline fill="none" stroke="#000000" stroke-width="0.5" points="986.422,904.24 967.09,904.24 967.09,893.641 986.422,893.641 986.422,904.24"/>
<polyline fill="none" stroke="#000000" stroke-width="0.5" points="1010.59,904.24 991.255,904.24 991.255,892.647 1010.59,892.647 1010.59,904.24"/>
<polyline fill="none" stroke="#000000" stroke-width="0.5" points="1034.75,904.24 1015.42,904.24 1015.42,890.163 1034.75,890.163 1034.75,904.24"/>
<polyline fill="none" stroke="#000000" stroke-width="0.5" points="1058.92,904.24 1039.59,904.24 1039.59,889.998 1058.92,889.998 1058.92,904.24"/>
<polyline fill="none" stroke="#000000" stroke-width="0.5" points="1083.08,904.24 1063.75,904.24 1063.75,889.17 1083.08,889.17 1083.08,904.24"/>
<polyline fill="none" stroke="#000000" stroke-width="0.5" points="1107.25,904.24 1087.92,904.24 1087.92,887.514 1107.25,887.514 1107.25,904.24"/>
<polyline fill="none" stroke="#000000" stroke-width="0.5" points="1131.41,904.24 1112.08,904.24 1112.08,884.367 1131.41,884.367 1131.41,904.24"/>
<polyline fill="none" stroke="#000000" stroke-width="0.5" points="1155.58,904.24 1136.25,904.24 1136.25,881.055 1155.58,881.055 1155.58,904.24"/>
<polyline fill="none" stroke="#000000" stroke-width="0.5" points="1179.74,904.24 1160.41,904.24 1160.41,885.858 1179.74,885.858 1179.74,904.24"/>
<polyline fill="none" stroke="#000000" stroke-width="0.5" points="1203.91,904.24 1184.58,904.24 1184.58,874.927 1203.91,874.927 1203.91,904.24"/>
<polyline fill="none" stroke="#000000" stroke-width="0.5" points="1228.07,904.24 1208.74,904.24 1208.74,886.023 1228.07,886.023 1228.07,904.24"/>
<polyline fill="none" stroke="#000000" stroke-width="0.5" points="1252.24,904.24 1232.91,904.24 1232.91,876.252 1252.24,876.252 1252.24,904.24"/>
<polyline fill="none" stroke="#000000" stroke-width="0.5" points="1276.4,904.24 1257.07,904.24 1257.07,886.354 1276.4,886.354 1276.4,904.24"/>
<polyline fill="none" stroke="#000000" stroke-width="0.5" points="1300.57,904.24 1281.24,904.24 1281.24,884.036 1300.57,884.036 1300.57,904.24"/>
<polyline fill="none" stroke="#000000" stroke-width="0.5" points="1324.73,904.24 1305.4,904.24 1305.4,886.189 1324.73,886.189 1324.73,904.24"/>
<polyline fill="none" stroke="#000000" stroke-width="0.5" points="1348.9,904.24 1329.57,904.24 1329.57,892.813 1348.9,892.813 1348.9,904.24"/>
<polyline fill="none" stroke="#000000" stroke-width="0.5" points="1373.06,904.24 1353.73,904.24 1353.73,169.437 1373.06,169.437 1373.06,904.24"/>
<polyline fill="none" stroke="#000000" stroke-width="0.5" points="1397.23,904.24 1377.9,904.24 1377.9,895.463 1397.23,895.463 1397.23,904.24"/>
<polyline fill="none" stroke="#000000" stroke-width="0.5" points="1421.39,904.24 1402.06,904.24 1402.06,896.291 1421.39,896.291 1421.39,904.24"/>
<polyline fill="none" stroke="#000000" stroke-width="0.5" points="1445.56,904.24 1426.23,904.24 1426.23,899.603 1445.56,899.603 1445.56,904.24"/>
<polyline fill="none" stroke="#000000" stroke-width="0.5" points="1469.72,904.24 1450.39,904.24 1450.39,901.425 1469.72,901.425 1469.72,904.24"/>
<polyline fill="none" stroke="#000000" stroke-width="0.5" points="1493.89,904.24 1474.56,904.24 1474.56,902.584 1493.89,902.584 1493.89,904.24"/>
<polyline fill="none" stroke="#000000" stroke-width="0.5" points="1518.05,904.24 1498.72,904.24 1498.72,902.915 1518.05,902.915 1518.05,904.24"/>
<polyline fill="none" stroke="#000000" stroke-width="0.5" points="1542.22,904.24 1522.89,904.24 1522.89,903.412 1542.22,903.412 1542.22,904.24"/>
<polyline fill="none" stroke="#000000" stroke-width="0.5" points="1566.38,904.24 1547.05,904.24 1547.05,902.915 1566.38,902.915 1566.38,904.24"/>
<polyline fill="none" stroke="#000000" stroke-width="0.5" points="1590.55,904.24 1571.22,904.24 1571.22,903.743 1590.55,903.743 1590.55,904.24"/>
<polyline fill="none" stroke="#000000" stroke-width="0.5" points="1614.72,904.24 1595.38,904.24 1595.38,903.743 1614.72,903.743 1614.72,904.24"/>
<polyline fill="none" stroke="#000000" stroke-width="0.5" points="1638.88,904.24 1619.55,904.24 1619.55,903.743 1638.88,903.743 1638.88,904.24"/>
<polyline fill="none" stroke="#000000" stroke-width="0.5" points="1663.05,904.24 1643.71,904.24 1643.71,903.246 1663.05,903.246 1663.05,904.24"/>
<polyline fill="none" stroke="#000000" stroke-width="0.5" points="1687.21,904.24 1667.88,904.24 1667.88,903.081 1687.21,903.081 1687.21,904.24"/>
<polyline fill="none" stroke="#000000" stroke-width="0.5" points="1711.38,904.24 1692.04,904.24 1692.04,904.074 1711.38,904.074 1711.38,904.24"/>
<polyline fill="none" stroke="#000000" stroke-width="0.5" points="249.6,904.24 1737.6,904.24"/>
</g>
</svg>
