<?xml version="1.0" encoding="UTF-8" standalone="no"?>
<svg xmlns="http://www.w3.org/2000/svg"
     xmlns:xlink="http://www.w3.org/1999/xlink"
     width="1920px" height="1016px" viewBox="0 0 1920 1016">
<title>glps_renderer figure</title>
<desc>
Creator: GL2PS 1.3.8, (C) 1999-2012 C. Geuzaine
For: Octave
CreationDate: Sun Nov  2 17:24:34 2014
</desc>
<defs>
</defs>
<g shape-rendering="crispEdges">
<polygon fill="#ffffff" points="1738.12,904.239 1738.12,76.1989 1738.12,904.239"/>
<polygon fill="#ffffff" points="1738.12,76.1989 1738.12,76.1989 1738.12,904.239"/>
<polygon fill="#ffffff" points="249.844,76.1989 1738.12,76.1989 249.844,76.1989"/>
<polygon fill="#ffffff" points="1738.12,76.1989 1738.12,76.1989 249.844,76.1989"/>
<polygon fill="#ffffff" points="249.844,904.239 1738.12,904.239 249.844,76.1989"/>
<polygon fill="#ffffff" points="1738.12,904.239 1738.12,76.1989 249.844,76.1989"/>
<polyline fill="none" stroke="#000000" stroke-width="0.5" stroke-dasharray="16,0" points="249.844,904.239 1738.12,904.239"/>
<polyline fill="none" stroke="#000000" stroke-width="0.5" stroke-dasharray="16,0" points="249.844,76.1989 1738.12,76.1989"/>
<polyline fill="none" stroke="#000000" stroke-width="0.5" stroke-dasharray="16,0" points="249.844,76.1989 1738.12,76.1989"/>
<polyline fill="none" stroke="#000000" stroke-width="0.5" stroke-dasharray="16,0" points="249.844,904.239 1738.12,904.239"/>
<polyline fill="none" stroke="#000000" stroke-width="0.5" stroke-dasharray="16,0" points="249.844,904.239 249.844,76.1989"/>
<polyline fill="none" stroke="#000000" stroke-width="0.5" stroke-dasharray="16,0" points="1738.12,904.239 1738.12,76.1989"/>
<polyline fill="none" stroke="#000000" stroke-width="0.5" stroke-dasharray="16,0" points="1738.12,904.239 1738.12,76.1989"/>
<polyline fill="none" stroke="#000000" stroke-width="0.5" stroke-dasharray="16,0" points="249.844,904.239 249.844,76.1989 249.844,76.1989"/>
<polyline fill="none" stroke="#000000" stroke-width="0.5" stroke-dasharray="16,0" points="1738.12,76.1989 1738.12,76.1989"/>
<polyline fill="none" stroke="#000000" stroke-width="0.5" stroke-dasharray="16,0" points="1738.12,904.239 1738.12,904.239"/>
<polyline fill="none" stroke="#000000" stroke-width="0.5" stroke-dasharray="16,0" points="249.844,904.239 249.844,904.239 249.844,889.359"/>
<polyline fill="none" stroke="#000000" stroke-width="0.5" stroke-dasharray="16,0" points="249.844,76.1989 249.844,91.0797"/>
<polyline fill="none" stroke="#000000" stroke-width="0.5" stroke-dasharray="16,0" points="547.5,904.239 547.5,889.359"/>
<polyline fill="none" stroke="#000000" stroke-width="0.5" stroke-dasharray="16,0" points="547.5,76.1989 547.5,91.0797"/>
<polyline fill="none" stroke="#000000" stroke-width="0.5" stroke-dasharray="16,0" points="845.156,904.239 845.156,889.359"/>
<polyline fill="none" stroke="#000000" stroke-width="0.5" stroke-dasharray="16,0" points="845.156,76.1989 845.156,91.0797"/>
<polyline fill="none" stroke="#000000" stroke-width="0.5" stroke-dasharray="16,0" points="1142.34,904.239 1142.34,889.359"/>
<polyline fill="none" stroke="#000000" stroke-width="0.5" stroke-dasharray="16,0" points="1142.34,76.1989 1142.34,91.0797"/>
<polyline fill="none" stroke="#000000" stroke-width="0.5" stroke-dasharray="16,0" points="1440.47,904.239 1440.47,889.359"/>
<polyline fill="none" stroke="#000000" stroke-width="0.5" stroke-dasharray="16,0" points="1440.47,76.1989 1440.47,91.0797"/>
<polyline fill="none" stroke="#000000" stroke-width="0.5" stroke-dasharray="16,0" points="1738.12,904.239 1738.12,889.359"/>
<polyline fill="none" stroke="#000000" stroke-width="0.5" stroke-dasharray="16,0" points="1738.12,76.1989 1738.12,91.0797"/>
<text fill="#000000" x="249.237" y="909.239" font-size="10" text-anchor="middle" baseline-shift="-10" font-family="Helvetica">1.4138e+09</text>
<text fill="#000000" x="547.127" y="909.239" font-size="10" text-anchor="middle" baseline-shift="-10" font-family="Helvetica">1.4139e+09</text>
<text fill="#000000" x="844.655" y="909.239" font-size="10" text-anchor="middle" baseline-shift="-10" font-family="Helvetica">1.414e+09</text>
<text fill="#000000" x="1142.18" y="909.239" font-size="10" text-anchor="middle" baseline-shift="-10" font-family="Helvetica">1.4141e+09</text>
<text fill="#000000" x="1440.07" y="909.239" font-size="10" text-anchor="middle" baseline-shift="-10" font-family="Helvetica">1.4142e+09</text>
<text fill="#000000" x="1737.6" y="909.239" font-size="10" text-anchor="middle" baseline-shift="-10" font-family="Helvetica">1.4143e+09</text>
<polyline fill="none" stroke="#000000" stroke-width="0.5" stroke-dasharray="16,0" points="249.844,904.239 264.844,904.239"/>
<polyline fill="none" stroke="#000000" stroke-width="0.5" stroke-dasharray="16,0" points="1738.12,904.239 1723.12,904.239"/>
<polyline fill="none" stroke="#000000" stroke-width="0.5" stroke-dasharray="16,0" points="249.844,766.232 264.844,766.232"/>
<polyline fill="none" stroke="#000000" stroke-width="0.5" stroke-dasharray="16,0" points="1738.12,766.232 1723.12,766.232"/>
<polyline fill="none" stroke="#000000" stroke-width="0.5" stroke-dasharray="16,0" points="249.844,628.226 264.844,628.226"/>
<polyline fill="none" stroke="#000000" stroke-width="0.5" stroke-dasharray="16,0" points="1738.12,628.226 1723.12,628.226"/>
<polyline fill="none" stroke="#000000" stroke-width="0.5" stroke-dasharray="16,0" points="249.844,490.219 264.844,490.219"/>
<polyline fill="none" stroke="#000000" stroke-width="0.5" stroke-dasharray="16,0" points="1738.12,490.219 1723.12,490.219"/>
<polyline fill="none" stroke="#000000" stroke-width="0.5" stroke-dasharray="16,0" points="249.844,352.212 264.844,352.212"/>
<polyline fill="none" stroke="#000000" stroke-width="0.5" stroke-dasharray="16,0" points="1738.12,352.212 1723.12,352.212"/>
<polyline fill="none" stroke="#000000" stroke-width="0.5" stroke-dasharray="16,0" points="249.844,214.206 264.844,214.206"/>
<polyline fill="none" stroke="#000000" stroke-width="0.5" stroke-dasharray="16,0" points="1738.12,214.206 1723.12,214.206"/>
<polyline fill="none" stroke="#000000" stroke-width="0.5" stroke-dasharray="16,0" points="249.844,76.1989 264.844,76.1989"/>
<polyline fill="none" stroke="#000000" stroke-width="0.5" stroke-dasharray="16,0" points="1738.12,76.1989 1723.12,76.1989"/>
<text fill="#000000" x="244.151" y="904.239" font-size="10" text-anchor="end" baseline-shift="-5" font-family="Helvetica">34</text>
<text fill="#000000" x="244.151" y="766.233" font-size="10" text-anchor="end" baseline-shift="-5" font-family="Helvetica">34.5</text>
<text fill="#000000" x="244.151" y="628.226" font-size="10" text-anchor="end" baseline-shift="-5" font-family="Helvetica">35</text>
<text fill="#000000" x="244.151" y="490.219" font-size="10" text-anchor="end" baseline-shift="-5" font-family="Helvetica">35.5</text>
<text fill="#000000" x="244.151" y="352.213" font-size="10" text-anchor="end" baseline-shift="-5" font-family="Helvetica">36</text>
<text fill="#000000" x="244.151" y="214.206" font-size="10" text-anchor="end" baseline-shift="-5" font-family="Helvetica">36.5</text>
<text fill="#000000" x="244.151" y="76.1992" font-size="10" text-anchor="end" baseline-shift="-5" font-family="Helvetica">37</text>
<polyline fill="none" stroke="#0000ff" stroke-width="0.5" points="368.438,186.605 368.906,186.605 368.906,186.605 369.375,186.605 369.844,186.605 369.844,186.605 369.844,186.605 369.844,186.605 370.312,186.605 370.312,186.605 370.781,214.206 370.781,214.206 371.25,214.206 371.25,214.206 371.719,214.206 371.719,214.206 371.719,241.807 371.719,241.807 371.719,241.807 372.188,241.807 372.188,241.807 372.656,269.409 372.656,241.807 373.125,241.807 373.125,241.807 373.594,241.807 373.594,241.807 373.594,241.807 373.594,241.807 374.062,241.807 374.062,241.807 374.531,241.807 374.531,241.807 374.531,241.807 375,241.807 375,241.807 375.469,241.807 375.469,241.807 375.938,241.807 375.938,269.409 375.938,269.409 375.938,269.409 376.406,269.409 376.406,269.409 376.875,269.409 376.875,269.409 377.344,297.01 377.344,297.01 377.812,297.01 377.812,297.01 377.812,297.01 377.812,324.611 377.812,324.611 378.281,324.611 378.281,297.01 378.75,324.611 378.75,324.611 379.219,324.611 379.219,324.611 379.688,324.611 379.688,324.611 379.688,324.611 379.688,324.611 380.156,324.611 380.156,324.611 380.156,324.611 380.625,324.611 380.625,324.611 381.094,324.611 381.094,324.611 381.562,324.611 381.562,297.01 382.031,324.611 382.031,297.01 382.031,324.611 382.031,324.611 382.5,324.611 382.5,324.611 382.969,324.611 382.969,324.611 383.438,352.212 383.438,352.212 383.438,324.611 383.906,352.212 383.906,352.212 383.906,352.212 383.906,352.212 384.375,352.212 384.375,379.813 384.844,379.813 384.844,379.813 385.312,379.813 385.312,352.212 385.781,352.212 385.781,379.813 385.781,352.212 385.781,352.212 385.781,352.212 386.25,379.813 386.25,379.813 386.719,379.813 386.719,379.813 387.188,379.813 387.188,379.813 387.656,407.415 387.656,407.415 388.125,407.415 388.125,407.415 388.125,407.415 388.125,407.415 388.594,407.415 388.594,407.415 389.062,407.415 389.062,407.415 389.062,407.415 389.531,435.016 389.531,435.016 390,435.016 390,435.016 390,435.016 390,435.016 390.469,435.016 390.469,435.016 390.938,435.016 390.938,435.016 391.406,435.016 391.406,435.016 391.875,435.016 391.875,435.016 391.875,435.016 392.344,435.016 392.344,435.016 392.344,435.016 392.344,435.016 392.812,435.016 392.812,435.016 393.281,462.618 393.281,462.618 393.75,462.618 393.75,462.618 394.219,462.618 394.219,462.618 394.219,435.016 394.219,435.016 394.688,435.016 394.688,435.016 394.688,435.016 395.156,462.618 395.156,462.618 395.625,462.618 395.625,462.618 396.094,490.219 396.094,490.219 396.094,490.219 396.094,490.219 396.562,490.219 396.562,490.219 397.031,517.82 397.031,517.82 397.5,517.82 397.5,517.82 397.5,517.82 397.969,517.82 397.969,517.82 398.438,517.82 398.438,517.82 398.438,517.82 398.438,517.82 398.906,517.82 398.906,517.82 399.375,517.82 399.375,517.82 399.844,517.82 399.844,545.422 400.312,545.422 400.312,545.422 400.312,545.422 400.312,545.422 400.312,545.422 400.781,573.023 400.781,545.422 401.25,545.422 401.25,573.023 401.719,573.023 401.719,573.023 402.188,573.023 402.188,573.023 402.188,573.023 402.188,573.023 402.656,573.023 402.656,573.023 403.125,573.023 403.125,573.023 403.125,573.023 403.594,573.023 403.594,573.023 404.062,600.625 404.062,600.625 404.531,600.625 404.531,600.625 404.531,600.625 404.531,600.625 405,600.625 405,600.625 405.469,600.625 405.469,600.625 405.938,573.023 405.938,600.625 406.406,573.023 406.406,600.625 406.406,600.625 406.406,573.023 406.406,600.625 406.875,600.625 406.875,600.625 407.344,628.226 407.344,628.226 407.812,628.226 407.812,628.226 408.281,628.226 408.281,628.226 408.281,628.226 408.281,600.625 408.75,600.625 408.75,600.625 408.75,600.625 409.219,600.625 409.219,600.625 409.688,600.625 409.688,600.625 410.156,600.625 410.156,628.226 410.625,600.625 410.625,600.625 410.625,600.625 410.625,600.625 411.094,600.625 411.094,600.625 411.562,600.625 411.562,600.625 412.031,600.625 412.031,600.625 412.031,600.625 412.5,600.625 412.5,573.023 412.5,573.023 412.5,573.023 412.969,573.023 412.969,573.023 413.438,573.023 413.438,573.023 413.906,573.023 413.906,573.023 414.375,573.023 414.375,573.023 414.375,573.023 414.375,573.023 414.375,600.625 414.844,600.625 414.844,600.625 415.312,628.226 415.312,628.226 415.781,628.226 415.781,628.226 416.25,628.226 416.25,628.226 416.719,600.625 416.719,628.226 416.719,600.625 416.719,600.625 417.188,600.625 417.188,600.625 417.656,600.625 417.656,600.625 417.656,600.625 418.125,573.023 418.125,573.023 418.594,573.023 418.594,573.023 418.594,573.023 418.594,573.023 419.062,573.023 419.062,573.023 419.531,545.422 419.531,545.422 420,545.422 420,545.422 420.469,545.422 420.469,545.422 420.469,545.422 420.469,545.422 420.469,545.422 420.938,545.422 420.938,545.422 421.406,545.422 421.406,517.82 421.875,517.82 421.875,517.82 422.344,517.82 422.344,517.82 422.812,517.82 422.812,517.82 422.812,517.82 422.812,517.82 423.281,517.82 423.281,517.82 423.281,517.82 423.75,517.82 423.75,517.82 424.219,545.422 424.219,517.82 424.688,545.422 424.688,545.422 424.688,545.422 424.688,545.422 425.156,545.422 425.156,545.422 425.625,545.422 425.625,545.422 426.094,545.422 426.094,545.422 426.094,545.422 426.562,545.422 426.562,545.422 426.562,545.422 426.562,545.422 427.031,545.422 427.031,545.422 427.5,573.023 427.5,545.422 427.969,545.422 427.969,573.023 428.438,573.023 428.438,573.023 428.906,545.422 428.906,573.023 428.906,573.023 428.906,573.023 428.906,573.023 429.375,573.023 429.375,573.023 429.844,573.023 429.844,573.023 430.312,573.023 430.312,573.023 430.781,573.023 430.781,573.023 430.781,573.023 430.781,573.023 431.25,600.625 431.25,600.625 431.719,600.625 431.719,600.625 431.719,600.625 432.188,600.625 432.188,600.625 432.656,600.625 432.656,573.023 432.656,573.023 432.656,600.625 433.125,600.625 433.125,600.625 433.594,573.023 433.594,573.023 434.062,600.625 434.062,600.625 434.531,600.625 434.531,600.625 435,600.625 435,573.023 435,573.023 435,573.023 435,573.023 435.469,573.023 435.469,573.023 435.938,600.625 435.938,573.023 436.406,573.023 436.406,545.422 436.875,545.422 436.875,545.422 436.875,545.422 436.875,545.422 437.344,545.422 437.344,545.422 437.812,545.422 437.812,545.422 437.812,545.422 438.281,573.023 438.281,573.023 438.75,573.023 438.75,573.023 438.75,573.023 438.75,573.023 439.219,573.023 439.219,573.023 439.688,573.023 439.688,573.023 440.156,600.625 440.156,573.023 440.625,573.023 440.625,573.023 440.625,600.625 441.094,600.625 441.094,573.023 441.094,573.023 441.094,573.023 441.562,573.023 441.562,573.023 442.031,573.023 442.031,600.625 442.5,573.023 442.5,573.023 442.969,573.023 442.969,573.023 442.969,600.625 442.969,573.023 442.969,573.023 443.438,573.023 443.438,573.023 443.906,573.023 443.906,573.023 444.375,573.023 444.375,600.625 444.844,600.625 444.844,600.625 444.844,600.625 444.844,600.625 445.312,600.625 445.312,600.625 445.781,573.023 445.781,573.023 446.25,573.023 446.25,573.023 446.25,573.023 446.719,573.023 446.719,545.422 447.188,545.422 447.188,545.422 447.188,545.422 447.188,545.422 447.656,545.422 447.656,545.422 448.125,573.023 448.125,545.422 448.594,573.023 448.594,573.023 449.062,573.023 449.062,573.023 449.062,573.023 449.062,573.023 449.062,573.023 449.531,573.023 449.531,573.023 450,573.023 450,573.023 450.469,573.023 450.469,600.625 450.938,573.023 450.938,600.625 450.938,600.625 450.938,600.625 451.406,600.625 451.406,573.023 451.875,573.023 451.875,573.023 451.875,573.023 452.344,573.023 452.344,573.023 452.812,573.023 452.812,573.023 453.281,573.023 453.281,573.023 453.281,573.023 453.281,573.023 453.75,573.023 453.75,573.023 454.219,573.023 454.219,573.023 454.688,573.023 454.688,545.422 454.688,573.023 455.156,545.422 455.156,545.422 455.156,545.422 455.156,573.023 455.625,573.023 455.625,573.023 456.094,573.023 456.094,573.023 456.562,573.023 456.562,573.023 457.031,573.023 457.031,573.023 457.031,573.023 457.031,573.023 457.5,573.023 457.5,573.023 457.5,573.023 457.969,573.023 457.969,573.023 458.438,573.023 458.438,573.023 458.906,573.023 458.906,573.023 459.375,573.023 459.375,573.023 459.375,573.023 459.375,573.023 459.844,573.023 459.844,573.023 460.312,573.023 460.312,573.023 460.781,573.023 460.781,573.023 460.781,573.023 461.25,573.023 461.25,573.023 461.25,573.023 461.25,573.023 461.719,573.023 461.719,573.023 462.188,573.023 462.188,573.023 462.656,573.023 462.656,573.023 463.125,573.023 463.125,573.023 463.125,600.625 463.125,600.625 463.125,600.625 463.594,573.023 463.594,573.023 464.062,573.023 464.062,600.625 464.531,573.023 464.531,573.023 465,573.023 465,573.023 465.469,573.023 465.469,573.023 465.469,573.023 465.469,573.023 465.938,573.023 465.938,545.422 465.938,545.422 466.406,545.422 466.406,545.422 466.875,545.422 466.875,545.422 467.344,545.422 467.344,545.422 467.344,517.82 467.344,517.82 467.812,517.82 467.812,517.82 468.281,517.82 468.281,517.82 468.75,517.82 468.75,545.422 469.219,545.422 469.219,545.422 469.219,545.422 469.219,573.023 469.219,573.023 469.688,573.023 469.688,573.023 470.156,573.023 470.156,573.023 470.625,573.023 470.625,573.023 471.094,600.625 471.094,600.625 471.562,600.625 471.562,600.625 471.562,600.625 471.562,600.625 472.031,600.625 472.031,573.023 472.031,573.023 472.5,573.023 472.5,573.023 472.969,573.023 472.969,573.023 473.438,573.023 473.438,573.023 473.438,600.625 473.438,600.625 473.906,600.625 473.906,600.625 474.375,600.625 474.375,573.023 474.844,573.023 474.844,573.023 474.844,573.023 475.312,573.023 475.312,573.023 475.312,573.023 475.312,573.023 475.781,573.023 475.781,573.023 476.25,573.023 476.25,573.023 476.719,573.023 476.719,573.023 477.188,573.023 477.188,600.625 477.656,600.625 477.656,600.625 477.656,600.625 477.656,600.625 477.656,600.625 478.125,600.625 478.125,600.625 478.594,600.625 478.594,600.625 479.062,600.625 479.062,600.625 479.531,600.625 479.531,600.625 479.531,600.625 479.531,600.625 480,600.625 480,573.023 480.469,573.023 480.469,600.625 480.469,600.625 480.938,600.625 480.938,600.625 481.406,600.625 481.406,600.625 481.406,573.023 481.406,573.023 481.875,573.023 481.875,573.023 482.344,573.023 482.344,573.023 482.812,573.023 482.812,573.023 483.281,573.023 483.281,573.023 483.75,573.023 483.75,600.625 483.75,573.023 483.75,573.023 484.219,573.023 484.219,573.023 484.688,573.023 484.688,573.023 485.156,573.023 485.156,600.625 485.625,600.625 485.625,600.625 485.625,600.625 485.625,600.625 486.094,573.023 486.094,600.625 486.094,573.023 486.562,573.023 486.562,573.023 487.031,573.023 487.031,573.023 487.5,573.023 487.5,545.422 487.5,545.422 487.5,545.422 487.969,545.422 487.969,545.422 488.438,545.422 488.438,545.422 488.906,545.422 488.906,545.422 489.375,545.422 489.375,545.422 489.375,545.422 489.844,545.422 489.844,545.422 489.844,573.023 489.844,545.422 490.312,573.023 490.312,545.422 490.781,545.422 490.781,545.422 491.25,573.023 491.25,545.422 491.719,573.023 491.719,573.023 491.719,573.023 491.719,573.023 491.719,573.023 492.188,600.625 492.188,600.625 492.656,600.625 492.656,600.625 493.125,600.625 493.125,600.625 493.594,600.625 493.594,600.625 493.594,600.625 493.594,628.226 494.062,628.226 494.062,628.226 494.531,628.226 494.531,628.226 495,628.226 495,628.226 495,628.226 495.469,628.226 495.469,628.226 495.938,628.226 495.938,628.226 495.938,600.625 495.938,600.625 496.406,600.625 496.406,600.625 496.875,600.625 496.875,600.625 497.344,600.625 497.344,600.625 497.812,600.625 497.812,600.625 497.812,600.625 497.812,600.625 497.812,600.625 498.281,600.625 498.281,600.625 498.75,628.226 498.75,628.226 499.219,655.826 499.219,655.826 499.688,655.826 499.688,628.226 499.688,655.826 499.688,655.826 500.156,655.826 500.156,655.826 500.625,655.826 500.625,655.826 500.625,628.226 501.094,628.226 501.094,655.826 501.562,628.226 501.562,628.226 502.031,628.226 502.031,628.226 502.031,628.226 502.031,628.226 502.5,628.226 502.5,628.226 502.969,628.226 502.969,628.226 503.438,628.226 503.438,628.226 503.438,628.226 503.906,628.226 503.906,628.226 503.906,628.226 503.906,628.226 504.375,655.826 504.375,655.826 504.844,655.826 504.844,655.826 505.312,655.826 505.312,655.826 505.781,683.428 505.781,683.428 505.781,655.826 505.781,683.428 506.25,655.826 506.25,655.826 506.25,655.826 506.719,628.226 506.719,628.226 507.188,655.826 507.188,628.226 507.656,628.226 507.656,628.226 508.125,600.625 508.125,600.625 508.125,600.625 508.125,628.226 508.594,600.625 508.594,628.226 509.062,628.226 509.062,628.226 509.062,628.226 509.531,628.226 509.531,628.226 510,628.226 510,628.226 510,628.226 510,628.226 510.469,628.226 510.469,628.226 510.938,628.226 510.938,628.226 511.406,628.226 511.406,628.226 511.875,628.226 511.875,628.226 511.875,628.226 511.875,628.226 511.875,628.226 512.344,628.226 512.344,628.226 512.812,628.226 512.812,600.625 513.281,600.625 513.281,600.625 513.75,600.625 513.75,600.625 514.219,628.226 514.219,628.226 514.219,628.226 514.219,628.226 514.688,600.625 514.688,600.625 514.688,600.625 515.156,573.023 515.156,600.625 515.625,600.625 515.625,573.023 516.094,573.023 516.094,573.023 516.094,573.023 516.094,573.023 516.562,573.023 516.562,545.422 517.031,545.422 517.031,545.422 517.5,545.422 517.5,545.422 517.969,517.82 517.969,517.82 517.969,517.82 517.969,517.82 517.969,517.82 518.438,517.82 518.438,490.219 518.906,490.219 518.906,490.219 519.375,490.219 519.375,490.219 519.844,490.219 519.844,517.82 520.312,517.82 520.312,517.82 520.312,517.82 520.312,517.82 520.312,490.219 520.781,490.219 520.781,490.219 521.25,490.219 521.25,490.219 521.719,490.219 521.719,490.219 522.188,490.219 522.188,462.618 522.188,490.219 522.188,490.219 522.656,490.219 522.656,490.219 523.125,490.219 523.125,490.219 523.594,490.219 523.594,490.219 523.594,490.219 524.062,490.219 524.062,490.219 524.062,490.219 524.062,517.82 524.531,517.82 524.531,517.82 525,517.82 525,517.82 525.469,517.82 525.469,517.82 525.938,517.82 525.938,517.82 526.406,517.82 526.406,517.82 526.406,545.422 526.406,545.422 526.406,517.82 526.875,517.82 526.875,517.82 527.344,517.82 527.344,517.82 527.812,517.82 527.812,517.82 528.281,517.82 528.281,517.82 528.281,545.422 528.281,545.422 528.75,545.422 528.75,545.422 529.219,545.422 529.219,545.422 529.219,545.422 529.688,573.023 529.688,573.023 530.156,600.625 530.156,600.625 530.156,600.625 530.156,573.023 530.625,600.625 530.625,600.625 531.094,600.625 531.094,573.023 531.562,573.023 531.562,600.625 532.031,600.625 532.031,600.625 532.031,600.625 532.5,600.625 532.5,600.625 532.5,600.625 532.5,600.625 532.969,628.226 532.969,573.023 533.438,600.625 533.438,600.625 533.906,573.023 533.906,573.023 534.375,545.422 534.375,545.422 534.375,545.422 534.375,545.422 534.844,573.023 534.844,545.422 534.844,545.422 535.312,545.422 535.312,545.422 535.781,545.422 535.781,545.422 536.25,545.422 536.25,545.422 536.25,545.422 536.25,545.422 536.719,545.422 536.719,545.422 537.188,545.422 537.188,573.023 537.656,545.422 537.656,545.422 537.656,545.422 538.125,545.422 538.125,573.023 538.594,545.422 538.594,545.422 538.594,573.023 538.594,545.422 539.062,545.422 539.062,545.422 539.531,545.422 539.531,545.422 540,545.422 540,545.422 540.469,545.422 540.469,545.422 540.469,545.422 540.469,545.422 540.469,517.82 540.938,517.82 540.938,517.82 541.406,517.82 541.406,517.82 541.875,545.422 541.875,517.82 542.344,545.422 542.344,545.422 542.344,517.82 542.344,517.82 542.812,517.82 542.812,517.82 543.281,517.82 543.281,517.82 543.281,517.82 543.75,490.219 543.75,490.219 544.219,490.219 544.219,490.219 544.688,517.82 544.688,490.219 544.688,490.219 544.688,490.219 545.156,490.219 545.156,490.219 545.625,517.82 545.625,490.219 546.094,490.219 546.094,490.219 546.562,490.219 546.562,490.219 546.562,490.219 546.562,490.219 546.562,490.219 547.031,517.82 547.031,517.82 547.5,490.219 547.5,490.219 547.969,490.219 547.969,490.219 548.438,490.219 548.438,490.219 548.438,490.219 548.438,490.219 548.906,490.219 548.906,490.219 548.906,462.618 549.375,462.618 549.375,462.618 549.844,462.618 549.844,490.219 550.312,490.219 550.312,462.618 550.781,462.618 550.781,462.618 550.781,462.618 550.781,435.016 551.25,435.016 551.25,462.618 551.719,462.618 551.719,462.618 552.188,462.618 552.188,462.618 552.188,462.618 552.656,462.618 552.656,462.618 552.656,462.618 552.656,462.618 553.125,462.618 553.125,462.618 553.594,462.618 553.594,462.618 554.062,462.618 554.062,462.618 554.531,462.618 554.531,435.016 555,435.016 555,435.016 555,435.016 555,435.016 555,462.618 555.469,462.618 555.469,462.618 555.938,490.219 555.938,490.219 556.406,490.219 556.406,490.219 556.875,490.219 556.875,490.219 556.875,490.219 556.875,490.219 557.344,490.219 557.344,490.219 557.812,517.82 557.812,490.219 557.812,517.82 558.281,517.82 558.281,517.82 558.75,517.82 558.75,490.219 558.75,517.82 558.75,517.82 559.219,517.82 559.219,517.82 559.688,517.82 559.688,517.82 560.156,517.82 560.156,490.219 560.625,490.219 560.625,490.219 560.625,517.82 561.094,517.82 561.094,517.82 561.094,517.82 561.094,517.82 561.562,517.82 561.562,517.82 562.031,517.82 562.031,517.82 562.5,517.82 562.5,517.82 562.969,517.82 562.969,517.82 562.969,517.82 562.969,517.82 563.438,517.82 563.438,517.82 563.438,517.82 563.906,517.82 563.906,490.219 564.375,490.219 564.375,490.219 564.844,517.82 564.844,517.82 564.844,490.219 564.844,490.219 565.312,490.219 565.312,490.219 565.781,490.219 565.781,517.82 566.25,517.82 566.25,517.82 566.25,517.82 566.719,517.82 566.719,517.82 567.188,545.422 567.188,545.422 567.188,545.422 567.188,545.422 567.656,545.422 567.656,545.422 568.125,545.422 568.125,545.422 568.594,545.422 568.594,545.422 569.062,545.422 569.062,573.023 569.062,573.023 569.062,573.023 569.062,573.023 569.531,573.023 569.531,573.023 570,573.023 570,573.023 570.469,573.023 570.469,573.023 570.938,573.023 570.938,573.023 570.938,573.023 570.938,573.023 571.406,545.422 571.406,545.422 571.875,545.422 571.875,545.422 571.875,573.023 572.344,545.422 572.344,545.422 572.812,545.422 572.812,545.422 573.281,517.82 573.281,545.422 573.281,545.422 573.281,545.422 573.75,545.422 573.75,545.422 574.219,545.422 574.219,545.422 574.688,573.023 574.688,573.023 575.156,573.023 575.156,545.422 575.156,545.422 575.156,545.422 575.156,545.422 575.625,545.422 575.625,545.422 576.094,545.422 576.094,545.422 576.562,545.422 576.562,517.82 577.031,545.422 577.031,517.82 577.031,517.82 577.031,517.82 577.5,517.82 577.5,517.82 577.5,517.82 577.969,517.82 577.969,517.82 578.438,517.82 578.438,517.82 578.906,517.82 578.906,517.82 579.375,545.422 579.375,545.422 579.375,545.422 579.375,545.422 579.844,545.422 579.844,545.422 580.312,545.422 580.312,545.422 580.781,545.422 580.781,545.422 580.781,545.422 581.25,545.422 581.25,545.422 581.25,545.422 581.25,545.422 581.719,545.422 581.719,545.422 582.188,545.422 582.188,545.422 582.656,545.422 582.656,573.023 583.125,545.422 583.125,545.422 583.125,573.023 583.125,545.422 583.125,545.422 583.594,545.422 583.594,545.422 584.062,545.422 584.062,545.422 584.531,545.422 584.531,545.422 585,517.82 585,517.82 585.469,517.82 585.469,517.82 585.469,517.82 585.469,517.82 585.938,517.82 585.938,517.82 586.406,517.82 586.406,517.82 586.406,517.82 586.875,517.82 586.875,517.82 587.344,517.82 587.344,517.82 587.344,517.82 587.344,517.82 587.812,517.82 587.812,517.82 588.281,517.82 588.281,517.82 588.75,517.82 588.75,517.82 589.219,517.82 589.219,517.82 589.219,517.82 589.219,517.82 589.219,517.82 589.688,545.422 589.688,517.82 590.156,545.422 590.156,545.422 590.625,545.422 590.625,545.422 591.094,545.422 591.094,545.422 591.562,545.422 591.562,545.422 591.562,545.422 591.562,545.422 592.031,517.82 592.031,517.82 592.031,517.82 592.5,517.82 592.5,517.82 592.969,517.82 592.969,490.219 593.438,462.618 593.438,462.618 593.438,462.618 593.438,462.618 593.906,462.618 593.906,462.618 594.375,462.618 594.375,462.618 594.844,462.618 594.844,462.618 594.844,435.016 595.312,435.016 595.312,462.618 595.312,462.618 595.312,490.219 595.781,490.219 595.781,490.219 596.25,490.219 596.25,490.219 596.719,490.219 596.719,490.219 597.188,490.219 597.188,490.219 597.656,490.219 597.656,490.219 597.656,490.219 597.656,490.219 597.656,490.219 598.125,490.219 598.125,490.219 598.594,462.618 598.594,462.618 599.062,462.618 599.062,490.219 599.531,490.219 599.531,490.219 599.531,490.219 599.531,490.219 600,490.219 600,490.219 600.469,490.219 600.469,490.219 600.469,490.219 600.938,490.219 600.938,517.82 601.406,517.82 601.406,517.82 601.406,517.82 601.406,517.82 601.875,517.82 601.875,517.82 602.344,517.82 602.344,490.219 602.812,490.219 602.812,490.219 603.281,490.219 603.281,517.82 603.75,517.82 603.75,517.82 603.75,517.82 603.75,517.82 603.75,517.82 604.219,517.82 604.219,517.82 604.688,517.82 604.688,517.82 605.156,517.82 605.156,517.82 605.625,517.82 605.625,545.422 605.625,545.422 605.625,545.422 606.094,545.422 606.094,545.422 606.094,517.82 606.562,517.82 606.562,517.82 607.031,545.422 607.031,517.82 607.5,517.82 607.5,517.82 607.5,517.82 607.5,517.82 607.969,517.82 607.969,517.82 608.438,517.82 608.438,517.82 608.906,517.82 608.906,517.82 609.375,517.82 609.375,517.82 609.375,517.82 609.844,517.82 609.844,517.82 609.844,490.219 609.844,490.219 610.312,490.219 610.312,490.219 610.781,490.219 610.781,490.219 611.25,490.219 611.25,490.219 611.719,490.219 611.719,517.82 611.719,517.82 611.719,517.82 611.719,517.82 612.188,517.82 612.188,517.82 612.656,517.82 612.656,517.82 613.125,517.82 613.125,517.82 613.594,517.82 613.594,490.219 613.594,490.219 613.594,490.219 614.062,462.618 614.062,462.618 614.531,462.618 614.531,462.618 615,462.618 615,462.618 615,462.618 615.469,462.618 615.469,462.618 615.938,462.618 615.938,462.618 615.938,435.016 615.938,435.016 616.406,435.016 616.406,435.016 616.875,435.016 616.875,435.016 617.344,462.618 617.344,462.618 617.812,462.618 617.812,462.618 617.812,490.219 617.812,490.219 617.812,490.219 618.281,462.618 618.281,462.618 618.75,490.219 618.75,490.219 619.219,490.219 619.219,490.219 619.688,490.219 619.688,490.219 619.688,490.219 619.688,517.82 620.156,517.82 620.156,517.82 620.625,517.82 620.625,517.82 620.625,490.219 621.094,490.219 621.094,490.219 621.562,490.219 621.562,490.219 622.031,490.219 622.031,490.219 622.031,517.82 622.031,490.219 622.5,490.219 622.5,490.219 622.969,490.219 622.969,490.219 623.438,517.82 623.438,517.82 623.906,517.82 623.906,490.219 623.906,490.219 623.906,490.219 623.906,490.219 624.375,490.219 624.375,490.219 624.844,490.219 624.844,490.219 625.312,490.219 625.312,490.219 625.781,490.219 625.781,490.219 625.781,490.219 625.781,490.219 626.25,490.219 626.25,490.219 626.25,490.219 626.719,517.82 626.719,517.82 627.188,517.82 627.188,545.422 627.656,545.422 627.656,545.422 628.125,545.422 628.125,517.82 628.125,517.82 628.125,517.82 628.594,517.82 628.594,517.82 629.062,517.82 629.062,517.82 629.062,517.82 629.531,517.82 629.531,517.82 630,517.82 630,490.219 630,490.219 630,517.82 630.469,517.82 630.469,517.82 630.938,517.82 630.938,490.219 631.406,490.219 631.406,490.219 631.875,490.219 631.875,490.219 631.875,462.618 631.875,462.618 631.875,462.618 632.344,462.618 632.344,462.618 632.812,462.618 632.812,490.219 633.281,490.219 633.281,490.219 633.75,517.82 633.75,517.82 634.219,545.422 634.219,545.422 634.219,545.422 634.219,545.422 634.688,545.422 634.688,545.422 635.156,545.422 635.156,545.422 635.156,545.422 635.625,545.422 635.625,545.422 636.094,517.82 636.094,517.82 636.094,517.82 636.094,517.82 636.562,545.422 636.562,517.82 637.031,517.82 637.031,545.422 637.5,545.422 637.5,545.422 637.969,545.422 637.969,545.422 637.969,545.422 637.969,545.422 637.969,545.422 638.438,545.422 638.438,545.422 638.906,545.422 638.906,545.422 639.375,545.422 639.375,545.422 639.844,545.422 639.844,545.422 640.312,545.422 640.312,545.422 640.312,545.422 640.312,517.82 640.312,517.82 640.781,517.82 640.781,517.82 641.25,517.82 641.25,517.82 641.719,517.82 641.719,517.82 642.188,517.82 642.188,545.422 642.188,517.82 642.188,545.422 642.656,545.422 642.656,545.422 643.125,545.422 643.125,545.422 643.594,545.422 643.594,545.422 643.594,545.422 644.062,545.422 644.062,545.422 644.062,517.82 644.062,517.82 644.531,517.82 644.531,545.422 645,545.422 645,545.422 645.469,545.422 645.469,545.422 645.938,545.422 645.938,545.422 646.406,545.422 646.406,545.422 646.406,545.422 646.406,545.422 646.406,545.422 646.875,573.023 646.875,545.422 647.344,573.023 647.344,573.023 647.812,573.023 647.812,545.422 648.281,545.422 648.281,545.422 648.281,573.023 648.281,573.023 648.75,573.023 648.75,573.023 649.219,545.422 649.219,545.422 649.219,545.422 649.688,545.422 649.688,545.422 650.156,545.422 650.156,545.422 650.156,545.422 650.156,545.422 650.625,545.422 650.625,545.422 651.094,545.422 651.094,545.422 651.562,545.422 651.562,517.82 652.031,517.82 652.031,517.82 652.031,517.82 652.5,517.82 652.5,545.422 652.5,545.422 652.5,545.422 652.969,545.422 652.969,545.422 653.438,545.422 653.438,573.023 653.906,573.023 653.906,573.023 654.375,600.625 654.375,600.625 654.375,628.226 654.375,628.226 654.844,628.226 654.844,628.226 654.844,628.226 655.312,628.226 655.312,655.826 655.781,628.226 655.781,628.226 656.25,628.226 656.25,628.226 656.25,628.226 656.25,628.226 656.719,600.625 656.719,600.625 657.188,600.625 657.188,600.625 657.656,600.625 657.656,628.226 658.125,628.226 658.125,628.226 658.125,628.226 658.594,600.625 658.594,600.625 658.594,600.625 658.594,628.226 659.062,628.226 659.062,628.226 659.531,628.226 659.531,628.226 660,628.226 660,628.226 660.469,628.226 660.469,655.826 660.469,655.826 660.469,655.826 660.469,655.826 660.938,628.226 660.938,628.226 661.406,628.226 661.406,600.625 661.875,600.625 661.875,573.023 662.344,573.023 662.344,573.023 662.344,573.023 662.344,545.422 662.812,545.422 662.812,545.422 663.281,545.422 663.281,573.023 663.281,545.422 663.75,545.422 663.75,545.422 664.219,545.422 664.219,573.023 664.688,573.023 664.688,573.023 664.688,545.422 664.688,573.023 665.156,573.023 665.156,573.023 665.625,573.023 665.625,573.023 666.094,573.023 666.094,600.625 666.562,600.625 666.562,600.625 666.562,573.023 666.562,573.023 666.562,573.023 667.031,600.625 667.031,600.625 667.5,600.625 667.5,573.023 667.969,573.023 667.969,573.023 668.438,573.023 668.438,573.023 668.438,545.422 668.438,545.422 668.906,545.422 668.906,573.023 669.375,573.023 669.375,573.023 669.375,573.023 669.844,573.023 669.844,573.023 670.312,573.023 670.312,573.023 670.781,573.023 670.781,573.023 670.781,573.023 670.781,573.023 671.25,573.023 671.25,573.023 671.719,573.023 671.719,573.023 672.188,573.023 672.188,573.023 672.188,573.023 672.656,573.023 672.656,573.023 672.656,600.625 672.656,600.625 673.125,600.625 673.125,600.625 673.594,600.625 673.594,600.625 674.062,600.625 674.062,600.625 674.531,600.625 674.531,600.625 674.531,600.625 674.531,600.625 675,600.625 675,600.625 675,628.226 675.469,628.226 675.469,628.226 675.938,628.226 675.938,628.226 676.406,600.625 676.406,628.226 676.875,628.226 676.875,600.625 676.875,628.226 676.875,600.625 677.344,600.625 677.344,600.625 677.812,573.023 677.812,573.023 677.812,573.023 678.281,600.625 678.281,573.023 678.75,600.625 678.75,600.625 678.75,600.625 678.75,600.625 679.219,600.625 679.219,600.625 679.688,600.625 679.688,600.625 680.156,600.625 680.156,600.625 680.625,628.226 680.625,600.625 680.625,600.625 680.625,600.625 680.625,600.625 681.094,600.625 681.094,600.625 681.562,600.625 681.562,628.226 682.031,628.226 682.031,628.226 682.5,628.226 682.5,628.226 682.969,628.226 682.969,628.226 682.969,628.226 682.969,628.226 683.438,628.226 683.438,628.226 683.438,628.226 683.906,628.226 683.906,655.826 684.375,655.826 684.375,628.226 684.844,628.226 684.844,628.226 684.844,628.226 684.844,628.226 685.312,628.226 685.312,628.226 685.781,628.226 685.781,628.226 686.25,628.226 686.25,628.226 686.719,628.226 686.719,628.226 686.719,628.226 686.719,628.226 686.719,628.226 687.188,628.226 687.188,628.226 687.656,628.226 687.656,628.226 688.125,655.826 688.125,655.826 688.594,655.826 688.594,655.826 689.062,655.826 689.062,655.826 689.062,655.826 689.062,655.826 689.062,628.226 689.531,628.226 689.531,655.826 690,655.826 690,655.826 690.469,655.826 690.469,655.826 690.938,655.826 690.938,655.826 690.938,655.826 690.938,655.826 691.406,655.826 691.406,628.226 691.875,655.826 691.875,628.226 692.344,628.226 692.344,628.226 692.344,600.625 692.812,600.625 692.812,600.625 692.812,600.625 692.812,600.625 693.281,600.625 693.281,600.625 693.75,600.625 693.75,600.625 694.219,600.625 694.219,600.625 694.688,600.625 694.688,600.625 695.156,600.625 695.156,628.226 695.156,628.226 695.156,628.226 695.156,628.226 695.625,628.226 695.625,628.226 696.094,628.226 696.094,628.226 696.562,655.826 696.562,655.826 697.031,655.826 697.031,655.826 697.031,655.826 697.031,655.826 697.5,655.826 697.5,683.428 697.969,655.826 697.969,683.428 697.969,655.826 698.438,655.826 698.438,655.826 698.906,655.826 698.906,628.226 698.906,655.826 698.906,628.226 699.375,628.226 699.375,628.226 699.844,655.826 699.844,628.226 700.312,655.826 700.312,628.226 700.781,600.625 700.781,600.625 700.781,573.023 701.25,600.625 701.25,600.625 701.25,600.625 701.25,600.625 701.719,628.226 701.719,600.625 702.188,600.625 702.188,600.625 713.438,655.826 713.438,628.226 713.438,628.226 713.438,655.826 713.438,655.826 713.906,655.826 714.375,655.826 714.375,628.226 714.844,655.826 714.844,655.826 715.312,655.826 715.312,655.826 715.312,655.826 715.312,628.226 715.781,628.226 715.781,628.226 716.25,655.826 716.25,655.826 716.719,655.826 716.719,655.826 717.188,683.428 717.188,683.428 717.656,655.826 717.656,655.826 717.656,655.826 717.656,655.826 718.125,655.826 718.125,655.826 718.594,655.826 718.594,655.826 719.062,655.826 719.062,655.826 719.062,655.826 719.531,655.826 719.531,655.826 719.531,655.826 719.531,655.826 720,655.826 720,683.428 720.469,655.826 720.469,683.428 720.938,683.428 720.938,683.428 721.406,655.826 721.406,683.428 721.406,655.826 721.406,655.826 721.875,655.826 721.875,655.826 722.344,655.826 722.344,683.428 722.812,655.826 722.812,655.826 723.281,655.826 723.281,655.826 723.75,655.826 723.75,628.226 723.75,628.226 723.75,655.826 724.219,628.226 724.219,628.226 724.688,628.226 724.688,628.226 724.688,628.226 725.156,628.226 725.156,600.625 725.625,628.226 725.625,628.226 725.625,628.226 725.625,628.226 726.094,628.226 726.562,600.625 726.562,600.625 727.031,600.625 727.031,600.625 727.5,600.625 727.5,600.625 727.5,628.226 727.5,628.226 727.5,628.226 727.969,628.226 727.969,628.226 728.438,628.226 728.438,628.226 728.906,628.226 728.906,655.826 729.375,655.826 729.375,655.826 729.844,655.826 729.844,655.826 729.844,628.226 729.844,628.226 730.312,628.226 730.312,628.226 730.312,628.226 730.781,628.226 731.25,600.625 731.25,600.625 731.719,600.625 731.719,600.625 731.719,600.625 731.719,600.625 732.188,573.023 732.188,573.023 732.656,573.023 732.656,573.023 733.125,573.023 733.125,573.023 733.125,573.023 733.594,600.625 733.594,600.625 733.594,628.226 733.594,628.226 734.062,655.826 734.062,655.826 734.531,655.826 735,655.826 735,628.226 735.469,655.826 735.469,655.826 735.938,655.826 735.938,655.826 735.938,655.826 735.938,655.826 735.938,655.826 736.406,655.826 736.406,683.428 736.875,683.428 736.875,683.428 737.344,683.428 737.344,683.428 737.812,683.428 737.812,683.428 737.812,683.428 737.812,711.029 738.281,683.428 738.281,683.428 738.75,655.826 738.75,683.428 738.75,683.428 739.219,655.826 739.688,655.826 739.688,655.826 739.688,655.826 739.688,655.826 740.156,655.826 740.156,655.826 740.625,655.826 740.625,655.826 741.094,628.226 741.094,655.826 741.562,655.826 741.562,655.826 742.031,655.826 742.031,655.826 742.031,655.826 742.031,655.826 742.031,655.826 742.5,655.826 742.5,628.226 742.969,628.226 742.969,655.826 743.438,655.826 743.438,655.826 743.906,628.226 743.906,655.826 743.906,655.826 743.906,628.226 744.375,655.826 744.375,683.428 744.375,655.826 744.844,655.826 744.844,655.826 745.312,655.826 745.312,655.826 745.781,655.826 745.781,628.226 745.781,655.826 745.781,628.226 746.25,655.826 746.25,655.826 746.719,628.226 746.719,655.826 747.188,655.826 747.188,655.826 747.656,655.826 747.656,655.826 747.656,628.226 748.125,655.826 748.125,655.826 748.125,655.826 748.125,655.826 748.594,628.226 748.594,628.226 749.062,655.826 749.062,655.826 749.531,655.826 749.531,655.826 750,628.226 750,628.226 750,628.226 750,628.226 750,628.226 750.469,628.226 750.938,628.226 750.938,628.226 751.406,600.625 751.406,600.625 751.875,600.625 751.875,628.226 751.875,628.226 751.875,628.226 752.344,628.226 752.344,628.226 752.812,628.226 752.812,628.226 753.281,628.226 753.281,628.226 753.281,628.226 753.75,628.226 753.75,655.826 754.219,628.226 754.219,655.826 754.219,628.226 754.219,628.226 754.688,628.226 754.688,628.226 755.156,628.226 755.625,600.625 755.625,628.226 756.094,628.226 756.094,628.226 756.094,628.226 756.094,628.226 756.094,628.226 756.562,600.625 756.562,600.625 757.031,600.625 757.031,600.625 757.5,600.625 757.5,600.625 757.969,600.625 757.969,600.625 757.969,600.625 757.969,600.625 758.438,600.625 758.438,600.625 758.906,600.625 758.906,600.625 758.906,628.226 759.375,628.226 759.375,628.226 759.844,628.226 759.844,628.226 760.312,628.226 760.312,628.226 760.312,628.226 760.312,628.226 760.781,600.625 760.781,600.625 761.25,600.625 761.25,600.625 761.719,600.625 761.719,600.625 761.719,600.625 762.188,600.625 762.188,573.023 762.188,600.625 762.188,600.625 762.656,600.625 762.656,573.023 763.125,600.625 763.125,600.625 763.594,600.625 763.594,600.625 764.062,600.625 764.062,600.625 764.062,600.625 764.062,600.625 764.531,628.226 764.531,628.226 764.531,628.226 765,628.226 765,628.226 765.469,628.226 765.469,628.226 765.938,628.226 765.938,628.226 766.406,628.226 766.406,628.226 766.406,628.226 766.406,628.226 766.875,600.625 766.875,600.625 767.344,600.625 767.344,600.625 767.344,600.625 767.812,600.625 767.812,600.625 768.281,600.625 768.281,600.625 768.281,573.023 768.281,600.625 768.75,600.625 765,600.625 765,600.625 765.469,600.625 765.469,600.625 765.938,600.625 765.938,628.226 766.406,628.226 766.406,628.226 766.406,600.625 766.406,628.226 766.875,628.226 766.875,628.226 767.344,628.226 767.344,628.226 767.344,628.226 767.812,628.226 767.812,600.625 768.281,600.625 768.281,573.023 768.281,573.023 768.281,573.023 768.75,573.023 768.75,545.422 769.219,545.422 769.219,545.422 769.688,545.422 769.688,545.422 770.156,517.82 770.156,517.82 770.156,517.82 770.156,490.219 770.156,490.219 770.625,490.219 770.625,490.219 771.094,462.618 771.094,462.618 771.562,462.618 771.562,462.618 772.031,462.618 772.031,435.016 772.5,435.016 772.5,435.016 772.5,462.618 772.5,462.618 772.969,462.618 772.969,462.618 772.969,462.618 773.438,490.219 773.438,462.618 773.906,462.618 773.906,490.219 774.375,490.219 774.375,490.219 774.375,490.219 774.375,490.219 774.844,490.219 774.844,490.219 775.312,490.219 775.312,490.219 775.781,490.219 775.781,490.219 776.25,490.219 776.25,517.82 776.25,517.82 776.25,517.82 776.25,517.82 776.719,490.219 776.719,517.82 777.188,517.82 777.188,517.82 777.656,545.422 777.656,545.422 778.125,545.422 778.125,545.422 778.594,545.422 778.594,545.422 778.594,573.023 778.594,545.422 778.594,545.422 779.062,573.023 779.062,573.023 779.531,573.023 779.531,545.422 780,545.422 780,545.422 780.469,545.422 780.469,545.422 780.469,545.422 780.469,573.023 780.938,573.023 780.938,545.422 781.406,573.023 781.406,573.023 781.406,545.422 781.875,545.422 781.875,545.422 782.344,573.023 782.344,600.625 782.344,600.625 782.344,600.625 782.812,573.023 782.812,573.023 783.281,573.023 783.281,573.023 783.75,573.023 783.75,600.625 784.219,600.625 784.219,821.435 784.688,600.625 784.688,600.625 784.688,600.625 784.688,600.625 784.688,600.625 785.156,600.625 785.156,600.625 785.625,600.625 785.625,600.625 786.094,600.625 786.094,600.625 786.562,600.625 786.562,600.625 786.562,600.625 786.562,600.625 787.031,600.625 787.5,600.625 787.5,600.625 787.5,600.625 787.969,628.226 787.969,628.226 788.438,628.226 788.438,600.625 788.438,628.226 788.438,600.625 788.906,628.226 788.906,628.226 789.375,628.226 789.375,628.226 789.844,655.826 789.844,655.826 790.312,655.826 790.312,655.826 790.312,655.826 790.781,655.826 790.781,628.226 790.781,655.826 790.781,628.226 791.25,628.226 791.25,628.226 791.719,628.226 791.719,628.226 792.188,628.226 792.188,628.226 792.656,628.226 792.656,628.226 792.656,628.226 792.656,600.625 792.656,600.625 793.125,600.625 793.125,600.625 793.594,600.625 793.594,600.625 794.062,600.625 794.062,600.625 794.531,600.625 794.531,600.625 794.531,600.625 794.531,600.625 795,600.625 795,573.023 795.469,573.023 795.469,573.023 795.938,573.023 795.938,573.023 795.938,573.023 796.406,573.023 796.406,573.023 796.875,573.023 796.875,573.023 796.875,573.023 796.875,600.625 797.344,600.625 797.344,600.625 797.812,600.625 797.812,600.625 798.281,600.625 798.281,600.625 798.75,600.625 798.75,600.625 798.75,600.625 798.75,600.625 798.75,600.625 799.219,600.625 799.219,600.625 799.688,600.625 799.688,600.625 800.156,600.625 800.156,600.625 800.625,600.625 800.625,600.625 800.625,600.625 800.625,600.625 801.094,573.023 801.094,573.023 801.562,573.023 801.562,573.023 801.562,573.023 802.031,573.023 802.031,573.023 802.5,573.023 802.5,573.023 802.969,573.023 802.969,600.625 802.969,573.023 802.969,573.023 803.438,600.625 803.438,573.023 803.906,600.625 803.906,600.625 804.375,600.625 804.375,573.023 804.375,573.023 804.844,573.023 804.844,573.023 804.844,573.023 804.844,573.023 805.312,573.023 805.312,573.023 805.781,573.023 805.781,573.023 806.25,573.023 806.25,573.023 806.719,573.023 806.719,600.625 806.719,600.625 806.719,600.625 807.188,600.625 807.188,600.625 807.188,600.625 807.656,600.625 807.656,600.625 808.125,600.625 808.125,600.625 808.594,600.625 808.594,573.023 809.062,600.625 809.062,600.625 809.062,600.625 809.062,600.625 809.531,628.226 809.531,628.226 810,628.226 810,628.226 810.469,628.226 810.469,655.826 810.469,628.226 810.938,655.826 810.938,628.226 810.938,628.226 810.938,628.226 811.406,655.826 811.406,655.826 811.875,628.226 811.875,628.226 812.344,628.226 812.344,628.226 812.812,628.226 812.812,628.226 812.812,628.226 812.812,628.226 812.812,628.226 813.281,628.226 813.281,628.226 813.75,628.226 813.75,628.226 814.219,600.625 814.219,600.625 814.688,600.625 814.688,600.625 815.156,600.625 815.156,600.625 815.156,600.625 815.156,628.226 815.625,628.226 815.625,628.226 816.094,655.826 816.094,655.826 816.094,628.226 816.562,628.226 816.562,628.226 817.031,628.226 817.031,628.226 817.031,655.826 817.031,628.226 817.5,628.226 817.5,655.826 817.969,655.826 817.969,655.826 818.438,655.826 818.438,655.826 818.906,655.826 818.906,628.226 818.906,655.826 818.906,628.226 818.906,628.226 819.375,628.226 819.375,628.226 819.844,600.625 819.844,628.226 820.312,628.226 820.312,628.226 820.781,628.226 820.781,628.226 821.25,628.226 821.25,628.226 821.25,600.625 821.25,600.625 821.719,600.625 821.719,600.625 821.719,573.023 822.188,573.023 822.188,573.023 822.656,573.023 822.656,545.422 823.125,545.422 823.125,573.023 823.125,545.422 823.125,545.422 823.594,545.422 823.594,545.422 824.062,545.422 824.062,545.422 824.531,545.422 824.531,545.422 824.531,545.422 825,545.422 825,545.422 825,545.422 825,545.422 825.469,545.422 825.469,545.422 825.938,545.422 825.938,545.422 826.406,545.422 826.406,573.023 826.875,573.023 826.875,573.023 827.344,545.422 827.344,573.023 827.344,545.422 827.344,545.422 827.344,545.422 827.812,545.422 827.812,545.422 828.281,573.023 828.281,573.023 828.75,573.023 828.75,573.023 829.219,573.023 829.219,573.023 829.219,573.023 829.219,573.023 829.688,573.023 829.688,573.023 830.156,573.023 830.156,573.023 830.156,573.023 830.625,573.023 830.625,573.023 831.094,573.023 831.094,573.023 831.094,573.023 831.094,573.023 831.562,573.023 831.562,573.023 832.031,573.023 832.031,573.023 832.5,573.023 832.5,573.023 832.969,573.023 832.969,600.625 833.438,600.625 833.438,600.625 833.438,600.625 833.438,600.625 833.438,600.625 833.906,600.625 833.906,600.625 834.375,600.625 834.375,600.625 834.844,573.023 834.844,600.625 835.312,600.625 835.312,573.023 835.312,600.625 835.312,573.023 835.781,573.023 835.781,573.023 835.781,573.023 836.25,573.023 836.25,573.023 836.719,545.422 836.719,545.422 837.188,545.422 837.188,573.023 837.188,545.422 837.188,545.422 837.656,545.422 837.656,545.422 838.125,545.422 838.125,545.422 838.594,545.422 838.594,545.422 839.062,545.422 839.062,545.422 839.062,545.422 839.531,545.422 839.531,545.422 839.531,517.82 839.531,517.82 840,517.82 840,545.422 840.469,545.422 840.469,545.422 840.938,545.422 840.938,545.422 841.406,545.422 841.406,545.422 841.406,545.422 841.406,545.422 841.406,545.422 841.875,545.422 841.875,545.422 842.344,545.422 842.344,545.422 842.812,545.422 842.812,545.422 843.281,545.422 843.281,545.422 843.281,545.422 843.281,545.422 843.75,545.422 843.75,545.422 844.219,545.422 844.219,545.422 844.688,545.422 844.688,545.422 844.688,545.422 845.156,545.422 845.156,545.422 845.625,545.422 845.625,545.422 845.625,545.422 845.625,545.422 846.094,517.82 846.094,517.82 846.562,517.82 846.562,517.82 847.031,517.82 847.031,517.82 847.5,517.82 847.5,517.82 847.5,517.82 847.5,545.422 847.5,545.422 847.969,545.422 847.969,545.422 848.438,545.422 848.438,545.422 848.906,545.422 848.906,545.422 849.375,545.422 849.375,545.422 849.375,573.023 849.375,545.422 849.844,545.422 849.844,545.422 850.312,545.422 850.312,545.422 850.312,545.422 850.781,545.422 851.25,545.422 851.25,573.023 851.719,573.023 851.719,573.023 851.719,573.023 851.719,573.023 852.188,545.422 852.188,545.422 852.656,545.422 852.656,545.422 853.125,517.82 853.125,545.422 853.125,545.422 853.594,545.422 853.594,545.422 853.594,545.422 853.594,545.422 854.062,517.82 854.062,517.82 854.531,517.82 854.531,517.82 855,517.82 855,517.82 855.469,517.82 855.469,517.82 855.469,517.82 855.469,517.82 855.938,490.219 855.938,490.219 855.938,490.219 856.406,490.219 856.406,490.219 856.875,490.219 856.875,517.82 857.344,490.219 857.344,517.82 857.812,545.422 857.812,545.422 857.812,545.422 857.812,545.422 858.281,545.422 858.281,545.422 858.75,545.422 858.75,545.422 858.75,545.422 859.219,545.422 859.219,545.422 859.688,545.422 859.688,545.422 859.688,545.422 859.688,545.422 860.156,545.422 860.156,545.422 860.625,517.82 860.625,517.82 861.094,517.82 861.094,517.82 861.562,517.82 861.562,517.82 861.562,517.82 861.562,517.82 861.562,545.422 862.031,545.422 862.031,545.422 862.5,545.422 862.5,545.422 862.969,545.422 862.969,545.422 863.438,545.422 863.438,573.023 863.906,573.023 863.906,600.625 863.906,600.625 863.906,628.226 864.375,628.226 864.375,628.226 864.375,628.226 864.844,628.226 864.844,600.625 865.312,600.625 865.312,600.625 865.781,600.625 865.781,600.625 865.781,600.625 865.781,600.625 866.25,600.625 866.25,628.226 866.719,600.625 866.719,600.625 867.188,628.226 867.188,628.226 867.656,628.226 867.656,628.226 867.656,628.226 867.656,628.226 867.656,628.226 868.125,628.226 868.125,628.226 868.594,628.226 868.594,628.226 869.062,628.226 869.062,628.226 869.531,600.625 869.531,600.625 870,600.625 870,573.023 870,573.023 870,545.422 870,545.422 870.469,545.422 870.469,545.422 870.938,545.422 870.938,545.422 871.406,545.422 871.406,545.422 871.875,545.422 871.875,545.422 871.875,545.422 871.875,545.422 872.344,545.422 872.344,517.82 872.812,517.82 872.812,517.82 873.281,545.422 873.281,545.422 873.281,545.422 873.75,545.422 873.75,545.422 873.75,573.023 873.75,573.023 874.219,600.625 874.219,600.625 874.688,600.625 874.688,600.625 875.156,628.226 875.156,628.226 875.625,628.226 875.625,628.226 876.094,628.226 876.094,655.826 876.094,655.826 876.094,655.826 876.094,655.826 876.562,655.826 876.562,655.826 877.031,655.826 877.031,655.826 877.5,655.826 877.5,628.226 877.969,628.226 877.969,628.226 877.969,628.226 877.969,655.826 878.438,628.226 878.438,628.226 878.906,628.226 878.906,628.226 878.906,628.226 879.375,655.826 879.375,655.826 879.844,628.226 879.844,628.226 880.312,600.625 880.312,600.625 880.312,600.625 880.312,600.625 880.781,600.625 880.781,600.625 881.25,600.625 881.25,573.023 881.719,600.625 881.719,600.625 881.719,600.625 882.188,600.625 882.188,600.625 882.188,628.226 882.188,628.226 882.656,628.226 882.656,628.226 883.125,655.826 883.125,628.226 883.594,628.226 883.594,628.226 884.062,600.625 884.062,600.625 884.062,573.023 884.062,573.023 884.531,545.422 884.531,573.023 884.531,573.023 885,573.023 885,573.023 885.469,573.023 885.469,573.023 885.938,573.023 885.938,573.023 886.406,573.023 886.406,573.023 886.406,573.023 886.406,573.023 886.875,545.422 886.875,545.422 887.344,573.023 887.344,573.023 887.344,600.625 887.812,600.625 887.812,628.226 888.281,628.226 888.281,600.625 888.281,600.625 888.281,600.625 888.75,600.625 888.75,600.625 889.219,573.023 889.219,573.023 889.688,573.023 889.688,573.023 890.156,573.023 890.156,573.023 890.156,573.023 890.156,573.023 890.156,573.023 890.625,600.625 890.625,600.625 891.094,628.226 891.094,628.226 891.562,655.826 891.562,655.826 892.031,655.826 892.031,628.226 892.5,655.826 892.5,628.226 892.5,628.226 892.5,628.226 892.969,628.226 892.969,628.226 892.969,600.625 893.438,628.226 893.438,628.226 893.906,628.226 893.906,628.226 894.375,600.625 894.375,600.625 894.375,600.625 894.375,573.023 894.844,573.023 894.844,573.023 895.312,573.023 895.312,600.625 895.781,600.625 895.781,600.625 896.25,600.625 896.25,600.625 896.25,600.625 896.25,600.625 896.25,573.023 896.719,573.023 896.719,573.023 897.188,573.023 897.188,573.023 897.656,600.625 897.656,600.625 898.125,600.625 898.125,600.625 898.594,600.625 898.594,600.625 898.594,600.625 898.594,573.023 898.594,573.023 899.062,573.023 899.062,573.023 899.531,573.023 899.531,545.422 900,545.422 900,545.422 900.469,545.422 900.469,545.422 900.469,545.422 900.469,545.422 900.938,573.023 900.938,573.023 901.406,573.023 901.406,545.422 901.875,545.422 901.875,545.422 901.875,545.422 902.344,545.422 902.344,545.422 902.344,545.422 902.344,573.023 902.812,573.023 902.812,573.023 903.281,573.023 903.281,573.023 903.75,573.023 903.75,573.023 904.219,573.023 904.219,545.422 904.688,545.422 904.688,573.023 904.688,573.023 904.688,573.023 904.688,573.023 905.156,573.023 905.156,573.023 905.625,573.023 905.625,573.023 906.094,573.023 906.094,573.023 906.562,573.023 906.562,573.023 906.562,573.023 906.562,573.023 907.031,573.023 907.031,573.023 907.5,573.023 907.5,573.023 907.5,573.023 907.969,573.023 907.969,545.422 908.438,545.422 908.438,545.422 908.438,545.422 908.906,545.422 908.906,545.422 909.375,545.422 909.375,545.422 909.844,545.422 909.844,517.82 910.312,545.422 910.312,545.422 910.312,545.422 910.781,545.422 910.781,573.023 910.781,573.023 910.781,573.023 911.25,573.023 911.25,573.023 911.719,600.625 911.719,600.625 912.188,600.625 912.188,600.625 912.656,573.023 912.656,573.023 912.656,573.023 912.656,573.023 913.125,573.023 913.125,573.023 913.125,545.422 913.594,545.422 913.594,573.023 914.062,545.422 914.062,545.422 914.531,545.422 914.531,545.422 914.531,545.422 914.531,545.422 915,573.023 915,573.023 915.469,573.023 915.469,573.023 915.938,573.023 915.938,573.023 915.938,573.023 916.406,573.023 916.406,573.023 916.875,545.422 916.875,545.422 916.875,545.422 916.875,545.422 917.344,545.422 917.344,545.422 917.812,545.422 917.812,545.422 918.281,573.023 918.281,545.422 918.75,545.422 918.75,545.422 918.75,517.82 918.75,545.422 918.75,517.82 919.219,517.82 919.219,517.82 919.688,517.82 919.688,545.422 920.156,545.422 920.156,545.422 920.625,573.023 920.625,545.422 920.625,545.422 920.625,545.422 921.094,545.422 921.094,545.422 921.562,545.422 921.562,545.422 921.562,545.422 922.031,545.422 922.031,545.422 922.5,545.422 922.5,545.422 922.969,517.82 922.969,517.82 922.969,517.82 922.969,545.422 923.438,517.82 923.438,517.82 923.906,517.82 923.906,517.82 924.375,545.422 924.375,545.422 924.844,545.422 924.844,545.422 924.844,545.422 924.844,545.422 924.844,545.422 925.312,517.82 925.312,517.82 925.781,517.82 925.781,545.422 926.25,545.422 926.25,545.422 926.719,545.422 926.719,517.82 926.719,545.422 926.719,545.422 927.188,545.422 927.188,545.422 927.188,517.82 927.656,517.82 927.656,517.82 928.125,517.82 928.125,545.422 928.594,545.422 928.594,545.422 929.062,545.422 929.062,573.023 929.062,573.023 929.062,573.023 929.531,573.023 929.531,573.023 930,573.023 930,573.023 930.469,573.023 930.469,573.023 930.469,545.422 930.938,545.422 930.938,545.422 930.938,545.422 930.938,545.422 931.406,545.422 931.406,545.422 931.875,545.422 931.875,545.422 932.344,545.422 932.344,573.023 932.812,573.023 932.812,545.422 932.812,545.422 932.812,545.422 932.812,545.422 933.281,545.422 933.281,545.422 933.75,545.422 933.75,545.422 934.219,517.82 934.219,517.82 934.688,545.422 934.688,545.422 935.156,545.422 935.156,545.422 935.156,545.422 935.156,545.422 935.625,545.422 935.625,545.422 936.094,545.422 936.094,545.422 936.094,545.422 936.562,573.023 936.562,573.023 937.031,545.422 937.031,545.422 937.031,573.023 937.031,573.023 937.5,573.023 937.5,573.023 937.969,545.422 937.969,545.422 938.438,545.422 938.438,545.422 938.906,545.422 938.906,545.422 938.906,517.82 938.906,517.82 938.906,517.82 939.375,517.82 939.375,517.82 939.844,517.82 939.844,517.82 940.312,517.82 940.312,517.82 940.781,517.82 940.781,545.422 941.25,517.82 941.25,517.82 941.25,517.82 941.25,517.82 941.719,517.82 941.719,517.82 941.719,517.82 942.188,517.82 942.188,545.422 942.656,545.422 942.656,545.422 943.125,517.82 943.125,517.82 943.125,545.422 943.125,545.422 943.594,545.422 943.594,545.422 944.062,545.422 944.062,517.82 944.531,545.422 944.531,545.422 944.531,545.422 945,545.422 945,545.422 945,545.422 945,545.422 945.469,545.422 945.469,545.422 945.938,545.422 945.938,545.422 946.406,545.422 946.406,545.422 946.875,545.422 946.875,573.023 947.344,545.422 947.344,545.422 947.344,545.422 947.344,573.023 947.344,545.422 947.812,545.422 947.812,545.422 948.281,545.422 948.281,573.023 948.75,573.023 948.75,573.023 949.219,573.023 949.219,573.023 949.219,573.023 949.219,573.023 949.688,573.023 949.688,573.023 950.156,573.023 950.156,573.023 950.625,573.023 950.625,573.023 950.625,573.023 951.094,573.023 951.094,573.023 951.094,545.422 951.094,573.023 951.562,545.422 951.562,545.422 952.031,545.422 952.031,545.422 952.5,545.422 952.5,545.422 952.969,545.422 952.969,545.422 953.438,545.422 953.438,545.422 953.438,545.422 953.438,573.023 953.438,545.422 953.906,573.023 953.906,573.023 954.375,573.023 954.375,573.023 954.844,573.023 954.844,545.422 955.312,573.023 955.312,573.023 955.312,545.422 955.312,545.422 955.781,545.422 955.781,545.422 955.781,545.422 956.25,545.422 956.25,545.422 956.719,545.422 956.719,573.023 957.188,573.023 957.188,573.023 957.188,573.023 957.188,573.023 957.656,573.023 957.656,573.023 958.125,573.023 958.125,545.422 958.594,573.023 958.594,573.023 959.062,545.422 959.062,545.422 959.062,545.422 959.531,545.422 959.531,545.422 959.531,545.422 959.531,545.422 960,545.422 960,545.422 960.469,545.422 960.469,545.422 960.938,545.422 960.938,545.422 961.406,545.422 961.406,545.422 961.406,545.422 961.406,545.422 961.875,545.422 961.875,545.422 961.875,545.422 962.344,545.422 962.344,545.422 962.812,545.422 962.812,545.422 963.281,573.023 963.281,573.023 963.281,573.023 963.281,573.023 963.75,545.422 963.75,545.422 964.219,545.422 964.219,545.422 964.688,545.422 964.688,545.422 964.688,545.422 965.156,545.422 965.156,545.422 965.625,545.422 965.625,545.422 965.625,545.422 965.625,545.422 966.094,545.422 966.094,545.422 966.562,545.422 966.562,545.422 967.031,545.422 967.031,545.422 967.5,573.023 967.5,573.023 967.5,573.023 967.5,573.023 967.5,573.023 967.969,573.023 967.969,600.625 968.438,600.625 968.438,628.226 968.906,628.226 968.906,628.226 969.375,628.226 969.375,628.226 969.375,628.226 969.375,628.226 969.844,600.625 969.844,600.625 970.312,600.625 970.312,600.625 970.312,573.023 970.781,573.023 970.781,573.023 971.25,545.422 971.25,545.422 971.719,545.422 971.719,545.422 971.719,545.422 971.719,545.422 972.188,545.422 972.188,545.422 972.656,545.422 972.656,545.422 973.125,545.422 973.125,545.422 973.594,545.422 973.594,545.422 973.594,545.422 973.594,545.422 973.594,545.422 974.062,545.422 974.062,545.422 974.531,545.422 974.531,545.422 975,545.422 975,573.023 975.469,545.422 975.469,573.023 975.469,573.023 975.469,573.023 975.938,573.023 975.938,573.023 975.938,573.023 976.406,573.023 976.406,545.422 976.875,545.422 976.875,545.422 977.344,545.422 977.344,545.422 977.812,545.422 977.812,545.422 977.812,573.023 977.812,545.422 978.281,573.023 978.281,545.422 978.75,545.422 978.75,545.422 979.219,573.023 979.219,573.023 979.219,573.023 979.688,600.625 979.688,573.023 979.688,573.023 979.688,573.023 980.156,573.023 980.156,573.023 980.625,573.023 980.625,573.023 981.094,600.625 981.094,600.625 981.562,600.625 981.562,600.625 981.562,600.625 981.562,600.625 981.562,600.625 982.031,600.625 982.031,600.625 982.5,600.625 982.5,600.625 982.969,600.625 982.969,600.625 983.438,600.625 983.438,573.023 983.906,573.023 983.906,573.023 983.906,573.023 983.906,545.422 984.375,545.422 984.375,545.422 984.844,545.422 984.844,545.422 984.844,517.82 985.312,545.422 985.312,517.82 985.781,517.82 985.781,545.422 985.781,545.422 985.781,545.422 986.25,545.422 986.25,545.422 986.719,545.422 986.719,545.422 987.188,517.82 987.188,517.82 987.656,517.82 987.656,517.82 987.656,517.82 987.656,517.82 987.656,517.82 988.125,517.82 988.125,545.422 988.594,545.422 988.594,545.422 989.062,545.422 989.062,545.422 989.531,545.422 989.531,545.422 990,545.422 990,545.422 990,545.422 990,545.422 990.469,545.422 990.469,517.82 990.469,545.422 990.938,545.422 990.938,545.422 991.406,545.422 991.406,545.422 991.875,545.422 991.875,545.422 991.875,545.422 991.875,545.422 992.344,545.422 992.344,545.422 992.812,545.422 992.812,545.422 993.281,545.422 993.281,545.422 993.281,545.422 993.75,545.422 993.75,545.422 993.75,545.422 993.75,545.422 994.219,545.422 994.219,545.422 994.688,545.422 994.688,545.422 995.156,545.422 995.156,573.023 995.625,545.422 995.625,545.422 996.094,573.023 996.094,573.023 996.094,573.023 996.094,573.023 996.094,573.023 996.562,573.023 996.562,600.625 997.031,573.023 997.031,573.023 997.5,573.023 997.5,573.023 997.969,573.023 997.969,573.023 997.969,573.023 997.969,600.625 998.438,628.226 998.438,628.226 998.906,628.226 998.906,628.226 998.906,628.226 999.375,600.625 999.375,600.625 999.844,628.226 999.844,628.226 999.844,628.226 999.844,628.226 1000.31,628.226 1000.31,628.226 1000.78,628.226 1000.78,628.226 1001.25,600.625 1001.25,600.625 1001.72,600.625 1001.72,600.625 1002.19,573.023 1002.19,573.023 1002.19,573.023 1002.19,573.023 1002.19,600.625 1002.66,573.023 1002.66,573.023 1003.12,573.023 1003.12,573.023 1003.59,573.023 1003.59,573.023 1004.06,545.422 1004.06,545.422 1004.06,545.422 1004.06,545.422 1004.53,545.422 1004.53,573.023 1004.53,573.023 1005,573.023 1005,573.023 1005.47,545.422 1005.47,573.023 1005.94,573.023 1005.94,573.023 1005.94,573.023 1005.94,573.023 1006.41,600.625 1006.41,573.023 1006.88,600.625 1006.88,600.625 1007.34,600.625 1007.34,628.226 1007.81,628.226 1007.81,628.226 1007.81,628.226 1008.28,600.625 1008.28,600.625 1008.28,600.625 1008.28,600.625 1008.75,573.023 1008.75,573.023 1009.22,573.023 1009.22,573.023 1009.69,545.422 1009.69,545.422 1010.16,545.422 1010.16,545.422 1010.16,545.422 1010.16,545.422 1010.16,545.422 1010.62,545.422 1010.62,545.422 1011.09,545.422 1011.09,545.422 1011.56,545.422 1011.56,545.422 1012.03,545.422 1012.03,545.422 1012.03,545.422 1012.03,545.422 1012.5,545.422 1012.5,545.422 1012.97,545.422 1012.97,545.422 1013.44,573.023 1013.44,545.422 1013.44,545.422 1013.91,545.422 1013.91,545.422 1014.38,573.023 1014.38,545.422 1014.38,545.422 1014.38,545.422 1014.84,545.422 1014.84,573.023 1015.31,545.422 1015.31,573.023 1015.78,573.023 1015.78,600.625 1016.25,600.625 1016.25,600.625 1016.25,600.625 1016.25,573.023 1016.25,573.023 1016.72,573.023 1016.72,573.023 1017.19,545.422 1017.19,545.422 1017.66,545.422 1017.66,545.422 1018.12,545.422 1018.12,545.422 1018.12,545.422 1018.12,545.422 1018.59,545.422 1018.59,545.422 1019.06,545.422 1019.06,545.422 1019.06,545.422 1019.53,517.82 1019.53,545.422 1020,545.422 1020,545.422 1020.47,545.422 1020.47,517.82 1020.47,545.422 1020.47,545.422 1020.94,545.422 1020.94,545.422 1021.41,545.422 1021.41,545.422 1021.88,545.422 1021.88,545.422 1021.88,545.422 1022.34,545.422 1022.34,545.422 1022.34,545.422 1022.34,545.422 1022.81,545.422 1022.81,573.023 1023.28,573.023 1023.28,545.422 1023.75,545.422 1023.75,545.422 1024.22,545.422 1024.22,545.422 1024.22,545.422 1024.22,545.422 1024.69,545.422 1024.69,545.422 1024.69,517.82 1025.16,517.82 1025.16,517.82 1025.62,517.82 1025.62,517.82 1026.09,490.219 1026.09,490.219 1026.56,490.219 1026.56,490.219 1026.56,462.618 1026.56,462.618 1027.03,462.618 1027.03,490.219 1027.5,490.219 1027.5,490.219 1027.5,490.219 1027.97,517.82 1027.97,545.422 1028.44,545.422 1028.44,545.422 1028.44,517.82 1028.44,517.82 1028.91,517.82 1028.91,517.82 1029.38,517.82 1029.38,517.82 1029.84,517.82 1029.84,517.82 1030.31,517.82 1030.31,517.82 1030.31,545.422 1030.31,545.422 1030.31,545.422 1030.78,545.422 1030.78,545.422 1031.25,545.422 1031.25,545.422 1031.72,545.422 1031.72,545.422 1032.19,545.422 1032.19,545.422 1032.66,517.82 1032.66,517.82 1032.66,517.82 1032.66,517.82 1033.12,517.82 1033.12,517.82 1033.12,517.82 1033.59,545.422 1033.59,545.422 1034.06,545.422 1034.06,573.023 1034.53,573.023 1034.53,573.023 1034.53,545.422 1034.53,545.422 1035,545.422 1035,545.422 1035.47,545.422 1035.47,545.422 1035.94,545.422 1035.94,545.422 1036.41,545.422 1036.41,545.422 1036.41,545.422 1036.41,545.422 1036.41,545.422 1036.88,545.422 1036.88,545.422 1037.34,573.023 1037.34,545.422 1037.81,545.422 1037.81,545.422 1038.28,545.422 1038.75,517.82 1038.75,545.422 1038.75,545.422 1038.75,517.82 1038.75,517.82 1039.22,517.82 1039.22,545.422 1039.69,545.422 1039.69,545.422 1040.16,545.422 1040.16,545.422 1040.62,545.422 1040.62,573.023 1040.62,573.023 1040.62,573.023 1041.09,573.023 1041.09,545.422 1041.56,545.422 1041.56,573.023 1042.03,545.422 1042.03,545.422 1042.03,545.422 1042.97,545.422 1042.97,573.023 1043.44,573.023 1043.44,573.023 1043.91,600.625 1043.91,573.023 1044.38,573.023 1044.84,545.422 1044.84,545.422 1044.84,545.422 1044.84,545.422 1045.31,545.422 1045.31,545.422 1045.78,545.422 1045.78,545.422 1046.25,545.422 1046.25,545.422 1046.72,545.422 1046.72,545.422 1046.72,545.422 1047.19,545.422 1047.19,545.422 1047.66,545.422 1047.66,545.422 1047.66,545.422 1048.12,545.422 1048.12,545.422 1048.59,545.422 1048.59,545.422 1049.06,545.422 1049.06,545.422 1049.06,545.422 1049.06,545.422 1049.53,517.82 1049.53,517.82 1050,517.82 1050,517.82 1050.47,517.82 1050.47,517.82 1050.47,517.82 1050.94,517.82 1050.94,517.82 1050.94,517.82 1050.94,517.82 1051.41,517.82 1051.41,517.82 1051.88,517.82 1051.88,517.82 1052.34,517.82 1052.34,517.82 1052.81,545.422 1052.81,545.422 1052.81,545.422 1052.81,517.82 1053.28,545.422 1053.28,545.422 1053.28,545.422 1053.75,545.422 1053.75,517.82 1054.22,545.422 1054.22,545.422 1054.69,545.422 1054.69,545.422 1055.16,545.422 1055.16,545.422 1055.62,517.82 1056.09,517.82 1056.09,545.422 1056.09,517.82 1056.56,517.82 1057.03,545.422 1057.03,517.82 1057.5,545.422 1057.5,545.422 1057.97,545.422 1057.97,517.82 1058.91,517.82 1058.91,517.82 1058.91,517.82 1059.38,517.82 1059.38,517.82 1059.84,517.82 1060.31,490.219 1061.25,490.219 1061.25,490.219 1061.25,490.219 1061.72,490.219 1061.72,490.219 1062.19,490.219 1062.66,490.219 1062.66,517.82 1063.12,517.82 1063.12,517.82 1063.12,490.219 1063.12,490.219 1063.59,462.618 1064.06,462.618 1064.53,462.618 1064.53,462.618 1065,462.618 1065,462.618 1065,462.618 1065,462.618 1065.47,462.618 1065.47,462.618 1065.94,490.219 1065.94,490.219 1066.41,490.219 1066.41,490.219 1066.88,517.82 1066.88,517.82 1067.34,517.82 1067.34,490.219 1067.34,490.219 1067.34,490.219 1067.81,462.618 1067.81,462.618 1068.28,462.618 1068.28,462.618 1068.75,435.016 1068.75,435.016 1069.22,435.016 1069.22,435.016 1069.22,435.016 1069.22,462.618 1069.69,462.618 1070.16,490.219 1070.62,490.219 1071.09,462.618 1071.09,462.618 1071.09,490.219 1071.56,490.219 1071.56,490.219 1072.03,490.219 1072.03,490.219 1072.5,490.219 1072.5,462.618 1072.97,462.618 1072.97,490.219 1073.44,490.219 1073.44,462.618 1073.44,462.618 1073.44,462.618 1073.44,462.618 1073.91,462.618 1073.91,490.219 1074.38,490.219 1074.38,490.219 1074.84,490.219 1075.31,490.219 1075.31,490.219 1075.31,490.219 1075.78,490.219 1075.78,490.219 1076.25,490.219 1076.25,517.82 1076.25,517.82 1076.72,490.219 1076.72,517.82 1077.19,517.82 1077.19,517.82 1077.19,517.82 1077.66,517.82 1078.12,517.82 1078.59,517.82 1078.59,545.422 1079.06,545.422 1079.06,517.82 1079.06,517.82 1079.53,517.82 1079.53,517.82 1079.53,517.82 1079.53,517.82 1080,545.422 1080,545.422 1080.47,545.422 1080.47,545.422 1080.94,545.422 1080.94,545.422 1081.41,517.82 1081.41,517.82 1081.41,545.422 1081.88,573.023 1081.88,545.422 1081.88,545.422 1082.34,545.422 1082.34,545.422 1082.81,545.422 1082.81,545.422 1083.28,517.82 1083.28,517.82 1083.28,545.422 1083.28,517.82 1083.75,517.82 1084.22,517.82 1084.22,517.82 1084.69,517.82 1084.69,517.82 1085.16,545.422 1085.16,545.422 1085.62,545.422 1085.62,573.023 1085.62,573.023 1086.09,573.023 1086.09,545.422 1086.56,545.422 1086.56,545.422 1087.03,545.422 1087.5,545.422 1087.5,545.422 1087.5,545.422 1087.5,545.422 1087.5,545.422 1087.97,545.422 1087.97,545.422 1088.44,545.422 1088.44,545.422 1088.91,517.82 1088.91,545.422 1089.84,517.82 1089.84,517.82 1090.31,517.82 1090.31,517.82 1090.31,517.82 1090.78,517.82 1091.25,517.82 1091.25,517.82 1091.72,517.82 1091.72,517.82 1091.72,517.82 1091.72,517.82 1092.19,517.82 1092.19,517.82 1093.12,545.422 1094.53,545.422 1095,545.422 1095.47,517.82 1095.47,545.422 1095.47,545.422 1097.34,517.82 1097.81,517.82 1097.81,517.82 1097.81,517.82 1097.81,490.219 1098.28,517.82 1098.28,517.82 1098.75,490.219 1098.75,490.219 1099.22,490.219 1099.22,490.219 1099.22,490.219 1099.69,490.219 1099.69,490.219 1099.69,490.219 1099.69,490.219 1100.16,490.219 1100.62,490.219 1101.09,517.82 1101.56,517.82 1101.56,517.82 1101.56,517.82 1101.56,517.82 1101.56,517.82 1102.5,517.82 1102.97,517.82 1102.97,517.82 1103.44,517.82 1103.44,517.82 1103.91,545.422 1103.91,545.422 1104.84,545.422 1107.66,517.82 1107.66,517.82 1107.66,517.82 1107.66,517.82 1108.12,517.82 1108.12,517.82 1108.59,517.82 1108.59,517.82 1109.06,517.82 1109.06,490.219 1109.53,490.219 1109.53,490.219 1110,517.82 1111.41,517.82 1112.81,545.422 1113.28,573.023 1113.75,545.422 1113.75,545.422 1113.75,545.422 1113.75,545.422 1114.22,545.422 1114.22,545.422 1114.69,545.422 1115.16,517.82 1115.62,517.82 1116.09,545.422 1116.09,545.422 1116.09,545.422 1116.09,545.422 1116.56,545.422 1117.03,545.422 1117.03,545.422 1117.5,545.422 1117.5,545.422 1117.97,545.422 1117.97,545.422 1117.97,545.422 1117.97,545.422 1118.44,545.422 1118.91,545.422 1120.31,545.422 1122.19,600.625 1122.19,600.625 1122.19,573.023 1122.19,600.625 1122.66,573.023 1123.59,573.023 1123.59,573.023 1124.06,573.023 1124.06,573.023 1124.06,573.023 1124.06,573.023 1124.53,573.023 1125.94,545.422 1125.94,545.422 1126.41,545.422 1126.88,545.422 1126.88,545.422 1127.34,573.023 1127.34,573.023 1127.81,573.023 1127.81,573.023 1128.28,573.023 1128.28,600.625 1128.28,573.023 1128.28,573.023 1128.75,573.023 1128.75,573.023 1129.22,573.023 1129.22,573.023 1129.69,573.023 1129.69,573.023 1130.16,545.422 1130.16,545.422 1130.16,545.422 1130.16,545.422 1130.62,517.82 1131.09,517.82 1131.56,517.82 1131.56,517.82 1132.03,545.422 1132.03,517.82 1132.03,517.82 1132.5,517.82 1132.5,517.82 1133.44,490.219 1133.44,490.219 1133.44,490.219 1133.91,490.219 1133.91,490.219 1134.38,462.618 1134.38,462.618 1134.38,462.618 1134.38,462.618 1134.84,462.618 1134.84,435.016 1135.31,435.016 1135.31,435.016 1135.78,435.016 1136.25,435.016 1136.25,435.016 1136.25,435.016 1136.25,462.618 1136.72,462.618 1136.72,462.618 1137.19,462.618 1137.19,462.618 1137.66,462.618 1137.66,462.618 1138.12,462.618 1138.12,490.219 1138.12,462.618 1138.12,490.219 1138.59,490.219 1139.06,517.82 1139.06,490.219 1139.53,517.82 1140,517.82 1140.47,517.82 1142.34,517.82 1142.34,517.82 1142.81,517.82 1142.81,517.82 1143.28,545.422 1143.28,545.422 1143.75,517.82 1143.75,517.82 1144.22,517.82 1144.22,517.82 1144.22,517.82 1144.22,517.82 1144.69,545.422 1144.69,545.422 1144.69,517.82 1145.16,545.422 1145.16,545.422 1145.62,517.82 1145.62,517.82 1146.09,517.82 1146.09,517.82 1146.56,517.82 1146.56,517.82 1146.56,517.82 1147.5,545.422 1147.5,545.422 1147.97,545.422 1147.97,545.422 1148.91,573.023 1149.38,545.422 1149.84,545.422 1150.31,545.422 1150.31,545.422 1150.78,545.422 1150.78,545.422 1151.25,545.422 1151.72,517.82 1152.19,517.82 1152.19,545.422 1152.66,517.82 1152.66,517.82 1152.66,517.82 1152.66,545.422 1153.12,517.82 1153.12,545.422 1153.59,545.422 1153.59,545.422 1153.59,545.422 1154.06,545.422 1154.06,545.422 1154.53,545.422 1154.53,545.422 1154.53,517.82 1154.53,545.422 1155,545.422 1155,545.422 1155.47,545.422 1155.47,545.422 1155.94,517.82 1155.94,517.82 1156.41,517.82 1156.41,517.82 1156.41,517.82 1157.81,517.82 1160.62,573.023 1161.56,573.023 1161.56,573.023 1162.03,573.023 1162.03,573.023 1162.03,573.023 1162.5,573.023 1162.5,573.023 1162.5,573.023 1162.5,573.023 1162.97,573.023 1162.97,573.023 1163.44,573.023 1163.44,573.023 1163.91,600.625 1163.91,600.625 1164.38,600.625 1164.38,600.625 1164.84,600.625 1164.84,600.625 1164.84,600.625 1164.84,600.625 1164.84,600.625 1165.31,600.625 1165.31,628.226 1165.78,628.226 1165.78,628.226 1166.25,600.625 1166.72,600.625 1166.72,600.625 1166.72,600.625 1167.19,600.625 1167.66,600.625 1167.66,573.023 1168.59,600.625 1169.06,628.226 1172.34,628.226 1172.81,628.226 1172.81,628.226 1172.81,628.226 1172.81,628.226 1173.28,628.226 1173.28,628.226 1173.28,628.226 1173.75,600.625 1173.75,600.625 1174.22,600.625 1174.22,573.023 1174.69,573.023 1174.69,573.023 1174.69,573.023 1174.69,573.023 1175.16,545.422 1175.16,545.422 1175.62,545.422 1175.62,545.422 1176.09,545.422 1176.56,545.422 1176.56,573.023 1176.56,573.023 1177.03,573.023 1177.03,573.023 1177.03,573.023 1177.5,573.023 1177.5,600.625 1177.97,600.625 1177.97,600.625 1178.44,600.625 1178.44,600.625 1178.91,600.625 1178.91,600.625 1178.91,573.023 1178.91,573.023 1178.91,573.023 1179.38,573.023 1179.38,573.023 1179.84,573.023 1179.84,600.625 1180.31,600.625 1180.31,600.625 1180.78,600.625 1180.78,600.625 1180.78,600.625 1180.78,600.625 1181.25,600.625 1181.25,600.625 1181.72,600.625 1181.72,628.226 1182.19,600.625 1182.19,600.625 1182.19,600.625 1182.66,600.625 1182.66,600.625 1183.12,600.625 1183.12,600.625 1183.12,600.625 1187.81,628.226 1189.22,600.625 1191.09,573.023 1191.09,573.023 1191.56,600.625 1192.03,600.625 1192.03,600.625 1192.5,573.023 1192.5,600.625 1192.97,600.625 1192.97,600.625 1192.97,600.625 1192.97,600.625 1193.44,600.625 1193.44,600.625 1193.44,600.625 1193.91,600.625 1193.91,600.625 1194.38,600.625 1194.38,600.625 1194.84,600.625 1194.84,600.625 1195.31,600.625 1195.31,600.625 1195.31,600.625 1195.31,600.625 1195.78,573.023 1195.78,573.023 1196.25,573.023 1196.25,573.023 1196.25,573.023 1196.72,573.023 1196.72,573.023 1197.19,573.023 1197.19,573.023 1197.19,573.023 1197.19,573.023 1197.66,573.023 1197.66,573.023 1198.12,573.023 1198.12,573.023 1198.59,600.625 1198.59,600.625 1199.06,600.625 1199.06,573.023 1199.06,573.023 1199.06,573.023 1199.06,573.023 1199.53,573.023 1199.53,545.422 1200,573.023 1200,573.023 1200.47,573.023 1200.47,573.023 1200.94,573.023 1200.94,573.023 1201.41,573.023 1201.41,573.023 1201.41,573.023 1201.41,573.023 1201.88,573.023 1201.88,545.422 1201.88,545.422 1202.34,545.422 1202.34,545.422 1202.81,545.422 1202.81,545.422 1203.28,545.422 1203.28,545.422 1203.28,545.422 1203.28,545.422 1203.75,545.422 1203.75,545.422 1204.22,545.422 1204.22,545.422 1204.69,545.422 1204.69,545.422 1205.16,545.422 1205.16,545.422 1205.16,545.422 1205.62,545.422 1205.62,545.422 1205.62,545.422 1205.62,573.023 1206.09,573.023 1206.09,545.422 1206.56,545.422 1206.56,573.023 1207.03,573.023 1207.03,573.023 1207.5,573.023 1207.5,573.023 1207.5,573.023 1207.5,573.023 1211.25,573.023 1211.72,600.625 1212.66,628.226 1213.59,600.625 1213.59,628.226 1213.59,628.226 1213.59,600.625 1213.59,600.625 1214.06,600.625 1214.06,600.625 1214.53,600.625 1214.53,600.625 1215,600.625 1215,600.625 1215.47,600.625 1215.47,600.625 1215.47,600.625 1215.47,573.023 1215.94,573.023 1215.94,573.023 1216.41,573.023 1216.41,573.023 1216.41,573.023 1216.88,600.625 1216.88,600.625 1217.34,600.625 1217.81,600.625 1217.81,600.625 1218.28,600.625 1218.28,600.625 1218.75,600.625 1218.75,600.625 1219.22,600.625 1219.22,600.625 1219.69,573.023 1219.69,573.023 1219.69,573.023 1219.69,573.023 1220.16,573.023 1220.16,573.023 1220.62,573.023 1220.62,573.023 1221.09,600.625 1221.09,573.023 1221.56,573.023 1221.56,600.625 1221.56,600.625 1221.56,600.625 1222.03,600.625 1222.03,600.625 1222.03,600.625 1222.5,600.625 1222.5,573.023 1222.97,573.023 1223.91,573.023 1223.91,573.023 1224.38,573.023 1224.84,573.023 1224.84,573.023 1225.78,600.625 1225.78,573.023 1225.78,573.023 1225.78,573.023 1226.25,573.023 1226.25,573.023 1226.72,573.023 1226.72,545.422 1227.19,573.023 1227.19,573.023 1227.66,573.023 1227.66,573.023 1227.66,573.023 1227.66,545.422 1228.12,545.422 1228.12,573.023 1228.59,545.422 1228.59,573.023 1229.06,573.023 1229.06,573.023 1229.53,573.023 1229.53,573.023 1230,573.023 1230,573.023 1230,573.023 1230.47,573.023 1230.47,600.625 1230.94,600.625 1231.88,600.625 1232.34,573.023 1233.28,628.226 1233.75,628.226 1233.75,628.226 1233.75,628.226 1234.22,600.625 1234.69,600.625 1234.69,600.625 1235.16,600.625 1235.16,600.625 1235.62,600.625 1235.62,600.625 1236.09,600.625 1236.09,600.625 1236.09,628.226 1236.09,600.625 1236.09,600.625 1236.56,628.226 1236.56,600.625 1237.03,600.625 1237.03,600.625 1237.5,600.625 1237.5,573.023 1237.97,573.023 1237.97,573.023 1237.97,573.023 1237.97,573.023 1238.44,573.023 1238.44,573.023 1238.91,600.625 1238.91,600.625 1239.38,573.023 1239.38,600.625 1239.38,600.625 1239.84,600.625 1239.84,600.625 1239.84,600.625 1239.84,600.625 1240.31,600.625 1240.31,600.625 1240.78,573.023 1241.25,573.023 1241.25,573.023 1241.72,573.023 1241.72,573.023 1242.19,573.023 1243.59,600.625 1244.06,600.625 1244.06,600.625 1244.53,600.625 1244.53,600.625 1245,600.625 1245.47,600.625 1245.47,600.625 1245.94,600.625 1245.94,600.625 1245.94,573.023 1245.94,573.023 1246.41,573.023 1246.41,573.023 1246.88,573.023 1246.88,573.023 1247.34,573.023 1247.81,573.023 1247.81,573.023 1247.81,600.625 1248.28,600.625 1248.28,600.625 1248.28,600.625 1248.28,600.625 1248.75,600.625 1248.75,573.023 1249.22,600.625 1249.22,573.023 1249.69,573.023 1249.69,573.023 1250.16,573.023 1250.16,573.023 1250.16,573.023 1250.16,573.023 1250.62,573.023 1250.62,573.023 1250.62,573.023 1251.09,573.023 1251.09,573.023 1251.56,573.023 1251.56,573.023 1252.03,573.023 1252.03,573.023 1252.03,573.023 1252.5,573.023 1252.97,600.625 1252.97,600.625 1253.44,600.625 1253.44,600.625 1253.44,600.625 1253.91,600.625 1253.91,628.226 1254.38,628.226 1254.38,600.625 1254.38,628.226 1254.38,628.226 1254.84,628.226 1254.84,628.226 1255.31,628.226 1255.31,600.625 1255.78,600.625 1255.78,600.625 1256.25,628.226 1256.25,628.226 1256.25,628.226 1256.25,628.226 1256.25,628.226 1256.72,600.625 1256.72,600.625 1257.19,628.226 1257.19,628.226 1257.66,600.625 1257.66,600.625 1258.12,600.625 1258.12,600.625 1258.12,600.625 1258.59,600.625 1258.59,573.023 1259.06,573.023 1259.06,573.023 1259.06,573.023 1259.53,573.023 1259.53,573.023 1260,573.023 1260,573.023 1260.47,573.023 1260.47,573.023 1260.47,573.023 1260.47,600.625 1260.94,573.023 1260.94,573.023 1261.41,573.023 1261.41,573.023 1261.88,573.023 1261.88,573.023 1262.34,573.023 1262.34,573.023 1262.34,573.023 1262.34,573.023 1262.34,573.023 1262.81,600.625 1262.81,628.226 1263.28,600.625 1263.28,600.625 1263.75,628.226 1263.75,600.625 1264.22,600.625 1264.22,600.625 1264.69,600.625 1264.69,600.625 1264.69,600.625 1265.16,600.625 1265.16,573.023 1265.62,600.625 1265.62,600.625 1266.09,600.625 1266.09,600.625 1266.56,600.625 1266.56,600.625 1266.56,573.023 1266.56,573.023 1267.03,573.023 1267.03,573.023 1267.5,573.023 1267.5,573.023 1267.97,573.023 1267.97,573.023 1267.97,573.023 1268.44,600.625 1268.44,600.625 1268.44,600.625 1268.44,600.625 1268.91,600.625 1268.91,600.625 1269.38,600.625 1269.38,573.023 1269.84,573.023 1269.84,573.023 1270.31,573.023 1270.31,573.023 1270.31,573.023 1270.31,573.023 1270.31,573.023 1270.78,573.023 1270.78,573.023 1271.25,600.625 1271.25,600.625 1271.72,600.625 1271.72,600.625 1272.19,600.625 1272.19,600.625 1272.66,600.625 1272.66,600.625 1272.66,600.625 1272.66,600.625 1273.12,600.625 1273.12,600.625 1273.59,600.625 1273.59,600.625 1273.59,600.625 1274.06,628.226 1274.06,600.625 1274.53,600.625 1274.53,628.226 1274.53,628.226 1274.53,628.226 1275,628.226 1275,628.226 1277.34,545.422 1277.81,545.422 1278.28,573.023 1278.75,573.023 1278.75,573.023 1278.75,600.625 1279.22,600.625 1279.22,600.625 1280.16,573.023 1280.62,545.422 1280.62,573.023 1280.62,600.625 1281.09,600.625 1281.56,600.625 1282.03,600.625 1282.03,573.023 1282.97,517.82 1283.91,490.219 1284.38,490.219 1284.84,490.219 1285.31,462.618 1285.78,462.618 1286.25,490.219 1286.72,490.219 1286.72,490.219 1286.72,490.219 1287.19,490.219 1287.19,490.219 1287.66,517.82 1287.66,490.219 1288.12,490.219 1288.12,490.219 1288.59,490.219 1288.59,517.82 1290.94,545.422 1290.94,573.023 1291.41,545.422 1291.41,545.422 1291.88,545.422 1292.81,545.422 1292.81,545.422 1293.28,545.422 1293.28,545.422 1293.28,545.422 1293.75,517.82 1293.75,545.422 1294.22,545.422 1294.22,545.422 1294.69,545.422 1294.69,517.82 1294.69,545.422 1294.69,545.422 1295.16,545.422 1295.16,545.422 1295.62,545.422 1295.62,545.422 1296.09,545.422 1296.09,545.422 1296.56,545.422 1296.56,545.422 1296.56,545.422 1297.03,545.422 1297.03,545.422 1297.03,517.82 1297.03,517.82 1297.5,517.82 1297.97,517.82 1298.44,545.422 1298.44,545.422 1298.91,545.422 1299.84,517.82 1299.84,517.82 1300.31,517.82 1300.78,517.82 1300.78,517.82 1300.78,545.422 1301.25,545.422 1301.25,545.422 1301.72,545.422 1301.72,545.422 1302.19,545.422 1302.19,545.422 1302.19,573.023 1302.66,573.023 1303.12,600.625 1303.12,600.625 1303.12,600.625 1303.59,628.226 1303.59,628.226 1304.53,628.226 1304.53,628.226 1305,628.226 1305,628.226 1305,628.226 1305,628.226 1305.47,628.226 1305.47,600.625 1305.94,628.226 1306.41,628.226 1306.41,628.226 1306.88,628.226 1306.88,628.226 1306.88,655.826 1306.88,628.226 1307.34,655.826 1307.34,655.826 1307.81,628.226 1308.28,628.226 1308.28,628.226 1308.75,628.226 1308.75,628.226 1309.22,628.226 1310.16,628.226 1310.62,628.226 1310.62,655.826 1311.56,600.625 1312.03,573.023 1312.5,600.625 1312.97,573.023 1312.97,545.422 1312.97,545.422 1313.44,545.422 1313.44,545.422 1313.91,545.422 1314.38,545.422 1314.84,573.023 1314.84,573.023 1315.31,573.023 1315.31,573.023 1315.31,600.625 1315.31,600.625 1316.72,628.226 1317.19,628.226 1317.19,628.226 1317.19,600.625 1317.19,600.625 1317.66,600.625 1317.66,600.625 1318.12,600.625 1318.12,600.625 1318.59,600.625 1318.59,600.625 1319.06,600.625 1319.06,600.625 1319.06,600.625 1319.06,600.625 1319.06,600.625 1319.53,600.625 1319.53,600.625 1320,573.023 1320.47,573.023 1320.47,573.023 1320.94,545.422 1321.41,545.422 1321.41,545.422 1321.41,545.422 1321.88,545.422 1322.34,545.422 1322.34,545.422 1322.34,545.422 1322.81,573.023 1322.81,573.023 1323.28,573.023 1323.28,573.023 1323.28,600.625 1323.28,600.625 1323.75,573.023 1323.75,600.625 1324.22,628.226 1324.22,600.625 1324.69,600.625 1324.69,600.625 1325.16,573.023 1325.16,573.023 1325.16,573.023 1325.16,545.422 1325.16,545.422 1325.62,545.422 1325.62,545.422 1326.09,545.422 1326.56,573.023 1326.56,545.422 1327.03,545.422 1327.5,573.023 1327.5,573.023 1327.97,573.023 1328.44,573.023 1328.44,545.422 1328.91,545.422 1329.38,545.422 1329.84,545.422 1329.84,545.422 1330.31,545.422 1330.78,545.422 1331.25,545.422 1331.25,545.422 1331.72,545.422 1331.72,545.422 1332.19,545.422 1332.66,545.422 1332.66,545.422 1333.12,545.422 1333.59,545.422 1333.59,545.422 1333.59,545.422 1333.59,545.422 1333.59,545.422 1334.06,545.422 1334.53,573.023 1335,573.023 1335.47,573.023 1335.47,573.023 1335.47,545.422 1335.47,573.023 1335.94,545.422 1335.94,545.422 1336.41,545.422 1336.41,573.023 1336.41,573.023 1336.88,573.023 1336.88,573.023 1337.34,600.625 1337.34,600.625 1337.34,600.625 1337.81,573.023 1338.28,573.023 1338.28,573.023 1338.75,573.023 1339.22,545.422 1339.69,545.422 1339.69,545.422 1339.69,545.422 1339.69,545.422 1340.16,545.422 1340.16,545.422 1340.62,545.422 1340.62,573.023 1341.09,573.023 1341.09,573.023 1341.56,600.625 1341.56,600.625 1341.56,600.625 1342.03,600.625 1342.03,600.625 1342.03,600.625 1342.5,600.625 1342.5,600.625 1342.97,600.625 1342.97,573.023 1343.44,573.023 1343.44,573.023 1343.44,545.422 1343.44,573.023 1343.91,573.023 1343.91,573.023 1344.38,545.422 1344.38,545.422 1346.25,628.226 1347.19,600.625 1347.66,600.625 1347.66,573.023 1347.66,573.023 1347.66,573.023 1347.66,573.023 1348.12,573.023 1348.12,573.023 1348.59,573.023 1348.59,573.023 1349.06,573.023 1349.53,573.023 1349.53,600.625 1349.53,600.625 1349.53,600.625 1350,600.625 1350,600.625 1350.47,600.625 1350.47,600.625 1351.41,600.625 1351.88,545.422 1352.34,545.422 1353.75,545.422 1353.75,545.422 1353.75,545.422 1354.69,545.422 1355.16,517.82 1355.16,517.82 1355.62,545.422 1355.62,517.82 1355.62,517.82 1356.09,517.82 1356.09,517.82 1356.56,517.82 1356.56,490.219 1357.03,517.82 1357.03,517.82 1357.5,517.82 1357.97,517.82 1357.97,517.82 1358.91,517.82 1359.38,517.82 1359.38,517.82 1359.84,545.422 1359.84,517.82 1359.84,517.82 1359.84,517.82 1360.31,517.82 1360.31,517.82 1360.78,517.82 1360.78,517.82 1361.25,517.82 1361.25,517.82 1361.72,517.82 1361.72,517.82 1361.72,517.82 1362.19,517.82 1362.66,490.219 1363.12,490.219 1363.59,517.82 1364.06,517.82 1364.06,517.82 1364.53,517.82 1365,490.219 1365.47,490.219 1365.47,490.219 1365.94,490.219 1365.94,490.219 1365.94,490.219 1366.41,490.219 1367.34,490.219 1367.34,490.219 1367.81,490.219 1368.28,517.82 1368.28,517.82 1368.75,490.219 1369.22,490.219 1370.62,462.618 1372.03,435.016 1372.03,462.618 1372.03,435.016 1372.5,435.016 1372.97,435.016 1373.91,435.016 1374.38,462.618 1376.25,435.016 1377.66,462.618 1378.12,462.618 1378.12,462.618 1378.12,462.618 1378.12,462.618 1378.59,462.618 1378.59,462.618 1379.06,462.618 1379.06,462.618 1379.53,462.618 1379.53,435.016 1379.53,435.016 1380,462.618 1380,462.618 1380.47,462.618 1380.47,462.618 1380.47,462.618 1380.47,462.618 1380.94,462.618 1380.94,462.618 1381.41,490.219 1381.41,490.219 1381.88,490.219 1381.88,490.219 1382.34,490.219 1382.34,490.219 1382.34,490.219 1382.34,490.219 1382.34,490.219 1382.81,517.82 1382.81,490.219 1383.28,490.219 1383.28,517.82 1383.75,517.82 1383.75,517.82 1384.22,517.82 1384.22,517.82 1384.22,517.82 1384.69,517.82 1384.69,545.422 1385.16,517.82 1385.16,545.422 1385.16,545.422 1385.62,545.422 1385.62,545.422 1386.09,545.422 1386.56,545.422 1386.56,545.422 1386.56,545.422 1386.56,545.422 1387.03,545.422 1387.03,545.422 1387.5,545.422 1387.5,545.422 1387.97,545.422 1387.97,517.82 1387.97,517.82 1388.44,517.82 1388.44,517.82 1388.44,517.82 1388.44,517.82 1388.91,517.82 1388.91,517.82 1389.38,517.82 1389.38,517.82 1389.84,517.82 1389.84,517.82 1390.31,517.82 1390.31,517.82 1390.31,517.82 1390.31,545.422 1390.78,545.422 1390.78,545.422 1390.78,545.422 1391.25,573.023 1391.25,573.023 1391.72,573.023 1391.72,545.422 1392.19,573.023 1392.66,573.023 1392.66,573.023 1393.12,600.625 1393.59,600.625 1394.06,573.023 1394.06,573.023 1394.53,545.422 1394.53,545.422 1394.53,573.023 1395,545.422 1395,545.422 1395.47,545.422 1395.47,545.422 1395.94,545.422 1395.94,545.422 1396.41,545.422 1396.41,517.82 1396.41,517.82 1396.41,517.82 1397.34,545.422 1397.81,545.422 1398.28,545.422 1398.28,573.023 1398.75,573.023 1398.75,573.023 1398.75,573.023 1399.22,573.023 1399.22,545.422 1399.69,545.422 1399.69,545.422 1400.16,573.023 1400.16,573.023 1400.62,573.023 1400.62,600.625 1400.62,600.625 1400.62,600.625 1401.09,600.625 1401.56,628.226 1401.56,628.226 1402.5,545.422 1403.44,600.625 1403.91,600.625 1403.91,600.625 1404.38,600.625 1404.38,600.625 1404.84,600.625 1404.84,600.625 1404.84,573.023 1404.84,600.625 1404.84,573.023 1405.31,573.023 1405.31,573.023 1405.78,573.023 1405.78,573.023 1406.25,573.023 1406.25,600.625 1406.72,600.625 1406.72,600.625 1406.72,600.625 1406.72,600.625 1407.19,600.625 1407.19,600.625 1407.66,600.625 1407.66,600.625 1408.12,628.226 1408.12,628.226 1408.12,628.226 1408.59,600.625 1408.59,600.625 1408.59,600.625 1408.59,600.625 1409.06,628.226 1409.06,600.625 1409.53,573.023 1409.53,573.023 1410,573.023 1410,573.023 1410.47,573.023 1410.47,573.023 1410.94,573.023 1410.94,573.023 1410.94,600.625 1410.94,600.625 1410.94,600.625 1411.41,600.625 1411.41,600.625 1411.88,600.625 1411.88,600.625 1412.34,573.023 1412.34,573.023 1412.81,573.023 1412.81,573.023 1412.81,600.625 1412.81,573.023 1413.28,600.625 1413.28,573.023 1413.75,573.023 1413.75,573.023 1413.75,600.625 1414.22,600.625 1414.22,600.625 1414.69,600.625 1414.69,628.226 1414.69,628.226 1414.69,628.226 1415.16,628.226 1415.16,628.226 1415.62,628.226 1415.62,628.226 1416.09,628.226 1416.09,628.226 1416.56,628.226 1416.56,628.226 1416.56,628.226 1417.03,628.226 1417.03,628.226 1417.03,628.226 1417.03,628.226 1417.5,628.226 1417.5,628.226 1417.97,600.625 1417.97,600.625 1418.44,600.625 1418.44,628.226 1418.91,600.625 1418.91,628.226 1418.91,628.226 1418.91,628.226 1419.38,600.625 1419.38,600.625 1419.38,600.625 1419.84,600.625 1419.84,600.625 1420.31,628.226 1420.78,628.226 1420.78,628.226 1420.78,628.226 1421.25,600.625 1421.25,628.226 1421.72,628.226 1421.72,628.226 1422.19,628.226 1422.19,628.226 1423.12,628.226 1424.06,628.226 1424.06,628.226 1424.53,628.226 1424.53,628.226 1425,628.226 1425,628.226 1425,655.826 1425,655.826 1425.47,628.226 1426.41,655.826 1426.88,628.226 1426.88,655.826 1427.34,628.226 1427.34,655.826 1427.81,655.826 1427.81,655.826 1427.81,655.826 1428.28,655.826 1432.5,655.826 1432.97,628.226 1432.97,628.226 1432.97,628.226 1433.44,655.826 1433.44,655.826 1433.44,655.826 1433.91,655.826 1433.91,628.226 1434.84,628.226 1434.84,628.226 1435.31,655.826 1435.31,628.226 1435.78,628.226 1435.78,628.226 1436.25,628.226 1436.25,628.226 1436.72,628.226 1436.72,628.226 1436.72,628.226 1437.19,628.226 1437.19,628.226 1437.19,600.625 1437.66,628.226 1437.66,628.226 1438.12,628.226 1438.59,628.226 1438.59,628.226 1439.06,628.226 1439.53,655.826 1439.53,655.826 1440.47,655.826 1440.94,655.826 1440.94,655.826 1441.41,655.826 1441.41,655.826 1444.22,683.428 1444.22,683.428 1444.69,655.826 1445.16,655.826 1445.16,655.826 1445.16,683.428 1445.16,655.826 1445.16,683.428 1446.56,655.826 1447.03,655.826 1447.5,655.826 1447.97,683.428 1448.44,683.428 1448.44,683.428 1448.91,655.826 1449.38,655.826 1449.38,655.826 1449.38,655.826 1449.38,655.826 1449.84,655.826 1449.84,655.826 1450.31,655.826 1450.31,683.428 1450.78,655.826 1450.78,655.826 1451.25,655.826 1451.25,655.826 1451.25,655.826 1451.25,683.428 1451.25,655.826 1451.72,683.428 1451.72,655.826 1452.19,683.428 1453.59,655.826 1453.59,655.826 1455.94,683.428 1456.41,655.826 1456.41,683.428 1456.41,655.826 1456.88,655.826 1456.88,655.826 1457.34,683.428 1460.62,683.428 1462.03,655.826 1467.66,655.826 1468.12,655.826 1469.53,683.428 1470,683.428 1471.41,683.428 1472.81,683.428 1473.75,683.428 1478.44,683.428 1480.31,655.826 1480.78,683.428 1481.72,655.826 1484.06,655.826 1485,683.428 1485.94,683.428 1487.34,683.428 1493.91,683.428 1494.38,655.826 1495.31,655.826 1496.25,655.826 1498.12,683.428 1498.12,683.428 1499.06,655.826 1499.53,683.428 1500.47,683.428 1500.47,655.826 1500.94,683.428 1500.94,683.428 1501.41,655.826 1501.88,683.428 1502.34,655.826 1502.34,655.826 1502.34,683.428 1502.34,683.428 1502.81,683.428 1502.81,655.826 1503.28,655.826 1503.75,683.428 1503.75,683.428 1504.22,683.428 1504.22,711.029 1504.22,683.428 1504.69,683.428 1504.69,683.428 1505.16,683.428 1505.16,683.428 1505.62,683.428 1505.62,683.428 1506.09,683.428 1506.09,683.428 1506.09,683.428 1506.56,683.428 1506.56,711.029 1507.03,711.029 1507.03,711.029 1507.5,711.029 1507.5,683.428 1507.97,711.029 1507.97,711.029 1508.44,683.428 1508.44,711.029 1508.44,683.428 1508.44,683.428 1508.91,683.428 1508.91,683.428 1509.38,683.428 1509.38,655.826 1509.84,683.428 1509.84,655.826 1510.31,655.826 1510.31,655.826 1510.31,655.826 1510.31,655.826 1510.78,655.826 1510.78,655.826 1510.78,655.826 1511.25,655.826 1512.19,655.826 1512.19,655.826 1512.66,683.428 1512.66,683.428 1513.12,683.428 1513.12,683.428 1513.59,683.428 1513.59,683.428 1514.06,683.428 1514.06,683.428 1514.06,683.428 1514.53,683.428 1514.53,711.029 1514.53,711.029 1514.53,683.428 1515,683.428 1515,711.029 1515.47,711.029 1515.47,711.029 1515.94,711.029 1516.41,711.029 1516.88,711.029 1516.88,683.428 1517.34,683.428 1517.34,683.428 1517.81,683.428 1518.28,683.428 1518.28,683.428 1518.28,655.826 1518.28,655.826 1518.75,655.826 1519.22,655.826 1519.22,655.826 1519.69,655.826 1519.69,655.826 1519.69,683.428 1520.16,683.428 1520.16,683.428 1520.62,683.428 1520.62,683.428 1520.62,683.428 1521.09,683.428 1521.09,683.428 1521.56,683.428 1521.56,655.826 1522.03,655.826 1522.5,683.428 1522.5,683.428 1523.91,655.826 1524.38,655.826 1524.38,655.826 1525.78,655.826 1526.25,683.428 1526.25,683.428 1526.72,683.428 1526.72,655.826 1526.72,683.428 1527.19,655.826 1527.19,683.428 1527.66,683.428 1528.12,655.826 1528.12,655.826 1528.12,683.428 1528.59,683.428 1528.59,683.428 1528.59,683.428 1528.59,683.428 1529.06,655.826 1529.53,683.428 1530,683.428 1530,683.428 1530.47,683.428 1530.47,683.428 1530.94,683.428 1530.94,683.428 1531.41,683.428 1531.41,683.428 1531.88,683.428 1531.88,683.428 1532.34,683.428 1532.81,683.428 1536.09,683.428 1536.56,683.428 1537.03,655.826 1537.03,655.826 1537.5,655.826 1537.5,655.826 1537.97,628.226 1537.97,628.226 1538.44,628.226 1538.91,600.625 1538.91,600.625 1539.84,600.625 1540.78,573.023 1540.78,573.023 1540.78,573.023 1540.78,573.023 1541.25,573.023 1541.72,573.023 1541.72,600.625 1542.19,573.023 1542.19,600.625 1542.66,600.625 1542.66,600.625 1542.66,600.625 1543.12,628.226 1543.12,628.226 1543.12,628.226 1543.12,628.226 1543.59,655.826 1545,655.826 1545,628.226 1545,600.625 1545,628.226 1545.47,628.226 1545.47,628.226 1545.94,600.625 1546.41,628.226 1546.41,600.625 1547.81,600.625 1548.28,573.023 1548.28,573.023 1548.75,573.023 1549.22,573.023 1549.22,573.023 1549.22,573.023 1549.69,573.023 1549.69,545.422 1550.16,573.023 1550.62,573.023 1551.09,545.422 1551.09,573.023 1551.09,573.023 1551.09,573.023 1551.56,573.023 1552.03,573.023 1552.03,573.023 1552.5,545.422 1552.5,573.023 1552.97,573.023 1552.97,573.023 1552.97,573.023 1552.97,600.625 1553.44,600.625 1553.91,600.625 1553.91,628.226 1554.38,628.226 1555.31,655.826 1555.31,628.226 1555.31,628.226 1555.78,628.226 1556.25,600.625 1556.25,628.226 1556.72,628.226 1556.72,600.625 1556.72,600.625 1557.19,600.625 1557.19,600.625 1557.66,600.625 1557.66,600.625 1558.12,600.625 1558.12,600.625 1558.59,628.226 1558.59,628.226 1559.06,628.226 1559.06,628.226 1559.06,628.226 1559.53,628.226 1561.41,600.625 1561.41,600.625 1561.88,573.023 1562.34,573.023 1562.34,600.625 1562.81,600.625 1562.81,600.625 1563.28,600.625 1563.28,600.625 1563.75,600.625 1564.22,600.625 1564.69,600.625 1565.16,600.625 1565.16,600.625 1565.16,600.625 1565.16,600.625 1565.16,600.625 1565.62,600.625 1565.62,600.625 1566.09,600.625 1566.09,600.625 1566.56,600.625 1566.56,573.023 1567.03,573.023 1567.03,600.625 1567.5,573.023 1567.5,573.023 1567.5,573.023 1567.5,573.023 1567.97,573.023 1567.97,573.023 1567.97,573.023 1568.44,573.023 1568.44,545.422 1568.91,573.023 1568.91,545.422 1569.38,573.023 1569.38,545.422 1569.38,573.023 1569.38,573.023 1569.84,573.023 1569.84,573.023 1570.31,573.023 1570.31,573.023 1570.78,573.023 1570.78,573.023 1571.25,573.023 1571.25,573.023 1571.25,573.023 1571.25,573.023 1571.25,573.023 1571.72,545.422 1571.72,545.422 1572.19,545.422 1572.66,573.023 1572.66,573.023 1573.12,545.422 1573.12,545.422 1573.59,573.023 1573.59,545.422 1573.59,545.422 1573.59,545.422 1573.59,545.422 1574.06,545.422 1575.47,628.226 1575.47,600.625 1575.47,600.625 1576.88,573.023 1577.34,545.422 1577.34,545.422 1578.28,545.422 1578.75,545.422 1579.22,545.422 1579.69,545.422 1579.69,573.023 1579.69,545.422 1579.69,573.023 1580.16,573.023 1580.16,573.023 1580.62,573.023 1580.62,573.023 1581.56,573.023 1581.56,573.023 1581.56,573.023 1582.03,573.023 1582.5,545.422 1583.44,545.422 1586.72,545.422 1587.66,573.023 1587.66,573.023 1588.12,573.023 1588.12,573.023 1588.59,573.023 1588.59,573.023 1589.06,573.023 1589.06,573.023 1589.53,573.023 1589.53,545.422 1589.53,573.023 1589.53,573.023 1590,573.023 1590,545.422 1590.47,545.422 1590.47,573.023 1590.94,573.023 1590.94,573.023 1590.94,573.023 1591.41,573.023 1591.41,600.625 1591.88,573.023 1591.88,573.023 1591.88,573.023 1591.88,573.023 1592.34,573.023 1592.81,573.023 1592.81,573.023 1593.28,573.023 1593.28,573.023 1593.75,573.023 1593.75,573.023 1593.75,573.023 1593.75,573.023 1593.75,600.625 1594.22,628.226 1594.69,600.625 1594.69,628.226 1595.16,628.226 1595.16,600.625 1595.62,600.625 1595.62,628.226 1595.62,600.625 1596.09,600.625 1597.03,628.226 1597.5,628.226 1597.5,628.226 1597.97,628.226 1597.97,628.226 1597.97,628.226 1598.44,628.226 1598.44,655.826 1598.91,655.826 1598.91,628.226 1599.38,655.826 1599.38,655.826 1599.84,655.826 1599.84,655.826 1599.84,655.826 1599.84,628.226 1600.31,655.826 1600.31,655.826 1601.72,573.023 1601.72,573.023 1601.72,600.625 1602.19,628.226 1602.19,628.226 1602.19,628.226 1602.66,628.226 1602.66,628.226 1603.12,628.226 1603.12,628.226 1603.59,628.226 1603.59,628.226 1604.06,600.625 1604.06,628.226 1604.53,628.226 1604.53,628.226 1605,628.226 1605,628.226 1605.47,628.226 1605.47,628.226 1605.47,628.226 1605.94,628.226 1606.41,655.826 1606.88,655.826 1606.88,655.826 1607.34,655.826 1607.34,628.226 1607.81,628.226 1607.81,628.226 1607.81,600.625 1609.69,600.625 1610.16,600.625 1612.97,600.625 1613.91,600.625 1613.91,600.625 1613.91,600.625 1613.91,600.625 1613.91,573.023 1614.38,573.023 1614.38,573.023 1614.84,600.625 1614.84,573.023 1615.31,573.023 1615.31,600.625 1615.78,600.625 1616.25,600.625 1616.25,600.625 1616.25,600.625 1616.25,600.625 1616.72,628.226 1616.72,600.625 1616.72,628.226 1617.19,600.625 1617.19,628.226 1617.66,600.625 1617.66,600.625 1618.12,600.625 1618.12,600.625 1618.12,600.625 1618.12,600.625 1618.59,600.625 1624.22,628.226 1624.22,600.625 1625.16,628.226"/>
</g>
</svg>
