<?xml version="1.0" encoding="UTF-8" standalone="no"?>
<svg xmlns="http://www.w3.org/2000/svg"
     xmlns:xlink="http://www.w3.org/1999/xlink"
     width="1920px" height="1016px" viewBox="0 0 1920 1016">
<title>glps_renderer figure</title>
<desc>
Creator: GL2PS 1.3.8, (C) 1999-2012 C. Geuzaine
For: Octave
CreationDate: Sun Nov  2 17:24:56 2014
</desc>
<defs>
</defs>
<g shape-rendering="crispEdges">
<polygon fill="#ffffff" points="1738.12,904.24 1738.12,76.2008 1738.12,904.24"/>
<polygon fill="#ffffff" points="1738.12,76.2008 1738.12,76.2008 1738.12,904.24"/>
<polygon fill="#ffffff" points="249.844,76.2008 1738.12,76.2008 249.844,76.2008"/>
<polygon fill="#ffffff" points="1738.12,76.2008 1738.12,76.2008 249.844,76.2008"/>
<polygon fill="#ffffff" points="249.844,904.24 1738.12,904.24 249.844,76.2008"/>
<polygon fill="#ffffff" points="1738.12,904.24 1738.12,76.2008 249.844,76.2008"/>
<polyline fill="none" stroke="#000000" stroke-width="0.5" stroke-dasharray="16,0" points="249.844,904.24 1738.12,904.24"/>
<polyline fill="none" stroke="#000000" stroke-width="0.5" stroke-dasharray="16,0" points="249.844,76.2008 1738.12,76.2008"/>
<polyline fill="none" stroke="#000000" stroke-width="0.5" stroke-dasharray="16,0" points="249.844,76.2008 1738.12,76.2008"/>
<polyline fill="none" stroke="#000000" stroke-width="0.5" stroke-dasharray="16,0" points="249.844,904.24 1738.12,904.24"/>
<polyline fill="none" stroke="#000000" stroke-width="0.5" stroke-dasharray="16,0" points="249.844,904.24 249.844,76.2008"/>
<polyline fill="none" stroke="#000000" stroke-width="0.5" stroke-dasharray="16,0" points="1738.12,904.24 1738.12,76.2008"/>
<polyline fill="none" stroke="#000000" stroke-width="0.5" stroke-dasharray="16,0" points="1738.12,904.24 1738.12,76.2008"/>
<polyline fill="none" stroke="#000000" stroke-width="0.5" stroke-dasharray="16,0" points="249.844,904.24 249.844,76.2008 249.844,76.2008"/>
<polyline fill="none" stroke="#000000" stroke-width="0.5" stroke-dasharray="16,0" points="1738.12,76.2008 1738.12,76.2008"/>
<polyline fill="none" stroke="#000000" stroke-width="0.5" stroke-dasharray="16,0" points="1738.12,904.24 1738.12,904.24"/>
<polyline fill="none" stroke="#000000" stroke-width="0.5" stroke-dasharray="16,0" points="249.844,904.24 249.844,904.24 249.844,889.359"/>
<polyline fill="none" stroke="#000000" stroke-width="0.5" stroke-dasharray="16,0" points="249.844,76.2008 249.844,91.0817"/>
<polyline fill="none" stroke="#000000" stroke-width="0.5" stroke-dasharray="16,0" points="547.5,904.24 547.5,889.359"/>
<polyline fill="none" stroke="#000000" stroke-width="0.5" stroke-dasharray="16,0" points="547.5,76.2008 547.5,91.0817"/>
<polyline fill="none" stroke="#000000" stroke-width="0.5" stroke-dasharray="16,0" points="845.156,904.24 845.156,889.359"/>
<polyline fill="none" stroke="#000000" stroke-width="0.5" stroke-dasharray="16,0" points="845.156,76.2008 845.156,91.0817"/>
<polyline fill="none" stroke="#000000" stroke-width="0.5" stroke-dasharray="16,0" points="1142.34,904.24 1142.34,889.359"/>
<polyline fill="none" stroke="#000000" stroke-width="0.5" stroke-dasharray="16,0" points="1142.34,76.2008 1142.34,91.0817"/>
<polyline fill="none" stroke="#000000" stroke-width="0.5" stroke-dasharray="16,0" points="1440.47,904.24 1440.47,889.359"/>
<polyline fill="none" stroke="#000000" stroke-width="0.5" stroke-dasharray="16,0" points="1440.47,76.2008 1440.47,91.0817"/>
<polyline fill="none" stroke="#000000" stroke-width="0.5" stroke-dasharray="16,0" points="1738.12,904.24 1738.12,889.359"/>
<polyline fill="none" stroke="#000000" stroke-width="0.5" stroke-dasharray="16,0" points="1738.12,76.2008 1738.12,91.0817"/>
<text fill="#000000" x="249.237" y="909.24" font-size="10" text-anchor="middle" baseline-shift="-10" font-family="Helvetica">1.4138e+09</text>
<text fill="#000000" x="547.127" y="909.24" font-size="10" text-anchor="middle" baseline-shift="-10" font-family="Helvetica">1.4139e+09</text>
<text fill="#000000" x="844.655" y="909.24" font-size="10" text-anchor="middle" baseline-shift="-10" font-family="Helvetica">1.414e+09</text>
<text fill="#000000" x="1142.18" y="909.24" font-size="10" text-anchor="middle" baseline-shift="-10" font-family="Helvetica">1.4141e+09</text>
<text fill="#000000" x="1440.07" y="909.24" font-size="10" text-anchor="middle" baseline-shift="-10" font-family="Helvetica">1.4142e+09</text>
<text fill="#000000" x="1737.6" y="909.24" font-size="10" text-anchor="middle" baseline-shift="-10" font-family="Helvetica">1.4143e+09</text>
<polyline fill="none" stroke="#000000" stroke-width="0.5" stroke-dasharray="16,0" points="249.844,904.24 264.844,904.24"/>
<polyline fill="none" stroke="#000000" stroke-width="0.5" stroke-dasharray="16,0" points="1738.12,904.24 1723.12,904.24"/>
<polyline fill="none" stroke="#000000" stroke-width="0.5" stroke-dasharray="16,0" points="249.844,697.231 264.844,697.231"/>
<polyline fill="none" stroke="#000000" stroke-width="0.5" stroke-dasharray="16,0" points="1738.12,697.231 1723.12,697.231"/>
<polyline fill="none" stroke="#000000" stroke-width="0.5" stroke-dasharray="16,0" points="249.844,490.22 264.844,490.22"/>
<polyline fill="none" stroke="#000000" stroke-width="0.5" stroke-dasharray="16,0" points="1738.12,490.22 1723.12,490.22"/>
<polyline fill="none" stroke="#000000" stroke-width="0.5" stroke-dasharray="16,0" points="249.844,283.21 264.844,283.21"/>
<polyline fill="none" stroke="#000000" stroke-width="0.5" stroke-dasharray="16,0" points="1738.12,283.21 1723.12,283.21"/>
<polyline fill="none" stroke="#000000" stroke-width="0.5" stroke-dasharray="16,0" points="249.844,76.2008 264.844,76.2008"/>
<polyline fill="none" stroke="#000000" stroke-width="0.5" stroke-dasharray="16,0" points="1738.12,76.2008 1723.12,76.2008"/>
<text fill="#000000" x="244.151" y="904.24" font-size="10" text-anchor="end" baseline-shift="-5" font-family="Helvetica">34.5</text>
<text fill="#000000" x="244.151" y="697.23" font-size="10" text-anchor="end" baseline-shift="-5" font-family="Helvetica">35</text>
<text fill="#000000" x="244.151" y="490.22" font-size="10" text-anchor="end" baseline-shift="-5" font-family="Helvetica">35.5</text>
<text fill="#000000" x="244.151" y="283.21" font-size="10" text-anchor="end" baseline-shift="-5" font-family="Helvetica">36</text>
<text fill="#000000" x="244.151" y="76.2" font-size="10" text-anchor="end" baseline-shift="-5" font-family="Helvetica">36.5</text>
<polyline fill="none" stroke="#0000ff" stroke-width="0.5" points="368.438,117.602 369.844,117.602 369.844,117.602 369.844,117.602 369.844,117.602 369.844,117.602 370.312,117.602 370.312,159.005 370.781,159.005 370.781,159.005 371.25,200.406 371.25,200.406 371.719,200.406 371.719,200.406 371.719,241.809 371.719,241.809 372.188,241.809 372.188,241.809 372.656,283.21 372.656,283.21 373.125,241.809 373.125,283.21 373.125,283.21 373.594,283.21 373.594,324.612 373.594,324.612 373.594,324.612 374.062,324.612 374.062,366.014 374.531,324.612 374.531,366.014 375,366.014 375,366.014 375.469,366.014 375.469,366.014 375.938,366.014 375.938,407.416 375.938,366.014 375.938,366.014 375.938,407.416 376.406,407.416 376.406,407.416 376.875,407.416 376.875,448.82 377.344,407.416 377.344,448.82 377.812,448.82 377.812,448.82 377.812,448.82 377.812,490.22 378.281,448.82 378.281,490.22 378.75,490.22 378.75,531.622 378.75,531.622 379.219,531.622 379.219,531.622 379.688,573.025 379.688,573.025 379.688,573.025 379.688,573.025 380.156,573.025 380.156,573.025 380.625,573.025 380.625,573.025 381.094,573.025 381.094,573.025 381.562,573.025 381.562,573.025 381.562,573.025 382.031,573.025 382.031,573.025 382.031,573.025 382.031,573.025 382.5,573.025 382.5,573.025 382.969,573.025 382.969,573.025 383.438,573.025 383.438,573.025 383.906,573.025 383.906,573.025 383.906,573.025 383.906,573.025 384.375,573.025 384.375,573.025 384.375,573.025 384.844,573.025 384.844,573.025 385.312,573.025 385.312,573.025 385.781,573.025 385.781,573.025 385.781,573.025 385.781,573.025 386.25,573.025 386.25,573.025 386.719,614.427 386.719,573.025 387.188,573.025 387.188,573.025 387.188,573.025 387.656,573.025 387.656,573.025 388.125,573.025 388.125,573.025 388.125,573.025 388.125,573.025 388.594,573.025 388.594,573.025 389.062,573.025 389.062,573.025 389.531,573.025 389.531,531.622 390,573.025 390,531.622 390,573.025 390,573.025 390,573.025 390.469,573.025 390.469,573.025 390.938,573.025 390.938,573.025 391.406,573.025 391.406,573.025 391.875,573.025 391.875,614.427 392.344,573.025 392.344,614.427 392.344,614.427 392.344,614.427 392.812,614.427 392.812,614.427 392.812,614.427 393.281,614.427 393.281,614.427 393.75,573.025 393.75,614.427 394.219,614.427 394.219,614.427 394.219,614.427 394.219,614.427 394.688,614.427 394.688,655.829 395.156,655.829 395.156,655.829 395.625,655.829 395.625,655.829 396.094,655.829 396.094,655.829 396.094,655.829 396.094,614.427 396.094,614.427 396.562,614.427 396.562,655.829 397.031,614.427 397.031,614.427 397.5,614.427 397.5,614.427 397.969,655.829 397.969,655.829 398.438,655.829 398.438,655.829 398.438,697.231 398.438,655.829 398.438,697.231 398.906,655.829 398.906,697.231 399.375,697.231 399.375,697.231 399.844,697.231 399.844,697.231 400.312,697.231 400.312,697.231 400.312,697.231 400.312,697.231 400.781,697.231 400.781,697.231 401.25,697.231 401.25,697.231 401.719,697.231 401.719,697.231 401.719,697.231 402.188,697.231 402.188,697.231 402.188,697.231 402.188,697.231 402.656,697.231 402.656,738.632 403.125,697.231 403.125,697.231 403.594,697.231 403.594,738.632 404.062,738.632 404.062,738.632 404.531,697.231 404.531,738.632 404.531,738.632 404.531,697.231 404.531,738.632 405,738.632 405,738.632 405.469,697.231 405.469,697.231 405.938,738.632 405.938,697.231 406.406,738.632 406.406,738.632 406.406,738.632 406.406,738.632 406.875,697.231 406.875,738.632 407.344,697.231 407.344,697.231 407.344,655.829 407.812,697.231 407.812,697.231 408.281,655.829 408.281,655.829 408.281,655.829 408.281,655.829 408.75,655.829 408.75,655.829 409.219,614.427 409.219,655.829 409.688,655.829 409.688,655.829 410.156,614.427 410.156,655.829 410.156,655.829 410.625,655.829 410.625,614.427 410.625,655.829 410.625,614.427 411.094,614.427 411.094,614.427 411.562,614.427 411.562,614.427 412.031,614.427 412.031,614.427 412.5,614.427 412.5,614.427 412.5,614.427 412.5,614.427 412.969,614.427 412.969,614.427 412.969,614.427 413.438,614.427 413.438,614.427 413.906,614.427 413.906,614.427 414.375,614.427 414.375,614.427 414.375,614.427 414.375,614.427 414.844,614.427 414.844,614.427 415.312,614.427 415.312,614.427 415.781,614.427 415.781,655.829 415.781,655.829 416.25,655.829 416.25,655.829 416.719,655.829 416.719,614.427 416.719,614.427 416.719,614.427 417.188,655.829 417.188,614.427 417.656,655.829 417.656,655.829 418.125,655.829 418.125,655.829 418.594,655.829 418.594,655.829 418.594,655.829 418.594,697.231 418.594,697.231 419.062,655.829 419.062,697.231 419.531,697.231 419.531,697.231 420,697.231 420,738.632 420.469,738.632 420.469,738.632 420.469,738.632 420.469,738.632 420.938,738.632 420.938,697.231 421.406,697.231 421.406,697.231 421.406,697.231 421.875,697.231 421.875,697.231 422.344,697.231 422.344,655.829 422.812,655.829 422.812,697.231 422.812,655.829 422.812,655.829 423.281,655.829 423.281,655.829 423.75,697.231 423.75,697.231 424.219,655.829 424.219,655.829 424.688,655.829 424.688,655.829 424.688,655.829 424.688,655.829 424.688,655.829 425.156,655.829 425.156,655.829 425.625,697.231 425.625,655.829 426.094,697.231 426.094,655.829 426.562,655.829 426.562,697.231 426.562,697.231 426.562,697.231 427.031,697.231 427.031,697.231 427.031,697.231 427.5,697.231 427.5,697.231 427.969,697.231 427.969,738.632 428.438,697.231 428.906,738.632 428.906,697.231 428.906,697.231 428.906,697.231 429.375,697.231 429.375,738.632 429.844,738.632 429.844,697.231 430.312,697.231 430.312,738.632 430.312,738.632 430.781,738.632 430.781,738.632 430.781,738.632 430.781,738.632 431.25,738.632 431.25,738.632 431.719,738.632 431.719,738.632 432.188,738.632 432.188,738.632 432.656,738.632 432.656,738.632 432.656,738.632 432.656,738.632 432.656,738.632 433.125,780.035 433.125,780.035 433.594,738.632 433.594,738.632 434.062,697.231 434.062,738.632 434.531,738.632 434.531,738.632 435,738.632 435,697.231 435,697.231 435,697.231 435.469,697.231 435.469,697.231 435.938,697.231 435.938,697.231 435.938,697.231 436.406,697.231 436.406,697.231 436.875,738.632 436.875,697.231 436.875,697.231 436.875,738.632 437.344,738.632 437.344,697.231 437.812,697.231 437.812,697.231 438.281,697.231 438.281,697.231 438.75,738.632 438.75,697.231 438.75,738.632 438.75,738.632 438.75,780.035 439.219,738.632 439.219,738.632 439.688,738.632 439.688,738.632 440.156,738.632 440.156,738.632 440.625,738.632 440.625,738.632 441.094,738.632 441.094,780.035 441.094,738.632 441.094,738.632 441.562,738.632 441.562,697.231 441.562,738.632 442.031,697.231 442.031,697.231 442.5,697.231 442.5,697.231 442.969,697.231 442.969,697.231 442.969,697.231 442.969,738.632 443.438,697.231 443.438,697.231 443.906,697.231 443.906,697.231 444.375,697.231 444.375,738.632 444.844,697.231 444.844,697.231 444.844,697.231 444.844,697.231 444.844,697.231 445.312,697.231 445.312,697.231 445.781,697.231 445.781,697.231 446.25,697.231 446.25,697.231 446.719,697.231 446.719,697.231 447.188,697.231 447.188,697.231 447.188,697.231 447.188,697.231 447.188,697.231 447.656,697.231 447.656,697.231 448.125,697.231 448.125,697.231 448.594,697.231 448.594,697.231 449.062,697.231 449.062,697.231 449.062,697.231 449.062,697.231 449.531,655.829 449.531,697.231 450,697.231 450,697.231 450,697.231 450.469,697.231 450.469,697.231 450.938,697.231 450.938,697.231 450.938,697.231 450.938,697.231 451.406,697.231 451.406,697.231 451.875,697.231 451.875,697.231 452.344,697.231 452.344,697.231 452.812,697.231 452.812,655.829 453.281,655.829 453.281,655.829 453.281,655.829 453.281,655.829 453.281,655.829 453.75,697.231 453.75,697.231 454.219,697.231 454.219,697.231 454.688,655.829 454.688,697.231 455.156,697.231 455.156,697.231 455.156,697.231 455.156,738.632 455.625,738.632 455.625,697.231 456.094,697.231 456.094,697.231 456.094,697.231 456.562,738.632 456.562,697.231 457.031,697.231 457.031,697.231 457.031,738.632 457.031,738.632 457.5,780.035 457.5,738.632 457.969,738.632 457.969,738.632 458.438,738.632 458.438,697.231 458.906,738.632 458.906,738.632 458.906,738.632 459.375,738.632 459.375,697.231 459.375,697.231 459.375,738.632 459.844,697.231 459.844,738.632 460.312,738.632 460.312,697.231 460.781,697.231 460.781,697.231 461.25,738.632 461.25,697.231 461.25,697.231 461.25,697.231 461.25,697.231 461.719,697.231 461.719,697.231 462.188,697.231 462.188,738.632 462.656,738.632 462.656,697.231 463.125,738.632 463.125,738.632 463.125,697.231 463.125,697.231 463.594,697.231 463.594,738.632 464.062,738.632 464.062,738.632 464.531,780.035 464.531,780.035 464.531,780.035 465,780.035 465,780.035 465.469,780.035 465.469,780.035 465.469,821.436 465.469,780.035 465.938,780.035 465.938,780.035 466.406,780.035 466.406,780.035 466.875,738.632 466.875,780.035 467.344,738.632 467.344,738.632 467.344,738.632 467.344,738.632 467.344,738.632 467.812,738.632 467.812,738.632 468.281,738.632 468.281,738.632 468.75,738.632 468.75,738.632 469.219,738.632 469.219,738.632 469.219,738.632 469.219,738.632 469.688,738.632 470.156,738.632 470.156,738.632 470.156,738.632 470.625,738.632 470.625,697.231 471.094,697.231 471.094,697.231 471.562,697.231 471.562,697.231 471.562,697.231 471.562,697.231 472.031,697.231 472.031,655.829 472.5,655.829 472.5,697.231 472.969,697.231 472.969,697.231 473.438,697.231 473.438,697.231 473.438,697.231 473.438,697.231 473.438,697.231 473.906,655.829 473.906,655.829 474.375,697.231 474.375,697.231 474.844,697.231 474.844,697.231 475.312,697.231 475.312,697.231 475.312,697.231 475.312,697.231 475.781,697.231 475.781,697.231 475.781,697.231 476.25,697.231 476.25,697.231 476.719,697.231 476.719,738.632 477.188,738.632 477.188,780.035 477.656,780.035 477.656,738.632 477.656,738.632 477.656,738.632 478.125,738.632 478.125,738.632 478.594,738.632 478.594,780.035 479.062,738.632 479.062,738.632 479.062,738.632 479.531,738.632 479.531,738.632 479.531,738.632 479.531,738.632 480,738.632 480,738.632 480.469,738.632 480.469,738.632 480.938,697.231 480.938,738.632 481.406,738.632 481.406,697.231 481.406,697.231 481.406,697.231 481.406,697.231 481.875,697.231 481.875,697.231 482.344,697.231 482.344,655.829 482.812,697.231 482.812,697.231 483.281,697.231 483.281,697.231 483.75,697.231 483.75,697.231 483.75,697.231 483.75,697.231 484.219,697.231 484.219,655.829 484.688,697.231 484.688,697.231 484.688,655.829 485.156,655.829 485.156,697.231 485.625,655.829 485.625,655.829 485.625,655.829 485.625,697.231 486.094,697.231 486.094,655.829 486.562,655.829 486.562,655.829 487.031,655.829 487.031,655.829 487.5,655.829 487.5,655.829 487.5,697.231 487.5,655.829 487.5,655.829 487.969,697.231 487.969,697.231 488.438,655.829 488.438,697.231 488.906,697.231 488.906,697.231 489.375,697.231 489.375,697.231 489.844,655.829 489.844,697.231 489.844,655.829 489.844,655.829 490.312,655.829 490.312,655.829 490.312,655.829 490.781,655.829 490.781,655.829 491.25,655.829 491.25,655.829 491.719,614.427 491.719,655.829 491.719,614.427 491.719,655.829 492.188,655.829 492.188,655.829 492.656,655.829 492.656,655.829 493.125,655.829 493.125,655.829 493.125,655.829 493.594,655.829 493.594,655.829 493.594,655.829 493.594,655.829 494.062,655.829 494.062,655.829 494.531,655.829 494.531,655.829 495,655.829 495,697.231 495.469,655.829 495.469,655.829 495.938,655.829 495.938,655.829 495.938,697.231 495.938,655.829 495.938,697.231 496.406,655.829 496.406,697.231 496.875,697.231 496.875,655.829 497.344,697.231 497.344,697.231 497.812,655.829 497.812,697.231 497.812,697.231 497.812,655.829 498.281,697.231 498.281,697.231 498.75,697.231 498.75,697.231 498.75,697.231 499.219,697.231 499.219,697.231 499.688,697.231 499.688,738.632 499.688,738.632 499.688,738.632 500.156,738.632 500.156,738.632 500.625,780.035 500.625,780.035 501.094,780.035 501.094,780.035 501.562,821.436 501.562,780.035 502.031,780.035 502.031,780.035 502.031,780.035 502.031,780.035 502.031,780.035 502.5,738.632 502.5,780.035 502.969,780.035 502.969,738.632 503.438,738.632 503.438,738.632 503.906,738.632 503.906,697.231 503.906,738.632 503.906,738.632 504.375,697.231 504.375,697.231 504.375,738.632 504.844,697.231 504.844,738.632 505.312,738.632 505.312,738.632 505.781,697.231 505.781,697.231 505.781,697.231 505.781,697.231 506.25,738.632 506.25,738.632 506.719,738.632 506.719,738.632 507.188,697.231 507.188,697.231 507.656,697.231 507.656,697.231 507.656,697.231 508.125,697.231 508.125,697.231 508.125,697.231 508.125,697.231 508.594,655.829 508.594,697.231 509.062,697.231 509.062,697.231 509.531,655.829 509.531,697.231 510,655.829 510,655.829 510,655.829 510,655.829 510,655.829 510.469,614.427 510.469,655.829 510.938,655.829 510.938,655.829 511.406,655.829 511.406,655.829 511.875,697.231 511.875,697.231 511.875,697.231 511.875,655.829 512.344,655.829 512.344,697.231 512.812,697.231 512.812,655.829 513.281,697.231 513.281,697.231 513.281,697.231 513.75,697.231 513.75,697.231 514.219,697.231 514.219,738.632 514.219,738.632 514.219,738.632 514.688,738.632 514.688,738.632 515.156,697.231 515.156,697.231 515.625,697.231 515.625,697.231 516.094,697.231 516.094,697.231 516.094,655.829 516.094,655.829 516.094,655.829 516.562,655.829 516.562,655.829 517.031,655.829 517.031,655.829 517.5,655.829 517.5,655.829 517.969,655.829 517.969,655.829 517.969,655.829 517.969,655.829 518.438,655.829 518.438,614.427 518.906,614.427 518.906,614.427 518.906,614.427 519.375,614.427 519.375,614.427 519.844,614.427 519.844,614.427 520.312,614.427 520.312,614.427 520.312,614.427 520.312,614.427 520.781,614.427 520.781,614.427 521.25,655.829 521.25,655.829 521.719,655.829 521.719,697.231 521.719,697.231 522.188,697.231 522.188,697.231 522.188,697.231 522.188,697.231 522.656,697.231 522.656,697.231 523.125,697.231 523.125,697.231 523.594,738.632 523.594,738.632 524.062,738.632 524.062,697.231 524.062,697.231 524.062,697.231 524.531,697.231 524.531,697.231 524.531,697.231 525,655.829 525,697.231 525.469,697.231 525.469,697.231 525.938,697.231 525.938,697.231 526.406,780.035 526.406,780.035 526.406,780.035 526.406,821.436 526.875,780.035 526.875,780.035 527.344,821.436 527.344,780.035 527.344,821.436 527.812,780.035 527.812,821.436 528.281,780.035 528.281,780.035 528.281,780.035 528.281,780.035 528.75,780.035 528.75,821.436 529.219,780.035 529.219,780.035 529.688,821.436 529.688,780.035 530.156,780.035 530.156,780.035 530.156,780.035 530.156,738.632 530.156,738.632 530.625,738.632 530.625,738.632 531.094,697.231 531.094,697.231 531.562,697.231 531.562,697.231 532.031,697.231 532.031,738.632 532.5,697.231 532.5,738.632 532.5,738.632 532.5,738.632 532.969,738.632 532.969,738.632 532.969,738.632 533.438,780.035 533.438,780.035 533.906,780.035 533.906,780.035 534.375,780.035 534.375,780.035 534.375,780.035 534.375,780.035 534.844,780.035 534.844,780.035 535.312,821.436 535.312,821.436 535.781,821.436 536.25,821.436 536.25,780.035 536.25,821.436 536.25,821.436 536.25,821.436 536.719,821.436 536.719,821.436 537.188,780.035 537.188,862.839 537.656,821.436 537.656,821.436 538.125,821.436 538.125,821.436 538.594,780.035 538.594,821.436 538.594,821.436 538.594,821.436 538.594,780.035 539.062,780.035 539.062,780.035 539.531,821.436 539.531,821.436 540,780.035 540,780.035 540.469,780.035 540.469,780.035 540.469,780.035 540.469,780.035 540.938,780.035 540.938,780.035 541.406,780.035 541.406,780.035 541.875,821.436 541.875,780.035 541.875,780.035 542.344,780.035 542.344,821.436 542.344,780.035 542.344,821.436 542.812,780.035 542.812,821.436 543.281,821.436 543.281,780.035 543.75,821.436 543.75,780.035 544.219,780.035 544.219,821.436 544.688,821.436 544.688,821.436 544.688,862.839 544.688,862.839 544.688,862.839 545.156,904.24 545.156,862.839 545.625,862.839 545.625,904.24 546.094,862.839 546.094,821.436 546.562,862.839 546.562,821.436 546.562,821.436 546.562,821.436 547.031,862.839 547.031,821.436 547.5,821.436 547.5,821.436 547.5,821.436 547.969,821.436 547.969,780.035 548.438,780.035 548.438,780.035 548.438,821.436 548.438,821.436 548.906,821.436 548.906,821.436 549.375,821.436 549.375,821.436 549.844,780.035 549.844,780.035 550.312,780.035 550.312,780.035 550.312,780.035 550.781,780.035 550.781,780.035 550.781,821.436 550.781,821.436 551.25,780.035 551.25,821.436 551.719,821.436 551.719,821.436 552.188,780.035 552.188,780.035 552.656,780.035 552.656,821.436 552.656,821.436 552.656,821.436 553.125,821.436 553.125,821.436 553.125,780.035 553.594,780.035 553.594,738.632 554.062,780.035 554.062,780.035 554.531,738.632 554.531,738.632 555,780.035 555,821.436 555,780.035 555,780.035 555.469,780.035 555.469,780.035 555.938,780.035 555.938,780.035 555.938,780.035 556.406,780.035 556.406,780.035 556.875,738.632 556.875,780.035 556.875,780.035 556.875,738.632 557.344,738.632 557.344,780.035 557.812,780.035 557.812,780.035 558.281,780.035 558.281,780.035 558.75,780.035 558.75,738.632 558.75,738.632 558.75,738.632 558.75,738.632 559.219,738.632 559.219,738.632 559.688,738.632 559.688,738.632 560.156,738.632 560.156,738.632 560.625,738.632 560.625,738.632 561.094,738.632 561.094,738.632 561.094,738.632 561.094,738.632 561.562,738.632 561.562,738.632 561.562,738.632 562.031,738.632 562.031,738.632 562.5,738.632 562.5,738.632 562.969,738.632 562.969,738.632 562.969,738.632 562.969,738.632 563.438,738.632 563.438,738.632 563.906,780.035 563.906,738.632 564.375,738.632 564.375,780.035 564.844,738.632 564.844,738.632 564.844,738.632 564.844,738.632 564.844,738.632 565.312,738.632 565.312,738.632 565.781,738.632 565.781,738.632 566.25,738.632 566.25,738.632 566.719,738.632 566.719,780.035 567.188,738.632 567.188,780.035 567.188,780.035 567.188,780.035 567.188,738.632 567.656,780.035 567.656,780.035 568.125,738.632 568.125,738.632 568.594,780.035 568.594,738.632 569.062,738.632 569.062,780.035 569.062,738.632 569.062,738.632 569.531,738.632 569.531,738.632 570,738.632 570,738.632 570.469,738.632 570.469,738.632 570.469,738.632 570.938,738.632 570.938,738.632 570.938,697.231 570.938,697.231 571.406,697.231 571.406,697.231 571.875,697.231 571.875,697.231 572.344,697.231 572.344,697.231 572.812,697.231 572.812,697.231 573.281,697.231 573.281,697.231 573.281,697.231 573.281,697.231 573.281,697.231 573.75,697.231 573.75,738.632 574.219,738.632 574.219,738.632 574.688,697.231 574.688,697.231 575.156,697.231 575.156,738.632 575.156,697.231 575.156,738.632 575.625,697.231 575.625,697.231 576.094,697.231 576.094,697.231 576.094,697.231 576.562,697.231 576.562,697.231 577.031,738.632 577.031,697.231 577.031,738.632 577.031,780.035 577.5,780.035 577.5,780.035 577.969,780.035 577.969,738.632 578.438,738.632 578.438,780.035 578.906,821.436 578.906,821.436 578.906,780.035 579.375,780.035 579.375,780.035 579.375,780.035 579.375,738.632 579.844,738.632 579.844,738.632 580.312,738.632 580.312,738.632 580.781,738.632 580.781,738.632 581.25,738.632 581.25,738.632 581.25,738.632 581.25,738.632 581.719,738.632 581.719,738.632 581.719,780.035 582.188,738.632 582.188,780.035 582.656,780.035 582.656,780.035 583.125,780.035 583.125,738.632 583.125,738.632 583.125,738.632 583.594,738.632 583.594,780.035 584.062,738.632 584.062,738.632 584.531,738.632 584.531,738.632 585,738.632 585,738.632 585,738.632 585.469,697.231 585.469,738.632 585.469,697.231 585.469,697.231 585.938,697.231 585.938,655.829 586.406,655.829 586.406,655.829 586.875,614.427 586.875,655.829 587.344,655.829 587.344,655.829 587.344,655.829 587.344,655.829 587.344,655.829 587.812,655.829 588.281,655.829 588.281,655.829 588.75,655.829 588.75,655.829 589.219,655.829 589.219,697.231 589.219,697.231 589.219,697.231 589.688,655.829 589.688,697.231 590.156,697.231 590.156,697.231 590.156,697.231 590.625,697.231 590.625,738.632 591.094,697.231 591.094,738.632 591.562,738.632 591.562,738.632 591.562,697.231 591.562,697.231 592.031,738.632 592.031,738.632 592.5,738.632 592.5,738.632 592.969,738.632 592.969,738.632 593.438,738.632 593.438,738.632 593.438,738.632 593.438,738.632 593.438,738.632 593.906,697.231 593.906,738.632 594.375,738.632 594.375,738.632 594.844,738.632 594.844,738.632 595.312,738.632 595.312,697.231 595.312,738.632 595.312,738.632 595.781,738.632 595.781,738.632 596.25,738.632 596.25,738.632 596.25,697.231 596.719,697.231 596.719,738.632 597.188,697.231 597.188,697.231 597.656,697.231 597.656,697.231 597.656,738.632 597.656,738.632 598.125,738.632 598.125,738.632 598.594,780.035 598.594,780.035 599.062,780.035 599.062,780.035 599.062,780.035 599.531,738.632 599.531,738.632 599.531,738.632 599.531,738.632 600,780.035 600,738.632 600.469,738.632 600.469,738.632 600.938,738.632 600.938,738.632 601.406,738.632 601.406,780.035 601.406,780.035 601.406,738.632 601.406,738.632 601.875,738.632 601.875,738.632 602.344,738.632 602.344,738.632 602.812,738.632 602.812,738.632 603.281,738.632 603.281,738.632 603.75,780.035 603.75,780.035 603.75,780.035 603.75,738.632 604.219,738.632 604.219,738.632 604.688,738.632 604.688,780.035 604.688,738.632 605.156,738.632 605.156,738.632 605.625,780.035 605.625,780.035 605.625,780.035 605.625,738.632 606.094,738.632 606.094,738.632 606.562,738.632 606.562,738.632 607.031,738.632 607.031,738.632 607.5,738.632 607.5,738.632 607.5,697.231 607.5,697.231 607.5,655.829 607.969,655.829 607.969,655.829 608.438,655.829 608.438,655.829 608.906,655.829 608.906,655.829 609.375,655.829 609.375,655.829 609.844,655.829 609.844,655.829 609.844,655.829 609.844,614.427 610.312,614.427 610.312,614.427 610.312,614.427 610.781,655.829 610.781,655.829 611.25,655.829 611.25,655.829 611.719,655.829 611.719,614.427 611.719,614.427 611.719,614.427 612.188,614.427 612.188,614.427 612.656,614.427 612.656,614.427 613.125,614.427 613.125,614.427 613.594,614.427 613.594,614.427 613.594,614.427 613.594,614.427 613.594,655.829 614.062,655.829 614.062,655.829 614.531,655.829 614.531,655.829 615,655.829 615,655.829 615.469,655.829 615.469,655.829 615.938,655.829 615.938,655.829 615.938,655.829 615.938,655.829 615.938,655.829 616.406,655.829 616.406,655.829 616.875,655.829 616.875,655.829 617.344,655.829 617.344,655.829 617.812,655.829 617.812,655.829 617.812,655.829 617.812,655.829 618.281,655.829 618.281,655.829 618.75,655.829 618.75,655.829 619.219,655.829 619.219,655.829 619.219,655.829 619.688,655.829 619.688,697.231 619.688,655.829 619.688,697.231 620.156,697.231 620.156,697.231 620.625,697.231 620.625,697.231 621.094,697.231 621.094,697.231 621.562,697.231 621.562,697.231 622.031,697.231 622.031,697.231 622.031,697.231 622.031,697.231 622.031,697.231 622.5,697.231 622.5,697.231 622.969,697.231 622.969,697.231 623.438,697.231 623.438,697.231 623.906,738.632 623.906,697.231 623.906,697.231 623.906,697.231 624.375,697.231 624.375,738.632 624.844,697.231 624.844,738.632 624.844,738.632 625.312,738.632 625.312,697.231 625.781,697.231 625.781,697.231 625.781,697.231 625.781,697.231 626.25,738.632 626.25,738.632 626.719,738.632 626.719,738.632 627.188,780.035 627.188,738.632 627.656,738.632 627.656,780.035 627.656,780.035 628.125,821.436 628.125,780.035 628.125,821.436 628.125,821.436 628.594,780.035 628.594,821.436 629.062,780.035 629.062,780.035 629.531,821.436 629.531,821.436 630,821.436 630,780.035 630,780.035 630,780.035 630.469,780.035 630.469,738.632 630.469,780.035 630.938,738.632 630.938,738.632 631.406,738.632 631.406,780.035 631.875,780.035 631.875,780.035 631.875,780.035 631.875,738.632 632.344,738.632 632.344,738.632 632.812,780.035 632.812,780.035 633.281,738.632 633.281,738.632 633.281,780.035 633.75,738.632 633.75,738.632 634.219,738.632 634.219,738.632 634.219,697.231 634.219,697.231 634.688,697.231 634.688,697.231 635.156,697.231 635.156,738.632 635.625,738.632 635.625,738.632 636.094,697.231 636.094,697.231 636.094,738.632 636.094,738.632 636.094,738.632 636.562,738.632 636.562,738.632 637.031,738.632 637.031,780.035 637.5,780.035 637.5,780.035 637.969,780.035 637.969,780.035 637.969,780.035 637.969,738.632 638.438,780.035 638.438,738.632 638.906,821.436 638.906,780.035 638.906,780.035 639.375,780.035 639.375,780.035 639.844,780.035 639.844,780.035 640.312,780.035 640.312,780.035 640.312,780.035 640.312,780.035 640.781,780.035 640.781,780.035 641.25,780.035 641.25,780.035 641.719,738.632 641.719,780.035 642.188,780.035 642.188,780.035 642.188,780.035 642.188,780.035 642.188,780.035 642.656,780.035 642.656,780.035 643.125,780.035 643.125,780.035 643.594,780.035 643.594,780.035 644.062,780.035 644.062,780.035 644.062,780.035 644.062,738.632 644.531,738.632 644.531,738.632 644.531,738.632 645,738.632 645,738.632 645.469,780.035 645.469,780.035 645.938,738.632 645.938,780.035 646.406,780.035 646.406,780.035 646.406,780.035 646.406,780.035 646.875,780.035 646.875,780.035 647.344,780.035 647.344,821.436 647.812,780.035 647.812,780.035 647.812,780.035 648.281,780.035 648.281,780.035 648.281,780.035 648.281,821.436 648.75,821.436 648.75,821.436 649.219,821.436 649.219,821.436 649.688,780.035 649.688,821.436 650.156,821.436 650.156,821.436 650.156,821.436 650.156,821.436 650.156,821.436 650.625,780.035 650.625,821.436 651.094,821.436 651.094,821.436 651.562,821.436 651.562,780.035 652.031,780.035 652.031,780.035 652.5,780.035 652.5,780.035 652.5,738.632 652.5,738.632 652.969,738.632 652.969,738.632 653.438,738.632 653.438,738.632 653.438,738.632 653.906,738.632 653.906,738.632 654.375,738.632 654.375,738.632 654.375,738.632 654.375,697.231 654.844,738.632 654.844,738.632 655.312,697.231 655.312,738.632 655.781,738.632 655.781,738.632 656.25,738.632 656.25,738.632 656.25,738.632 656.25,738.632 656.25,738.632 656.719,738.632 656.719,738.632 657.188,738.632 657.188,738.632 657.656,738.632 657.656,780.035 658.125,738.632 658.594,738.632 658.594,738.632 658.594,738.632 658.594,738.632 659.062,738.632 659.062,738.632 659.062,738.632 659.531,738.632 659.531,738.632 660,738.632 660,738.632 660.469,738.632 660.469,738.632 660.469,697.231 660.469,738.632 660.938,738.632 660.938,738.632 661.406,697.231 661.406,697.231 661.875,697.231 661.875,697.231 661.875,697.231 662.344,697.231 662.344,697.231 662.344,697.231 662.344,697.231 662.812,697.231 662.812,697.231 663.281,697.231 663.281,697.231 663.75,697.231 663.75,655.829 664.219,697.231 664.219,655.829 664.688,655.829 664.688,655.829 664.688,655.829 664.688,655.829 664.688,614.427 665.156,614.427 665.156,614.427 665.625,614.427 665.625,614.427 666.094,614.427 666.094,614.427 666.562,614.427 666.562,614.427 666.562,614.427 666.562,614.427 667.031,614.427 667.031,614.427 667.5,614.427 667.5,614.427 667.5,655.829 667.969,655.829 667.969,655.829 668.438,655.829 668.438,655.829 668.438,655.829 668.438,655.829 668.906,655.829 668.906,614.427 669.375,614.427 669.375,614.427 669.844,614.427 669.844,614.427 670.312,614.427 670.312,614.427 670.781,614.427 670.781,614.427 670.781,655.829 670.781,655.829 670.781,655.829 671.25,655.829 671.25,655.829 671.719,655.829 671.719,655.829 672.188,655.829 672.188,655.829 672.656,655.829 672.656,655.829 672.656,655.829 672.656,655.829 673.125,697.231 673.125,655.829 673.125,655.829 673.594,655.829 673.594,655.829 674.062,697.231 674.062,697.231 674.531,655.829 674.531,697.231 674.531,697.231 674.531,697.231 675,697.231 675,697.231 675.469,697.231 675.469,697.231 675.938,697.231 675.938,697.231 676.406,697.231 676.406,738.632 676.875,697.231 676.875,697.231 676.875,697.231 676.875,697.231 677.344,697.231 677.344,697.231 677.812,697.231 677.812,697.231 678.281,697.231 678.281,697.231 678.75,697.231 678.75,697.231 678.75,697.231 678.75,697.231 678.75,697.231 679.219,697.231 679.219,697.231 679.688,697.231 679.688,697.231 680.156,738.632 680.156,738.632 680.625,738.632 680.625,738.632 680.625,738.632 680.625,738.632 681.094,738.632 681.094,738.632 681.562,738.632 681.562,738.632 682.031,738.632 682.031,738.632 682.031,738.632 682.5,738.632 682.5,738.632 682.969,738.632 682.969,738.632 682.969,738.632 682.969,738.632 683.438,738.632 683.438,738.632 683.906,738.632 683.906,738.632 684.375,738.632 684.844,738.632 684.844,738.632 684.844,738.632 684.844,738.632 684.844,738.632 685.312,738.632 685.312,738.632 685.781,738.632 685.781,738.632 686.25,738.632 686.25,738.632 686.719,738.632 686.719,738.632 686.719,738.632 686.719,738.632 687.188,738.632 687.188,738.632 687.656,738.632 687.656,738.632 687.656,780.035 688.125,738.632 688.125,780.035 688.594,738.632 688.594,738.632 689.062,738.632 689.062,738.632 689.062,738.632 689.062,738.632 689.531,780.035 689.531,780.035 690,780.035 690,780.035 690.469,780.035 690.469,780.035 690.469,738.632 690.938,738.632 690.938,738.632 690.938,738.632 690.938,738.632 691.406,738.632 691.406,738.632 691.875,738.632 691.875,738.632 692.344,738.632 692.344,738.632 692.812,738.632 692.812,738.632 692.812,738.632 692.812,738.632 693.281,738.632 693.281,738.632 693.281,738.632 693.75,738.632 693.75,738.632 694.219,738.632 694.219,738.632 694.688,738.632 694.688,738.632 695.156,738.632 695.156,738.632 695.156,738.632 695.156,738.632 695.625,738.632 695.625,738.632 696.094,738.632 696.094,780.035 696.094,738.632 696.562,738.632 696.562,738.632 697.031,738.632 697.031,738.632 697.031,738.632 697.031,738.632 697.5,738.632 697.5,738.632 697.969,738.632 697.969,780.035 698.438,780.035 698.438,780.035 698.906,780.035 698.906,780.035 698.906,738.632 698.906,738.632 698.906,738.632 699.375,738.632 699.375,738.632 699.844,738.632 699.844,738.632 700.312,738.632 700.312,738.632 700.781,738.632 700.781,738.632 701.25,738.632 701.25,738.632 701.25,738.632 700.781,738.632 701.25,738.632 701.25,738.632 701.25,780.035 701.25,780.035 701.25,780.035 701.719,780.035 701.719,780.035 702.188,738.632 702.188,738.632 702.656,738.632 702.656,738.632 703.125,738.632 703.125,738.632 703.125,738.632 703.125,780.035 703.594,738.632 703.594,738.632 704.062,738.632 704.062,738.632 704.531,780.035 704.531,780.035 704.531,780.035 705,780.035 705,780.035 705,780.035 705,780.035 705.469,780.035 705.469,738.632 705.938,738.632 705.938,738.632 706.406,780.035 706.406,780.035 706.875,738.632 706.875,780.035 707.344,738.632 707.344,738.632 707.344,738.632 707.344,738.632 707.344,738.632 707.812,738.632 707.812,738.632 708.281,738.632 708.281,738.632 708.75,738.632 708.75,738.632 709.219,738.632 709.219,738.632 709.219,738.632 709.219,738.632 709.688,780.035 709.688,780.035 710.156,780.035 710.156,738.632 710.156,780.035 710.625,780.035 710.625,738.632 711.094,780.035 711.094,780.035 711.094,780.035 711.094,780.035 711.562,780.035 711.562,780.035 712.031,738.632 712.031,738.632 712.5,738.632 712.5,738.632 712.969,738.632 712.969,738.632 712.969,738.632 713.438,738.632 713.438,738.632 713.438,697.231 713.438,738.632 713.906,738.632 713.906,738.632 714.375,697.231 714.375,738.632 714.844,697.231 714.844,738.632 715.312,697.231 715.312,697.231 715.312,697.231 715.312,697.231 715.781,697.231 715.781,697.231 715.781,697.231 716.25,697.231 716.25,697.231 716.719,697.231 716.719,697.231 717.188,697.231 717.188,697.231 717.656,697.231 717.656,697.231 717.656,697.231 717.656,697.231 718.125,697.231 718.125,697.231 718.594,697.231 718.594,697.231 719.062,697.231 719.062,697.231 719.062,697.231 719.531,738.632 719.531,697.231 719.531,738.632 719.531,738.632 720,697.231 720,738.632 720.469,697.231 720.469,738.632 720.938,738.632 720.938,738.632 721.406,738.632 721.406,738.632 721.406,738.632 721.406,738.632 721.406,738.632 721.875,738.632 721.875,738.632 722.344,738.632 722.344,738.632 722.812,738.632 722.812,738.632 723.281,780.035 723.281,738.632 723.75,738.632 723.75,738.632 723.75,738.632 723.75,738.632 724.219,738.632 724.219,738.632 724.219,738.632 724.688,738.632 724.688,738.632 725.156,738.632 725.156,738.632 725.625,738.632 725.625,738.632 725.625,738.632 725.625,738.632 726.094,738.632 726.094,738.632 726.562,738.632 726.562,738.632 727.031,738.632 727.031,738.632 727.5,697.231 727.5,738.632 727.5,738.632 727.5,738.632 727.5,697.231 727.969,738.632 727.969,697.231 728.438,697.231 728.438,738.632 728.906,738.632 728.906,738.632 729.375,738.632 729.375,738.632 729.844,738.632 729.844,738.632 729.844,738.632 729.844,738.632 730.312,738.632 730.312,738.632 730.312,738.632 730.781,738.632 730.781,738.632 731.25,738.632 731.25,738.632 731.719,738.632 731.719,738.632 731.719,738.632 731.719,738.632 732.188,738.632 732.188,738.632 732.656,738.632 732.656,738.632 733.125,780.035 733.125,738.632 733.125,780.035 733.594,780.035 733.594,780.035 733.594,780.035 733.594,780.035 734.062,780.035 734.062,780.035 734.531,780.035 734.531,780.035 735,780.035 735,780.035 735.469,780.035 735.469,821.436 735.938,821.436 735.938,821.436 735.938,780.035 735.938,780.035 735.938,780.035 736.406,821.436 736.406,780.035 736.875,780.035 736.875,780.035 737.344,780.035 737.344,780.035 737.812,780.035 737.812,780.035 737.812,780.035 737.812,780.035 738.281,780.035 738.281,780.035 738.75,780.035 738.75,780.035 738.75,780.035 739.219,780.035 739.219,780.035 739.688,738.632 739.688,780.035 739.688,821.436 739.688,821.436 740.156,821.436 740.156,862.839 740.625,862.839 740.625,862.839 741.094,821.436 741.094,862.839 741.562,862.839 741.562,821.436 742.031,821.436 742.031,821.436 742.031,780.035 742.031,780.035 742.031,780.035 742.5,780.035 742.5,780.035 742.969,780.035 742.969,780.035 743.438,780.035 743.438,780.035 743.906,780.035 743.906,738.632 743.906,780.035 743.906,780.035 744.375,780.035 744.375,780.035 744.375,780.035 744.844,780.035 744.844,780.035 745.312,780.035 745.312,780.035 745.781,821.436 745.781,780.035 745.781,821.436 745.781,821.436 746.25,821.436 746.25,821.436 746.719,821.436 746.719,780.035 747.188,821.436 747.188,821.436 747.656,780.035 747.656,821.436 747.656,821.436 748.125,780.035 748.125,780.035 748.125,780.035 748.125,821.436 748.594,821.436 748.594,821.436 749.062,821.436 749.062,821.436 749.531,821.436 749.531,821.436 750,821.436 750,780.035 750,821.436 750,780.035 750,780.035 750.469,821.436 750.469,821.436 750.938,821.436 750.938,821.436 751.406,821.436 751.406,821.436 751.875,821.436 751.875,780.035 751.875,821.436 751.875,780.035 752.344,780.035 752.344,780.035 752.812,780.035 752.812,780.035 753.281,780.035 753.281,780.035 753.281,780.035 753.75,780.035 753.75,780.035 754.219,780.035 754.219,780.035 754.219,780.035 754.219,780.035 754.688,780.035 754.688,780.035 755.156,821.436 755.156,780.035 755.625,821.436 755.625,780.035 756.094,780.035 756.094,780.035 756.094,780.035 756.094,780.035 756.094,780.035 756.562,780.035 756.562,780.035 757.031,780.035 757.031,780.035 757.5,780.035 757.5,780.035 757.969,780.035 757.969,780.035 757.969,780.035 757.969,780.035 758.438,780.035 758.438,780.035 758.906,780.035 758.906,780.035 758.906,780.035 759.375,780.035 759.375,780.035 759.844,780.035 759.844,780.035 760.312,738.632 760.312,738.632 760.312,738.632 760.312,738.632 760.781,738.632 760.781,780.035 761.25,738.632 761.25,738.632 761.719,780.035 761.719,738.632 761.719,780.035 762.188,780.035 762.188,780.035 762.188,780.035 762.188,780.035 762.656,780.035 762.656,738.632 763.125,780.035 763.125,780.035 763.594,821.436 763.594,821.436 764.062,821.436 764.062,821.436 764.062,821.436 764.062,821.436 764.531,821.436 764.531,821.436 764.531,821.436 765,821.436 765,821.436 765.469,821.436 765.469,780.035 765.938,780.035 765.938,780.035 766.406,780.035 766.406,780.035 766.406,780.035 766.406,780.035 766.875,780.035 766.875,780.035 767.344,780.035 767.344,780.035 767.344,780.035 767.812,780.035 767.812,780.035 768.281,780.035 768.281,780.035 768.281,780.035 768.281,821.436 768.75,821.436 908.438,655.829 1038.28,655.829 1042.5,697.231 1042.5,697.231 1042.97,697.231 1042.97,697.231 1044.38,738.632 1044.84,697.231 1046.72,738.632 1055.16,697.231 1055.16,697.231 1055.62,697.231 1056.56,614.427 1057.03,655.829 1057.03,655.829 1058.44,697.231 1058.44,738.632 1058.91,738.632 1058.91,697.231 1059.84,614.427 1060.31,655.829 1060.78,655.829 1060.78,655.829 1061.25,655.829 1061.72,655.829 1062.19,614.427 1063.59,697.231 1064.06,697.231 1065,655.829 1067.34,655.829 1069.69,697.231 1070.16,697.231 1070.62,738.632 1070.62,738.632 1071.09,738.632 1074.84,655.829 1075.31,614.427 1077.19,614.427 1077.66,655.829 1078.12,614.427 1081.41,614.427 1083.75,614.427 1084.69,573.025 1085.62,573.025 1087.03,614.427 1089.38,573.025 1089.38,614.427 1089.38,573.025 1089.38,614.427 1090.78,614.427 1092.66,655.829 1092.66,655.829 1093.12,655.829 1093.59,655.829 1093.59,655.829 1093.59,655.829 1093.59,655.829 1093.59,655.829 1094.06,655.829 1094.06,697.231 1094.53,655.829 1095,655.829 1095.47,655.829 1095.94,697.231 1095.94,697.231 1095.94,655.829 1096.41,655.829 1096.41,655.829 1096.88,655.829 1096.88,655.829 1097.34,655.829 1100.16,655.829 1100.62,655.829 1101.09,655.829 1102.03,614.427 1102.03,573.025 1102.5,573.025 1103.91,614.427 1103.91,614.427 1104.38,614.427 1104.38,614.427 1104.84,614.427 1104.84,614.427 1105.31,614.427 1105.31,614.427 1105.78,614.427 1105.78,614.427 1105.78,614.427 1105.78,614.427 1106.25,614.427 1106.25,614.427 1106.72,614.427 1106.72,614.427 1107.19,614.427 1107.19,573.025 1107.66,614.427 1110,614.427 1110,614.427 1110,614.427 1110.47,614.427 1110.47,614.427 1110.47,573.025 1110.94,614.427 1110.94,614.427 1111.41,614.427 1111.88,614.427 1111.88,614.427 1111.88,614.427 1111.88,614.427 1112.34,655.829 1112.34,655.829 1112.81,614.427 1113.28,614.427 1113.28,614.427 1114.69,573.025 1115.16,573.025 1115.62,531.622 1116.09,573.025 1116.56,573.025 1118.44,573.025 1118.91,573.025 1118.91,573.025 1119.38,573.025 1119.38,573.025 1119.84,573.025 1119.84,573.025 1119.84,573.025 1119.84,573.025 1120.31,573.025 1120.78,573.025 1120.78,573.025 1121.25,573.025 1121.25,614.427 1121.72,614.427 1121.72,614.427 1122.19,614.427 1122.66,614.427 1123.12,614.427 1123.12,614.427 1124.53,655.829 1124.53,655.829 1125,655.829 1125,655.829 1125.47,655.829 1125.47,614.427 1125.94,614.427 1125.94,614.427 1126.41,614.427 1127.81,573.025 1130.16,614.427 1130.62,614.427 1131.09,614.427 1132.03,614.427 1132.97,573.025 1132.97,614.427 1135.78,573.025 1136.25,573.025 1138.59,655.829 1139.06,614.427 1139.53,573.025 1140,573.025 1140.47,614.427 1140.47,573.025 1140.47,573.025 1140.94,573.025 1140.94,614.427 1141.41,614.427 1141.41,614.427 1141.88,614.427 1141.88,614.427 1141.88,614.427 1142.34,614.427 1142.34,614.427 1146.56,655.829 1147.03,655.829 1147.03,655.829 1147.97,655.829 1148.44,655.829 1148.44,655.829 1148.44,655.829 1148.44,655.829 1148.91,614.427 1149.38,614.427 1149.84,614.427 1150.31,655.829 1150.31,655.829 1150.31,614.427 1151.25,614.427 1151.72,614.427 1156.41,697.231 1156.41,697.231 1156.88,697.231 1156.88,697.231 1157.34,655.829 1157.34,655.829 1157.81,655.829 1158.28,655.829 1158.28,655.829 1158.75,655.829 1158.75,655.829 1158.75,655.829 1158.75,655.829 1158.75,655.829 1159.22,655.829 1159.22,655.829 1159.69,655.829 1159.69,655.829 1160.16,655.829 1160.16,655.829 1160.62,655.829 1160.62,655.829 1160.62,655.829 1161.09,655.829 1161.09,655.829 1166.25,614.427 1166.72,614.427 1167.19,614.427 1167.66,614.427 1168.12,573.025 1168.12,614.427 1168.59,614.427 1168.59,655.829 1168.59,655.829 1169.06,614.427 1169.53,614.427 1169.53,614.427 1170,655.829 1170,655.829 1170.47,655.829 1170.47,655.829 1170.47,614.427 1170.94,614.427 1170.94,614.427 1170.94,655.829 1170.94,614.427 1171.41,614.427 1171.41,614.427 1171.88,614.427 1171.88,614.427 1172.34,614.427 1176.09,490.22 1177.03,490.22 1183.12,531.622 1183.59,531.622 1183.59,531.622 1184.06,531.622 1184.06,531.622 1184.53,531.622 1184.53,573.025 1185,573.025 1185,573.025 1185,573.025 1185,573.025 1185,573.025 1185.47,573.025 1185.47,573.025 1185.94,573.025 1185.94,614.427 1186.41,614.427 1186.41,573.025 1186.88,573.025 1186.88,573.025 1186.88,573.025 1186.88,573.025 1187.34,614.427 1187.34,614.427 1187.34,614.427 1187.81,614.427 1188.28,614.427 1188.28,614.427 1188.75,614.427 1188.75,614.427 1189.22,655.829 1189.22,655.829 1189.22,655.829 1189.69,697.231 1189.69,697.231 1190.16,697.231 1190.16,697.231 1190.62,655.829 1190.62,655.829 1190.62,655.829 1191.09,614.427 1191.09,614.427 1191.56,614.427 1207.5,655.829 1207.97,655.829 1207.97,655.829 1208.44,655.829 1208.44,655.829 1208.91,655.829 1208.91,655.829 1209.38,655.829 1209.38,655.829 1209.38,655.829 1209.38,655.829 1209.84,697.231 1209.84,697.231 1210.31,655.829 1210.31,697.231 1210.31,697.231 1210.78,697.231 1210.78,697.231 1211.25,697.231 1211.72,697.231 1211.72,697.231 1211.72,697.231 1212.19,697.231 1212.19,697.231 1212.66,697.231 1213.12,697.231 1213.12,697.231 1217.34,697.231 1217.81,697.231 1217.81,697.231 1219.22,697.231 1222.97,573.025 1223.44,614.427 1223.44,573.025 1223.91,573.025 1223.91,614.427 1224.38,614.427 1224.84,614.427 1225.31,655.829 1225.31,655.829 1227.66,655.829 1230,655.829 1230.47,655.829 1230.94,655.829 1231.41,655.829 1231.41,655.829 1231.88,655.829 1231.88,655.829 1231.88,655.829 1232.34,655.829 1232.81,697.231 1232.81,655.829 1233.28,655.829 1233.75,655.829 1233.75,697.231 1234.22,697.231 1240.78,655.829 1242.19,655.829 1242.19,655.829 1242.19,655.829 1242.19,655.829 1242.66,655.829 1242.66,655.829 1243.12,655.829 1243.12,655.829 1243.59,614.427 1244.06,614.427 1244.06,614.427 1245,614.427 1245,573.025 1247.34,655.829 1252.03,614.427 1252.5,614.427 1258.12,655.829 1264.22,655.829 1264.22,655.829 1275.47,655.829 1275.47,655.829 1275.94,655.829 1275.94,655.829 1276.41,655.829 1276.41,655.829 1276.41,655.829 1276.41,697.231 1276.41,697.231 1276.88,697.231 1276.88,697.231 1277.34,697.231 1277.81,655.829 1278.28,655.829 1278.75,655.829 1279.22,655.829 1279.69,614.427 1279.69,655.829 1280.16,655.829 1280.62,614.427 1281.09,614.427 1281.56,614.427 1282.03,655.829 1282.5,655.829 1282.5,655.829 1282.5,655.829 1282.5,614.427 1282.97,614.427 1283.44,655.829 1283.44,655.829 1283.91,697.231 1284.38,655.829 1284.84,697.231 1284.84,697.231 1284.84,655.829 1284.84,655.829 1285.31,655.829 1285.78,697.231 1286.25,738.632 1286.72,738.632 1288.12,697.231 1288.59,655.829 1288.59,697.231 1289.06,655.829 1289.06,655.829 1289.53,655.829 1289.53,697.231 1290,697.231 1290,697.231 1290.47,697.231 1290.47,697.231 1290.94,697.231 1290.94,697.231 1290.94,655.829 1291.88,614.427 1292.34,655.829 1292.34,655.829 1292.81,655.829 1292.81,655.829 1297.5,655.829 1297.97,655.829 1298.91,655.829 1298.91,655.829 1298.91,697.231 1298.91,697.231 1299.38,697.231 1299.38,697.231 1300.31,697.231 1300.78,738.632 1302.66,655.829 1303.12,655.829 1304.06,697.231 1304.06,697.231 1305,697.231 1305.94,697.231 1307.81,738.632 1307.81,738.632 1309.22,697.231 1309.22,697.231 1309.22,697.231 1309.69,655.829 1309.69,655.829 1310.16,655.829 1310.62,655.829 1311.09,655.829 1311.09,614.427 1311.09,655.829 1311.09,655.829 1311.56,655.829 1312.03,655.829 1312.5,655.829 1312.97,655.829 1313.44,655.829 1313.91,655.829 1314.38,655.829 1315.78,614.427 1315.78,614.427 1316.25,614.427 1316.25,614.427 1316.25,614.427 1316.72,614.427 1320,655.829 1320.94,614.427 1321.41,573.025 1321.88,614.427 1326.09,697.231 1327.03,697.231 1327.5,738.632 1327.5,738.632 1327.5,738.632 1327.97,697.231 1328.91,738.632 1329.38,697.231 1329.38,697.231 1329.38,738.632 1330.31,697.231 1330.78,614.427 1330.78,614.427 1331.25,614.427 1331.25,614.427 1332.19,614.427 1333.12,655.829 1334.06,655.829 1334.53,697.231 1335,738.632 1337.34,697.231 1337.81,697.231 1338.75,697.231 1339.22,697.231 1339.22,655.829 1341.56,655.829 1344.84,655.829 1344.84,697.231 1344.84,697.231 1345.31,697.231 1345.31,697.231 1345.78,697.231 1345.78,697.231 1345.78,697.231 1345.78,697.231 1346.25,697.231 1346.72,655.829 1346.72,655.829 1347.19,655.829 1349.06,655.829 1350.47,697.231 1350.94,697.231 1350.94,655.829 1351.41,614.427 1351.88,655.829 1351.88,655.829 1351.88,655.829 1352.34,655.829 1352.81,614.427 1352.81,614.427 1353.28,614.427 1353.28,614.427 1353.75,614.427 1353.75,614.427 1354.22,614.427 1354.22,614.427 1354.69,614.427 1355.62,614.427 1356.56,614.427 1357.5,614.427 1357.97,573.025 1357.97,573.025 1358.44,531.622 1358.44,531.622 1358.91,573.025 1359.38,573.025 1361.72,531.622 1362.19,531.622 1362.19,531.622 1362.66,531.622 1363.12,531.622 1363.59,573.025 1364.06,573.025 1364.06,531.622 1364.53,573.025 1365,573.025 1365,614.427 1365.94,573.025 1366.41,531.622 1366.88,531.622 1366.88,531.622 1367.81,531.622 1368.28,531.622 1368.28,573.025 1368.28,614.427 1368.75,614.427 1369.22,655.829 1369.69,614.427 1369.69,573.025 1370.16,614.427 1370.16,614.427 1370.16,614.427 1370.16,573.025 1370.62,573.025 1370.62,573.025 1371.09,573.025 1371.09,531.622 1371.56,531.622 1371.56,531.622 1372.03,573.025 1372.5,573.025 1372.97,573.025 1373.44,573.025 1373.44,573.025 1373.44,573.025 1373.91,573.025 1374.38,573.025 1374.38,573.025 1374.38,614.427 1374.84,614.427 1374.84,614.427 1375.31,614.427 1375.31,614.427 1375.78,573.025 1375.78,573.025 1376.25,573.025 1376.25,573.025 1376.25,614.427 1376.25,614.427 1376.72,614.427 1376.72,614.427 1377.19,614.427 1377.19,614.427 1377.66,614.427 1384.22,531.622 1386.09,531.622 1392.19,573.025 1392.66,614.427 1392.66,614.427 1393.12,614.427 1393.59,614.427 1393.59,614.427 1394.53,614.427 1396.41,614.427 1396.88,614.427 1396.88,614.427 1397.34,614.427 1397.81,614.427 1398.75,614.427 1399.22,573.025 1401.09,614.427 1402.03,614.427 1402.03,573.025 1402.5,573.025 1402.5,573.025 1402.5,573.025 1402.5,573.025 1402.97,573.025 1402.97,573.025 1403.44,573.025 1420.31,655.829 1420.78,614.427 1422.19,573.025 1422.66,614.427 1422.66,614.427 1423.12,614.427 1423.12,614.427 1423.12,614.427 1423.59,614.427 1423.59,614.427 1425,614.427 1425.47,614.427 1425.94,614.427 1425.94,614.427 1426.41,614.427 1426.88,614.427 1426.88,614.427 1428.28,614.427 1428.75,655.829 1428.75,655.829 1429.22,655.829 1429.22,614.427 1429.22,614.427 1429.22,614.427 1429.69,614.427 1429.69,614.427 1430.16,573.025 1430.16,573.025 1430.62,573.025 1430.62,573.025 1431.09,573.025 1431.09,573.025 1431.09,614.427 1431.09,614.427 1431.09,614.427 1431.56,573.025 1431.56,573.025 1432.03,573.025 1432.03,573.025 1432.5,531.622 1432.97,531.622 1434.38,573.025 1434.38,573.025 1435.31,573.025 1435.31,573.025 1437.19,531.622 1438.12,531.622 1439.06,531.622 1439.06,531.622 1439.06,531.622 1440,531.622 1440,531.622 1440.47,531.622 1441.41,531.622 1441.41,490.22 1441.88,531.622 1441.88,531.622 1442.34,531.622 1442.34,531.622 1442.34,531.622 1442.81,531.622 1442.81,531.622 1443.28,531.622 1443.28,531.622 1443.28,531.622 1443.28,531.622 1443.75,531.622 1443.75,531.622 1444.69,531.622 1445.62,573.025 1445.62,573.025 1446.09,573.025 1446.09,573.025 1446.56,573.025 1447.03,573.025 1447.5,573.025 1447.5,573.025 1447.5,531.622 1447.97,531.622 1447.97,531.622 1448.91,614.427 1452.19,531.622 1452.66,490.22 1452.66,531.622 1453.12,490.22 1453.12,531.622 1453.59,531.622 1453.59,531.622 1453.59,573.025 1454.06,531.622 1454.06,573.025 1454.53,573.025 1454.53,573.025 1455,573.025 1455,573.025 1455.47,573.025 1455.47,573.025 1455.47,573.025 1455.47,531.622 1455.94,531.622 1457.34,531.622 1457.34,531.622 1457.34,531.622 1457.81,531.622 1457.81,531.622 1458.28,531.622 1458.28,573.025 1458.75,573.025 1458.75,573.025 1459.22,531.622 1459.22,573.025 1459.69,573.025 1459.69,573.025 1459.69,573.025 1459.69,573.025 1459.69,531.622 1460.16,573.025 1460.16,573.025 1460.62,573.025 1461.09,614.427 1461.09,573.025 1461.56,573.025 1461.56,573.025 1461.56,573.025 1461.56,573.025 1462.03,573.025 1462.03,573.025 1462.5,573.025 1462.5,614.427 1462.97,614.427 1462.97,614.427 1463.44,614.427 1463.44,614.427 1463.44,573.025 1463.44,614.427 1463.91,614.427 1463.91,614.427 1464.38,614.427 1464.38,614.427 1464.84,614.427 1464.84,614.427 1465.31,573.025 1465.31,573.025 1465.31,614.427 1465.78,614.427 1465.78,614.427 1465.78,614.427 1465.78,614.427 1466.25,614.427 1466.25,614.427 1466.72,614.427 1466.72,614.427 1467.19,614.427 1467.19,573.025 1467.66,614.427 1467.66,573.025 1467.66,614.427 1467.66,614.427 1468.12,614.427 1468.59,614.427 1468.59,614.427 1469.06,614.427 1469.06,573.025 1469.53,573.025 1469.53,573.025 1469.53,573.025 1470,614.427 1470.47,614.427 1470.47,573.025 1470.94,573.025 1470.94,573.025 1470.94,573.025 1471.41,573.025 1471.88,614.427 1471.88,614.427 1471.88,614.427 1471.88,614.427 1472.34,614.427 1472.34,614.427 1472.81,655.829 1473.28,614.427 1473.28,614.427 1473.75,614.427 1473.75,614.427 1473.75,655.829 1473.75,614.427 1474.22,614.427 1474.22,614.427 1474.69,614.427 1474.69,614.427 1475.16,614.427 1475.16,614.427 1475.62,614.427 1475.62,614.427 1475.62,614.427 1475.62,614.427 1476.09,614.427 1476.09,573.025 1476.56,573.025 1476.56,573.025 1476.56,573.025 1477.03,573.025 1477.03,573.025 1477.5,573.025 1477.5,573.025 1477.97,573.025 1477.97,573.025 1477.97,573.025 1477.97,573.025 1478.44,573.025 1478.91,614.427 1478.91,573.025 1479.38,573.025 1479.38,573.025 1479.38,614.427 1479.84,573.025 1479.84,614.427 1479.84,573.025 1479.84,573.025 1480.31,573.025 1480.78,573.025 1481.25,573.025 1481.25,573.025 1481.72,573.025 1481.72,573.025 1481.72,573.025 1482.19,573.025 1482.19,573.025 1482.19,573.025 1482.66,573.025 1482.66,573.025 1483.12,573.025 1483.12,573.025 1483.59,573.025 1483.59,573.025 1484.06,573.025 1484.06,573.025 1484.06,573.025 1484.53,573.025 1484.53,573.025 1485,573.025 1485,573.025 1485.47,573.025 1485.47,614.427 1485.94,614.427 1485.94,614.427 1485.94,614.427 1486.41,614.427 1486.41,614.427 1486.88,614.427 1486.88,573.025 1487.34,614.427 1487.81,614.427 1487.81,655.829 1487.81,614.427 1487.81,614.427 1487.81,614.427 1488.28,614.427 1488.28,614.427 1488.75,614.427 1488.75,614.427 1489.22,614.427 1489.22,573.025 1489.69,573.025 1489.69,573.025 1490.16,614.427 1490.16,573.025 1490.16,614.427 1490.16,573.025 1490.62,573.025 1490.62,573.025 1490.62,573.025 1491.09,573.025 1491.09,614.427 1491.56,614.427 1491.56,614.427 1492.03,614.427 1492.03,614.427 1492.03,614.427 1492.03,655.829 1492.5,655.829 1492.5,655.829 1492.97,655.829 1492.97,655.829 1493.44,655.829 1493.44,655.829 1493.91,655.829 1493.91,655.829 1493.91,655.829 1493.91,655.829 1494.38,655.829 1494.84,614.427 1494.84,655.829 1495.31,614.427 1495.78,614.427 1495.78,614.427 1496.25,614.427 1496.25,614.427 1496.25,614.427 1496.25,614.427 1496.72,614.427 1496.72,614.427 1497.19,655.829 1497.19,655.829 1497.66,655.829 1497.66,655.829 1498.12,614.427 1498.12,573.025 1498.59,614.427 1498.59,614.427 1499.06,655.829 1499.53,655.829 1499.53,655.829 1500,655.829 1500,655.829 1500,697.231 1500,655.829 1501.41,614.427 1501.88,614.427 1502.34,614.427 1503.28,614.427 1504.22,655.829 1505.16,614.427 1506.09,655.829 1508.44,614.427 1511.25,573.025 1511.72,573.025 1511.72,573.025 1512.19,573.025 1512.19,573.025 1515.94,614.427 1516.41,614.427 1516.41,614.427 1516.41,614.427 1516.41,614.427 1517.81,614.427 1518.75,655.829 1520.62,655.829 1522.03,655.829 1522.5,655.829 1522.5,655.829 1522.5,655.829 1522.97,655.829 1522.97,655.829 1523.44,655.829 1523.44,614.427 1523.91,614.427 1524.38,614.427 1524.38,614.427 1524.84,614.427 1524.84,614.427 1524.84,614.427 1525.31,655.829 1525.31,655.829 1525.78,655.829 1526.72,655.829 1527.66,697.231 1529.06,655.829 1529.53,655.829 1530.94,697.231 1530.94,697.231 1530.94,738.632 1532.34,697.231 1532.81,697.231 1532.81,655.829 1532.81,697.231 1533.28,655.829 1533.28,697.231 1533.75,697.231 1533.75,697.231 1533.75,738.632 1534.22,738.632 1534.22,738.632 1534.69,738.632 1534.69,738.632 1534.69,738.632 1534.69,738.632 1535.16,697.231 1535.16,697.231 1535.62,738.632 1535.62,697.231 1536.09,697.231 1536.56,655.829 1536.56,655.829 1537.03,655.829 1537.03,614.427 1538.91,655.829 1538.91,655.829 1539.38,655.829 1539.38,655.829 1539.38,697.231 1539.84,655.829 1540.31,697.231 1540.31,697.231 1541.25,655.829 1543.59,614.427 1544.06,655.829 1544.06,614.427 1544.53,614.427 1544.53,614.427 1545,614.427 1545.94,614.427 1546.88,573.025 1546.88,573.025 1546.88,614.427 1546.88,573.025 1547.34,614.427 1547.34,573.025 1547.81,614.427 1547.81,614.427 1548.75,655.829 1549.22,614.427 1550.16,573.025 1550.62,573.025 1551.09,573.025 1551.56,573.025 1553.44,655.829 1553.91,655.829 1554.38,655.829 1554.84,655.829 1554.84,655.829 1555.31,655.829 1555.78,655.829 1557.19,614.427 1557.19,614.427 1559.06,697.231 1559.53,738.632 1559.53,738.632 1560,697.231 1560,738.632 1560.47,738.632 1560.47,738.632 1560.94,738.632 1560.94,738.632 1561.41,738.632 1561.41,738.632 1561.88,697.231 1562.34,697.231 1563.28,697.231 1563.28,697.231 1563.75,697.231 1564.22,738.632 1564.69,697.231 1572.19,655.829 1574.06,573.025 1574.53,573.025 1574.53,573.025 1575,573.025 1575,531.622 1575.47,573.025 1575.94,573.025 1575.94,573.025 1576.41,573.025 1576.41,573.025 1576.88,614.427 1576.88,614.427 1577.34,614.427 1577.34,573.025 1577.81,573.025 1577.81,573.025 1578.28,531.622 1578.75,531.622 1579.22,531.622 1579.69,531.622 1581.09,573.025 1581.09,573.025 1581.56,573.025 1582.03,573.025 1582.5,573.025 1582.5,531.622 1582.97,573.025 1582.97,573.025 1583.44,573.025 1583.44,614.427 1583.44,614.427 1583.91,614.427 1583.91,614.427 1584.38,614.427 1584.38,614.427 1584.84,614.427 1584.84,614.427 1585.31,614.427 1585.31,614.427 1585.31,614.427 1585.78,573.025 1585.78,573.025 1585.78,573.025 1585.78,573.025 1586.25,573.025 1586.25,573.025 1586.72,531.622 1587.19,531.622 1587.19,531.622 1587.66,531.622 1587.66,531.622 1588.12,531.622 1592.34,614.427 1594.22,655.829 1595.62,655.829 1596.09,614.427 1596.56,614.427 1596.56,614.427 1596.56,614.427 1597.03,614.427 1597.97,614.427 1599.84,614.427 1600.78,655.829 1600.78,655.829 1601.25,655.829 1601.25,655.829 1601.72,614.427 1604.06,531.622 1604.06,531.622 1605.94,573.025 1605.94,531.622 1605.94,531.622 1606.41,531.622 1607.81,573.025 1607.81,573.025 1608.28,614.427 1608.28,573.025 1608.75,573.025 1608.75,573.025 1609.22,573.025 1609.22,573.025 1609.69,614.427 1610.16,614.427 1610.16,614.427 1610.16,655.829 1610.62,655.829 1610.62,655.829 1611.09,655.829 1611.09,655.829 1611.09,614.427 1611.56,614.427 1611.56,614.427 1612.03,614.427 1612.03,573.025 1612.03,614.427 1612.03,573.025 1612.5,531.622 1612.5,573.025 1612.97,531.622 1613.44,531.622 1613.44,531.622 1615.78,573.025 1618.59,573.025 1619.06,573.025 1619.06,573.025 1619.53,573.025 1619.53,573.025 1619.53,614.427 1620,614.427 1620,614.427 1620,614.427 1620,655.829 1620.47,655.829 1620.47,655.829 1620.94,697.231 1620.94,655.829 1621.41,697.231 1621.41,697.231 1621.88,697.231 1621.88,655.829 1622.34,655.829 1622.34,655.829 1622.34,614.427 1622.34,614.427 1622.34,573.025 1622.81,573.025 1622.81,573.025 1623.28,573.025 1623.28,573.025 1623.75,573.025 1623.75,531.622 1624.22,531.622 1624.22,531.622 1624.69,531.622 1624.69,531.622 1625.16,490.22"/>
</g>
</svg>
