<?xml version="1.0" encoding="UTF-8" standalone="no"?>
<svg xmlns="http://www.w3.org/2000/svg"
     xmlns:xlink="http://www.w3.org/1999/xlink"
     width="1920px" height="1016px" viewBox="0 0 1920 1016">
<title>glps_renderer figure</title>
<desc>
Creator: GL2PS 1.3.8, (C) 1999-2012 C. Geuzaine
For: Octave
CreationDate: Sun Nov  2 17:28:13 2014
</desc>
<defs>
</defs>
<g shape-rendering="crispEdges">
<polygon fill="#ffffff" points="1737.6,904.24 1737.6,76.2 1737.6,904.24"/>
<polygon fill="#ffffff" points="1737.6,76.2 1737.6,76.2 1737.6,904.24"/>
<polygon fill="#ffffff" points="249.6,76.2 1737.6,76.2 249.6,76.2"/>
<polygon fill="#ffffff" points="1737.6,76.2 1737.6,76.2 249.6,76.2"/>
<polygon fill="#ffffff" points="249.6,904.24 1737.6,904.24 249.6,76.2"/>
<polygon fill="#ffffff" points="1737.6,904.24 1737.6,76.2 249.6,76.2"/>
<polyline fill="none" stroke="#000000" stroke-width="0.5" stroke-dasharray="16,0" points="249.6,904.24 1737.6,904.24"/>
<polyline fill="none" stroke="#000000" stroke-width="0.5" stroke-dasharray="16,0" points="249.6,76.2 1737.6,76.2"/>
<polyline fill="none" stroke="#000000" stroke-width="0.5" stroke-dasharray="16,0" points="249.6,76.2 1737.6,76.2"/>
<polyline fill="none" stroke="#000000" stroke-width="0.5" stroke-dasharray="16,0" points="249.6,904.24 1737.6,904.24"/>
<polyline fill="none" stroke="#000000" stroke-width="0.5" stroke-dasharray="16,0" points="249.6,904.24 249.6,76.2"/>
<polyline fill="none" stroke="#000000" stroke-width="0.5" stroke-dasharray="16,0" points="1737.6,904.24 1737.6,76.2"/>
<polyline fill="none" stroke="#000000" stroke-width="0.5" stroke-dasharray="16,0" points="1737.6,904.24 1737.6,76.2"/>
<polyline fill="none" stroke="#000000" stroke-width="0.5" stroke-dasharray="16,0" points="249.6,904.24 249.6,76.2 249.6,76.2"/>
<polyline fill="none" stroke="#000000" stroke-width="0.5" stroke-dasharray="16,0" points="1737.6,76.2 1737.6,76.2"/>
<polyline fill="none" stroke="#000000" stroke-width="0.5" stroke-dasharray="16,0" points="1737.6,904.24 1737.6,904.24"/>
<polyline fill="none" stroke="#000000" stroke-width="0.5" stroke-dasharray="16,0" points="249.6,904.24 249.6,904.24 249.6,889.359"/>
<polyline fill="none" stroke="#000000" stroke-width="0.5" stroke-dasharray="16,0" points="249.6,76.2 249.6,91.0807"/>
<polyline fill="none" stroke="#000000" stroke-width="0.5" stroke-dasharray="16,0" points="547.202,904.24 547.202,889.359"/>
<polyline fill="none" stroke="#000000" stroke-width="0.5" stroke-dasharray="16,0" points="547.202,76.2 547.202,91.0807"/>
<polyline fill="none" stroke="#000000" stroke-width="0.5" stroke-dasharray="16,0" points="844.801,904.24 844.801,889.359"/>
<polyline fill="none" stroke="#000000" stroke-width="0.5" stroke-dasharray="16,0" points="844.801,76.2 844.801,91.0807"/>
<polyline fill="none" stroke="#000000" stroke-width="0.5" stroke-dasharray="16,0" points="1142.4,904.24 1142.4,889.359"/>
<polyline fill="none" stroke="#000000" stroke-width="0.5" stroke-dasharray="16,0" points="1142.4,76.2 1142.4,91.0807"/>
<polyline fill="none" stroke="#000000" stroke-width="0.5" stroke-dasharray="16,0" points="1440,904.24 1440,889.359"/>
<polyline fill="none" stroke="#000000" stroke-width="0.5" stroke-dasharray="16,0" points="1440,76.2 1440,91.0807"/>
<polyline fill="none" stroke="#000000" stroke-width="0.5" stroke-dasharray="16,0" points="1737.6,904.24 1737.6,889.359"/>
<polyline fill="none" stroke="#000000" stroke-width="0.5" stroke-dasharray="16,0" points="1737.6,76.2 1737.6,91.0807"/>
<text fill="#000000" x="249.6" y="909.24" font-size="10" text-anchor="middle" baseline-shift="-10" font-family="Helvetica">34.5</text>
<text fill="#000000" x="547.2" y="909.24" font-size="10" text-anchor="middle" baseline-shift="-10" font-family="Helvetica">35</text>
<text fill="#000000" x="844.799" y="909.24" font-size="10" text-anchor="middle" baseline-shift="-10" font-family="Helvetica">35.5</text>
<text fill="#000000" x="1142.4" y="909.24" font-size="10" text-anchor="middle" baseline-shift="-10" font-family="Helvetica">36</text>
<text fill="#000000" x="1440" y="909.24" font-size="10" text-anchor="middle" baseline-shift="-10" font-family="Helvetica">36.5</text>
<text fill="#000000" x="1737.6" y="909.24" font-size="10" text-anchor="middle" baseline-shift="-10" font-family="Helvetica">37</text>
<polyline fill="none" stroke="#000000" stroke-width="0.5" stroke-dasharray="16,0" points="249.6,904.24 264.481,904.24"/>
<polyline fill="none" stroke="#000000" stroke-width="0.5" stroke-dasharray="16,0" points="1737.6,904.24 1722.72,904.24"/>
<polyline fill="none" stroke="#000000" stroke-width="0.5" stroke-dasharray="16,0" points="249.6,697.23 264.481,697.23"/>
<polyline fill="none" stroke="#000000" stroke-width="0.5" stroke-dasharray="16,0" points="1737.6,697.23 1722.72,697.23"/>
<polyline fill="none" stroke="#000000" stroke-width="0.5" stroke-dasharray="16,0" points="249.6,490.22 264.481,490.22"/>
<polyline fill="none" stroke="#000000" stroke-width="0.5" stroke-dasharray="16,0" points="1737.6,490.22 1722.72,490.22"/>
<polyline fill="none" stroke="#000000" stroke-width="0.5" stroke-dasharray="16,0" points="249.6,283.21 264.481,283.21"/>
<polyline fill="none" stroke="#000000" stroke-width="0.5" stroke-dasharray="16,0" points="1737.6,283.21 1722.72,283.21"/>
<polyline fill="none" stroke="#000000" stroke-width="0.5" stroke-dasharray="16,0" points="249.6,76.2 264.481,76.2"/>
<polyline fill="none" stroke="#000000" stroke-width="0.5" stroke-dasharray="16,0" points="1737.6,76.2 1722.72,76.2"/>
<text fill="#000000" x="244.601" y="904.24" font-size="10" text-anchor="end" baseline-shift="-5" font-family="Helvetica">0</text>
<text fill="#000000" x="244.601" y="697.23" font-size="10" text-anchor="end" baseline-shift="-5" font-family="Helvetica">500</text>
<text fill="#000000" x="244.601" y="490.22" font-size="10" text-anchor="end" baseline-shift="-5" font-family="Helvetica">1000</text>
<text fill="#000000" x="244.601" y="283.21" font-size="10" text-anchor="end" baseline-shift="-5" font-family="Helvetica">1500</text>
<text fill="#000000" x="244.601" y="76.2" font-size="10" text-anchor="end" baseline-shift="-5" font-family="Helvetica">2000</text>
<polygon fill="#00007f" points="380.425,902.17 369.952,904.24 369.952,902.17"/>
<polygon fill="#00007f" points="369.952,904.24 380.425,902.17 380.425,904.24"/>
<polygon fill="#00007f" points="432.805,899.686 422.327,904.24 422.327,899.686"/>
<polygon fill="#00007f" points="422.327,904.24 432.805,899.686 432.805,904.24"/>
<polygon fill="#00007f" points="498.276,882.297 487.8,904.24 487.8,882.297"/>
<polygon fill="#00007f" points="487.8,904.24 498.276,882.297 498.276,904.24"/>
<polygon fill="#00007f" points="550.653,844.621 540.178,904.24 540.178,844.621"/>
<polygon fill="#00007f" points="540.178,904.24 550.653,844.621 550.653,904.24"/>
<polygon fill="#00007f" points="616.124,674.873 605.651,904.24 605.651,674.873"/>
<polygon fill="#00007f" points="605.651,904.24 616.124,674.873 616.124,904.24"/>
<polygon fill="#00007f" points="668.503,550.253 658.026,904.24 658.026,550.253"/>
<polygon fill="#00007f" points="658.026,904.24 668.503,550.253 668.503,904.24"/>
<polygon fill="#00007f" points="733.975,490.22 723.499,904.24 723.499,490.22"/>
<polygon fill="#00007f" points="723.499,904.24 733.975,490.22 733.975,904.24"/>
<polygon fill="#00007f" points="786.352,142.857 775.878,904.24 775.878,142.857"/>
<polygon fill="#00007f" points="775.878,904.24 786.352,142.857 786.352,904.24"/>
<polygon fill="#00007f" points="851.823,347.383 841.349,904.24 841.349,347.383"/>
<polygon fill="#00007f" points="841.349,904.24 851.823,347.383 851.823,904.24"/>
<polygon fill="#00007f" points="904.202,680.255 893.727,904.24 893.727,680.255"/>
<polygon fill="#00007f" points="893.727,904.24 904.202,680.255 904.202,904.24"/>
<polygon fill="#00007f" points="969.675,834.685 959.198,904.24 959.198,834.685"/>
<polygon fill="#00007f" points="959.198,904.24 969.675,834.685 969.675,904.24"/>
<polygon fill="#00007f" points="1022.05,889.335 1011.58,904.24 1011.58,889.335"/>
<polygon fill="#00007f" points="1011.58,904.24 1022.05,889.335 1022.05,904.24"/>
<polygon fill="#00007f" points="1087.52,897.616 1077.05,904.24 1077.05,897.616"/>
<polygon fill="#00007f" points="1077.05,904.24 1087.52,897.616 1087.52,904.24"/>
<polygon fill="#00007f" points="1152.99,898.858 1142.52,904.24 1142.52,898.858"/>
<polygon fill="#00007f" points="1142.52,904.24 1152.99,898.858 1152.99,904.24"/>
<polygon fill="#00007f" points="1205.37,901.342 1194.9,904.24 1194.9,901.342"/>
<polygon fill="#00007f" points="1194.9,904.24 1205.37,901.342 1205.37,904.24"/>
<polygon fill="#00007f" points="1270.85,900.514 1260.37,904.24 1260.37,900.514"/>
<polygon fill="#00007f" points="1260.37,904.24 1270.85,900.514 1270.85,904.24"/>
<polygon fill="#00007f" points="1323.22,901.756 1312.75,904.24 1312.75,901.756"/>
<polygon fill="#00007f" points="1312.75,904.24 1323.22,901.756 1323.22,904.24"/>
<polygon fill="#00007f" points="1388.69,902.17 1378.22,904.24 1378.22,902.17"/>
<polygon fill="#00007f" points="1378.22,904.24 1388.69,902.17 1388.69,904.24"/>
<polygon fill="#00007f" points="1441.07,901.756 1430.6,904.24 1430.6,901.756"/>
<polygon fill="#00007f" points="1430.6,904.24 1441.07,901.756 1441.07,904.24"/>
<polygon fill="#00007f" points="1506.55,899.272 1496.07,904.24 1496.07,899.272"/>
<polygon fill="#00007f" points="1496.07,904.24 1506.55,899.272 1506.55,904.24"/>
<polygon fill="#00007f" points="1558.92,898.444 1548.45,904.24 1548.45,898.444"/>
<polygon fill="#00007f" points="1548.45,904.24 1558.92,898.444 1558.92,904.24"/>
<polygon fill="#00007f" points="1624.39,897.616 1613.92,904.24 1613.92,897.616"/>
<polygon fill="#00007f" points="1613.92,904.24 1624.39,897.616 1624.39,904.24"/>
<polygon fill="#00007f" points="1676.77,894.718 1666.3,904.24 1666.3,894.718"/>
<polygon fill="#00007f" points="1666.3,904.24 1676.77,894.718 1676.77,904.24"/>
<polyline fill="none" stroke="#000000" stroke-width="0.5" points="380.425,904.24 369.952,904.24 369.952,902.17 380.425,902.17 380.425,904.24"/>
<polyline fill="none" stroke="#000000" stroke-width="0.5" points="432.805,904.24 422.327,904.24 422.327,899.686 432.805,899.686 432.805,904.24"/>
<polyline fill="none" stroke="#000000" stroke-width="0.5" points="498.276,904.24 487.8,904.24 487.8,882.297 498.276,882.297 498.276,904.24"/>
<polyline fill="none" stroke="#000000" stroke-width="0.5" points="550.653,904.24 540.178,904.24 540.178,844.621 550.653,844.621 550.653,904.24"/>
<polyline fill="none" stroke="#000000" stroke-width="0.5" points="616.124,904.24 605.651,904.24 605.651,674.873 616.124,674.873 616.124,904.24"/>
<polyline fill="none" stroke="#000000" stroke-width="0.5" points="668.503,904.24 658.026,904.24 658.026,550.253 668.503,550.253 668.503,904.24"/>
<polyline fill="none" stroke="#000000" stroke-width="0.5" points="733.975,904.24 723.499,904.24 723.499,490.22 733.975,490.22 733.975,904.24"/>
<polyline fill="none" stroke="#000000" stroke-width="0.5" points="786.352,904.24 775.878,904.24 775.878,142.857 786.352,142.857 786.352,904.24"/>
<polyline fill="none" stroke="#000000" stroke-width="0.5" points="851.823,904.24 841.349,904.24 841.349,347.383 851.823,347.383 851.823,904.24"/>
<polyline fill="none" stroke="#000000" stroke-width="0.5" points="904.202,904.24 893.727,904.24 893.727,680.255 904.202,680.255 904.202,904.24"/>
<polyline fill="none" stroke="#000000" stroke-width="0.5" points="969.675,904.24 959.198,904.24 959.198,834.685 969.675,834.685 969.675,904.24"/>
<polyline fill="none" stroke="#000000" stroke-width="0.5" points="1022.05,904.24 1011.58,904.24 1011.58,889.335 1022.05,889.335 1022.05,904.24"/>
<polyline fill="none" stroke="#000000" stroke-width="0.5" points="1087.52,904.24 1077.05,904.24 1077.05,897.616 1087.52,897.616 1087.52,904.24"/>
<polyline fill="none" stroke="#000000" stroke-width="0.5" points="1152.99,904.24 1142.52,904.24 1142.52,898.858 1152.99,898.858 1152.99,904.24"/>
<polyline fill="none" stroke="#000000" stroke-width="0.5" points="1205.37,904.24 1194.9,904.24 1194.9,901.342 1205.37,901.342 1205.37,904.24"/>
<polyline fill="none" stroke="#000000" stroke-width="0.5" points="1270.85,904.24 1260.37,904.24 1260.37,900.514 1270.85,900.514 1270.85,904.24"/>
<polyline fill="none" stroke="#000000" stroke-width="0.5" points="1323.22,904.24 1312.75,904.24 1312.75,901.756 1323.22,901.756 1323.22,904.24"/>
<polyline fill="none" stroke="#000000" stroke-width="0.5" points="1388.69,904.24 1378.22,904.24 1378.22,902.17 1388.69,902.17 1388.69,904.24"/>
<polyline fill="none" stroke="#000000" stroke-width="0.5" points="1441.07,904.24 1430.6,904.24 1430.6,901.756 1441.07,901.756 1441.07,904.24"/>
<polyline fill="none" stroke="#000000" stroke-width="0.5" points="1506.55,904.24 1496.07,904.24 1496.07,899.272 1506.55,899.272 1506.55,904.24"/>
<polyline fill="none" stroke="#000000" stroke-width="0.5" points="1558.92,904.24 1548.45,904.24 1548.45,898.444 1558.92,898.444 1558.92,904.24"/>
<polyline fill="none" stroke="#000000" stroke-width="0.5" points="1624.39,904.24 1613.92,904.24 1613.92,897.616 1624.39,897.616 1624.39,904.24"/>
<polyline fill="none" stroke="#000000" stroke-width="0.5" points="1676.77,904.24 1666.3,904.24 1666.3,894.718 1676.77,894.718 1676.77,904.24"/>
<polyline fill="none" stroke="#000000" stroke-width="0.5" points="249.6,904.24 1737.6,904.24"/>
</g>
</svg>
