<?xml version="1.0" encoding="UTF-8" standalone="no"?>
<svg xmlns="http://www.w3.org/2000/svg"
     xmlns:xlink="http://www.w3.org/1999/xlink"
     width="1920px" height="1016px" viewBox="0 0 1920 1016">
<title>glps_renderer figure</title>
<desc>
Creator: GL2PS 1.3.8, (C) 1999-2012 C. Geuzaine
For: Octave
CreationDate: Sun Nov  2 17:27:57 2014
</desc>
<defs>
</defs>
<g shape-rendering="crispEdges">
<polygon fill="#ffffff" points="1737.6,904.24 1737.6,76.2 1737.6,904.24"/>
<polygon fill="#ffffff" points="1737.6,76.2 1737.6,76.2 1737.6,904.24"/>
<polygon fill="#ffffff" points="249.598,76.2 1737.6,76.2 249.598,76.2"/>
<polygon fill="#ffffff" points="1737.6,76.2 1737.6,76.2 249.598,76.2"/>
<polygon fill="#ffffff" points="249.598,904.24 1737.6,904.24 249.598,76.2"/>
<polygon fill="#ffffff" points="1737.6,904.24 1737.6,76.2 249.598,76.2"/>
<polyline fill="none" stroke="#000000" stroke-width="0.5" stroke-dasharray="16,0" points="249.598,904.24 1737.6,904.24"/>
<polyline fill="none" stroke="#000000" stroke-width="0.5" stroke-dasharray="16,0" points="249.598,76.2 1737.6,76.2"/>
<polyline fill="none" stroke="#000000" stroke-width="0.5" stroke-dasharray="16,0" points="249.598,76.2 1737.6,76.2"/>
<polyline fill="none" stroke="#000000" stroke-width="0.5" stroke-dasharray="16,0" points="249.598,904.24 1737.6,904.24"/>
<polyline fill="none" stroke="#000000" stroke-width="0.5" stroke-dasharray="16,0" points="249.598,904.24 249.598,76.2"/>
<polyline fill="none" stroke="#000000" stroke-width="0.5" stroke-dasharray="16,0" points="1737.6,904.24 1737.6,76.2"/>
<polyline fill="none" stroke="#000000" stroke-width="0.5" stroke-dasharray="16,0" points="1737.6,904.24 1737.6,76.2"/>
<polyline fill="none" stroke="#000000" stroke-width="0.5" stroke-dasharray="16,0" points="249.598,904.24 249.598,76.2 249.598,76.2"/>
<polyline fill="none" stroke="#000000" stroke-width="0.5" stroke-dasharray="16,0" points="1737.6,76.2 1737.6,76.2"/>
<polyline fill="none" stroke="#000000" stroke-width="0.5" stroke-dasharray="16,0" points="1737.6,904.24 1737.6,904.24"/>
<polyline fill="none" stroke="#000000" stroke-width="0.5" stroke-dasharray="16,0" points="249.598,904.24 249.598,904.24 249.598,889.359"/>
<polyline fill="none" stroke="#000000" stroke-width="0.5" stroke-dasharray="16,0" points="249.598,76.2 249.598,91.0807"/>
<polyline fill="none" stroke="#000000" stroke-width="0.5" stroke-dasharray="16,0" points="497.6,904.24 497.6,889.359"/>
<polyline fill="none" stroke="#000000" stroke-width="0.5" stroke-dasharray="16,0" points="497.6,76.2 497.6,91.0807"/>
<polyline fill="none" stroke="#000000" stroke-width="0.5" stroke-dasharray="16,0" points="745.6,904.24 745.6,889.359"/>
<polyline fill="none" stroke="#000000" stroke-width="0.5" stroke-dasharray="16,0" points="745.6,76.2 745.6,91.0807"/>
<polyline fill="none" stroke="#000000" stroke-width="0.5" stroke-dasharray="16,0" points="993.6,904.24 993.6,889.359"/>
<polyline fill="none" stroke="#000000" stroke-width="0.5" stroke-dasharray="16,0" points="993.6,76.2 993.6,91.0807"/>
<polyline fill="none" stroke="#000000" stroke-width="0.5" stroke-dasharray="16,0" points="1241.6,904.24 1241.6,889.359"/>
<polyline fill="none" stroke="#000000" stroke-width="0.5" stroke-dasharray="16,0" points="1241.6,76.2 1241.6,91.0807"/>
<polyline fill="none" stroke="#000000" stroke-width="0.5" stroke-dasharray="16,0" points="1489.6,904.24 1489.6,889.359"/>
<polyline fill="none" stroke="#000000" stroke-width="0.5" stroke-dasharray="16,0" points="1489.6,76.2 1489.6,91.0807"/>
<polyline fill="none" stroke="#000000" stroke-width="0.5" stroke-dasharray="16,0" points="1737.6,904.24 1737.6,889.359"/>
<polyline fill="none" stroke="#000000" stroke-width="0.5" stroke-dasharray="16,0" points="1737.6,76.2 1737.6,91.0807"/>
<text fill="#000000" x="249.6" y="909.24" font-size="10" text-anchor="middle" baseline-shift="-10" font-family="Helvetica">35</text>
<text fill="#000000" x="497.601" y="909.24" font-size="10" text-anchor="middle" baseline-shift="-10" font-family="Helvetica">35.5</text>
<text fill="#000000" x="745.6" y="909.24" font-size="10" text-anchor="middle" baseline-shift="-10" font-family="Helvetica">36</text>
<text fill="#000000" x="993.6" y="909.24" font-size="10" text-anchor="middle" baseline-shift="-10" font-family="Helvetica">36.5</text>
<text fill="#000000" x="1241.6" y="909.24" font-size="10" text-anchor="middle" baseline-shift="-10" font-family="Helvetica">37</text>
<text fill="#000000" x="1489.6" y="909.24" font-size="10" text-anchor="middle" baseline-shift="-10" font-family="Helvetica">37.5</text>
<text fill="#000000" x="1737.6" y="909.24" font-size="10" text-anchor="middle" baseline-shift="-10" font-family="Helvetica">38</text>
<polyline fill="none" stroke="#000000" stroke-width="0.5" stroke-dasharray="16,0" points="249.598,904.24 264.479,904.24"/>
<polyline fill="none" stroke="#000000" stroke-width="0.5" stroke-dasharray="16,0" points="1737.6,904.24 1722.72,904.24"/>
<polyline fill="none" stroke="#000000" stroke-width="0.5" stroke-dasharray="16,0" points="249.598,697.23 264.479,697.23"/>
<polyline fill="none" stroke="#000000" stroke-width="0.5" stroke-dasharray="16,0" points="1737.6,697.23 1722.72,697.23"/>
<polyline fill="none" stroke="#000000" stroke-width="0.5" stroke-dasharray="16,0" points="249.598,490.22 264.479,490.22"/>
<polyline fill="none" stroke="#000000" stroke-width="0.5" stroke-dasharray="16,0" points="1737.6,490.22 1722.72,490.22"/>
<polyline fill="none" stroke="#000000" stroke-width="0.5" stroke-dasharray="16,0" points="249.598,283.21 264.479,283.21"/>
<polyline fill="none" stroke="#000000" stroke-width="0.5" stroke-dasharray="16,0" points="1737.6,283.21 1722.72,283.21"/>
<polyline fill="none" stroke="#000000" stroke-width="0.5" stroke-dasharray="16,0" points="249.598,76.2 264.479,76.2"/>
<polyline fill="none" stroke="#000000" stroke-width="0.5" stroke-dasharray="16,0" points="1737.6,76.2 1722.72,76.2"/>
<text fill="#000000" x="244.599" y="904.24" font-size="10" text-anchor="end" baseline-shift="-5" font-family="Helvetica">0</text>
<text fill="#000000" x="244.599" y="697.23" font-size="10" text-anchor="end" baseline-shift="-5" font-family="Helvetica">500</text>
<text fill="#000000" x="244.599" y="490.22" font-size="10" text-anchor="end" baseline-shift="-5" font-family="Helvetica">1000</text>
<text fill="#000000" x="244.599" y="283.21" font-size="10" text-anchor="end" baseline-shift="-5" font-family="Helvetica">1500</text>
<text fill="#000000" x="244.599" y="76.2" font-size="10" text-anchor="end" baseline-shift="-5" font-family="Helvetica">2000</text>
<polygon fill="#00007f" points="262.099,901.342 250.988,904.24 250.988,901.342"/>
<polygon fill="#00007f" points="250.988,904.24 262.099,901.342 262.099,904.24"/>
<polygon fill="#00007f" points="303.763,860.768 292.652,904.24 292.652,860.768"/>
<polygon fill="#00007f" points="292.652,904.24 303.763,860.768 303.763,904.24"/>
<polygon fill="#00007f" points="359.313,727.039 348.204,904.24 348.204,727.039"/>
<polygon fill="#00007f" points="348.204,904.24 359.313,727.039 359.313,904.24"/>
<polygon fill="#00007f" points="400.977,572.196 389.868,904.24 389.868,572.196"/>
<polygon fill="#00007f" points="389.868,904.24 400.977,572.196 400.977,904.24"/>
<polygon fill="#00007f" points="456.53,340.759 445.419,904.24 445.419,340.759"/>
<polygon fill="#00007f" points="445.419,904.24 456.53,340.759 456.53,904.24"/>
<polygon fill="#00007f" points="498.195,174.737 487.084,904.24 487.084,174.737"/>
<polygon fill="#00007f" points="487.084,904.24 498.195,174.737 498.195,904.24"/>
<polygon fill="#00007f" points="553.748,289.006 542.637,904.24 542.637,289.006"/>
<polygon fill="#00007f" points="542.637,904.24 553.748,289.006 553.748,904.24"/>
<polygon fill="#00007f" points="595.411,698.058 584.301,904.24 584.301,698.058"/>
<polygon fill="#00007f" points="584.301,904.24 595.411,698.058 595.411,904.24"/>
<polygon fill="#00007f" points="650.962,836.341 639.853,904.24 639.853,836.341"/>
<polygon fill="#00007f" points="639.853,904.24 650.962,836.341 650.962,904.24"/>
<polygon fill="#00007f" points="706.514,888.921 695.403,904.24 695.403,888.921"/>
<polygon fill="#00007f" points="695.403,904.24 706.514,888.921 706.514,904.24"/>
<polygon fill="#00007f" points="748.178,897.616 737.067,904.24 737.067,897.616"/>
<polygon fill="#00007f" points="737.067,904.24 748.178,897.616 748.178,904.24"/>
<polygon fill="#00007f" points="803.73,894.718 792.62,904.24 792.62,894.718"/>
<polygon fill="#00007f" points="792.62,904.24 803.73,894.718 803.73,904.24"/>
<polygon fill="#00007f" points="845.394,898.03 834.283,904.24 834.283,898.03"/>
<polygon fill="#00007f" points="834.283,904.24 845.394,898.03 845.394,904.24"/>
<polygon fill="#00007f" points="900.947,899.272 889.836,904.24 889.836,899.272"/>
<polygon fill="#00007f" points="889.836,904.24 900.947,899.272 900.947,904.24"/>
<polygon fill="#00007f" points="942.61,897.202 931.501,904.24 931.501,897.202"/>
<polygon fill="#00007f" points="931.501,904.24 942.61,897.202 942.61,904.24"/>
<polygon fill="#00007f" points="998.163,902.998 987.052,904.24 987.052,902.998"/>
<polygon fill="#00007f" points="987.052,904.24 998.163,902.998 998.163,904.24"/>
<polygon fill="#00007f" points="1053.72,903.412 1042.6,904.24 1042.6,903.412"/>
<polygon fill="#00007f" points="1042.6,904.24 1053.72,903.412 1053.72,904.24"/>
<polygon fill="#00007f" points="1095.38,903.412 1084.27,904.24 1084.27,903.412"/>
<polygon fill="#00007f" points="1084.27,904.24 1095.38,903.412 1095.38,904.24"/>
<polygon fill="#00007f" points="1150.93,903.412 1139.82,904.24 1139.82,903.412"/>
<polygon fill="#00007f" points="1139.82,904.24 1150.93,903.412 1150.93,904.24"/>
<polygon fill="#00007f" points="1248.15,903.412 1237.03,904.24 1237.03,903.412"/>
<polygon fill="#00007f" points="1237.03,904.24 1248.15,903.412 1248.15,904.24"/>
<polygon fill="#00007f" points="1303.7,903.826 1292.59,904.24 1292.59,903.826"/>
<polygon fill="#00007f" points="1292.59,904.24 1303.7,903.826 1303.7,904.24"/>
<polygon fill="#00007f" points="1345.36,902.998 1334.25,904.24 1334.25,902.998"/>
<polygon fill="#00007f" points="1334.25,904.24 1345.36,902.998 1345.36,904.24"/>
<polygon fill="#00007f" points="1400.91,903.826 1389.81,904.24 1389.81,903.826"/>
<polygon fill="#00007f" points="1389.81,904.24 1400.91,903.826 1400.91,904.24"/>
<polygon fill="#00007f" points="1442.58,903.412 1431.47,904.24 1431.47,903.412"/>
<polygon fill="#00007f" points="1431.47,904.24 1442.58,903.412 1442.58,904.24"/>
<polygon fill="#00007f" points="1539.79,902.998 1528.68,904.24 1528.68,902.998"/>
<polygon fill="#00007f" points="1528.68,904.24 1539.79,902.998 1539.79,904.24"/>
<polygon fill="#00007f" points="1595.35,903.412 1584.24,904.24 1584.24,903.412"/>
<polygon fill="#00007f" points="1584.24,904.24 1595.35,903.412 1595.35,904.24"/>
<polygon fill="#00007f" points="1637.01,903.826 1625.9,904.24 1625.9,903.826"/>
<polygon fill="#00007f" points="1625.9,904.24 1637.01,903.826 1637.01,904.24"/>
<polyline fill="none" stroke="#000000" stroke-width="0.5" points="262.099,904.24 250.988,904.24 250.988,901.342 262.099,901.342 262.099,904.24"/>
<polyline fill="none" stroke="#000000" stroke-width="0.5" points="303.763,904.24 292.652,904.24 292.652,860.768 303.763,860.768 303.763,904.24"/>
<polyline fill="none" stroke="#000000" stroke-width="0.5" points="359.313,904.24 348.204,904.24 348.204,727.039 359.313,727.039 359.313,904.24"/>
<polyline fill="none" stroke="#000000" stroke-width="0.5" points="400.977,904.24 389.868,904.24 389.868,572.196 400.977,572.196 400.977,904.24"/>
<polyline fill="none" stroke="#000000" stroke-width="0.5" points="456.53,904.24 445.419,904.24 445.419,340.759 456.53,340.759 456.53,904.24"/>
<polyline fill="none" stroke="#000000" stroke-width="0.5" points="498.195,904.24 487.084,904.24 487.084,174.737 498.195,174.737 498.195,904.24"/>
<polyline fill="none" stroke="#000000" stroke-width="0.5" points="553.748,904.24 542.637,904.24 542.637,289.006 553.748,289.006 553.748,904.24"/>
<polyline fill="none" stroke="#000000" stroke-width="0.5" points="595.411,904.24 584.301,904.24 584.301,698.058 595.411,698.058 595.411,904.24"/>
<polyline fill="none" stroke="#000000" stroke-width="0.5" points="650.962,904.24 639.853,904.24 639.853,836.341 650.962,836.341 650.962,904.24"/>
<polyline fill="none" stroke="#000000" stroke-width="0.5" points="706.514,904.24 695.403,904.24 695.403,888.921 706.514,888.921 706.514,904.24"/>
<polyline fill="none" stroke="#000000" stroke-width="0.5" points="748.178,904.24 737.067,904.24 737.067,897.616 748.178,897.616 748.178,904.24"/>
<polyline fill="none" stroke="#000000" stroke-width="0.5" points="803.73,904.24 792.62,904.24 792.62,894.718 803.73,894.718 803.73,904.24"/>
<polyline fill="none" stroke="#000000" stroke-width="0.5" points="845.394,904.24 834.283,904.24 834.283,898.03 845.394,898.03 845.394,904.24"/>
<polyline fill="none" stroke="#000000" stroke-width="0.5" points="900.947,904.24 889.836,904.24 889.836,899.272 900.947,899.272 900.947,904.24"/>
<polyline fill="none" stroke="#000000" stroke-width="0.5" points="942.61,904.24 931.501,904.24 931.501,897.202 942.61,897.202 942.61,904.24"/>
<polyline fill="none" stroke="#000000" stroke-width="0.5" points="998.163,904.24 987.052,904.24 987.052,902.998 998.163,902.998 998.163,904.24"/>
<polyline fill="none" stroke="#000000" stroke-width="0.5" points="1053.72,904.24 1042.6,904.24 1042.6,903.412 1053.72,903.412 1053.72,904.24"/>
<polyline fill="none" stroke="#000000" stroke-width="0.5" points="1095.38,904.24 1084.27,904.24 1084.27,903.412 1095.38,903.412 1095.38,904.24"/>
<polyline fill="none" stroke="#000000" stroke-width="0.5" points="1150.93,904.24 1139.82,904.24 1139.82,903.412 1150.93,903.412 1150.93,904.24"/>
<polyline fill="none" stroke="#000000" stroke-width="0.5" points="1248.15,904.24 1237.03,904.24 1237.03,903.412 1248.15,903.412 1248.15,904.24"/>
<polyline fill="none" stroke="#000000" stroke-width="0.5" points="1303.7,904.24 1292.59,904.24 1292.59,903.826 1303.7,903.826 1303.7,904.24"/>
<polyline fill="none" stroke="#000000" stroke-width="0.5" points="1345.36,904.24 1334.25,904.24 1334.25,902.998 1345.36,902.998 1345.36,904.24"/>
<polyline fill="none" stroke="#000000" stroke-width="0.5" points="1400.91,904.24 1389.81,904.24 1389.81,903.826 1400.91,903.826 1400.91,904.24"/>
<polyline fill="none" stroke="#000000" stroke-width="0.5" points="1442.58,904.24 1431.47,904.24 1431.47,903.412 1442.58,903.412 1442.58,904.24"/>
<polyline fill="none" stroke="#000000" stroke-width="0.5" points="1539.79,904.24 1528.68,904.24 1528.68,902.998 1539.79,902.998 1539.79,904.24"/>
<polyline fill="none" stroke="#000000" stroke-width="0.5" points="1595.35,904.24 1584.24,904.24 1584.24,903.412 1595.35,903.412 1595.35,904.24"/>
<polyline fill="none" stroke="#000000" stroke-width="0.5" points="1637.01,904.24 1625.9,904.24 1625.9,903.826 1637.01,903.826 1637.01,904.24"/>
<polyline fill="none" stroke="#000000" stroke-width="0.5" points="249.598,904.24 1737.6,904.24"/>
</g>
</svg>
