<?xml version="1.0" encoding="UTF-8" standalone="no"?>
<svg xmlns="http://www.w3.org/2000/svg"
     xmlns:xlink="http://www.w3.org/1999/xlink"
     width="1920px" height="1016px" viewBox="0 0 1920 1016">
<title>glps_renderer figure</title>
<desc>
Creator: GL2PS 1.3.8, (C) 1999-2012 C. Geuzaine
For: Octave
CreationDate: Sun Nov  2 17:28:05 2014
</desc>
<defs>
</defs>
<g shape-rendering="crispEdges">
<polygon fill="#ffffff" points="1737.6,904.24 1737.6,76.2 1737.6,904.24"/>
<polygon fill="#ffffff" points="1737.6,76.2 1737.6,76.2 1737.6,904.24"/>
<polygon fill="#ffffff" points="249.6,76.2 1737.6,76.2 249.6,76.2"/>
<polygon fill="#ffffff" points="1737.6,76.2 1737.6,76.2 249.6,76.2"/>
<polygon fill="#ffffff" points="249.6,904.24 1737.6,904.24 249.6,76.2"/>
<polygon fill="#ffffff" points="1737.6,904.24 1737.6,76.2 249.6,76.2"/>
<polyline fill="none" stroke="#000000" stroke-width="0.5" stroke-dasharray="16,0" points="249.6,904.24 1737.6,904.24"/>
<polyline fill="none" stroke="#000000" stroke-width="0.5" stroke-dasharray="16,0" points="249.6,76.2 1737.6,76.2"/>
<polyline fill="none" stroke="#000000" stroke-width="0.5" stroke-dasharray="16,0" points="249.6,76.2 1737.6,76.2"/>
<polyline fill="none" stroke="#000000" stroke-width="0.5" stroke-dasharray="16,0" points="249.6,904.24 1737.6,904.24"/>
<polyline fill="none" stroke="#000000" stroke-width="0.5" stroke-dasharray="16,0" points="249.6,904.24 249.6,76.2"/>
<polyline fill="none" stroke="#000000" stroke-width="0.5" stroke-dasharray="16,0" points="1737.6,904.24 1737.6,76.2"/>
<polyline fill="none" stroke="#000000" stroke-width="0.5" stroke-dasharray="16,0" points="1737.6,904.24 1737.6,76.2"/>
<polyline fill="none" stroke="#000000" stroke-width="0.5" stroke-dasharray="16,0" points="249.6,904.24 249.6,76.2 249.6,76.2"/>
<polyline fill="none" stroke="#000000" stroke-width="0.5" stroke-dasharray="16,0" points="1737.6,76.2 1737.6,76.2"/>
<polyline fill="none" stroke="#000000" stroke-width="0.5" stroke-dasharray="16,0" points="1737.6,904.24 1737.6,904.24"/>
<polyline fill="none" stroke="#000000" stroke-width="0.5" stroke-dasharray="16,0" points="249.6,904.24 249.6,904.24 249.6,889.359"/>
<polyline fill="none" stroke="#000000" stroke-width="0.5" stroke-dasharray="16,0" points="249.6,76.2 249.6,91.0807"/>
<polyline fill="none" stroke="#000000" stroke-width="0.5" stroke-dasharray="16,0" points="621.601,904.24 621.601,889.359"/>
<polyline fill="none" stroke="#000000" stroke-width="0.5" stroke-dasharray="16,0" points="621.601,76.2 621.601,91.0807"/>
<polyline fill="none" stroke="#000000" stroke-width="0.5" stroke-dasharray="16,0" points="993.6,904.24 993.6,889.359"/>
<polyline fill="none" stroke="#000000" stroke-width="0.5" stroke-dasharray="16,0" points="993.6,76.2 993.6,91.0807"/>
<polyline fill="none" stroke="#000000" stroke-width="0.5" stroke-dasharray="16,0" points="1365.6,904.24 1365.6,889.359"/>
<polyline fill="none" stroke="#000000" stroke-width="0.5" stroke-dasharray="16,0" points="1365.6,76.2 1365.6,91.0807"/>
<polyline fill="none" stroke="#000000" stroke-width="0.5" stroke-dasharray="16,0" points="1737.6,904.24 1737.6,889.359"/>
<polyline fill="none" stroke="#000000" stroke-width="0.5" stroke-dasharray="16,0" points="1737.6,76.2 1737.6,91.0807"/>
<text fill="#000000" x="249.6" y="909.24" font-size="10" text-anchor="middle" baseline-shift="-10" font-family="Helvetica">34.5</text>
<text fill="#000000" x="621.6" y="909.24" font-size="10" text-anchor="middle" baseline-shift="-10" font-family="Helvetica">35</text>
<text fill="#000000" x="993.6" y="909.24" font-size="10" text-anchor="middle" baseline-shift="-10" font-family="Helvetica">35.5</text>
<text fill="#000000" x="1365.6" y="909.24" font-size="10" text-anchor="middle" baseline-shift="-10" font-family="Helvetica">36</text>
<text fill="#000000" x="1737.6" y="909.24" font-size="10" text-anchor="middle" baseline-shift="-10" font-family="Helvetica">36.5</text>
<polyline fill="none" stroke="#000000" stroke-width="0.5" stroke-dasharray="16,0" points="249.6,904.24 264.481,904.24"/>
<polyline fill="none" stroke="#000000" stroke-width="0.5" stroke-dasharray="16,0" points="1737.6,904.24 1722.72,904.24"/>
<polyline fill="none" stroke="#000000" stroke-width="0.5" stroke-dasharray="16,0" points="249.6,697.23 264.481,697.23"/>
<polyline fill="none" stroke="#000000" stroke-width="0.5" stroke-dasharray="16,0" points="1737.6,697.23 1722.72,697.23"/>
<polyline fill="none" stroke="#000000" stroke-width="0.5" stroke-dasharray="16,0" points="249.6,490.22 264.481,490.22"/>
<polyline fill="none" stroke="#000000" stroke-width="0.5" stroke-dasharray="16,0" points="1737.6,490.22 1722.72,490.22"/>
<polyline fill="none" stroke="#000000" stroke-width="0.5" stroke-dasharray="16,0" points="249.6,283.21 264.481,283.21"/>
<polyline fill="none" stroke="#000000" stroke-width="0.5" stroke-dasharray="16,0" points="1737.6,283.21 1722.72,283.21"/>
<polyline fill="none" stroke="#000000" stroke-width="0.5" stroke-dasharray="16,0" points="249.6,76.2 264.481,76.2"/>
<polyline fill="none" stroke="#000000" stroke-width="0.5" stroke-dasharray="16,0" points="1737.6,76.2 1722.72,76.2"/>
<text fill="#000000" x="244.599" y="904.24" font-size="10" text-anchor="end" baseline-shift="-5" font-family="Helvetica">0</text>
<text fill="#000000" x="244.599" y="697.23" font-size="10" text-anchor="end" baseline-shift="-5" font-family="Helvetica">200</text>
<text fill="#000000" x="244.599" y="490.22" font-size="10" text-anchor="end" baseline-shift="-5" font-family="Helvetica">400</text>
<text fill="#000000" x="244.599" y="283.21" font-size="10" text-anchor="end" baseline-shift="-5" font-family="Helvetica">600</text>
<text fill="#000000" x="244.599" y="76.2" font-size="10" text-anchor="end" baseline-shift="-5" font-family="Helvetica">800</text>
<polygon fill="#00007f" points="262.324,902.17 251.014,904.24 251.014,902.17"/>
<polygon fill="#00007f" points="251.014,904.24 262.324,902.17 262.324,904.24"/>
<polygon fill="#00007f" points="333.001,889.749 321.694,904.24 321.694,889.749"/>
<polygon fill="#00007f" points="321.694,904.24 333.001,889.749 333.001,904.24"/>
<polygon fill="#00007f" points="403.683,758.298 392.373,904.24 392.373,758.298"/>
<polygon fill="#00007f" points="392.373,904.24 403.683,758.298 403.683,904.24"/>
<polygon fill="#00007f" points="474.364,475.729 463.054,904.24 463.054,475.729"/>
<polygon fill="#00007f" points="463.054,904.24 474.364,475.729 474.364,904.24"/>
<polygon fill="#00007f" points="559.178,177.635 547.872,904.24 547.872,177.635"/>
<polygon fill="#00007f" points="547.872,904.24 559.178,177.635 559.178,904.24"/>
<polygon fill="#00007f" points="629.859,256.299 618.549,904.24 618.549,256.299"/>
<polygon fill="#00007f" points="618.549,904.24 629.859,256.299 629.859,904.24"/>
<polygon fill="#00007f" points="700.538,347.383 689.231,904.24 689.231,347.383"/>
<polygon fill="#00007f" points="689.231,904.24 700.538,347.383 700.538,904.24"/>
<polygon fill="#00007f" points="771.218,393.96 759.911,904.24 759.911,393.96"/>
<polygon fill="#00007f" points="759.911,904.24 771.218,393.96 771.218,904.24"/>
<polygon fill="#00007f" points="856.036,551.288 844.726,904.24 844.726,551.288"/>
<polygon fill="#00007f" points="844.726,904.24 856.036,551.288 856.036,904.24"/>
<polygon fill="#00007f" points="926.713,799.7 915.406,904.24 915.406,799.7"/>
<polygon fill="#00007f" points="915.406,904.24 926.713,799.7 926.713,904.24"/>
<polygon fill="#00007f" points="997.396,894.925 986.085,904.24 986.085,894.925"/>
<polygon fill="#00007f" points="986.085,904.24 997.396,894.925 997.396,904.24"/>
<polygon fill="#00007f" points="1068.08,898.03 1056.77,904.24 1056.77,898.03"/>
<polygon fill="#00007f" points="1056.77,904.24 1068.08,898.03 1068.08,904.24"/>
<polygon fill="#00007f" points="1152.89,898.03 1141.58,904.24 1141.58,898.03"/>
<polygon fill="#00007f" points="1141.58,904.24 1152.89,898.03 1152.89,904.24"/>
<polygon fill="#00007f" points="1223.57,894.925 1212.26,904.24 1212.26,894.925"/>
<polygon fill="#00007f" points="1212.26,904.24 1223.57,894.925 1223.57,904.24"/>
<polygon fill="#00007f" points="1294.25,899.065 1282.94,904.24 1282.94,899.065"/>
<polygon fill="#00007f" points="1282.94,904.24 1294.25,899.065 1294.25,904.24"/>
<polygon fill="#00007f" points="1364.93,899.065 1353.62,904.24 1353.62,899.065"/>
<polygon fill="#00007f" points="1353.62,904.24 1364.93,899.065 1364.93,904.24"/>
<polygon fill="#00007f" points="1449.74,899.065 1438.44,904.24 1438.44,899.065"/>
<polygon fill="#00007f" points="1438.44,904.24 1449.74,899.065 1449.74,904.24"/>
<polygon fill="#00007f" points="1520.43,900.1 1509.12,904.24 1509.12,900.1"/>
<polygon fill="#00007f" points="1509.12,904.24 1520.43,900.1 1520.43,904.24"/>
<polygon fill="#00007f" points="1591.11,901.135 1579.8,904.24 1579.8,901.135"/>
<polygon fill="#00007f" points="1579.8,904.24 1591.11,901.135 1591.11,904.24"/>
<polygon fill="#00007f" points="1661.79,896.995 1650.48,904.24 1650.48,896.995"/>
<polygon fill="#00007f" points="1650.48,904.24 1661.79,896.995 1661.79,904.24"/>
<polyline fill="none" stroke="#000000" stroke-width="0.5" points="262.324,904.24 251.014,904.24 251.014,902.17 262.324,902.17 262.324,904.24"/>
<polyline fill="none" stroke="#000000" stroke-width="0.5" points="333.001,904.24 321.694,904.24 321.694,889.749 333.001,889.749 333.001,904.24"/>
<polyline fill="none" stroke="#000000" stroke-width="0.5" points="403.683,904.24 392.373,904.24 392.373,758.298 403.683,758.298 403.683,904.24"/>
<polyline fill="none" stroke="#000000" stroke-width="0.5" points="474.364,904.24 463.054,904.24 463.054,475.729 474.364,475.729 474.364,904.24"/>
<polyline fill="none" stroke="#000000" stroke-width="0.5" points="559.178,904.24 547.872,904.24 547.872,177.635 559.178,177.635 559.178,904.24"/>
<polyline fill="none" stroke="#000000" stroke-width="0.5" points="629.859,904.24 618.549,904.24 618.549,256.299 629.859,256.299 629.859,904.24"/>
<polyline fill="none" stroke="#000000" stroke-width="0.5" points="700.538,904.24 689.231,904.24 689.231,347.383 700.538,347.383 700.538,904.24"/>
<polyline fill="none" stroke="#000000" stroke-width="0.5" points="771.218,904.24 759.911,904.24 759.911,393.96 771.218,393.96 771.218,904.24"/>
<polyline fill="none" stroke="#000000" stroke-width="0.5" points="856.036,904.24 844.726,904.24 844.726,551.288 856.036,551.288 856.036,904.24"/>
<polyline fill="none" stroke="#000000" stroke-width="0.5" points="926.713,904.24 915.406,904.24 915.406,799.7 926.713,799.7 926.713,904.24"/>
<polyline fill="none" stroke="#000000" stroke-width="0.5" points="997.396,904.24 986.085,904.24 986.085,894.925 997.396,894.925 997.396,904.24"/>
<polyline fill="none" stroke="#000000" stroke-width="0.5" points="1068.08,904.24 1056.77,904.24 1056.77,898.03 1068.08,898.03 1068.08,904.24"/>
<polyline fill="none" stroke="#000000" stroke-width="0.5" points="1152.89,904.24 1141.58,904.24 1141.58,898.03 1152.89,898.03 1152.89,904.24"/>
<polyline fill="none" stroke="#000000" stroke-width="0.5" points="1223.57,904.24 1212.26,904.24 1212.26,894.925 1223.57,894.925 1223.57,904.24"/>
<polyline fill="none" stroke="#000000" stroke-width="0.5" points="1294.25,904.24 1282.94,904.24 1282.94,899.065 1294.25,899.065 1294.25,904.24"/>
<polyline fill="none" stroke="#000000" stroke-width="0.5" points="1364.93,904.24 1353.62,904.24 1353.62,899.065 1364.93,899.065 1364.93,904.24"/>
<polyline fill="none" stroke="#000000" stroke-width="0.5" points="1449.74,904.24 1438.44,904.24 1438.44,899.065 1449.74,899.065 1449.74,904.24"/>
<polyline fill="none" stroke="#000000" stroke-width="0.5" points="1520.43,904.24 1509.12,904.24 1509.12,900.1 1520.43,900.1 1520.43,904.24"/>
<polyline fill="none" stroke="#000000" stroke-width="0.5" points="1591.11,904.24 1579.8,904.24 1579.8,901.135 1591.11,901.135 1591.11,904.24"/>
<polyline fill="none" stroke="#000000" stroke-width="0.5" points="1661.79,904.24 1650.48,904.24 1650.48,896.995 1661.79,896.995 1661.79,904.24"/>
<polyline fill="none" stroke="#000000" stroke-width="0.5" points="249.6,904.24 1737.6,904.24"/>
</g>
</svg>
