<?xml version="1.0" encoding="UTF-8" standalone="no"?>
<svg xmlns="http://www.w3.org/2000/svg"
     xmlns:xlink="http://www.w3.org/1999/xlink"
     width="1920px" height="1016px" viewBox="0 0 1920 1016">
<title>glps_renderer figure</title>
<desc>
Creator: GL2PS 1.3.8, (C) 1999-2012 C. Geuzaine
For: Octave
CreationDate: Sun Nov  2 17:27:40 2014
</desc>
<defs>
</defs>
<g shape-rendering="crispEdges">
<polygon fill="#ffffff" points="1737.6,904.24 1737.6,76.2 1737.6,904.24"/>
<polygon fill="#ffffff" points="1737.6,76.2 1737.6,76.2 1737.6,904.24"/>
<polygon fill="#ffffff" points="249.6,76.2 1737.6,76.2 249.6,76.2"/>
<polygon fill="#ffffff" points="1737.6,76.2 1737.6,76.2 249.6,76.2"/>
<polygon fill="#ffffff" points="249.6,904.24 1737.6,904.24 249.6,76.2"/>
<polygon fill="#ffffff" points="1737.6,904.24 1737.6,76.2 249.6,76.2"/>
<polyline fill="none" stroke="#000000" stroke-width="0.5" stroke-dasharray="16,0" points="249.6,904.24 1737.6,904.24"/>
<polyline fill="none" stroke="#000000" stroke-width="0.5" stroke-dasharray="16,0" points="249.6,76.2 1737.6,76.2"/>
<polyline fill="none" stroke="#000000" stroke-width="0.5" stroke-dasharray="16,0" points="249.6,76.2 1737.6,76.2"/>
<polyline fill="none" stroke="#000000" stroke-width="0.5" stroke-dasharray="16,0" points="249.6,904.24 1737.6,904.24"/>
<polyline fill="none" stroke="#000000" stroke-width="0.5" stroke-dasharray="16,0" points="249.6,904.24 249.6,76.2"/>
<polyline fill="none" stroke="#000000" stroke-width="0.5" stroke-dasharray="16,0" points="1737.6,904.24 1737.6,76.2"/>
<polyline fill="none" stroke="#000000" stroke-width="0.5" stroke-dasharray="16,0" points="1737.6,904.24 1737.6,76.2"/>
<polyline fill="none" stroke="#000000" stroke-width="0.5" stroke-dasharray="16,0" points="249.6,904.24 249.6,76.2 249.6,76.2"/>
<polyline fill="none" stroke="#000000" stroke-width="0.5" stroke-dasharray="16,0" points="1737.6,76.2 1737.6,76.2"/>
<polyline fill="none" stroke="#000000" stroke-width="0.5" stroke-dasharray="16,0" points="1737.6,904.24 1737.6,904.24"/>
<polyline fill="none" stroke="#000000" stroke-width="0.5" stroke-dasharray="16,0" points="249.6,904.24 249.6,904.24 249.6,889.359"/>
<polyline fill="none" stroke="#000000" stroke-width="0.5" stroke-dasharray="16,0" points="249.6,76.2 249.6,91.0807"/>
<polyline fill="none" stroke="#000000" stroke-width="0.5" stroke-dasharray="16,0" points="497.6,904.24 497.6,889.359"/>
<polyline fill="none" stroke="#000000" stroke-width="0.5" stroke-dasharray="16,0" points="497.6,76.2 497.6,91.0807"/>
<polyline fill="none" stroke="#000000" stroke-width="0.5" stroke-dasharray="16,0" points="745.6,904.24 745.6,889.359"/>
<polyline fill="none" stroke="#000000" stroke-width="0.5" stroke-dasharray="16,0" points="745.6,76.2 745.6,91.0807"/>
<polyline fill="none" stroke="#000000" stroke-width="0.5" stroke-dasharray="16,0" points="993.602,904.24 993.602,889.359"/>
<polyline fill="none" stroke="#000000" stroke-width="0.5" stroke-dasharray="16,0" points="993.602,76.2 993.602,91.0807"/>
<polyline fill="none" stroke="#000000" stroke-width="0.5" stroke-dasharray="16,0" points="1241.6,904.24 1241.6,889.359"/>
<polyline fill="none" stroke="#000000" stroke-width="0.5" stroke-dasharray="16,0" points="1241.6,76.2 1241.6,91.0807"/>
<polyline fill="none" stroke="#000000" stroke-width="0.5" stroke-dasharray="16,0" points="1489.6,904.24 1489.6,889.359"/>
<polyline fill="none" stroke="#000000" stroke-width="0.5" stroke-dasharray="16,0" points="1489.6,76.2 1489.6,91.0807"/>
<polyline fill="none" stroke="#000000" stroke-width="0.5" stroke-dasharray="16,0" points="1737.6,904.24 1737.6,889.359"/>
<polyline fill="none" stroke="#000000" stroke-width="0.5" stroke-dasharray="16,0" points="1737.6,76.2 1737.6,91.0807"/>
<text fill="#000000" x="249.602" y="909.24" font-size="10" text-anchor="middle" baseline-shift="-10" font-family="Helvetica">34</text>
<text fill="#000000" x="497.601" y="909.24" font-size="10" text-anchor="middle" baseline-shift="-10" font-family="Helvetica">34.5</text>
<text fill="#000000" x="745.601" y="909.24" font-size="10" text-anchor="middle" baseline-shift="-10" font-family="Helvetica">35</text>
<text fill="#000000" x="993.602" y="909.24" font-size="10" text-anchor="middle" baseline-shift="-10" font-family="Helvetica">35.5</text>
<text fill="#000000" x="1241.6" y="909.24" font-size="10" text-anchor="middle" baseline-shift="-10" font-family="Helvetica">36</text>
<text fill="#000000" x="1489.6" y="909.24" font-size="10" text-anchor="middle" baseline-shift="-10" font-family="Helvetica">36.5</text>
<text fill="#000000" x="1737.6" y="909.24" font-size="10" text-anchor="middle" baseline-shift="-10" font-family="Helvetica">37</text>
<polyline fill="none" stroke="#000000" stroke-width="0.5" stroke-dasharray="16,0" points="249.6,904.24 264.479,904.24"/>
<polyline fill="none" stroke="#000000" stroke-width="0.5" stroke-dasharray="16,0" points="1737.6,904.24 1722.72,904.24"/>
<polyline fill="none" stroke="#000000" stroke-width="0.5" stroke-dasharray="16,0" points="249.6,785.949 264.479,785.949"/>
<polyline fill="none" stroke="#000000" stroke-width="0.5" stroke-dasharray="16,0" points="1737.6,785.949 1722.72,785.949"/>
<polyline fill="none" stroke="#000000" stroke-width="0.5" stroke-dasharray="16,0" points="249.6,667.657 264.479,667.657"/>
<polyline fill="none" stroke="#000000" stroke-width="0.5" stroke-dasharray="16,0" points="1737.6,667.657 1722.72,667.657"/>
<polyline fill="none" stroke="#000000" stroke-width="0.5" stroke-dasharray="16,0" points="249.6,549.366 264.479,549.366"/>
<polyline fill="none" stroke="#000000" stroke-width="0.5" stroke-dasharray="16,0" points="1737.6,549.366 1722.72,549.366"/>
<polyline fill="none" stroke="#000000" stroke-width="0.5" stroke-dasharray="16,0" points="249.6,431.074 264.479,431.074"/>
<polyline fill="none" stroke="#000000" stroke-width="0.5" stroke-dasharray="16,0" points="1737.6,431.074 1722.72,431.074"/>
<polyline fill="none" stroke="#000000" stroke-width="0.5" stroke-dasharray="16,0" points="249.6,312.783 264.479,312.783"/>
<polyline fill="none" stroke="#000000" stroke-width="0.5" stroke-dasharray="16,0" points="1737.6,312.783 1722.72,312.783"/>
<polyline fill="none" stroke="#000000" stroke-width="0.5" stroke-dasharray="16,0" points="249.6,194.491 264.479,194.491"/>
<polyline fill="none" stroke="#000000" stroke-width="0.5" stroke-dasharray="16,0" points="1737.6,194.491 1722.72,194.491"/>
<polyline fill="none" stroke="#000000" stroke-width="0.5" stroke-dasharray="16,0" points="249.6,76.2 264.479,76.2"/>
<polyline fill="none" stroke="#000000" stroke-width="0.5" stroke-dasharray="16,0" points="1737.6,76.2 1722.72,76.2"/>
<text fill="#000000" x="244.601" y="904.24" font-size="10" text-anchor="end" baseline-shift="-5" font-family="Helvetica">0</text>
<text fill="#000000" x="244.601" y="785.949" font-size="10" text-anchor="end" baseline-shift="-5" font-family="Helvetica">200</text>
<text fill="#000000" x="244.601" y="667.657" font-size="10" text-anchor="end" baseline-shift="-5" font-family="Helvetica">400</text>
<text fill="#000000" x="244.601" y="549.366" font-size="10" text-anchor="end" baseline-shift="-5" font-family="Helvetica">600</text>
<text fill="#000000" x="244.601" y="431.074" font-size="10" text-anchor="end" baseline-shift="-5" font-family="Helvetica">800</text>
<text fill="#000000" x="244.601" y="312.783" font-size="10" text-anchor="end" baseline-shift="-5" font-family="Helvetica">1000</text>
<text fill="#000000" x="244.601" y="194.491" font-size="10" text-anchor="end" baseline-shift="-5" font-family="Helvetica">1200</text>
<text fill="#000000" x="244.601" y="76.2" font-size="10" text-anchor="end" baseline-shift="-5" font-family="Helvetica">1400</text>
<polygon fill="#00007f" points="408.669,903.649 399.542,904.24 399.542,903.649"/>
<polygon fill="#00007f" points="399.542,904.24 408.669,903.649 408.669,904.24"/>
<polygon fill="#00007f" points="602.604,894.185 593.476,904.24 593.476,894.185"/>
<polygon fill="#00007f" points="593.476,904.24 602.604,894.185 602.604,904.24"/>
<polygon fill="#00007f" points="648.235,822.027 639.109,904.24 639.109,822.027"/>
<polygon fill="#00007f" points="639.109,904.24 648.235,822.027 648.235,904.24"/>
<polygon fill="#00007f" points="705.276,709.651 696.149,904.24 696.149,709.651"/>
<polygon fill="#00007f" points="696.149,904.24 705.276,709.651 705.276,904.24"/>
<polygon fill="#00007f" points="750.908,529.256 741.78,904.24 741.78,529.256"/>
<polygon fill="#00007f" points="741.78,904.24 750.908,529.256 750.908,904.24"/>
<polygon fill="#00007f" points="796.54,344.721 787.414,904.24 787.414,344.721"/>
<polygon fill="#00007f" points="787.414,904.24 796.54,344.721 796.54,904.24"/>
<polygon fill="#00007f" points="853.581,214.601 844.453,904.24 844.453,214.601"/>
<polygon fill="#00007f" points="844.453,904.24 853.581,214.601 853.581,904.24"/>
<polygon fill="#00007f" points="899.213,148.358 890.087,904.24 890.087,148.358"/>
<polygon fill="#00007f" points="890.087,904.24 899.213,148.358 899.213,904.24"/>
<polygon fill="#00007f" points="944.844,528.665 935.718,904.24 935.718,528.665"/>
<polygon fill="#00007f" points="935.718,904.24 944.844,528.665 944.844,904.24"/>
<polygon fill="#00007f" points="1001.88,720.297 992.758,904.24 992.758,720.297"/>
<polygon fill="#00007f" points="992.758,904.24 1001.88,720.297 1001.88,904.24"/>
<polygon fill="#00007f" points="1047.52,813.156 1038.39,904.24 1038.39,813.156"/>
<polygon fill="#00007f" points="1038.39,904.24 1047.52,813.156 1047.52,904.24"/>
<polygon fill="#00007f" points="1093.15,866.387 1084.02,904.24 1084.02,866.387"/>
<polygon fill="#00007f" points="1084.02,904.24 1093.15,866.387 1093.15,904.24"/>
<polygon fill="#00007f" points="1150.19,897.734 1141.06,904.24 1141.06,897.734"/>
<polygon fill="#00007f" points="1141.06,904.24 1150.19,897.734 1150.19,904.24"/>
<polygon fill="#00007f" points="1195.82,897.734 1186.69,904.24 1186.69,897.734"/>
<polygon fill="#00007f" points="1186.69,904.24 1195.82,897.734 1195.82,904.24"/>
<polygon fill="#00007f" points="1241.45,897.142 1232.33,904.24 1232.33,897.142"/>
<polygon fill="#00007f" points="1232.33,904.24 1241.45,897.142 1241.45,904.24"/>
<polygon fill="#00007f" points="1298.49,888.271 1289.36,904.24 1289.36,888.271"/>
<polygon fill="#00007f" points="1289.36,904.24 1298.49,888.271 1298.49,904.24"/>
<polygon fill="#00007f" points="1344.12,899.508 1335,904.24 1335,899.508"/>
<polygon fill="#00007f" points="1335,904.24 1344.12,899.508 1344.12,904.24"/>
<polygon fill="#00007f" points="1389.76,899.508 1380.63,904.24 1380.63,899.508"/>
<polygon fill="#00007f" points="1380.63,904.24 1389.76,899.508 1389.76,904.24"/>
<polygon fill="#00007f" points="1446.8,891.228 1437.67,904.24 1437.67,891.228"/>
<polygon fill="#00007f" points="1437.67,904.24 1446.8,891.228 1446.8,904.24"/>
<polygon fill="#00007f" points="1492.43,900.691 1483.3,904.24 1483.3,900.691"/>
<polygon fill="#00007f" points="1483.3,904.24 1492.43,900.691 1492.43,904.24"/>
<polygon fill="#00007f" points="1538.06,898.325 1528.93,904.24 1528.93,898.325"/>
<polygon fill="#00007f" points="1528.93,904.24 1538.06,898.325 1538.06,904.24"/>
<polyline fill="none" stroke="#000000" stroke-width="0.5" points="408.669,904.24 399.542,904.24 399.542,903.649 408.669,903.649 408.669,904.24"/>
<polyline fill="none" stroke="#000000" stroke-width="0.5" points="602.604,904.24 593.476,904.24 593.476,894.185 602.604,894.185 602.604,904.24"/>
<polyline fill="none" stroke="#000000" stroke-width="0.5" points="648.235,904.24 639.109,904.24 639.109,822.027 648.235,822.027 648.235,904.24"/>
<polyline fill="none" stroke="#000000" stroke-width="0.5" points="705.276,904.24 696.149,904.24 696.149,709.651 705.276,709.651 705.276,904.24"/>
<polyline fill="none" stroke="#000000" stroke-width="0.5" points="750.908,904.24 741.78,904.24 741.78,529.256 750.908,529.256 750.908,904.24"/>
<polyline fill="none" stroke="#000000" stroke-width="0.5" points="796.54,904.24 787.414,904.24 787.414,344.721 796.54,344.721 796.54,904.24"/>
<polyline fill="none" stroke="#000000" stroke-width="0.5" points="853.581,904.24 844.453,904.24 844.453,214.601 853.581,214.601 853.581,904.24"/>
<polyline fill="none" stroke="#000000" stroke-width="0.5" points="899.213,904.24 890.087,904.24 890.087,148.358 899.213,148.358 899.213,904.24"/>
<polyline fill="none" stroke="#000000" stroke-width="0.5" points="944.844,904.24 935.718,904.24 935.718,528.665 944.844,528.665 944.844,904.24"/>
<polyline fill="none" stroke="#000000" stroke-width="0.5" points="1001.88,904.24 992.758,904.24 992.758,720.297 1001.88,720.297 1001.88,904.24"/>
<polyline fill="none" stroke="#000000" stroke-width="0.5" points="1047.52,904.24 1038.39,904.24 1038.39,813.156 1047.52,813.156 1047.52,904.24"/>
<polyline fill="none" stroke="#000000" stroke-width="0.5" points="1093.15,904.24 1084.02,904.24 1084.02,866.387 1093.15,866.387 1093.15,904.24"/>
<polyline fill="none" stroke="#000000" stroke-width="0.5" points="1150.19,904.24 1141.06,904.24 1141.06,897.734 1150.19,897.734 1150.19,904.24"/>
<polyline fill="none" stroke="#000000" stroke-width="0.5" points="1195.82,904.24 1186.69,904.24 1186.69,897.734 1195.82,897.734 1195.82,904.24"/>
<polyline fill="none" stroke="#000000" stroke-width="0.5" points="1241.45,904.24 1232.33,904.24 1232.33,897.142 1241.45,897.142 1241.45,904.24"/>
<polyline fill="none" stroke="#000000" stroke-width="0.5" points="1298.49,904.24 1289.36,904.24 1289.36,888.271 1298.49,888.271 1298.49,904.24"/>
<polyline fill="none" stroke="#000000" stroke-width="0.5" points="1344.12,904.24 1335,904.24 1335,899.508 1344.12,899.508 1344.12,904.24"/>
<polyline fill="none" stroke="#000000" stroke-width="0.5" points="1389.76,904.24 1380.63,904.24 1380.63,899.508 1389.76,899.508 1389.76,904.24"/>
<polyline fill="none" stroke="#000000" stroke-width="0.5" points="1446.8,904.24 1437.67,904.24 1437.67,891.228 1446.8,891.228 1446.8,904.24"/>
<polyline fill="none" stroke="#000000" stroke-width="0.5" points="1492.43,904.24 1483.3,904.24 1483.3,900.691 1492.43,900.691 1492.43,904.24"/>
<polyline fill="none" stroke="#000000" stroke-width="0.5" points="1538.06,904.24 1528.93,904.24 1528.93,898.325 1538.06,898.325 1538.06,904.24"/>
<polyline fill="none" stroke="#000000" stroke-width="0.5" points="249.6,904.24 1737.6,904.24"/>
</g>
</svg>
