<?xml version="1.0" encoding="UTF-8" standalone="no"?>
<svg xmlns="http://www.w3.org/2000/svg"
     xmlns:xlink="http://www.w3.org/1999/xlink"
     width="1920px" height="1016px" viewBox="0 0 1920 1016">
<title>glps_renderer figure</title>
<desc>
Creator: GL2PS 1.3.8, (C) 1999-2012 C. Geuzaine
For: Octave
CreationDate: Sun Nov  2 17:26:48 2014
</desc>
<defs>
</defs>
<g shape-rendering="crispEdges">
<polygon fill="#ffffff" points="1737.6,904.24 1737.6,76.2001 1737.6,904.24"/>
<polygon fill="#ffffff" points="1737.6,76.2001 1737.6,76.2001 1737.6,904.24"/>
<polygon fill="#ffffff" points="249.6,76.2001 1737.6,76.2001 249.6,76.2001"/>
<polygon fill="#ffffff" points="1737.6,76.2001 1737.6,76.2001 249.6,76.2001"/>
<polygon fill="#ffffff" points="249.6,904.24 1737.6,904.24 249.6,76.2001"/>
<polygon fill="#ffffff" points="1737.6,904.24 1737.6,76.2001 249.6,76.2001"/>
<polyline fill="none" stroke="#000000" stroke-width="0.5" stroke-dasharray="16,0" points="249.6,904.24 1737.6,904.24"/>
<polyline fill="none" stroke="#000000" stroke-width="0.5" stroke-dasharray="16,0" points="249.6,76.2001 1737.6,76.2001"/>
<polyline fill="none" stroke="#000000" stroke-width="0.5" stroke-dasharray="16,0" points="249.6,76.2001 1737.6,76.2001"/>
<polyline fill="none" stroke="#000000" stroke-width="0.5" stroke-dasharray="16,0" points="249.6,904.24 1737.6,904.24"/>
<polyline fill="none" stroke="#000000" stroke-width="0.5" stroke-dasharray="16,0" points="249.6,904.24 249.6,76.2001"/>
<polyline fill="none" stroke="#000000" stroke-width="0.5" stroke-dasharray="16,0" points="1737.6,904.24 1737.6,76.2001"/>
<polyline fill="none" stroke="#000000" stroke-width="0.5" stroke-dasharray="16,0" points="1737.6,904.24 1737.6,76.2001"/>
<polyline fill="none" stroke="#000000" stroke-width="0.5" stroke-dasharray="16,0" points="249.6,904.24 249.6,76.2001 249.6,76.2001"/>
<polyline fill="none" stroke="#000000" stroke-width="0.5" stroke-dasharray="16,0" points="1737.6,76.2001 1737.6,76.2001"/>
<polyline fill="none" stroke="#000000" stroke-width="0.5" stroke-dasharray="16,0" points="1737.6,904.24 1737.6,904.24"/>
<polyline fill="none" stroke="#000000" stroke-width="0.5" stroke-dasharray="16,0" points="249.6,904.24 249.6,904.24 249.6,889.359"/>
<polyline fill="none" stroke="#000000" stroke-width="0.5" stroke-dasharray="16,0" points="249.6,76.2001 249.6,91.0807"/>
<polyline fill="none" stroke="#000000" stroke-width="0.5" stroke-dasharray="16,0" points="462.172,904.24 462.172,889.359"/>
<polyline fill="none" stroke="#000000" stroke-width="0.5" stroke-dasharray="16,0" points="462.172,76.2001 462.172,91.0807"/>
<polyline fill="none" stroke="#000000" stroke-width="0.5" stroke-dasharray="16,0" points="674.743,904.24 674.743,889.359"/>
<polyline fill="none" stroke="#000000" stroke-width="0.5" stroke-dasharray="16,0" points="674.743,76.2001 674.743,91.0807"/>
<polyline fill="none" stroke="#000000" stroke-width="0.5" stroke-dasharray="16,0" points="887.314,904.24 887.314,889.359"/>
<polyline fill="none" stroke="#000000" stroke-width="0.5" stroke-dasharray="16,0" points="887.314,76.2001 887.314,91.0807"/>
<polyline fill="none" stroke="#000000" stroke-width="0.5" stroke-dasharray="16,0" points="1099.89,904.24 1099.89,889.359"/>
<polyline fill="none" stroke="#000000" stroke-width="0.5" stroke-dasharray="16,0" points="1099.89,76.2001 1099.89,91.0807"/>
<polyline fill="none" stroke="#000000" stroke-width="0.5" stroke-dasharray="16,0" points="1312.46,904.24 1312.46,889.359"/>
<polyline fill="none" stroke="#000000" stroke-width="0.5" stroke-dasharray="16,0" points="1312.46,76.2001 1312.46,91.0807"/>
<polyline fill="none" stroke="#000000" stroke-width="0.5" stroke-dasharray="16,0" points="1525.03,904.24 1525.03,889.359"/>
<polyline fill="none" stroke="#000000" stroke-width="0.5" stroke-dasharray="16,0" points="1525.03,76.2001 1525.03,91.0807"/>
<polyline fill="none" stroke="#000000" stroke-width="0.5" stroke-dasharray="16,0" points="1737.6,904.24 1737.6,889.359"/>
<polyline fill="none" stroke="#000000" stroke-width="0.5" stroke-dasharray="16,0" points="1737.6,76.2001 1737.6,91.0807"/>
<text fill="#000000" x="249.6" y="909.24" font-size="10" text-anchor="middle" baseline-shift="-10" font-family="Helvetica">34</text>
<text fill="#000000" x="462.172" y="909.24" font-size="10" text-anchor="middle" baseline-shift="-10" font-family="Helvetica">34.5</text>
<text fill="#000000" x="674.743" y="909.24" font-size="10" text-anchor="middle" baseline-shift="-10" font-family="Helvetica">35</text>
<text fill="#000000" x="887.315" y="909.24" font-size="10" text-anchor="middle" baseline-shift="-10" font-family="Helvetica">35.5</text>
<text fill="#000000" x="1099.89" y="909.24" font-size="10" text-anchor="middle" baseline-shift="-10" font-family="Helvetica">36</text>
<text fill="#000000" x="1312.46" y="909.24" font-size="10" text-anchor="middle" baseline-shift="-10" font-family="Helvetica">36.5</text>
<text fill="#000000" x="1525.03" y="909.24" font-size="10" text-anchor="middle" baseline-shift="-10" font-family="Helvetica">37</text>
<text fill="#000000" x="1737.6" y="909.24" font-size="10" text-anchor="middle" baseline-shift="-10" font-family="Helvetica">37.5</text>
<polyline fill="none" stroke="#000000" stroke-width="0.5" stroke-dasharray="16,0" points="249.6,904.24 264.48,904.24"/>
<polyline fill="none" stroke="#000000" stroke-width="0.5" stroke-dasharray="16,0" points="1737.6,904.24 1722.72,904.24"/>
<polyline fill="none" stroke="#000000" stroke-width="0.5" stroke-dasharray="16,0" points="249.6,738.632 264.48,738.632"/>
<polyline fill="none" stroke="#000000" stroke-width="0.5" stroke-dasharray="16,0" points="1737.6,738.632 1722.72,738.632"/>
<polyline fill="none" stroke="#000000" stroke-width="0.5" stroke-dasharray="16,0" points="249.6,573.024 264.48,573.024"/>
<polyline fill="none" stroke="#000000" stroke-width="0.5" stroke-dasharray="16,0" points="1737.6,573.024 1722.72,573.024"/>
<polyline fill="none" stroke="#000000" stroke-width="0.5" stroke-dasharray="16,0" points="249.6,407.416 264.48,407.416"/>
<polyline fill="none" stroke="#000000" stroke-width="0.5" stroke-dasharray="16,0" points="1737.6,407.416 1722.72,407.416"/>
<polyline fill="none" stroke="#000000" stroke-width="0.5" stroke-dasharray="16,0" points="249.6,241.808 264.48,241.808"/>
<polyline fill="none" stroke="#000000" stroke-width="0.5" stroke-dasharray="16,0" points="1737.6,241.808 1722.72,241.808"/>
<polyline fill="none" stroke="#000000" stroke-width="0.5" stroke-dasharray="16,0" points="249.6,76.2001 264.48,76.2001"/>
<polyline fill="none" stroke="#000000" stroke-width="0.5" stroke-dasharray="16,0" points="1737.6,76.2001 1722.72,76.2001"/>
<text fill="#000000" x="244.601" y="904.24" font-size="10" text-anchor="end" baseline-shift="-5" font-family="Helvetica">0</text>
<text fill="#000000" x="244.601" y="738.632" font-size="10" text-anchor="end" baseline-shift="-5" font-family="Helvetica">1000</text>
<text fill="#000000" x="244.601" y="573.024" font-size="10" text-anchor="end" baseline-shift="-5" font-family="Helvetica">2000</text>
<text fill="#000000" x="244.601" y="407.416" font-size="10" text-anchor="end" baseline-shift="-5" font-family="Helvetica">3000</text>
<text fill="#000000" x="244.601" y="241.808" font-size="10" text-anchor="end" baseline-shift="-5" font-family="Helvetica">4000</text>
<text fill="#000000" x="244.601" y="76.2" font-size="10" text-anchor="end" baseline-shift="-5" font-family="Helvetica">5000</text>
<polygon fill="#00007f" points="431.518,904.074 420.975,904.24 420.975,904.074"/>
<polygon fill="#00007f" points="420.975,904.24 431.518,904.074 431.518,904.24"/>
<polygon fill="#00007f" points="510.595,903.578 500.052,904.24 500.052,903.578"/>
<polygon fill="#00007f" points="500.052,904.24 510.595,903.578 510.595,904.24"/>
<polygon fill="#00007f" points="550.134,897.45 539.589,904.24 539.589,897.45"/>
<polygon fill="#00007f" points="539.589,904.24 550.134,897.45 550.134,904.24"/>
<polygon fill="#00007f" points="589.672,854.226 579.129,904.24 579.129,854.226"/>
<polygon fill="#00007f" points="579.129,904.24 589.672,854.226 589.672,904.24"/>
<polygon fill="#00007f" points="642.39,822.264 631.847,904.24 631.847,822.264"/>
<polygon fill="#00007f" points="631.847,904.24 642.39,822.264 642.39,904.24"/>
<polygon fill="#00007f" points="681.928,767.945 671.385,904.24 671.385,767.945"/>
<polygon fill="#00007f" points="671.385,904.24 681.928,767.945 681.928,904.24"/>
<polygon fill="#00007f" points="721.467,135.488 710.922,904.24 710.922,135.488"/>
<polygon fill="#00007f" points="710.922,904.24 721.467,135.488 721.467,904.24"/>
<polygon fill="#00007f" points="761.005,856.048 750.461,904.24 750.461,856.048"/>
<polygon fill="#00007f" points="750.461,904.24 761.005,856.048 761.005,904.24"/>
<polygon fill="#00007f" points="813.723,874.431 803.179,904.24 803.179,874.431"/>
<polygon fill="#00007f" points="803.179,904.24 813.723,874.431 813.723,904.24"/>
<polygon fill="#00007f" points="853.26,888.176 842.716,904.24 842.716,888.176"/>
<polygon fill="#00007f" points="842.716,904.24 853.26,888.176 853.26,904.24"/>
<polygon fill="#00007f" points="892.799,896.291 882.254,904.24 882.254,896.291"/>
<polygon fill="#00007f" points="882.254,904.24 892.799,896.291 892.799,904.24"/>
<polygon fill="#00007f" points="932.337,900.431 921.793,904.24 921.793,900.431"/>
<polygon fill="#00007f" points="921.793,904.24 932.337,900.431 932.337,904.24"/>
<polygon fill="#00007f" points="971.874,902.253 961.331,904.24 961.331,902.253"/>
<polygon fill="#00007f" points="961.331,904.24 971.874,902.253 971.874,904.24"/>
<polygon fill="#00007f" points="1024.59,902.087 1014.05,904.24 1014.05,902.087"/>
<polygon fill="#00007f" points="1014.05,904.24 1024.59,902.087 1024.59,904.24"/>
<polygon fill="#00007f" points="1064.13,902.75 1053.59,904.24 1053.59,902.75"/>
<polygon fill="#00007f" points="1053.59,904.24 1064.13,902.75 1064.13,904.24"/>
<polygon fill="#00007f" points="1103.67,903.246 1093.13,904.24 1093.13,903.246"/>
<polygon fill="#00007f" points="1093.13,904.24 1103.67,903.246 1103.67,904.24"/>
<polygon fill="#00007f" points="1143.21,903.578 1132.66,904.24 1132.66,903.578"/>
<polygon fill="#00007f" points="1132.66,904.24 1143.21,903.578 1143.21,904.24"/>
<polygon fill="#00007f" points="1195.93,901.922 1185.38,904.24 1185.38,901.922"/>
<polygon fill="#00007f" points="1185.38,904.24 1195.93,901.922 1195.93,904.24"/>
<polygon fill="#00007f" points="1235.46,903.412 1224.92,904.24 1224.92,903.412"/>
<polygon fill="#00007f" points="1224.92,904.24 1235.46,903.412 1235.46,904.24"/>
<polygon fill="#00007f" points="1275,903.909 1264.46,904.24 1264.46,903.909"/>
<polygon fill="#00007f" points="1264.46,904.24 1275,903.909 1275,904.24"/>
<polygon fill="#00007f" points="1314.54,903.909 1304,904.24 1304,903.909"/>
<polygon fill="#00007f" points="1304,904.24 1314.54,903.909 1314.54,904.24"/>
<polygon fill="#00007f" points="1354.08,903.412 1343.54,904.24 1343.54,903.412"/>
<polygon fill="#00007f" points="1343.54,904.24 1354.08,903.412 1354.08,904.24"/>
<polygon fill="#00007f" points="1406.8,903.743 1396.25,904.24 1396.25,903.743"/>
<polygon fill="#00007f" points="1396.25,904.24 1406.8,903.743 1406.8,904.24"/>
<polygon fill="#00007f" points="1446.33,903.743 1435.79,904.24 1435.79,903.743"/>
<polygon fill="#00007f" points="1435.79,904.24 1446.33,903.743 1446.33,904.24"/>
<polygon fill="#00007f" points="1485.87,903.412 1475.33,904.24 1475.33,903.412"/>
<polygon fill="#00007f" points="1475.33,904.24 1485.87,903.412 1485.87,904.24"/>
<polygon fill="#00007f" points="1525.41,903.578 1514.87,904.24 1514.87,903.578"/>
<polygon fill="#00007f" points="1514.87,904.24 1525.41,903.578 1525.41,904.24"/>
<polygon fill="#00007f" points="1578.13,903.578 1567.59,904.24 1567.59,903.578"/>
<polygon fill="#00007f" points="1567.59,904.24 1578.13,903.578 1578.13,904.24"/>
<polygon fill="#00007f" points="1617.67,903.578 1607.12,904.24 1607.12,903.578"/>
<polygon fill="#00007f" points="1607.12,904.24 1617.67,903.578 1617.67,904.24"/>
<polygon fill="#00007f" points="1657.21,903.081 1646.66,904.24 1646.66,903.081"/>
<polygon fill="#00007f" points="1646.66,904.24 1657.21,903.081 1657.21,904.24"/>
<polygon fill="#00007f" points="1696.74,901.922 1686.2,904.24 1686.2,901.922"/>
<polygon fill="#00007f" points="1686.2,904.24 1696.74,901.922 1696.74,904.24"/>
<polygon fill="#00007f" points="1736.28,902.584 1725.74,904.24 1725.74,902.584"/>
<polygon fill="#00007f" points="1725.74,904.24 1736.28,902.584 1736.28,904.24"/>
<polyline fill="none" stroke="#000000" stroke-width="0.5" points="431.518,904.24 420.975,904.24 420.975,904.074 431.518,904.074 431.518,904.24"/>
<polyline fill="none" stroke="#000000" stroke-width="0.5" points="510.595,904.24 500.052,904.24 500.052,903.578 510.595,903.578 510.595,904.24"/>
<polyline fill="none" stroke="#000000" stroke-width="0.5" points="550.134,904.24 539.589,904.24 539.589,897.45 550.134,897.45 550.134,904.24"/>
<polyline fill="none" stroke="#000000" stroke-width="0.5" points="589.672,904.24 579.129,904.24 579.129,854.226 589.672,854.226 589.672,904.24"/>
<polyline fill="none" stroke="#000000" stroke-width="0.5" points="642.39,904.24 631.847,904.24 631.847,822.264 642.39,822.264 642.39,904.24"/>
<polyline fill="none" stroke="#000000" stroke-width="0.5" points="681.928,904.24 671.385,904.24 671.385,767.945 681.928,767.945 681.928,904.24"/>
<polyline fill="none" stroke="#000000" stroke-width="0.5" points="721.467,904.24 710.922,904.24 710.922,135.488 721.467,135.488 721.467,904.24"/>
<polyline fill="none" stroke="#000000" stroke-width="0.5" points="761.005,904.24 750.461,904.24 750.461,856.048 761.005,856.048 761.005,904.24"/>
<polyline fill="none" stroke="#000000" stroke-width="0.5" points="813.723,904.24 803.179,904.24 803.179,874.431 813.723,874.431 813.723,904.24"/>
<polyline fill="none" stroke="#000000" stroke-width="0.5" points="853.26,904.24 842.716,904.24 842.716,888.176 853.26,888.176 853.26,904.24"/>
<polyline fill="none" stroke="#000000" stroke-width="0.5" points="892.799,904.24 882.254,904.24 882.254,896.291 892.799,896.291 892.799,904.24"/>
<polyline fill="none" stroke="#000000" stroke-width="0.5" points="932.337,904.24 921.793,904.24 921.793,900.431 932.337,900.431 932.337,904.24"/>
<polyline fill="none" stroke="#000000" stroke-width="0.5" points="971.874,904.24 961.331,904.24 961.331,902.253 971.874,902.253 971.874,904.24"/>
<polyline fill="none" stroke="#000000" stroke-width="0.5" points="1024.59,904.24 1014.05,904.24 1014.05,902.087 1024.59,902.087 1024.59,904.24"/>
<polyline fill="none" stroke="#000000" stroke-width="0.5" points="1064.13,904.24 1053.59,904.24 1053.59,902.75 1064.13,902.75 1064.13,904.24"/>
<polyline fill="none" stroke="#000000" stroke-width="0.5" points="1103.67,904.24 1093.13,904.24 1093.13,903.246 1103.67,903.246 1103.67,904.24"/>
<polyline fill="none" stroke="#000000" stroke-width="0.5" points="1143.21,904.24 1132.66,904.24 1132.66,903.578 1143.21,903.578 1143.21,904.24"/>
<polyline fill="none" stroke="#000000" stroke-width="0.5" points="1195.93,904.24 1185.38,904.24 1185.38,901.922 1195.93,901.922 1195.93,904.24"/>
<polyline fill="none" stroke="#000000" stroke-width="0.5" points="1235.46,904.24 1224.92,904.24 1224.92,903.412 1235.46,903.412 1235.46,904.24"/>
<polyline fill="none" stroke="#000000" stroke-width="0.5" points="1275,904.24 1264.46,904.24 1264.46,903.909 1275,903.909 1275,904.24"/>
<polyline fill="none" stroke="#000000" stroke-width="0.5" points="1314.54,904.24 1304,904.24 1304,903.909 1314.54,903.909 1314.54,904.24"/>
<polyline fill="none" stroke="#000000" stroke-width="0.5" points="1354.08,904.24 1343.54,904.24 1343.54,903.412 1354.08,903.412 1354.08,904.24"/>
<polyline fill="none" stroke="#000000" stroke-width="0.5" points="1406.8,904.24 1396.25,904.24 1396.25,903.743 1406.8,903.743 1406.8,904.24"/>
<polyline fill="none" stroke="#000000" stroke-width="0.5" points="1446.33,904.24 1435.79,904.24 1435.79,903.743 1446.33,903.743 1446.33,904.24"/>
<polyline fill="none" stroke="#000000" stroke-width="0.5" points="1485.87,904.24 1475.33,904.24 1475.33,903.412 1485.87,903.412 1485.87,904.24"/>
<polyline fill="none" stroke="#000000" stroke-width="0.5" points="1525.41,904.24 1514.87,904.24 1514.87,903.578 1525.41,903.578 1525.41,904.24"/>
<polyline fill="none" stroke="#000000" stroke-width="0.5" points="1578.13,904.24 1567.59,904.24 1567.59,903.578 1578.13,903.578 1578.13,904.24"/>
<polyline fill="none" stroke="#000000" stroke-width="0.5" points="1617.67,904.24 1607.12,904.24 1607.12,903.578 1617.67,903.578 1617.67,904.24"/>
<polyline fill="none" stroke="#000000" stroke-width="0.5" points="1657.21,904.24 1646.66,904.24 1646.66,903.081 1657.21,903.081 1657.21,904.24"/>
<polyline fill="none" stroke="#000000" stroke-width="0.5" points="1696.74,904.24 1686.2,904.24 1686.2,901.922 1696.74,901.922 1696.74,904.24"/>
<polyline fill="none" stroke="#000000" stroke-width="0.5" points="1736.28,904.24 1725.74,904.24 1725.74,902.584 1736.28,902.584 1736.28,904.24"/>
<polyline fill="none" stroke="#000000" stroke-width="0.5" points="249.6,904.24 1737.6,904.24"/>
</g>
</svg>
